<svg width="500" height="500" viewBox="0 0 500 500" fill="none" xmlns="http://www.w3.org/2000/svg">
<path d="M454.91 233.54C454.91 233.54 468.57 201.25 456.15 150.33C443.73 99.4099 386.61 96.9199 338.15 90.7199C289.69 84.5199 286 53.4599 233.85 49.7299C181.7 45.9999 137 78.2999 128.29 111.83C119.58 145.36 129.53 162.75 92.2902 188.83C55.0502 214.91 19.0002 237.26 33.9002 285.7C48.8002 334.14 86.0602 334.13 92.2702 366.42C98.4802 398.71 141.95 438.42 192.87 454.6C243.79 470.78 278.56 426 325.75 428.52C372.94 431.04 417.66 427.27 440.01 391.26C462.36 355.25 430.07 320.47 436.28 295.63C442.49 270.79 450 257.13 454.91 233.54Z" fill="#FC5B11"/>
<path opacity="0.7" d="M454.91 233.54C454.91 233.54 468.57 201.25 456.15 150.33C443.73 99.4099 386.61 96.9199 338.15 90.7199C289.69 84.5199 286 53.4599 233.85 49.7299C181.7 45.9999 137 78.2999 128.29 111.83C119.58 145.36 129.53 162.75 92.2902 188.83C55.0502 214.91 19.0002 237.26 33.9002 285.7C48.8002 334.14 86.0602 334.13 92.2702 366.42C98.4802 398.71 141.95 438.42 192.87 454.6C243.79 470.78 278.56 426 325.75 428.52C372.94 431.04 417.66 427.27 440.01 391.26C462.36 355.25 430.07 320.47 436.28 295.63C442.49 270.79 450 257.13 454.91 233.54Z" fill="white"/>
<path d="M439.999 391.26C449.999 375.11 449.059 359.26 445.509 344.36C443.679 344.22 441.649 344.12 439.329 344.12C424.499 344.12 421.009 369.43 412.329 370.3C403.649 371.17 390.519 357.21 375.689 357.21C360.859 357.21 341.689 417.41 334.689 421.78C327.689 426.15 322.469 418.29 307.639 412.18C292.809 406.07 273.639 425.27 256.159 431.37C238.679 437.47 219.519 427.01 213.409 415.67C207.299 404.33 193.339 371.17 181.129 372.04C168.919 372.91 156.699 381.64 149.719 373.79C142.739 365.94 119.179 302.24 110.459 301.37C104.769 300.8 78.6595 316.57 61.1895 327.6C74.9995 340 88.7195 348 92.2695 366.42C98.4795 398.71 141.949 438.42 192.869 454.6C243.789 470.78 278.559 426 325.749 428.52C372.939 431.04 417.659 427.27 439.999 391.26Z" fill="#FC5B11"/>
<path opacity="0.5" d="M439.999 391.26C449.999 375.11 449.059 359.26 445.509 344.36C443.679 344.22 441.649 344.12 439.329 344.12C424.499 344.12 421.009 369.43 412.329 370.3C403.649 371.17 390.519 357.21 375.689 357.21C360.859 357.21 341.689 417.41 334.689 421.78C327.689 426.15 322.469 418.29 307.639 412.18C292.809 406.07 273.639 425.27 256.159 431.37C238.679 437.47 219.519 427.01 213.409 415.67C207.299 404.33 193.339 371.17 181.129 372.04C168.919 372.91 156.699 381.64 149.719 373.79C142.739 365.94 119.179 302.24 110.459 301.37C104.769 300.8 78.6595 316.57 61.1895 327.6C74.9995 340 88.7195 348 92.2695 366.42C98.4795 398.71 141.949 438.42 192.869 454.6C243.789 470.78 278.559 426 325.749 428.52C372.939 431.04 417.659 427.27 439.999 391.26Z" fill="white"/>
<path d="M405.65 217.8C404.748 217.798 403.865 218.064 403.114 218.564C402.363 219.064 401.777 219.775 401.43 220.608C401.083 221.441 400.992 222.358 401.166 223.244C401.341 224.129 401.775 224.942 402.412 225.581C403.049 226.22 403.862 226.655 404.747 226.832C405.632 227.008 406.549 226.919 407.383 226.574C408.217 226.229 408.929 225.645 409.431 224.894C409.932 224.144 410.2 223.262 410.2 222.36C410.2 221.152 409.721 219.994 408.868 219.139C408.015 218.284 406.858 217.803 405.65 217.8Z" fill="#FC5B11"/>
<path d="M367.36 222.77C366.909 222.768 366.467 222.9 366.091 223.149C365.715 223.399 365.421 223.754 365.247 224.171C365.073 224.587 365.026 225.046 365.113 225.489C365.2 225.932 365.416 226.339 365.735 226.659C366.053 226.979 366.459 227.197 366.902 227.285C367.344 227.374 367.803 227.33 368.22 227.157C368.638 226.985 368.994 226.693 369.245 226.318C369.496 225.943 369.63 225.501 369.63 225.05C369.63 224.447 369.391 223.869 368.966 223.441C368.541 223.014 367.963 222.773 367.36 222.77Z" fill="#FC5B11"/>
<path d="M414.14 180.75C413.688 180.748 413.246 180.88 412.87 181.129C412.494 181.379 412.2 181.734 412.026 182.151C411.852 182.567 411.805 183.026 411.892 183.469C411.979 183.912 412.195 184.319 412.514 184.639C412.832 184.959 413.239 185.177 413.681 185.265C414.124 185.354 414.583 185.31 415 185.137C415.417 184.965 415.774 184.673 416.025 184.298C416.276 183.923 416.41 183.481 416.41 183.03C416.41 182.427 416.171 181.849 415.745 181.421C415.32 180.994 414.743 180.753 414.14 180.75Z" fill="#FC5B11"/>
<path d="M441.669 219.05C441.217 219.048 440.775 219.18 440.398 219.43C440.022 219.68 439.728 220.036 439.554 220.453C439.381 220.87 439.335 221.329 439.422 221.772C439.51 222.216 439.727 222.623 440.047 222.942C440.366 223.262 440.773 223.479 441.217 223.567C441.66 223.654 442.119 223.608 442.536 223.435C442.953 223.261 443.309 222.967 443.559 222.591C443.809 222.214 443.941 221.772 443.939 221.32C443.936 220.719 443.696 220.143 443.271 219.718C442.846 219.293 442.27 219.053 441.669 219.05Z" fill="#FC5B11"/>
<path d="M372.549 273.86C371.778 274.323 371.162 275.004 370.778 275.817C370.394 276.631 370.259 277.539 370.391 278.429C370.523 279.318 370.916 280.149 371.52 280.816C372.123 281.482 372.911 281.955 373.783 282.174C374.656 282.393 375.573 282.349 376.42 282.047C377.267 281.744 378.006 281.198 378.543 280.477C379.079 279.755 379.39 278.89 379.436 277.992C379.482 277.094 379.26 276.203 378.799 275.43C378.493 274.916 378.088 274.467 377.607 274.11C377.127 273.753 376.581 273.494 376 273.348C375.42 273.202 374.816 273.172 374.224 273.26C373.632 273.348 373.063 273.552 372.549 273.86Z" fill="#FC5B11"/>
<path d="M351.739 244.35C351.355 244.581 351.048 244.922 350.857 245.328C350.666 245.733 350.599 246.187 350.666 246.631C350.732 247.074 350.928 247.488 351.23 247.82C351.532 248.152 351.925 248.388 352.36 248.497C352.795 248.605 353.253 248.583 353.675 248.432C354.098 248.281 354.466 248.008 354.733 247.647C355.001 247.287 355.155 246.856 355.178 246.408C355.2 245.96 355.089 245.515 354.859 245.13C354.548 244.614 354.045 244.242 353.46 244.096C352.876 243.95 352.257 244.041 351.739 244.35Z" fill="#FC5B11"/>
<path d="M411.819 262.89C411.435 263.122 411.128 263.462 410.937 263.868C410.746 264.273 410.679 264.727 410.746 265.171C410.812 265.614 411.009 266.028 411.31 266.36C411.612 266.693 412.005 266.928 412.44 267.037C412.875 267.145 413.333 267.123 413.755 266.972C414.178 266.821 414.546 266.548 414.813 266.187C415.081 265.827 415.235 265.396 415.258 264.948C415.28 264.5 415.169 264.055 414.939 263.67C414.786 263.414 414.584 263.19 414.344 263.012C414.104 262.834 413.831 262.705 413.541 262.632C413.251 262.56 412.95 262.545 412.655 262.589C412.359 262.634 412.075 262.736 411.819 262.89Z" fill="#FC5B11"/>
<path d="M393.12 306.18C392.732 306.411 392.422 306.752 392.228 307.16C392.035 307.568 391.966 308.024 392.032 308.471C392.098 308.917 392.295 309.334 392.598 309.669C392.901 310.003 393.297 310.24 393.735 310.35C394.173 310.459 394.633 310.436 395.058 310.284C395.483 310.131 395.853 309.856 396.122 309.493C396.39 309.13 396.544 308.695 396.565 308.244C396.586 307.793 396.473 307.346 396.24 306.96C395.928 306.444 395.425 306.072 394.841 305.926C394.256 305.78 393.637 305.871 393.12 306.18Z" fill="#FC5B11"/>
<path d="M113.799 231.88C113.028 232.343 112.412 233.024 112.028 233.837C111.644 234.65 111.509 235.559 111.641 236.449C111.773 237.338 112.166 238.169 112.77 238.835C113.373 239.502 114.161 239.974 115.033 240.194C115.906 240.413 116.823 240.368 117.67 240.066C118.517 239.764 119.256 239.218 119.793 238.496C120.329 237.775 120.64 236.91 120.686 236.012C120.732 235.114 120.51 234.222 120.049 233.45C119.428 232.414 118.421 231.666 117.249 231.372C116.077 231.077 114.837 231.26 113.799 231.88Z" fill="#FC5B11"/>
<path d="M92.9993 202.36C92.6112 202.59 92.3001 202.931 92.1056 203.338C91.911 203.745 91.8417 204.201 91.9063 204.647C91.971 205.094 92.1668 205.512 92.4688 205.847C92.7709 206.182 93.1657 206.42 93.6032 206.531C94.0407 206.642 94.5012 206.62 94.9264 206.469C95.3517 206.318 95.7225 206.044 95.9919 205.682C96.2613 205.32 96.4173 204.886 96.4399 204.435C96.4626 203.985 96.351 203.537 96.1193 203.15C95.8077 202.634 95.3055 202.262 94.7215 202.114C94.1374 201.967 93.5187 202.055 92.9993 202.36Z" fill="#FC5B11"/>
<path d="M153.07 220.9C152.681 221.13 152.37 221.471 152.176 221.878C151.981 222.285 151.912 222.741 151.977 223.188C152.041 223.634 152.237 224.052 152.539 224.387C152.841 224.722 153.236 224.96 153.673 225.071C154.111 225.182 154.571 225.16 154.997 225.009C155.422 224.858 155.793 224.584 156.062 224.222C156.332 223.86 156.488 223.426 156.51 222.975C156.533 222.525 156.421 222.077 156.19 221.69C155.88 221.172 155.378 220.799 154.793 220.651C154.208 220.503 153.588 220.592 153.07 220.9Z" fill="#FC5B11"/>
<path d="M134.359 264.2C133.976 264.432 133.67 264.773 133.481 265.179C133.291 265.585 133.226 266.038 133.293 266.481C133.361 266.924 133.558 267.337 133.859 267.668C134.161 268 134.554 268.234 134.989 268.342C135.423 268.451 135.88 268.428 136.302 268.277C136.724 268.126 137.092 267.854 137.359 267.494C137.627 267.135 137.782 266.704 137.805 266.257C137.828 265.809 137.718 265.365 137.489 264.98C137.335 264.723 137.131 264.499 136.891 264.321C136.65 264.143 136.376 264.014 136.085 263.941C135.795 263.869 135.493 263.854 135.196 263.899C134.9 263.943 134.616 264.045 134.359 264.2Z" fill="#FC5B11"/>
<path d="M71.36 273.72C70.589 274.183 69.9725 274.864 69.5883 275.677C69.2042 276.49 69.0696 277.399 69.2016 278.289C69.3337 279.178 69.7263 280.009 70.3301 280.675C70.9339 281.342 71.7216 281.815 72.5938 282.034C73.4661 282.253 74.3837 282.209 75.2307 281.906C76.0778 281.604 76.8164 281.058 77.3531 280.336C77.8899 279.615 78.2007 278.75 78.2465 277.852C78.2922 276.954 78.0707 276.062 77.61 275.29C77.3034 274.776 76.8983 274.327 76.4179 273.97C75.9376 273.613 75.3915 273.354 74.8109 273.208C74.2303 273.062 73.6266 273.032 73.0344 273.12C72.4423 273.208 71.8733 273.412 71.36 273.72Z" fill="#FC5B11"/>
<path d="M50.5498 244.21C50.1655 244.441 49.8584 244.782 49.6674 245.187C49.4763 245.593 49.4098 246.047 49.4762 246.49C49.5426 246.934 49.739 247.348 50.0406 247.68C50.3422 248.012 50.7354 248.248 51.1706 248.356C51.6058 248.465 52.0635 248.443 52.4859 248.292C52.9083 248.14 53.2765 247.868 53.5439 247.507C53.8113 247.147 53.9659 246.716 53.9883 246.268C54.0107 245.82 53.8999 245.375 53.6698 244.99C53.5165 244.733 53.3141 244.51 53.0742 244.332C52.8343 244.153 52.5616 244.025 52.2717 243.952C51.9819 243.88 51.6805 243.865 51.3851 243.909C51.0896 243.954 50.8057 244.056 50.5498 244.21Z" fill="#FC5B11"/>
<path d="M110.63 262.75C110.247 262.983 109.942 263.323 109.752 263.729C109.563 264.135 109.498 264.588 109.565 265.031C109.632 265.474 109.829 265.887 110.131 266.218C110.432 266.55 110.825 266.784 111.26 266.893C111.695 267.001 112.152 266.978 112.574 266.827C112.996 266.676 113.363 266.404 113.631 266.044C113.898 265.685 114.053 265.254 114.076 264.807C114.099 264.359 113.989 263.915 113.76 263.53C113.607 263.272 113.404 263.047 113.163 262.868C112.923 262.689 112.649 262.56 112.358 262.487C112.067 262.415 111.764 262.401 111.468 262.446C111.171 262.491 110.887 262.594 110.63 262.75Z" fill="#FC5B11"/>
<path d="M91.9304 306C91.5427 306.231 91.2323 306.573 91.0387 306.98C90.8451 307.388 90.7769 307.844 90.8428 308.291C90.9086 308.738 91.1056 309.155 91.4087 309.489C91.7118 309.824 92.1074 310.061 92.5454 310.17C92.9833 310.28 93.444 310.257 93.8688 310.104C94.2937 309.952 94.6638 309.676 94.9321 309.313C95.2003 308.95 95.3548 308.516 95.3759 308.065C95.3969 307.614 95.2837 307.167 95.0504 306.78C94.739 306.264 94.236 305.892 93.6513 305.746C93.0667 305.6 92.448 305.691 91.9304 306Z" fill="#FC5B11"/>
<path d="M174.389 69.6999C173.58 70.0942 172.905 70.7198 172.452 71.4974C171.998 72.275 171.786 73.1697 171.841 74.0683C171.896 74.9668 172.216 75.8288 172.761 76.5452C173.306 77.2617 174.052 77.8003 174.903 78.0929C175.754 78.3856 176.673 78.4191 177.544 78.1893C178.414 77.9594 179.197 77.4766 179.793 76.8018C180.388 76.127 180.771 75.2906 180.891 74.3984C181.012 73.5063 180.865 72.5985 180.469 71.7899C179.937 70.7091 178.999 69.8827 177.86 69.4911C176.721 69.0995 175.473 69.1746 174.389 69.6999Z" fill="#FC5B11"/>
<path d="M208.619 52.53C208.212 52.726 207.873 53.0391 207.645 53.4291C207.416 53.8191 207.31 54.2684 207.339 54.7193C207.367 55.1702 207.53 55.6023 207.806 55.9603C208.081 56.3183 208.457 56.5858 208.886 56.7287C209.315 56.8716 209.776 56.8833 210.212 56.7623C210.647 56.6414 211.036 56.3932 211.33 56.0497C211.623 55.7062 211.808 55.2829 211.859 54.834C211.911 54.3851 211.827 53.9311 211.619 53.53C211.347 53.0059 210.882 52.6084 210.322 52.4217C209.762 52.235 209.151 52.2738 208.619 52.53Z" fill="#FC5B11"/>
<path d="M184.999 100.87C184.477 101.144 184.081 101.609 183.894 102.168C183.708 102.728 183.745 103.338 183.999 103.87C184.194 104.28 184.508 104.623 184.9 104.854C185.292 105.085 185.743 105.193 186.197 105.165C186.651 105.137 187.086 104.974 187.447 104.697C187.807 104.42 188.077 104.042 188.22 103.61C188.364 103.179 188.376 102.715 188.253 102.277C188.131 101.839 187.881 101.447 187.535 101.153C187.188 100.858 186.762 100.674 186.31 100.623C185.858 100.573 185.402 100.659 184.999 100.87Z" fill="#FC5B11"/>
<path d="M143.47 88.4699C143.066 88.6721 142.732 88.9898 142.508 89.3827C142.285 89.7755 142.184 90.2258 142.217 90.6764C142.25 91.127 142.417 91.5576 142.695 91.9135C142.973 92.2694 143.351 92.5345 143.781 92.6753C144.21 92.816 144.671 92.8261 145.106 92.7041C145.542 92.5821 145.931 92.3336 146.224 91.9902C146.518 91.6467 146.703 91.2238 146.755 90.7751C146.808 90.3264 146.726 89.8721 146.521 89.4699C146.247 88.9348 145.772 88.5295 145.201 88.3422C144.63 88.155 144.008 88.2008 143.47 88.4699Z" fill="#FC5B11"/>
<path d="M380.07 127.81C379.286 127.367 378.389 127.167 377.491 127.235C376.593 127.303 375.736 127.635 375.027 128.19C374.318 128.746 373.79 129.499 373.51 130.354C373.229 131.21 373.209 132.13 373.451 132.997C373.693 133.864 374.188 134.639 374.871 135.226C375.554 135.812 376.396 136.182 377.29 136.289C378.184 136.397 379.09 136.237 379.893 135.829C380.696 135.422 381.359 134.785 381.8 134C382.388 132.949 382.535 131.708 382.211 130.548C381.887 129.389 381.118 128.404 380.07 127.81Z" fill="#FC5B11"/>
<path d="M344.29 113.31C343.899 113.09 343.451 112.991 343.004 113.025C342.557 113.059 342.13 113.224 341.777 113.501C341.423 113.777 341.16 114.152 341.02 114.579C340.88 115.005 340.869 115.463 340.989 115.895C341.109 116.327 341.354 116.714 341.694 117.007C342.033 117.3 342.452 117.486 342.897 117.541C343.343 117.596 343.794 117.518 344.195 117.317C344.596 117.115 344.928 116.8 345.15 116.41C345.299 116.15 345.395 115.864 345.432 115.567C345.47 115.27 345.448 114.969 345.368 114.68C345.288 114.392 345.151 114.122 344.966 113.887C344.781 113.652 344.551 113.456 344.29 113.31Z" fill="#FC5B11"/>
<path d="M397.501 105.36C397.11 105.14 396.662 105.041 396.215 105.075C395.768 105.109 395.341 105.274 394.988 105.551C394.634 105.828 394.371 106.202 394.231 106.629C394.091 107.055 394.08 107.513 394.2 107.945C394.32 108.377 394.565 108.764 394.905 109.057C395.244 109.35 395.663 109.536 396.108 109.591C396.553 109.646 397.005 109.568 397.406 109.367C397.807 109.165 398.139 108.85 398.361 108.46C398.51 108.2 398.606 107.914 398.643 107.617C398.681 107.32 398.659 107.019 398.579 106.73C398.499 106.442 398.362 106.172 398.177 105.937C397.992 105.702 397.762 105.506 397.501 105.36Z" fill="#FC5B11"/>
<path d="M408.579 150.57C408.971 150.793 409.421 150.895 409.871 150.862C410.322 150.829 410.752 150.664 411.108 150.386C411.464 150.109 411.73 149.732 411.871 149.303C412.013 148.875 412.024 148.414 411.903 147.979C411.782 147.544 411.535 147.154 411.193 146.86C410.851 146.565 410.429 146.379 409.981 146.325C409.533 146.27 409.079 146.35 408.676 146.554C408.274 146.758 407.94 147.077 407.719 147.47C407.426 147.996 407.352 148.616 407.513 149.197C407.674 149.777 408.057 150.27 408.579 150.57Z" fill="#FC5B11"/>
<g opacity="0.3">
<path d="M405.65 217.8C404.748 217.798 403.865 218.064 403.114 218.564C402.363 219.064 401.777 219.775 401.43 220.608C401.083 221.441 400.992 222.358 401.166 223.244C401.341 224.129 401.775 224.942 402.412 225.581C403.049 226.22 403.862 226.655 404.747 226.832C405.632 227.008 406.549 226.919 407.383 226.574C408.217 226.229 408.929 225.645 409.431 224.894C409.932 224.144 410.2 223.262 410.2 222.36C410.2 221.152 409.721 219.994 408.868 219.139C408.015 218.284 406.858 217.803 405.65 217.8Z" fill="white"/>
<path d="M367.36 222.77C366.909 222.768 366.467 222.9 366.091 223.149C365.715 223.399 365.421 223.754 365.247 224.171C365.073 224.587 365.026 225.046 365.113 225.489C365.2 225.932 365.416 226.339 365.735 226.659C366.053 226.979 366.459 227.197 366.902 227.285C367.344 227.374 367.803 227.33 368.22 227.157C368.638 226.985 368.994 226.693 369.245 226.318C369.496 225.943 369.63 225.501 369.63 225.05C369.63 224.447 369.391 223.869 368.966 223.441C368.541 223.014 367.963 222.773 367.36 222.77Z" fill="white"/>
<path d="M414.14 180.75C413.688 180.748 413.246 180.88 412.87 181.129C412.494 181.379 412.2 181.734 412.026 182.151C411.852 182.567 411.805 183.026 411.892 183.469C411.979 183.912 412.195 184.319 412.514 184.639C412.832 184.959 413.239 185.177 413.681 185.265C414.124 185.354 414.583 185.31 415 185.137C415.417 184.965 415.774 184.673 416.025 184.298C416.276 183.923 416.41 183.481 416.41 183.03C416.41 182.427 416.171 181.849 415.745 181.421C415.32 180.994 414.743 180.753 414.14 180.75Z" fill="white"/>
<path d="M441.669 219.05C441.217 219.048 440.775 219.18 440.398 219.43C440.022 219.68 439.728 220.036 439.554 220.453C439.381 220.87 439.335 221.329 439.422 221.772C439.51 222.216 439.727 222.623 440.047 222.942C440.366 223.262 440.773 223.479 441.217 223.567C441.66 223.654 442.119 223.608 442.536 223.435C442.953 223.261 443.309 222.967 443.559 222.591C443.809 222.214 443.941 221.772 443.939 221.32C443.936 220.719 443.696 220.143 443.271 219.718C442.846 219.293 442.27 219.053 441.669 219.05Z" fill="white"/>
<path d="M372.549 273.86C371.778 274.323 371.162 275.004 370.778 275.817C370.394 276.631 370.259 277.539 370.391 278.429C370.523 279.318 370.916 280.149 371.52 280.816C372.123 281.482 372.911 281.955 373.783 282.174C374.656 282.393 375.573 282.349 376.42 282.047C377.267 281.744 378.006 281.198 378.543 280.477C379.079 279.755 379.39 278.89 379.436 277.992C379.482 277.094 379.26 276.203 378.799 275.43C378.493 274.916 378.088 274.467 377.607 274.11C377.127 273.753 376.581 273.494 376 273.348C375.42 273.202 374.816 273.172 374.224 273.26C373.632 273.348 373.063 273.552 372.549 273.86Z" fill="white"/>
<path d="M351.739 244.35C351.355 244.581 351.048 244.922 350.857 245.328C350.666 245.733 350.599 246.187 350.666 246.631C350.732 247.074 350.928 247.488 351.23 247.82C351.532 248.152 351.925 248.388 352.36 248.497C352.795 248.605 353.253 248.583 353.675 248.432C354.098 248.281 354.466 248.008 354.733 247.647C355.001 247.287 355.155 246.856 355.178 246.408C355.2 245.96 355.089 245.515 354.859 245.13C354.548 244.614 354.045 244.242 353.46 244.096C352.876 243.95 352.257 244.041 351.739 244.35Z" fill="white"/>
<path d="M411.819 262.89C411.435 263.122 411.128 263.462 410.937 263.868C410.746 264.273 410.679 264.727 410.746 265.171C410.812 265.614 411.009 266.028 411.31 266.36C411.612 266.693 412.005 266.928 412.44 267.037C412.875 267.145 413.333 267.123 413.755 266.972C414.178 266.821 414.546 266.548 414.813 266.187C415.081 265.827 415.235 265.396 415.258 264.948C415.28 264.5 415.169 264.055 414.939 263.67C414.786 263.414 414.584 263.19 414.344 263.012C414.104 262.834 413.831 262.705 413.541 262.632C413.251 262.56 412.95 262.545 412.655 262.589C412.359 262.634 412.075 262.736 411.819 262.89Z" fill="white"/>
<path d="M393.12 306.18C392.732 306.411 392.422 306.752 392.228 307.16C392.035 307.568 391.966 308.024 392.032 308.471C392.098 308.917 392.295 309.334 392.598 309.669C392.901 310.003 393.297 310.24 393.735 310.35C394.173 310.459 394.633 310.436 395.058 310.284C395.483 310.131 395.853 309.856 396.122 309.493C396.39 309.13 396.544 308.695 396.565 308.244C396.586 307.793 396.473 307.346 396.24 306.96C395.928 306.444 395.425 306.072 394.841 305.926C394.256 305.78 393.637 305.871 393.12 306.18Z" fill="white"/>
<path d="M113.799 231.88C113.028 232.343 112.412 233.024 112.028 233.837C111.644 234.65 111.509 235.559 111.641 236.449C111.773 237.338 112.166 238.169 112.77 238.835C113.373 239.502 114.161 239.974 115.033 240.194C115.906 240.413 116.823 240.368 117.67 240.066C118.517 239.764 119.256 239.218 119.793 238.496C120.329 237.775 120.64 236.91 120.686 236.012C120.732 235.114 120.51 234.222 120.049 233.45C119.428 232.414 118.421 231.666 117.249 231.372C116.077 231.077 114.837 231.26 113.799 231.88Z" fill="white"/>
<path d="M92.9993 202.36C92.6112 202.59 92.3001 202.931 92.1056 203.338C91.911 203.745 91.8417 204.201 91.9063 204.647C91.971 205.094 92.1668 205.512 92.4688 205.847C92.7709 206.182 93.1657 206.42 93.6032 206.531C94.0407 206.642 94.5012 206.62 94.9264 206.469C95.3517 206.318 95.7225 206.044 95.9919 205.682C96.2613 205.32 96.4173 204.886 96.4399 204.435C96.4626 203.985 96.351 203.537 96.1193 203.15C95.8077 202.634 95.3055 202.262 94.7215 202.114C94.1374 201.967 93.5187 202.055 92.9993 202.36Z" fill="white"/>
<path d="M153.07 220.9C152.681 221.13 152.37 221.471 152.176 221.878C151.981 222.285 151.912 222.741 151.977 223.188C152.041 223.634 152.237 224.052 152.539 224.387C152.841 224.722 153.236 224.96 153.673 225.071C154.111 225.182 154.571 225.16 154.997 225.009C155.422 224.858 155.793 224.584 156.062 224.222C156.332 223.86 156.488 223.426 156.51 222.975C156.533 222.525 156.421 222.077 156.19 221.69C155.88 221.172 155.378 220.799 154.793 220.651C154.208 220.503 153.588 220.592 153.07 220.9Z" fill="white"/>
<path d="M134.359 264.2C133.976 264.432 133.67 264.773 133.481 265.179C133.291 265.585 133.226 266.038 133.293 266.481C133.361 266.924 133.558 267.337 133.859 267.668C134.161 268 134.554 268.234 134.989 268.342C135.423 268.451 135.88 268.428 136.302 268.277C136.724 268.126 137.092 267.854 137.359 267.494C137.627 267.135 137.782 266.704 137.805 266.257C137.828 265.809 137.718 265.365 137.489 264.98C137.335 264.723 137.131 264.499 136.891 264.321C136.65 264.143 136.376 264.014 136.085 263.941C135.795 263.869 135.493 263.854 135.196 263.899C134.9 263.943 134.616 264.045 134.359 264.2Z" fill="white"/>
<path d="M71.36 273.72C70.589 274.183 69.9725 274.864 69.5883 275.677C69.2042 276.49 69.0696 277.399 69.2016 278.289C69.3337 279.178 69.7263 280.009 70.3301 280.675C70.9339 281.342 71.7216 281.815 72.5938 282.034C73.4661 282.253 74.3837 282.209 75.2307 281.906C76.0778 281.604 76.8164 281.058 77.3531 280.336C77.8899 279.615 78.2007 278.75 78.2465 277.852C78.2922 276.954 78.0707 276.062 77.61 275.29C77.3034 274.776 76.8983 274.327 76.4179 273.97C75.9376 273.613 75.3915 273.354 74.8109 273.208C74.2303 273.062 73.6266 273.032 73.0344 273.12C72.4423 273.208 71.8733 273.412 71.36 273.72Z" fill="white"/>
<path d="M50.5498 244.21C50.1655 244.441 49.8584 244.782 49.6674 245.187C49.4763 245.593 49.4098 246.047 49.4762 246.49C49.5426 246.934 49.739 247.348 50.0406 247.68C50.3422 248.012 50.7354 248.248 51.1706 248.356C51.6058 248.465 52.0635 248.443 52.4859 248.292C52.9083 248.14 53.2765 247.868 53.5439 247.507C53.8113 247.147 53.9659 246.716 53.9883 246.268C54.0107 245.82 53.8999 245.375 53.6698 244.99C53.5165 244.733 53.3141 244.51 53.0742 244.332C52.8343 244.153 52.5616 244.025 52.2717 243.952C51.9819 243.88 51.6805 243.865 51.3851 243.909C51.0896 243.954 50.8057 244.056 50.5498 244.21Z" fill="white"/>
<path d="M110.63 262.75C110.247 262.983 109.942 263.323 109.752 263.729C109.563 264.135 109.498 264.588 109.565 265.031C109.632 265.474 109.829 265.887 110.131 266.218C110.432 266.55 110.825 266.784 111.26 266.893C111.695 267.001 112.152 266.978 112.574 266.827C112.996 266.676 113.363 266.404 113.631 266.044C113.898 265.685 114.053 265.254 114.076 264.807C114.099 264.359 113.989 263.915 113.76 263.53C113.607 263.272 113.404 263.047 113.163 262.868C112.923 262.689 112.649 262.56 112.358 262.487C112.067 262.415 111.764 262.401 111.468 262.446C111.171 262.491 110.887 262.594 110.63 262.75Z" fill="white"/>
<path d="M91.9304 306C91.5427 306.231 91.2323 306.573 91.0387 306.98C90.8451 307.388 90.7769 307.844 90.8428 308.291C90.9086 308.738 91.1056 309.155 91.4087 309.489C91.7118 309.824 92.1074 310.061 92.5454 310.17C92.9833 310.28 93.444 310.257 93.8688 310.104C94.2937 309.952 94.6638 309.676 94.9321 309.313C95.2003 308.95 95.3548 308.516 95.3759 308.065C95.3969 307.614 95.2837 307.167 95.0504 306.78C94.739 306.264 94.236 305.892 93.6513 305.746C93.0667 305.6 92.448 305.691 91.9304 306Z" fill="white"/>
<path d="M174.389 69.6999C173.58 70.0942 172.905 70.7198 172.452 71.4974C171.998 72.275 171.786 73.1697 171.841 74.0683C171.896 74.9668 172.216 75.8288 172.761 76.5452C173.306 77.2617 174.052 77.8003 174.903 78.0929C175.754 78.3856 176.673 78.4191 177.544 78.1893C178.414 77.9594 179.197 77.4766 179.793 76.8018C180.388 76.127 180.771 75.2906 180.891 74.3984C181.012 73.5063 180.865 72.5985 180.469 71.7899C179.937 70.7091 178.999 69.8827 177.86 69.4911C176.721 69.0995 175.473 69.1746 174.389 69.6999Z" fill="white"/>
<path d="M208.619 52.53C208.212 52.726 207.873 53.0391 207.645 53.4291C207.416 53.8191 207.31 54.2684 207.339 54.7193C207.367 55.1702 207.53 55.6023 207.806 55.9603C208.081 56.3183 208.457 56.5858 208.886 56.7287C209.315 56.8716 209.776 56.8833 210.212 56.7623C210.647 56.6414 211.036 56.3932 211.33 56.0497C211.623 55.7062 211.808 55.2829 211.859 54.834C211.911 54.3851 211.827 53.9311 211.619 53.53C211.347 53.0059 210.882 52.6084 210.322 52.4217C209.762 52.235 209.151 52.2738 208.619 52.53Z" fill="white"/>
<path d="M184.999 100.87C184.477 101.144 184.081 101.609 183.894 102.168C183.708 102.728 183.745 103.338 183.999 103.87C184.194 104.28 184.508 104.623 184.9 104.854C185.292 105.085 185.743 105.193 186.197 105.165C186.651 105.137 187.086 104.974 187.447 104.697C187.807 104.42 188.077 104.042 188.22 103.61C188.364 103.179 188.376 102.715 188.253 102.277C188.131 101.839 187.881 101.447 187.535 101.153C187.188 100.858 186.762 100.674 186.31 100.623C185.858 100.573 185.402 100.659 184.999 100.87Z" fill="white"/>
<path d="M143.47 88.4699C143.066 88.6721 142.732 88.9898 142.508 89.3827C142.285 89.7755 142.184 90.2258 142.217 90.6764C142.25 91.127 142.417 91.5576 142.695 91.9135C142.973 92.2694 143.351 92.5345 143.781 92.6753C144.21 92.816 144.671 92.8261 145.106 92.7041C145.542 92.5821 145.931 92.3336 146.224 91.9902C146.518 91.6467 146.703 91.2238 146.755 90.7751C146.808 90.3264 146.726 89.8721 146.521 89.4699C146.247 88.9348 145.772 88.5295 145.201 88.3422C144.63 88.155 144.008 88.2008 143.47 88.4699Z" fill="white"/>
<path d="M380.07 127.81C379.286 127.367 378.389 127.167 377.491 127.235C376.593 127.303 375.736 127.635 375.027 128.19C374.318 128.746 373.79 129.499 373.51 130.354C373.229 131.21 373.209 132.13 373.451 132.997C373.693 133.864 374.188 134.639 374.871 135.226C375.554 135.812 376.396 136.182 377.29 136.289C378.184 136.397 379.09 136.237 379.893 135.829C380.696 135.422 381.359 134.785 381.8 134C382.388 132.949 382.535 131.708 382.211 130.548C381.887 129.389 381.118 128.404 380.07 127.81Z" fill="white"/>
<path d="M344.29 113.31C343.899 113.09 343.451 112.991 343.004 113.025C342.557 113.059 342.13 113.224 341.777 113.501C341.423 113.777 341.16 114.152 341.02 114.579C340.88 115.005 340.869 115.463 340.989 115.895C341.109 116.327 341.354 116.714 341.694 117.007C342.033 117.3 342.452 117.486 342.897 117.541C343.343 117.596 343.794 117.518 344.195 117.317C344.596 117.115 344.928 116.8 345.15 116.41C345.299 116.15 345.395 115.864 345.432 115.567C345.47 115.27 345.448 114.969 345.368 114.68C345.288 114.392 345.151 114.122 344.966 113.887C344.781 113.652 344.551 113.456 344.29 113.31Z" fill="white"/>
<path d="M397.501 105.36C397.11 105.14 396.662 105.041 396.215 105.075C395.768 105.109 395.341 105.274 394.988 105.551C394.634 105.828 394.371 106.202 394.231 106.629C394.091 107.055 394.08 107.513 394.2 107.945C394.32 108.377 394.565 108.764 394.905 109.057C395.244 109.35 395.663 109.536 396.108 109.591C396.553 109.646 397.005 109.568 397.406 109.367C397.807 109.165 398.139 108.85 398.361 108.46C398.51 108.2 398.606 107.914 398.643 107.617C398.681 107.32 398.659 107.019 398.579 106.73C398.499 106.442 398.362 106.172 398.177 105.937C397.992 105.702 397.762 105.506 397.501 105.36Z" fill="white"/>
<path d="M408.579 150.57C408.971 150.793 409.421 150.895 409.871 150.862C410.322 150.829 410.752 150.664 411.108 150.386C411.464 150.109 411.73 149.732 411.871 149.303C412.013 148.875 412.024 148.414 411.903 147.979C411.782 147.544 411.535 147.154 411.193 146.86C410.851 146.565 410.429 146.379 409.981 146.325C409.533 146.27 409.079 146.35 408.676 146.554C408.274 146.758 407.94 147.077 407.719 147.47C407.426 147.996 407.352 148.616 407.513 149.197C407.674 149.777 408.057 150.27 408.579 150.57Z" fill="white"/>
</g>
<path d="M45.4091 242.05C45.4091 242.05 44.6391 236.64 53.1391 233.55C61.6391 230.46 72.4691 229.68 72.4691 229.68C72.4691 229.68 65.7591 245.26 59.3291 246.68C54.1012 247.966 48.9413 249.515 43.8691 251.32L45.4091 242.05Z" fill="#263238" stroke="#263238" stroke-width="1.24191" stroke-linecap="round" stroke-linejoin="round"/>
<path d="M56.3098 251.45C56.3098 251.45 59.4498 246.98 67.7698 250.54C76.0898 254.1 84.4998 261 84.4998 261C84.4998 261 68.9998 267.72 63.2798 264.36C57.5598 261 48.8398 257.15 48.8398 257.15L56.3098 251.45Z" fill="#263238" stroke="#263238" stroke-width="1.24191" stroke-linecap="round" stroke-linejoin="round"/>
<path d="M37.8802 262C37.8802 262 39.9402 259.06 45.4102 261.4C49.3312 263.247 53.0229 265.546 56.4102 268.25C56.4102 268.25 46.1802 272.7 42.4102 270.49C39.3246 268.752 36.1539 267.17 32.9102 265.75L37.8802 262Z" fill="#263238" stroke="#263238" stroke-width="1.24191" stroke-linecap="round" stroke-linejoin="round"/>
<path d="M76.5186 240.33C76.5186 240.33 78.5886 237.39 84.0586 239.73C87.9796 241.577 91.6713 243.876 95.0586 246.58C95.0586 246.58 84.8286 251.03 81.0586 248.82C77.973 247.083 74.8024 245.501 71.5586 244.08L76.5186 240.33Z" fill="#263238" stroke="#263238" stroke-width="1.24191" stroke-linecap="round" stroke-linejoin="round"/>
<path d="M62.9192 221C62.9192 221 60.8692 218.05 64.9192 213.72C68.0036 210.661 71.4372 207.976 75.1492 205.72C75.1492 205.72 75.7892 216.86 72.4292 219.6C69.0692 222.34 64.6892 226.87 64.6892 226.87L62.9192 221Z" fill="#263238" stroke="#263238" stroke-width="1.24191" stroke-linecap="round" stroke-linejoin="round"/>
<path d="M49.439 227.81C49.439 227.81 46.269 226.1 47.959 220.39C49.3382 216.279 51.1906 212.343 53.479 208.66C53.479 208.66 59.099 218.3 57.329 222.27C55.559 226.24 53.739 232.27 53.739 232.27L49.439 227.81Z" fill="#263238" stroke="#263238" stroke-width="1.24191" stroke-linecap="round" stroke-linejoin="round"/>
<path d="M64.3895 286.41C64.3895 286.41 61.6195 288.7 56.9995 285C53.7007 282.186 50.7438 278.994 48.1895 275.49C48.1895 275.49 59.1895 273.9 62.2395 277.02C65.2895 280.14 70.1595 284.1 70.1595 284.1L64.3895 286.41Z" fill="#263238" stroke="#263238" stroke-width="1.24191" stroke-linecap="round" stroke-linejoin="round"/>
<path d="M43.9195 289.27C43.9195 289.27 40.3295 289.44 38.8295 283.68C37.8803 279.451 37.4305 275.124 37.4895 270.79C37.4895 270.79 47.2795 276.14 47.8195 280.44C48.3379 283.943 49.0321 287.417 49.8995 290.85L43.9195 289.27Z" fill="#263238" stroke="#263238" stroke-width="1.24191" stroke-linecap="round" stroke-linejoin="round"/>
<path d="M29.9293 250.36C29.9293 250.36 26.3993 247.36 30.0193 240.66C32.8229 235.852 36.179 231.388 40.0193 227.36C40.0193 227.36 44.5693 240.94 41.3193 245.45C38.0693 249.96 34.1893 257.06 34.1893 257.06L29.9293 250.36Z" fill="#263238" stroke="#263238" stroke-width="1.24191" stroke-linecap="round" stroke-linejoin="round"/>
<path d="M437.439 242.05C437.439 242.05 438.219 236.64 429.719 233.55C421.219 230.46 410.389 229.68 410.389 229.68C410.389 229.68 417.089 245.26 423.529 246.68C428.76 247.969 433.923 249.521 438.999 251.33L437.439 242.05Z" fill="#263238" stroke="#263238" stroke-width="1.24191" stroke-linecap="round" stroke-linejoin="round"/>
<path d="M426.539 251.45C426.539 251.45 423.399 246.98 415.089 250.54C406.779 254.1 398.359 261 398.359 261C398.359 261 413.909 267.77 419.579 264.41C425.249 261.05 433.999 257.15 433.999 257.15L426.539 251.45Z" fill="#263238" stroke="#263238" stroke-width="1.24191" stroke-linecap="round" stroke-linejoin="round"/>
<path d="M444.999 262C444.999 262 442.929 259.06 437.459 261.4C433.537 263.245 429.845 265.544 426.459 268.25C426.459 268.25 436.689 272.7 440.459 270.49C443.545 268.752 446.715 267.17 449.959 265.75L444.999 262Z" fill="#263238" stroke="#263238" stroke-width="1.24191" stroke-linecap="round" stroke-linejoin="round"/>
<path d="M406.329 240.33C406.329 240.33 404.269 237.39 398.799 239.73C394.878 241.577 391.186 243.876 387.799 246.58C387.799 246.58 398.029 251.03 401.799 248.82C404.884 247.083 408.055 245.501 411.299 244.08L406.329 240.33Z" fill="#263238" stroke="#263238" stroke-width="1.24191" stroke-linecap="round" stroke-linejoin="round"/>
<path d="M419.939 221C419.939 221 421.989 218.05 417.939 213.72C414.852 210.664 411.419 207.979 407.709 205.72C407.709 205.72 407.059 216.86 410.429 219.6C413.799 222.34 418.159 226.87 418.159 226.87L419.939 221Z" fill="#263238" stroke="#263238" stroke-width="1.24191" stroke-linecap="round" stroke-linejoin="round"/>
<path d="M433.418 227.81C433.418 227.81 436.588 226.1 434.888 220.39C433.515 216.278 431.666 212.342 429.378 208.66C429.378 208.66 423.758 218.3 425.528 222.27C427.298 226.24 429.118 232.27 429.118 232.27L433.418 227.81Z" fill="#263238" stroke="#263238" stroke-width="1.24191" stroke-linecap="round" stroke-linejoin="round"/>
<path d="M418.469 286.41C418.469 286.41 421.239 288.7 425.889 284.99C429.187 282.175 432.144 278.984 434.699 275.48C434.699 275.48 423.649 273.89 420.639 277.01C417.629 280.13 412.729 284.09 412.729 284.09L418.469 286.41Z" fill="#263238" stroke="#263238" stroke-width="1.24191" stroke-linecap="round" stroke-linejoin="round"/>
<path d="M438.93 289.27C438.93 289.27 442.53 289.44 444.03 283.68C444.979 279.451 445.429 275.124 445.37 270.79C445.37 270.79 435.58 276.14 435.04 280.44C434.5 284.74 433 290.85 433 290.85L438.93 289.27Z" fill="#263238" stroke="#263238" stroke-width="1.24191" stroke-linecap="round" stroke-linejoin="round"/>
<path d="M452.929 250.36C452.929 250.36 456.449 247.36 452.839 240.66C450.037 235.851 446.681 231.387 442.839 227.36C442.839 227.36 438.299 240.94 441.549 245.45C444.799 249.96 448.669 257.06 448.669 257.06L452.929 250.36Z" fill="#263238" stroke="#263238" stroke-width="1.24191" stroke-linecap="round" stroke-linejoin="round"/>
<path d="M252.22 177.21C284.142 177.21 310.02 157.009 310.02 132.09C310.02 107.171 284.142 86.97 252.22 86.97C220.298 86.97 194.42 107.171 194.42 132.09C194.42 157.009 220.298 177.21 252.22 177.21Z" fill="#263238" stroke="#263238" stroke-width="1.24191" stroke-linecap="round" stroke-linejoin="round"/>
<path d="M293 103.75C301.6 111.28 306.83 121.21 306.83 132.09C306.83 155.63 282.39 174.71 252.24 174.71C222.09 174.71 197.65 155.63 197.65 132.09C197.65 117.38 207.2 104.42 221.72 96.76" fill="#263238"/>
<path d="M293 103.75C301.6 111.28 306.83 121.21 306.83 132.09C306.83 155.63 282.39 174.71 252.24 174.71C222.09 174.71 197.65 155.63 197.65 132.09C197.65 117.38 207.2 104.42 221.72 96.76" stroke="white" stroke-width="1.24191" stroke-linecap="round" stroke-linejoin="round"/>
<path d="M228.549 93.68C232.948 92.0372 237.511 90.8705 242.159 90.2Z" fill="#263238"/>
<path d="M228.549 93.68C232.948 92.0372 237.511 90.8705 242.159 90.2" stroke="white" stroke-width="1.24191" stroke-linecap="round" stroke-linejoin="round"/>
<path d="M252.22 173.76C303.848 173.76 345.7 159.872 345.7 142.74C345.7 125.608 303.848 111.72 252.22 111.72C200.593 111.72 158.74 125.608 158.74 142.74C158.74 159.872 200.593 173.76 252.22 173.76Z" fill="#FC5B11" stroke="#263238" stroke-width="1.24191" stroke-linecap="round" stroke-linejoin="round"/>
<path d="M252.219 184.94C325.778 184.94 385.409 171.052 385.409 153.92C385.409 136.788 325.778 122.9 252.219 122.9C178.66 122.9 119.029 136.788 119.029 153.92C119.029 171.052 178.66 184.94 252.219 184.94Z" fill="#FC5B11" stroke="#263238" stroke-width="1.24191" stroke-linecap="round" stroke-linejoin="round"/>
<path d="M252.22 193.21C337.2 193.21 406.09 179.322 406.09 162.19C406.09 145.058 337.2 131.17 252.22 131.17C167.24 131.17 98.3496 145.058 98.3496 162.19C98.3496 179.322 167.24 193.21 252.22 193.21Z" fill="#263238" stroke="#263238" stroke-width="1.24191" stroke-linecap="round" stroke-linejoin="round"/>
<path d="M252.301 183.86C315.946 183.86 367.541 174.154 367.541 162.18C367.541 150.206 315.946 140.5 252.301 140.5C188.655 140.5 137.061 150.206 137.061 162.18C137.061 174.154 188.655 183.86 252.301 183.86Z" fill="#FC5B11" stroke="#263238" stroke-width="1.24191" stroke-linecap="round" stroke-linejoin="round"/>
<path opacity="0.6" d="M303.509 162.19H200.929L125.689 416.46C145.228 433.649 168.096 446.632 192.869 454.6C243.789 470.74 278.559 426.03 325.749 428.52C348.749 429.73 371.209 429.45 390.749 424.67L303.509 162.19Z" fill="white"/>
<path d="M252.22 172.53C280.546 172.53 303.51 167.901 303.51 162.19C303.51 156.479 280.546 151.85 252.22 151.85C223.893 151.85 200.93 156.479 200.93 162.19C200.93 167.901 223.893 172.53 252.22 172.53Z" fill="#263238" stroke="#263238" stroke-width="1.24191" stroke-linecap="round" stroke-linejoin="round"/>
<path d="M252.3 141.45C259.049 141.45 264.52 140.25 264.52 138.77C264.52 137.29 259.049 136.09 252.3 136.09C245.551 136.09 240.08 137.29 240.08 138.77C240.08 140.25 245.551 141.45 252.3 141.45Z" fill="white" stroke="#263238" stroke-width="1.24191" stroke-linecap="round" stroke-linejoin="round"/>
<path d="M139.07 162C139.07 163 135.33 163.84 130.71 163.84C126.09 163.84 122.34 163.01 122.34 162C122.34 160.99 126.09 160.16 130.71 160.16C135.33 160.16 139.07 161 139.07 162Z" fill="white" stroke="#263238" stroke-width="1.24191" stroke-linecap="round" stroke-linejoin="round"/>
<path d="M384.7 162C384.7 163 380.95 163.84 376.33 163.84C371.71 163.84 368 163 368 162C368 161 371.74 160.16 376.36 160.16C380.98 160.16 384.7 161 384.7 162Z" fill="white" stroke="#263238" stroke-width="1.24191" stroke-linecap="round" stroke-linejoin="round"/>
<path d="M327.76 149.85C334.067 149.85 339.18 148.726 339.18 147.34C339.18 145.954 334.067 144.83 327.76 144.83C321.453 144.83 316.34 145.954 316.34 147.34C316.34 148.726 321.453 149.85 327.76 149.85Z" fill="white" stroke="#263238" stroke-width="1.24191" stroke-linecap="round" stroke-linejoin="round"/>
<path d="M185.77 149.85C192.077 149.85 197.19 148.726 197.19 147.34C197.19 145.954 192.077 144.83 185.77 144.83C179.463 144.83 174.35 145.954 174.35 147.34C174.35 148.726 179.463 149.85 185.77 149.85Z" fill="white" stroke="#263238" stroke-width="1.24191" stroke-linecap="round" stroke-linejoin="round"/>
<path d="M327.76 178.56C332.378 178.56 336.12 177.736 336.12 176.72C336.12 175.704 332.378 174.88 327.76 174.88C323.143 174.88 319.4 175.704 319.4 176.72C319.4 177.736 323.143 178.56 327.76 178.56Z" fill="white" stroke="#263238" stroke-width="1.24191" stroke-linecap="round" stroke-linejoin="round"/>
<path d="M185.77 178.56C190.387 178.56 194.13 177.736 194.13 176.72C194.13 175.704 190.387 174.88 185.77 174.88C181.153 174.88 177.41 175.704 177.41 176.72C177.41 177.736 181.153 178.56 185.77 178.56Z" fill="white" stroke="#263238" stroke-width="1.24191" stroke-linecap="round" stroke-linejoin="round"/>
<path d="M159.66 300.8L156.83 310.54" stroke="#263238" stroke-width="1.24191" stroke-linecap="round" stroke-linejoin="round"/>
<path d="M184.9 213.93L162.59 290.74" stroke="#263238" stroke-width="1.24191" stroke-linecap="round" stroke-linejoin="round"/>
<path d="M198.59 166.79L187.33 205.57" stroke="#263238" stroke-width="1.24191" stroke-linecap="round" stroke-linejoin="round"/>
<path d="M303.51 162.19L351.83 305.57" stroke="#263238" stroke-width="1.24191" stroke-linecap="round" stroke-linejoin="round"/>
<path d="M221.879 174.82L210.639 237.46" stroke="#263238" stroke-width="1.24191" stroke-linecap="round" stroke-linejoin="round"/>
<path d="M289.34 174.82L309.42 286.45" stroke="#263238" stroke-width="1.24191" stroke-linecap="round" stroke-linejoin="round"/>
<path d="M252.219 306.53V319.38" stroke="#263238" stroke-width="1.24191" stroke-linecap="round" stroke-linejoin="round"/>
<path d="M252.219 193.22V294.48" stroke="#263238" stroke-width="1.24191" stroke-linecap="round" stroke-linejoin="round"/>
<path d="M252.219 151.85C242.405 151.802 232.599 152.423 222.869 153.71C225.699 159.57 238.069 163.99 252.869 163.99C267.669 163.99 279.809 159.66 282.799 153.89C272.668 152.474 262.448 151.792 252.219 151.85Z" fill="white" stroke="#263238" stroke-width="1.24191" stroke-miterlimit="10"/>
<path d="M276.289 405.66C276.289 405.66 276.979 411.35 278.949 412.66C280.919 413.97 281.849 414.6 281.849 415.84C281.849 417.08 281.849 418.31 279.069 421.09C276.289 423.87 273.199 427.27 270.419 429.74C267.639 432.21 264.849 435.92 267.019 436.23C269.189 436.54 273.199 437.16 274.429 434.38C275.659 431.6 274.739 430.05 275.979 429.44C277.614 428.308 278.98 426.829 279.979 425.11C280.589 423.87 284.919 422.33 285.539 419.55C286.159 416.77 287.629 415.62 288.589 413.1C289.27 411.174 289.798 409.198 290.169 407.19C290.169 407.19 283.999 400.41 276.289 405.66Z" fill="#263238"/>
<path d="M262.779 408.67C263.558 409.526 264.404 410.319 265.309 411.04C265.899 411.462 266.546 411.799 267.229 412.04C267.229 412.04 267.089 413.67 268.119 414.12C269.149 414.57 270.199 413.53 270.199 413.53L272.429 413.82C272.429 413.82 272.869 415.16 273.909 415.16C274.949 415.16 275.389 413.82 275.389 413.82L278.949 412.64C278.949 412.64 280.579 413.97 281.329 412.78C281.548 412.499 281.654 412.146 281.626 411.791C281.598 411.436 281.439 411.104 281.179 410.86C282.124 410.232 282.809 409.284 283.109 408.19C283.549 406.41 282.509 405.81 281.179 405.81C278.168 405.567 275.141 405.567 272.129 405.81C267.089 406.3 260.709 404.52 262.779 408.67Z" fill="#FC5B11" stroke="#263238" stroke-width="1.24191" stroke-linecap="round" stroke-linejoin="round"/>
<path d="M302.249 380.32C302.249 380.32 304.099 384.65 309.659 390.83C315.219 397.01 317.999 406.9 317.999 410C317.999 410 314.599 400.11 311.199 395.78C307.799 391.45 302.199 388.37 300.999 384.66C299.799 380.95 302.249 380.32 302.249 380.32Z" fill="white" stroke="#263238" stroke-width="1.24191" stroke-linecap="round" stroke-linejoin="round"/>
<path d="M317.999 410C317.999 410 316.139 411.23 315.219 415.25C314.299 419.27 320.469 422.05 320.469 422.05C320.087 421.279 319.862 420.44 319.809 419.581C319.756 418.723 319.875 417.862 320.159 417.05C321.099 414.31 321.709 413.39 317.999 410Z" fill="#263238"/>
<path d="M300.739 390.45C302.849 386.76 304.029 381.23 302.979 378.45C301.929 375.67 299.549 372.39 297.569 372.12C295.589 371.85 292.699 372.39 291.909 371.86C291.119 371.33 282.909 367.25 278.989 364.08C275.069 360.91 266.729 359 259.879 359C253.029 359 246.699 359.4 243.139 359C239.579 358.6 237.609 357.55 234.049 358.21C230.489 358.87 227.049 361.51 224.819 361.9C223.515 362.138 222.194 362.272 220.869 362.3C220.869 362.3 215.069 359.93 214.679 359.4C214.679 359.4 214.019 359.8 213.359 358.74C212.699 357.68 213.229 356.74 210.719 357.16C210.069 357.198 209.455 357.474 208.994 357.935C208.533 358.395 208.257 359.009 208.219 359.66C208.219 359.66 204.919 361.66 204.219 362.17C203.519 362.68 198.949 366.91 197.499 368.36C196.049 369.81 195.919 370.07 193.419 372.58C190.919 375.09 189.599 375.21 189.069 376.66C188.639 377.83 189.849 379.18 191.019 380.41C191.268 380.671 191.568 380.878 191.9 381.019C192.232 381.16 192.589 381.232 192.949 381.23C193.967 381.057 194.97 380.806 195.949 380.48L196.789 380.22C196.534 380.787 196.078 381.239 195.509 381.49C195.019 381.73 194.509 382.01 194.509 382.49C195.396 382.595 196.295 382.534 197.159 382.31C199.084 381.616 200.936 380.735 202.689 379.68C205.571 380.083 208.48 380.257 211.389 380.2C214.159 379.94 217.979 378.09 218.899 377.7C219.819 377.31 224.829 378.75 225.899 379.7C227.632 381.713 228.854 384.114 229.459 386.7C229.979 389.34 231.699 394.21 233.279 395.27C234.859 396.33 248.829 406.21 255.679 408.45C262.529 410.69 274.929 409.76 277.169 409.11C279.409 408.46 281.169 407.79 281.169 407.79C281.169 407.79 285.779 412.53 288.679 413.19C290.133 413.497 291.565 413.894 292.969 414.38C292.474 415.966 292.139 417.597 291.969 419.25C291.969 420.84 290.909 422.94 290.249 425.05C289.589 427.16 289.069 429.93 287.879 431.51C286.689 433.09 284.879 435.73 284.589 437.18C284.299 438.63 286.299 438.63 286.829 438.36C287.359 438.09 289.459 437.31 289.589 435.99C289.844 434.505 290.242 433.048 290.779 431.64C291.039 430.98 293.149 428.87 293.549 426.64C293.81 424.83 294.297 423.059 294.999 421.37C295.519 420.32 297.999 416.76 298.419 414.78C298.796 412.541 298.475 410.24 297.499 408.19C296.449 405.56 295.389 401.74 295.499 401.08C297.051 397.444 298.8 393.895 300.739 390.45Z" fill="white"/>
<mask id="mask0_2095_3388" style="mask-type:luminance" maskUnits="userSpaceOnUse" x="188" y="357" width="116" height="82">
<path d="M300.739 390.45C302.849 386.76 304.029 381.23 302.979 378.45C301.929 375.67 299.549 372.39 297.569 372.12C295.589 371.85 292.699 372.39 291.909 371.86C291.119 371.33 282.909 367.25 278.989 364.08C275.069 360.91 266.729 359 259.879 359C253.029 359 246.699 359.4 243.139 359C239.579 358.6 237.609 357.55 234.049 358.21C230.489 358.87 227.049 361.51 224.819 361.9C223.515 362.138 222.194 362.272 220.869 362.3C220.869 362.3 215.069 359.93 214.679 359.4C214.679 359.4 214.019 359.8 213.359 358.74C212.699 357.68 213.229 356.74 210.719 357.16C210.069 357.198 209.455 357.474 208.994 357.935C208.533 358.395 208.257 359.009 208.219 359.66C208.219 359.66 204.919 361.66 204.219 362.17C203.519 362.68 198.949 366.91 197.499 368.36C196.049 369.81 195.919 370.07 193.419 372.58C190.919 375.09 189.599 375.21 189.069 376.66C188.639 377.83 189.849 379.18 191.019 380.41C191.268 380.671 191.568 380.878 191.9 381.019C192.232 381.16 192.589 381.232 192.949 381.23C193.967 381.057 194.97 380.806 195.949 380.48L196.789 380.22C196.534 380.787 196.078 381.239 195.509 381.49C195.019 381.73 194.509 382.01 194.509 382.49C195.396 382.595 196.295 382.534 197.159 382.31C199.084 381.616 200.936 380.735 202.689 379.68C205.571 380.083 208.48 380.257 211.389 380.2C214.159 379.94 217.979 378.09 218.899 377.7C219.819 377.31 224.829 378.75 225.899 379.7C227.632 381.713 228.854 384.114 229.459 386.7C229.979 389.34 231.699 394.21 233.279 395.27C234.859 396.33 248.829 406.21 255.679 408.45C262.529 410.69 274.929 409.76 277.169 409.11C279.409 408.46 281.169 407.79 281.169 407.79C281.169 407.79 285.779 412.53 288.679 413.19C290.133 413.497 291.565 413.894 292.969 414.38C292.474 415.966 292.139 417.597 291.969 419.25C291.969 420.84 290.909 422.94 290.249 425.05C289.589 427.16 289.069 429.93 287.879 431.51C286.689 433.09 284.879 435.73 284.589 437.18C284.299 438.63 286.299 438.63 286.829 438.36C287.359 438.09 289.459 437.31 289.589 435.99C289.844 434.505 290.242 433.048 290.779 431.64C291.039 430.98 293.149 428.87 293.549 426.64C293.81 424.83 294.297 423.059 294.999 421.37C295.519 420.32 297.999 416.76 298.419 414.78C298.796 412.541 298.475 410.24 297.499 408.19C296.449 405.56 295.389 401.74 295.499 401.08C297.051 397.444 298.8 393.895 300.739 390.45Z" fill="white"/>
</mask>
<g mask="url(#mask0_2095_3388)">
<path d="M300.739 390.45C301.612 388.874 302.284 387.194 302.739 385.45C300.826 386.308 299.037 387.418 297.419 388.75C294.039 391.75 293.029 395.16 293.709 400.22C294.389 405.28 291.709 405.27 288.309 405.95C284.909 406.63 282.239 403.95 280.219 400.89C278.199 397.83 274.669 404.04 268.749 404.94C262.829 405.84 242.749 401.23 239.419 397.12C236.089 393.01 239.079 383.36 239.079 383.36C236.477 382.54 233.985 381.405 231.659 379.98C228.659 377.98 226.599 371.55 222.889 371.22C219.179 370.89 217.499 373.91 213.789 375.94C210.079 377.97 207.379 375.94 203.669 377.29C202.109 377.85 199.349 379.14 196.669 380.44C196.393 380.869 196.006 381.215 195.549 381.44C195.059 381.68 194.549 381.96 194.549 382.44C195.436 382.545 196.334 382.484 197.199 382.26C199.124 381.566 200.976 380.685 202.729 379.63C205.611 380.033 208.52 380.207 211.429 380.15C214.199 379.89 218.019 378.04 218.939 377.65C219.859 377.26 224.869 378.7 225.939 379.65C227.672 381.663 228.893 384.064 229.499 386.65C230.019 389.29 231.739 394.16 233.319 395.22C234.899 396.28 248.869 406.16 255.719 408.4C262.569 410.64 274.969 409.71 277.209 409.06C279.449 408.41 281.209 407.74 281.209 407.74C281.209 407.74 285.819 412.48 288.719 413.14C290.172 413.447 291.605 413.844 293.009 414.33C292.513 415.916 292.178 417.548 292.009 419.2C292.009 420.78 290.949 422.89 290.289 425C289.629 427.11 289.109 429.88 287.919 431.46C286.729 433.04 284.919 435.68 284.629 437.13C284.339 438.58 286.339 438.58 286.869 438.31C287.399 438.04 289.499 437.26 289.629 435.94C289.883 434.455 290.282 432.998 290.819 431.59C291.079 430.93 293.189 428.82 293.589 426.59C293.849 424.78 294.336 423.009 295.039 421.32C295.559 420.27 298.039 416.71 298.459 414.73C298.836 412.491 298.515 410.19 297.539 408.14C296.489 405.51 295.429 401.69 295.539 401.03C297.079 397.412 298.815 393.88 300.739 390.45Z" fill="#FC5B11"/>
</g>
<path d="M300.739 390.45C302.849 386.76 304.029 381.23 302.979 378.45C301.929 375.67 299.549 372.39 297.569 372.12C295.589 371.85 292.699 372.39 291.909 371.86C291.119 371.33 282.909 367.25 278.989 364.08C275.069 360.91 266.729 359 259.879 359C253.029 359 246.699 359.4 243.139 359C239.579 358.6 237.609 357.55 234.049 358.21C230.489 358.87 227.049 361.51 224.819 361.9C223.515 362.138 222.194 362.272 220.869 362.3C220.869 362.3 215.069 359.93 214.679 359.4C214.679 359.4 214.019 359.8 213.359 358.74C212.699 357.68 213.229 356.74 210.719 357.16C210.069 357.198 209.455 357.474 208.994 357.935C208.533 358.395 208.257 359.009 208.219 359.66C208.219 359.66 204.919 361.66 204.219 362.17C203.519 362.68 198.949 366.91 197.499 368.36C196.049 369.81 195.919 370.07 193.419 372.58C190.919 375.09 189.599 375.21 189.069 376.66C188.639 377.83 189.849 379.18 191.019 380.41C191.268 380.671 191.568 380.878 191.9 381.019C192.232 381.16 192.589 381.232 192.949 381.23C193.967 381.057 194.97 380.806 195.949 380.48L196.789 380.22C196.534 380.787 196.078 381.239 195.509 381.49C195.019 381.73 194.509 382.01 194.509 382.49C195.396 382.595 196.295 382.534 197.159 382.31C199.084 381.616 200.936 380.735 202.689 379.68C205.571 380.083 208.48 380.257 211.389 380.2C214.159 379.94 217.979 378.09 218.899 377.7C219.819 377.31 224.829 378.75 225.899 379.7C227.632 381.713 228.854 384.114 229.459 386.7C229.979 389.34 231.699 394.21 233.279 395.27C234.859 396.33 248.829 406.21 255.679 408.45C262.529 410.69 274.929 409.76 277.169 409.11C279.409 408.46 281.169 407.79 281.169 407.79C281.169 407.79 285.779 412.53 288.679 413.19C290.133 413.497 291.565 413.894 292.969 414.38C292.474 415.966 292.139 417.597 291.969 419.25C291.969 420.84 290.909 422.94 290.249 425.05C289.589 427.16 289.069 429.93 287.879 431.51C286.689 433.09 284.879 435.73 284.589 437.18C284.299 438.63 286.299 438.63 286.829 438.36C287.359 438.09 289.459 437.31 289.589 435.99C289.844 434.505 290.242 433.048 290.779 431.64C291.039 430.98 293.149 428.87 293.549 426.64C293.81 424.83 294.297 423.059 294.999 421.37C295.519 420.32 297.999 416.76 298.419 414.78C298.796 412.541 298.475 410.24 297.499 408.19C296.449 405.56 295.389 401.74 295.499 401.08C297.051 397.444 298.8 393.895 300.739 390.45Z" stroke="#263238" stroke-width="1.24191" stroke-linecap="round" stroke-linejoin="round"/>
<path d="M248.249 399.62C251.891 399.517 255.518 400.121 258.929 401.4C263.929 403.48 269.309 400.81 272.279 400.51C275.249 400.21 278.209 402.59 274.649 404.07C271.089 405.55 267.229 404.96 264.859 406.15C262.659 407.265 260.202 407.776 257.739 407.63C254.739 407.63 252.399 406.45 249.429 405.85C247.316 405.391 245.235 404.797 243.199 404.07L248.249 399.62Z" fill="#263238"/>
<path d="M239.4 397.15C237.61 393.78 234.69 391.54 237.4 387.95C240.11 384.36 238.07 380.77 236.95 379.42C235.83 378.07 234.04 376.95 232.46 374.48C230.88 372.01 231.12 371.12 232.24 369.55C233.36 367.98 234.04 365.06 232.24 363.71C230.44 362.36 228.65 363.04 225.73 362.59C225.165 362.487 224.625 362.277 224.14 361.97C223.064 362.136 221.978 362.229 220.89 362.25C220.89 362.25 215.09 359.88 214.7 359.35C214.611 359.388 214.516 359.408 214.42 359.408C214.324 359.408 214.228 359.388 214.14 359.35C213.79 360.428 213.141 361.385 212.27 362.11C210.7 363.01 206.88 363.91 205.27 364.81C203.66 365.71 202.81 366.38 201.91 366.38C201.35 366.38 201.58 365.23 202.05 364.05C200.43 365.52 198.4 367.4 197.52 368.28C196.64 369.16 196.31 369.54 195.67 370.21C195.91 370.34 197.11 371.08 196.3 373.11C195.4 375.35 196.07 376.7 197.42 378.72C198.77 380.74 196.52 379.17 196.75 381.41C196.766 381.726 196.898 382.025 197.12 382.25C199.045 381.556 200.897 380.675 202.65 379.62C205.532 380.023 208.441 380.197 211.35 380.14C214.12 379.88 217.94 378.03 218.86 377.64C219.78 377.25 224.79 378.69 225.86 379.64C227.593 381.653 228.814 384.054 229.42 386.64C229.94 389.28 231.66 394.15 233.24 395.21C233.92 395.66 236.91 397.76 240.64 400.21C240.404 399.127 239.985 398.092 239.4 397.15Z" fill="#263238"/>
<path d="M227.59 382.59C227.59 382.59 229.81 387.22 228.8 391.45C227.79 395.68 230.01 398.7 232.02 401.11C233.916 403.251 236.253 404.957 238.87 406.11C241.28 407.32 242.87 406.52 246.52 407.11C250.17 407.7 254.97 408.52 256.78 408.92C257.904 409.164 259.05 409.298 260.2 409.32C260.2 409.32 249.74 404.49 243.29 397.25C236.84 390.01 233 384.2 232.83 382.79C232.66 381.38 227.59 377.36 227.59 382.59Z" fill="#263238"/>
<path d="M213.09 362.12C213.09 362.12 214.41 358.43 216.39 356.71C218.37 354.99 224.3 353.55 224.82 354.21C225.34 354.87 224.03 358.82 222.06 361.06C221.422 361.845 220.617 362.477 219.703 362.911C218.79 363.345 217.791 363.57 216.78 363.57C216.072 363.569 215.366 363.657 214.68 363.83" fill="#263238"/>
<path d="M234.879 391.45C233.792 393.643 232.202 395.548 230.239 397.01C227.149 399.17 220.359 401.33 220.359 404.12C220.359 406.91 217.879 417.4 217.569 420.8C217.259 424.2 215.719 427.91 215.719 428.8C215.719 429.69 216.339 433.12 217.569 433.43C218.799 433.74 221.899 430.96 222.829 428.49C223.759 426.02 221.899 420.14 221.899 420.14C222.544 419.129 222.868 417.948 222.829 416.75C222.829 414.58 223.749 407.75 224.679 406.55C225.609 405.35 230.549 403.15 234.259 402.84C237.969 402.53 245.079 397.89 245.079 397.89" fill="#263238"/>
<path d="M256.198 362.09C252.48 363.183 248.541 363.29 244.768 362.4C238.898 360.85 237.658 367.34 241.058 372.29C244.458 377.24 245.698 382.79 250.328 382.79C254.958 382.79 255.888 376.3 259.598 374.45C263.308 372.6 264.848 367.03 263.308 364.87C261.768 362.71 256.198 362.09 256.198 362.09Z" fill="#263238"/>
<path d="M299.719 373.38C299.146 372.755 298.396 372.319 297.569 372.13C295.569 371.87 292.699 372.4 291.909 371.87C291.119 371.34 282.909 367.26 278.989 364.09C277.728 363.135 276.341 362.358 274.869 361.78C275.303 363.01 275.434 364.327 275.251 365.618C275.068 366.91 274.577 368.138 273.819 369.2C270.419 374.14 258.369 377.54 261.459 384.34C264.549 391.14 269.179 396.39 273.199 397.34C277.219 398.29 284.009 393.63 287.719 391.47C291.429 389.31 291.119 383.74 290.809 381.58C290.499 379.42 292.979 379.41 295.759 379.41C298.209 379.39 299.459 378 299.719 373.38Z" fill="#263238"/>
<path d="M193.629 378.07C193.629 378.07 192.279 375.83 191.629 376.95C190.979 378.07 189.999 382.11 193.629 378.07Z" fill="#263238"/>
<path d="M210.079 368.9C210.079 369.218 209.985 369.53 209.808 369.794C209.631 370.059 209.38 370.266 209.085 370.387C208.791 370.509 208.468 370.541 208.155 370.479C207.843 370.417 207.556 370.264 207.331 370.038C207.106 369.813 206.952 369.526 206.89 369.214C206.828 368.902 206.86 368.578 206.982 368.284C207.104 367.99 207.31 367.738 207.575 367.561C207.84 367.384 208.151 367.29 208.469 367.29C208.896 367.29 209.306 367.46 209.608 367.762C209.91 368.064 210.079 368.473 210.079 368.9Z" fill="white"/>
<path d="M209.469 368.9C209.469 369.098 209.41 369.291 209.3 369.455C209.19 369.62 209.034 369.748 208.851 369.824C208.669 369.899 208.468 369.919 208.274 369.881C208.08 369.842 207.901 369.747 207.762 369.607C207.622 369.467 207.527 369.289 207.488 369.095C207.449 368.901 207.469 368.7 207.545 368.517C207.621 368.334 207.749 368.178 207.913 368.068C208.078 367.959 208.271 367.9 208.469 367.9C208.734 367.9 208.988 368.005 209.176 368.193C209.363 368.38 209.469 368.635 209.469 368.9Z" fill="#263238"/>
<path d="M240.129 388.66C240.129 388.66 236.729 393.92 236.729 397.66C236.729 401.4 232.729 406.31 230.239 409.4C227.749 412.49 227.149 416.2 228.389 417.4C229.629 418.6 232.719 426.4 234.259 429.46C235.799 432.52 236.119 434.71 237.349 435.02C238.579 435.33 241.059 438.73 242.909 438.42C244.759 438.11 245.389 435.94 243.529 433.16C241.669 430.38 241.369 434.09 238.899 430.07C236.429 426.05 236.729 421.42 235.189 419.57C233.649 417.72 232.409 416.79 233.029 415.24C233.649 413.69 239.509 407.24 241.679 405.35C243.849 403.46 250.019 401.64 253.679 398.86" fill="white"/>
<mask id="mask1_2095_3388" style="mask-type:luminance" maskUnits="userSpaceOnUse" x="227" y="388" width="27" height="51">
<path d="M240.129 388.66C240.129 388.66 236.729 393.92 236.729 397.66C236.729 401.4 232.729 406.31 230.239 409.4C227.749 412.49 227.149 416.2 228.389 417.4C229.629 418.6 232.719 426.4 234.259 429.46C235.799 432.52 236.119 434.71 237.349 435.02C238.579 435.33 241.059 438.73 242.909 438.42C244.759 438.11 245.389 435.94 243.529 433.16C241.669 430.38 241.369 434.09 238.899 430.07C236.429 426.05 236.729 421.42 235.189 419.57C233.649 417.72 232.409 416.79 233.029 415.24C233.649 413.69 239.509 407.24 241.679 405.35C243.849 403.46 250.019 401.64 253.679 398.86" fill="white"/>
</mask>
<g mask="url(#mask1_2095_3388)">
<path d="M241.679 405.349C243.239 404.009 246.879 402.679 250.189 400.989V400.919C250.189 400.919 241.759 403.619 239.399 403.279C237.679 403.039 237.399 400.129 236.399 399.459C235.449 402.849 232.279 406.759 230.189 409.369C227.719 412.459 227.099 416.169 228.339 417.369C229.579 418.569 232.669 426.369 234.209 429.429C235.749 432.489 236.069 434.679 237.299 434.989C238.529 435.299 241.009 438.699 242.859 438.389C244.709 438.079 245.339 435.909 243.479 433.129C241.619 430.349 241.319 434.059 238.849 430.039C236.379 426.019 236.679 421.389 235.139 419.539C233.599 417.689 232.359 416.759 232.979 415.209C233.599 413.659 239.509 407.209 241.679 405.349Z" fill="#FC5B11"/>
</g>
<path d="M240.129 388.66C240.129 388.66 236.729 393.92 236.729 397.66C236.729 401.4 232.729 406.31 230.239 409.4C227.749 412.49 227.149 416.2 228.389 417.4C229.629 418.6 232.719 426.4 234.259 429.46C235.799 432.52 236.119 434.71 237.349 435.02C238.579 435.33 241.059 438.73 242.909 438.42C244.759 438.11 245.389 435.94 243.529 433.16C241.669 430.38 241.369 434.09 238.899 430.07C236.429 426.05 236.729 421.42 235.189 419.57C233.649 417.72 232.409 416.79 233.029 415.24C233.649 413.69 239.509 407.24 241.679 405.35C243.849 403.46 250.019 401.64 253.679 398.86" stroke="#263238" stroke-width="1.24191" stroke-linecap="round" stroke-linejoin="round"/>
<path d="M223.36 358.23C223.36 358.23 219.54 358.03 218.36 359.44C217.18 360.85 217.36 362.66 218.36 362.66C219.36 362.66 223.16 361.05 223.36 358.23Z" fill="white" stroke="#263238" stroke-width="1.24191" stroke-linecap="round" stroke-linejoin="round"/>
<path d="M208.149 369.06C208.448 369.06 208.689 368.818 208.689 368.52C208.689 368.222 208.448 367.98 208.149 367.98C207.851 367.98 207.609 368.222 207.609 368.52C207.609 368.818 207.851 369.06 208.149 369.06Z" fill="white"/>
<path d="M299.999 391.75C297.289 392.3 290.269 394.14 289.469 398.14C288.579 402.59 295.889 406.52 297.469 408.14C296.419 405.51 295.359 401.69 295.469 401.03C296.82 397.861 298.332 394.764 299.999 391.75Z" fill="#263238"/>
</svg>
