<svg width="116" height="34" viewBox="0 0 116 34" fill="none" xmlns="http://www.w3.org/2000/svg">
<path d="M63.8641 11.2924C62.9402 10.4712 61.7471 10.0176 60.5111 10.0176C59.275 10.0176 58.0819 10.4712 57.158 11.2924C57.08 11.36 57.0161 11.4424 56.9702 11.5348C56.9242 11.6272 56.8971 11.7279 56.8903 11.8309C56.8836 11.9339 56.8974 12.0372 56.9309 12.1349C56.9645 12.2325 57.0171 12.3225 57.0857 12.3996C57.1543 12.4768 57.2375 12.5395 57.3306 12.5842C57.4236 12.6289 57.5246 12.6547 57.6277 12.66C57.7308 12.6653 57.834 12.6501 57.9311 12.6152C58.0283 12.5804 58.1176 12.5266 58.1938 12.4569C58.8323 11.8894 59.6568 11.576 60.5111 11.576C61.3653 11.576 62.1898 11.8894 62.8284 12.4569C62.9829 12.5943 63.1856 12.6646 63.392 12.6525C63.5984 12.6403 63.7915 12.5467 63.9288 12.3922C64.0662 12.2376 64.1365 12.0349 64.1244 11.8285C64.1122 11.6221 64.0186 11.429 63.8641 11.2917V11.2924Z" fill="#F35E19"/>
<path d="M60.5107 6.81641C58.4184 6.81353 56.4037 7.60877 54.8775 9.04001C54.8002 9.10923 54.7375 9.19318 54.6931 9.28694C54.6487 9.3807 54.6235 9.48238 54.6189 9.58602C54.6143 9.68967 54.6305 9.79318 54.6664 9.8905C54.7024 9.98781 54.7574 10.077 54.8283 10.1527C54.8991 10.2285 54.9844 10.2894 55.0791 10.3318C55.1738 10.3742 55.276 10.3972 55.3797 10.3996C55.4834 10.4019 55.5865 10.3836 55.6831 10.3455C55.7796 10.3075 55.8676 10.2506 55.9418 10.1782C57.1811 9.01955 58.8142 8.37502 60.5107 8.37502C62.2072 8.37502 63.8404 9.01955 65.0796 10.1782C65.1538 10.2506 65.2418 10.3075 65.3383 10.3455C65.4349 10.3836 65.538 10.4019 65.6417 10.3996C65.7454 10.3972 65.8476 10.3742 65.9423 10.3318C66.037 10.2894 66.1223 10.2285 66.1931 10.1527C66.264 10.077 66.319 9.98781 66.355 9.8905C66.3909 9.79318 66.4071 9.68967 66.4025 9.58602C66.3979 9.48238 66.3727 9.3807 66.3283 9.28694C66.2839 9.19318 66.2212 9.10923 66.1439 9.04001C64.6177 7.60877 62.603 6.81353 60.5107 6.81641Z" fill="#F35E19"/>
<path d="M68.1449 6.5259C66.0439 4.65127 63.3266 3.61523 60.5108 3.61523C57.695 3.61523 54.9777 4.65127 52.8767 6.5259C52.7977 6.59335 52.733 6.67591 52.6864 6.76871C52.6398 6.86151 52.6122 6.9627 52.6053 7.06631C52.5983 7.16993 52.6121 7.27389 52.6459 7.37209C52.6797 7.47028 52.7328 7.56073 52.8021 7.63812C52.8713 7.71551 52.9554 7.77827 53.0492 7.82273C53.1431 7.86719 53.2449 7.89244 53.3486 7.897C53.4523 7.90155 53.556 7.88533 53.6534 7.84928C53.7507 7.81323 53.8399 7.75807 53.9157 7.68706C55.731 6.06811 58.0783 5.17344 60.5106 5.17344C62.9429 5.17344 65.2903 6.06811 67.1055 7.68706C67.2596 7.82484 67.4621 7.89578 67.6685 7.88426C67.8748 7.87275 68.0682 7.77972 68.206 7.62564C68.3438 7.47156 68.4147 7.26906 68.4032 7.06268C68.3917 6.8563 68.2986 6.66295 68.1446 6.52516L68.1449 6.5259Z" fill="#F35E19"/>
<path d="M60.5107 15.7871C61.1666 15.7871 61.6982 15.2554 61.6982 14.5996C61.6982 13.9438 61.1666 13.4121 60.5107 13.4121C59.8549 13.4121 59.3232 13.9438 59.3232 14.5996C59.3232 15.2554 59.8549 15.7871 60.5107 15.7871Z" fill="#F35E19"/>
<path d="M8.08039 28.6504C7.74706 28.6504 7.50706 28.4837 7.36039 28.1504L1.42039 14.2504C1.27372 13.8771 1.26039 13.5837 1.38039 13.3704C1.51372 13.1437 1.74039 13.0304 2.06039 13.0304C2.39372 13.0304 2.63372 13.1971 2.78039 13.5304L8.30039 26.7304H7.86039L13.3604 13.5704C13.4404 13.3704 13.5404 13.2304 13.6604 13.1504C13.7804 13.0704 13.9404 13.0304 14.1404 13.0304C14.4471 13.0304 14.6537 13.1504 14.7604 13.3904C14.8671 13.6171 14.8604 13.8771 14.7404 14.1704L8.78039 28.1504C8.70039 28.3371 8.60039 28.4704 8.48039 28.5504C8.36039 28.6171 8.22706 28.6504 8.08039 28.6504ZM19.7898 28.7504C18.7231 28.7504 17.7698 28.5104 16.9298 28.0304C16.0898 27.5504 15.4298 26.8904 14.9498 26.0504C14.4698 25.2104 14.2298 24.2571 14.2298 23.1904C14.2298 22.1104 14.4698 21.1504 14.9498 20.3104C15.4298 19.4704 16.0898 18.8104 16.9298 18.3304C17.7698 17.8504 18.7231 17.6104 19.7898 17.6104C20.8564 17.6104 21.8031 17.8504 22.6298 18.3304C23.4698 18.8104 24.1298 19.4704 24.6098 20.3104C25.0898 21.1504 25.3364 22.1104 25.3498 23.1904C25.3498 24.2571 25.1031 25.2104 24.6098 26.0504C24.1298 26.8904 23.4698 27.5504 22.6298 28.0304C21.8031 28.5104 20.8564 28.7504 19.7898 28.7504ZM19.7898 27.3504C20.5631 27.3504 21.2564 27.1704 21.8698 26.8104C22.4831 26.4504 22.9631 25.9571 23.3098 25.3304C23.6564 24.7037 23.8298 23.9904 23.8298 23.1904C23.8298 22.3904 23.6564 21.6771 23.3098 21.0504C22.9631 20.4104 22.4831 19.9104 21.8698 19.5504C21.2564 19.1904 20.5631 19.0104 19.7898 19.0104C19.0164 19.0104 18.3231 19.1904 17.7098 19.5504C17.0964 19.9104 16.6098 20.4104 16.2498 21.0504C15.9031 21.6771 15.7298 22.3904 15.7298 23.1904C15.7298 23.9904 15.9031 24.7037 16.2498 25.3304C16.6098 25.9571 17.0964 26.4504 17.7098 26.8104C18.3231 27.1704 19.0164 27.3504 19.7898 27.3504ZM33.2249 28.7504C32.1716 28.7504 31.2316 28.5104 30.4049 28.0304C29.5916 27.5371 28.9449 26.8704 28.4649 26.0304C27.9983 25.1904 27.7649 24.2437 27.7649 23.1904C27.7649 22.1237 27.9916 21.1704 28.4449 20.3304C28.8983 19.4904 29.5183 18.8304 30.3049 18.3504C31.0916 17.8571 31.9983 17.6104 33.0249 17.6104C33.8383 17.6104 34.5849 17.7704 35.2649 18.0904C35.9583 18.4104 36.5649 18.8904 37.0849 19.5304C37.2316 19.6904 37.2849 19.8637 37.2449 20.0504C37.2049 20.2237 37.0916 20.3771 36.9049 20.5104C36.7583 20.6171 36.5916 20.6571 36.4049 20.6304C36.2316 20.5904 36.0783 20.4904 35.9449 20.3304C35.1716 19.4504 34.1983 19.0104 33.0249 19.0104C32.2783 19.0104 31.6183 19.1904 31.0449 19.5504C30.4849 19.9104 30.0449 20.4037 29.7249 21.0304C29.4183 21.6571 29.2649 22.3771 29.2649 23.1904C29.2649 23.9904 29.4316 24.7037 29.7649 25.3304C30.0983 25.9571 30.5649 26.4504 31.1649 26.8104C31.7649 27.1704 32.4516 27.3504 33.2249 27.3504C33.7449 27.3504 34.2183 27.2837 34.6449 27.1504C35.0849 27.0037 35.4716 26.7837 35.8049 26.4904C35.9649 26.3571 36.1316 26.2837 36.3049 26.2704C36.4783 26.2571 36.6383 26.3104 36.7849 26.4304C36.9449 26.5771 37.0316 26.7437 37.0449 26.9304C37.0716 27.1171 37.0116 27.2771 36.8649 27.4104C35.8916 28.3037 34.6783 28.7504 33.2249 28.7504ZM45.0595 28.7504C44.0328 28.7504 43.1128 28.5104 42.2995 28.0304C41.4861 27.5371 40.8395 26.8704 40.3595 26.0304C39.8928 25.1904 39.6595 24.2437 39.6595 23.1904C39.6595 22.1237 39.8995 21.1704 40.3795 20.3304C40.8728 19.4904 41.5395 18.8304 42.3795 18.3504C43.2195 17.8571 44.1661 17.6104 45.2195 17.6104C46.2728 17.6104 47.2128 17.8571 48.0395 18.3504C48.8795 18.8304 49.5395 19.4904 50.0195 20.3304C50.5128 21.1704 50.7661 22.1237 50.7795 23.1904L50.1595 23.6704C50.1595 24.6304 49.9328 25.4971 49.4795 26.2704C49.0395 27.0304 48.4328 27.6371 47.6595 28.0904C46.8995 28.5304 46.0328 28.7504 45.0595 28.7504ZM45.2195 27.3504C45.9928 27.3504 46.6795 27.1704 47.2795 26.8104C47.8928 26.4504 48.3728 25.9571 48.7195 25.3304C49.0795 24.6904 49.2595 23.9771 49.2595 23.1904C49.2595 22.3904 49.0795 21.6771 48.7195 21.0504C48.3728 20.4237 47.8928 19.9304 47.2795 19.5704C46.6795 19.1971 45.9928 19.0104 45.2195 19.0104C44.4595 19.0104 43.7728 19.1971 43.1595 19.5704C42.5461 19.9304 42.0595 20.4237 41.6995 21.0504C41.3395 21.6771 41.1595 22.3904 41.1595 23.1904C41.1595 23.9771 41.3395 24.6904 41.6995 25.3304C42.0595 25.9571 42.5461 26.4504 43.1595 26.8104C43.7728 27.1704 44.4595 27.3504 45.2195 27.3504ZM49.9995 28.6504C49.7728 28.6504 49.5861 28.5837 49.4395 28.4504C49.2928 28.3037 49.2195 28.1171 49.2195 27.8904V24.4704L49.5995 22.8904L50.7795 23.1904V27.8904C50.7795 28.1171 50.7061 28.3037 50.5595 28.4504C50.4128 28.5837 50.2261 28.6504 49.9995 28.6504ZM56.1346 28.6504C55.6013 28.6504 55.1213 28.5037 54.6946 28.2104C54.2813 27.9171 53.9546 27.5104 53.7146 26.9904C53.4879 26.4704 53.3746 25.8704 53.3746 25.1904V13.7904C53.3746 13.5637 53.4413 13.3837 53.5746 13.2504C53.7213 13.1037 53.9079 13.0304 54.1346 13.0304C54.3613 13.0304 54.5413 13.1037 54.6746 13.2504C54.8213 13.3837 54.8946 13.5637 54.8946 13.7904V25.1904C54.8946 25.7637 55.0079 26.2304 55.2346 26.5904C55.4746 26.9504 55.7746 27.1304 56.1346 27.1304H56.6346C56.8346 27.1304 56.9946 27.2037 57.1146 27.3504C57.2346 27.4837 57.2946 27.6637 57.2946 27.8904C57.2946 28.1171 57.2079 28.3037 57.0346 28.4504C56.8746 28.5837 56.6613 28.6504 56.3946 28.6504H56.1346ZM60.5191 28.6504C60.2791 28.6504 60.0858 28.5837 59.9391 28.4504C59.8058 28.3037 59.7391 28.1104 59.7391 27.8704V18.4904C59.7391 18.2504 59.8058 18.0637 59.9391 17.9304C60.0858 17.7837 60.2791 17.7104 60.5191 17.7104C60.7458 17.7104 60.9258 17.7837 61.0591 17.9304C61.2058 18.0637 61.2791 18.2504 61.2791 18.4904V27.8704C61.2791 28.1104 61.2058 28.3037 61.0591 28.4504C60.9258 28.5837 60.7458 28.6504 60.5191 28.6504ZM60.4991 15.6304C60.2058 15.6304 59.9525 15.5237 59.7391 15.3104C59.5258 15.0971 59.4191 14.8371 59.4191 14.5304C59.4191 14.1971 59.5258 13.9371 59.7391 13.7504C59.9658 13.5504 60.2258 13.4504 60.5191 13.4504C60.7991 13.4504 61.0458 13.5504 61.2591 13.7504C61.4858 13.9371 61.5991 14.1971 61.5991 14.5304C61.5991 14.8371 61.4925 15.0971 61.2791 15.3104C61.0658 15.5237 60.8058 15.6304 60.4991 15.6304ZM66.1004 28.1304L64.8404 27.4504L72.2804 17.9904L73.3204 18.8704L66.1004 28.1304ZM65.4004 28.6504C64.9337 28.6504 64.7004 28.4171 64.7004 27.9504C64.7004 27.4837 64.9337 27.2504 65.4004 27.2504H72.8204C73.2871 27.2504 73.5204 27.4837 73.5204 27.9504C73.5204 28.4171 73.2871 28.6504 72.8204 28.6504H65.4004ZM65.3204 19.1104C64.8537 19.1104 64.6204 18.8771 64.6204 18.4104C64.6204 17.9437 64.8537 17.7104 65.3204 17.7104H72.7404C73.2071 17.7104 73.4404 17.9437 73.4404 18.4104C73.4404 18.8771 73.2071 19.1104 72.7404 19.1104H65.3204ZM80.7463 28.7504C79.6663 28.7504 78.7063 28.5171 77.8663 28.0504C77.0397 27.5704 76.3863 26.9104 75.9063 26.0704C75.4397 25.2304 75.2063 24.2704 75.2063 23.1904C75.2063 22.0971 75.4263 21.1371 75.8663 20.3104C76.3197 19.4704 76.9397 18.8104 77.7263 18.3304C78.513 17.8504 79.4197 17.6104 80.4463 17.6104C81.4597 17.6104 82.3397 17.8437 83.0863 18.3104C83.8463 18.7637 84.433 19.3971 84.8463 20.2104C85.2597 21.0237 85.4663 21.9504 85.4663 22.9904C85.4663 23.2037 85.3997 23.3771 85.2663 23.5104C85.133 23.6304 84.9597 23.6904 84.7463 23.6904H76.2463V22.4104H84.9063L84.0463 23.0304C84.0597 22.2571 83.9197 21.5637 83.6263 20.9504C83.333 20.3371 82.913 19.8571 82.3663 19.5104C81.833 19.1637 81.193 18.9904 80.4463 18.9904C79.6863 18.9904 79.0197 19.1704 78.4463 19.5304C77.873 19.8904 77.4263 20.3904 77.1063 21.0304C76.7997 21.6571 76.6463 22.3771 76.6463 23.1904C76.6463 24.0037 76.8197 24.7237 77.1663 25.3504C77.5263 25.9771 78.013 26.4704 78.6263 26.8304C79.2397 27.1904 79.9463 27.3704 80.7463 27.3704C81.2263 27.3704 81.7063 27.2904 82.1863 27.1304C82.6797 26.9571 83.073 26.7437 83.3663 26.4904C83.513 26.3704 83.6797 26.3104 83.8663 26.3104C84.053 26.2971 84.213 26.3437 84.3463 26.4504C84.5197 26.6104 84.6063 26.7837 84.6063 26.9704C84.6197 27.1571 84.5463 27.3171 84.3863 27.4504C83.9463 27.8237 83.3863 28.1371 82.7063 28.3904C82.0263 28.6304 81.373 28.7504 80.7463 28.7504Z" fill="#F35E19"/>
<path d="M89.0515 28.6504C88.8248 28.6504 88.6382 28.5771 88.4915 28.4304C88.3448 28.2837 88.2715 28.0971 88.2715 27.8704V13.8104C88.2715 13.5837 88.3448 13.3971 88.4915 13.2504C88.6382 13.1037 88.8248 13.0304 89.0515 13.0304C89.2782 13.0304 89.4648 13.1037 89.6115 13.2504C89.7582 13.3971 89.8315 13.5837 89.8315 13.8104V27.8704C89.8315 28.0971 89.7582 28.2837 89.6115 28.4304C89.4648 28.5771 89.2782 28.6504 89.0515 28.6504ZM98.6179 28.7504C97.5512 28.7504 96.5979 28.5104 95.7579 28.0304C94.9179 27.5504 94.2579 26.8904 93.7779 26.0504C93.2979 25.2104 93.0579 24.2571 93.0579 23.1904C93.0579 22.1104 93.2979 21.1504 93.7779 20.3104C94.2579 19.4704 94.9179 18.8104 95.7579 18.3304C96.5979 17.8504 97.5512 17.6104 98.6179 17.6104C99.6846 17.6104 100.631 17.8504 101.458 18.3304C102.298 18.8104 102.958 19.4704 103.438 20.3104C103.918 21.1504 104.165 22.1104 104.178 23.1904C104.178 24.2571 103.931 25.2104 103.438 26.0504C102.958 26.8904 102.298 27.5504 101.458 28.0304C100.631 28.5104 99.6846 28.7504 98.6179 28.7504ZM98.6179 27.3504C99.3912 27.3504 100.085 27.1704 100.698 26.8104C101.311 26.4504 101.791 25.9571 102.138 25.3304C102.485 24.7037 102.658 23.9904 102.658 23.1904C102.658 22.3904 102.485 21.6771 102.138 21.0504C101.791 20.4104 101.311 19.9104 100.698 19.5504C100.085 19.1904 99.3912 19.0104 98.6179 19.0104C97.8446 19.0104 97.1512 19.1904 96.5379 19.5504C95.9246 19.9104 95.4379 20.4104 95.0779 21.0504C94.7312 21.6771 94.5579 22.3904 94.5579 23.1904C94.5579 23.9904 94.7312 24.7037 95.0779 25.3304C95.4379 25.9571 95.9246 26.4504 96.5379 26.8104C97.1512 27.1704 97.8446 27.3504 98.6179 27.3504ZM109.12 28.6504C108.907 28.6504 108.72 28.5771 108.56 28.4304C108.413 28.2704 108.34 28.0837 108.34 27.8704V13.0304H109.9V27.8704C109.9 28.0837 109.827 28.2704 109.68 28.4304C109.533 28.5771 109.347 28.6504 109.12 28.6504ZM103.6 14.4504C103.387 14.4504 103.213 14.3837 103.08 14.2504C102.947 14.1171 102.88 13.9504 102.88 13.7504C102.88 13.5371 102.947 13.3637 103.08 13.2304C103.213 13.0971 103.387 13.0304 103.6 13.0304H114.66C114.873 13.0304 115.047 13.0971 115.18 13.2304C115.313 13.3637 115.38 13.5371 115.38 13.7504C115.38 13.9504 115.313 14.1171 115.18 14.2504C115.047 14.3837 114.873 14.4504 114.66 14.4504H103.6Z" fill="#2CA02C"/>
</svg>
