<svg width="500" height="500" viewBox="0 0 500 500" fill="none" xmlns="http://www.w3.org/2000/svg">
<path d="M411.57 305.3C410.08 307.83 408.57 310.3 407.02 312.72C406.02 314.23 405.07 315.72 404.08 317.2C402.42 319.66 400.733 322.057 399.02 324.39L398.85 324.61C398.08 325.67 397.28 326.72 396.5 327.75C395.72 328.78 395.08 329.59 394.36 330.49C394.05 330.87 393.75 331.26 393.44 331.63L393.06 332.11C392.473 332.85 391.873 333.58 391.26 334.3C390.45 335.3 389.65 336.22 388.83 337.17C388.01 338.12 387.34 338.87 386.59 339.71C386.2 340.15 385.82 340.57 385.42 341C384.66 341.85 383.88 342.68 383.1 343.51C382.32 344.34 381.3 345.41 380.39 346.33L380.32 346.41C379.44 347.29 378.56 348.18 377.68 349.04C376.37 350.32 375.06 351.57 373.73 352.8C372.08 354.33 370.41 355.8 368.73 357.28C368.682 357.315 368.638 357.355 368.6 357.4C366.66 359.07 364.7 360.68 362.72 362.25C359.667 364.677 356.573 366.983 353.44 369.17C352.4 369.897 351.35 370.617 350.29 371.33C348.22 372.73 346.12 374.07 344 375.33L343.81 375.45C342.81 376.07 341.76 376.69 340.72 377.3L340.51 377.41C338.397 378.663 336.26 379.86 334.1 381L331.82 382.2L330.49 382.88C329.49 383.4 328.49 383.88 327.43 384.4C325.19 385.49 322.95 386.52 320.68 387.52C319.54 388.01 318.4 388.52 317.26 388.97C316.12 389.42 314.98 389.91 313.82 390.36C312.66 390.81 311.53 391.25 310.38 391.68C309.23 392.11 308.25 392.46 307.18 392.84L306.02 393.24C305.16 393.55 304.29 393.83 303.42 394.13C302.25 394.51 301.08 394.89 299.91 395.25H299.84C296.507 396.29 293.173 397.233 289.84 398.08C286.31 399 282.75 399.79 279.18 400.5C228.88 410.6 175.6 402.36 131.25 381.86C130.1 381.32 128.96 380.78 127.83 380.21L126.14 379.35C124.69 378.61 123.25 377.82 121.83 377C121.18 376.64 120.53 376.26 119.89 375.88C119.25 375.5 118.89 375.28 118.37 374.96C117.85 374.64 117.51 374.44 117.09 374.16C116.67 373.88 116.09 373.56 115.65 373.25C112.597 371.25 109.633 369.15 106.76 366.95C106.21 366.53 105.66 366.1 105.13 365.66L104.01 364.76L102.62 363.6C101.62 362.77 100.62 361.93 99.7 361.06C99.41 360.81 99.14 360.56 98.85 360.29C98.56 360.02 98.01 359.53 97.6 359.14C95.84 357.493 94.1334 355.8 92.48 354.06L91.6 353.12C89.38 350.75 87.27 348.29 85.26 345.77C84.72 345.11 84.26 344.44 83.7 343.77C82.07 341.66 80.53 339.49 79.06 337.28C78.65 336.65 78.23 336.02 77.83 335.39C76.43 333.2 75.12 330.99 73.83 328.73C73.43 328.01 73.04 327.28 72.66 326.55C72.28 325.82 71.98 325.24 71.66 324.55C70.4734 322.19 69.37 319.787 68.35 317.34C68.09 316.71 67.83 316.07 67.58 315.42C66.1316 311.77 64.8798 308.044 63.83 304.26C63.67 303.68 63.52 303.1 63.36 302.53C63.3649 302.474 63.3649 302.417 63.36 302.36C63.25 301.91 63.13 301.48 63.03 301.03C62.87 300.36 62.71 299.7 62.56 299.03C62.41 298.36 62.24 297.57 62.09 296.85C61.91 295.95 61.73 295.03 61.58 294.11C61.43 293.19 61.31 292.54 61.19 291.74C61.07 290.94 60.95 290.11 60.84 289.29C58.1 268.23 62.29 244.64 73.64 226.07C75.2014 223.506 76.911 221.035 78.76 218.67C80.9873 215.819 83.4312 213.145 86.07 210.67C86.1767 210.553 86.2939 210.446 86.42 210.35C90.7869 206.306 95.6936 202.886 101 200.19L104.7 198.33C107.08 197.15 109.38 196.02 111.64 194.95L113.71 193.95L114.02 193.8C115.587 193.073 117.13 192.373 118.65 191.7C121.49 190.42 124.243 189.227 126.91 188.12C127.58 187.83 128.25 187.56 128.91 187.29C130.91 186.46 132.91 185.66 134.82 184.91C136.28 184.33 137.72 183.77 139.15 183.24L139.65 183.04C140.93 182.56 142.19 182.04 143.44 181.64C148.37 179.8 153.08 178.14 157.66 176.53C182.15 167.89 203.28 160.37 236.85 134.98C267.53 111.81 303.26 92.1301 343 95.5001C393.18 99.7601 436.43 129.42 441.38 181.78C445.17 221.89 431.73 270.9 411.57 305.3Z" fill="#407BFF"/>
<path opacity="0.7" d="M411.57 305.3C410.08 307.83 408.57 310.3 407.02 312.72C406.02 314.23 405.07 315.72 404.08 317.2C402.42 319.66 400.733 322.057 399.02 324.39L398.85 324.61C398.08 325.67 397.28 326.72 396.5 327.75C395.72 328.78 395.08 329.59 394.36 330.49C394.05 330.87 393.75 331.26 393.44 331.63L393.06 332.11C392.473 332.85 391.873 333.58 391.26 334.3C390.45 335.3 389.65 336.22 388.83 337.17C388.01 338.12 387.34 338.87 386.59 339.71C386.2 340.15 385.82 340.57 385.42 341C384.66 341.85 383.88 342.68 383.1 343.51C382.32 344.34 381.3 345.41 380.39 346.33L380.32 346.41C379.44 347.29 378.56 348.18 377.68 349.04C376.37 350.32 375.06 351.57 373.73 352.8C372.08 354.33 370.41 355.8 368.73 357.28C368.682 357.315 368.638 357.355 368.6 357.4C366.66 359.06 364.69 360.68 362.72 362.25C359.667 364.677 356.573 366.983 353.44 369.17C352.4 369.897 351.35 370.617 350.29 371.33C348.22 372.72 346.12 374.06 344 375.33L343.81 375.45C342.81 376.07 341.76 376.69 340.72 377.3L340.51 377.41C338.4 378.66 336.25 379.86 334.1 381L331.82 382.2L330.49 382.88C329.49 383.4 328.49 383.88 327.43 384.4C325.19 385.49 322.94 386.52 320.68 387.52C319.54 388.01 318.4 388.52 317.26 388.97C316.12 389.42 314.98 389.91 313.82 390.36C312.66 390.81 311.53 391.25 310.38 391.68C309.23 392.11 308.25 392.46 307.18 392.84L306.02 393.24C305.16 393.55 304.29 393.83 303.42 394.13C302.25 394.51 301.08 394.89 299.91 395.25H299.84C296.507 396.29 293.173 397.233 289.84 398.08C286.31 399 282.75 399.79 279.18 400.5C228.88 410.6 175.6 402.36 131.25 381.86C130.1 381.32 128.96 380.78 127.83 380.21L126.14 379.35C124.69 378.61 123.25 377.82 121.83 377C121.18 376.64 120.53 376.26 119.89 375.88C119.25 375.5 118.89 375.28 118.37 374.96C117.85 374.64 117.51 374.44 117.09 374.16C116.67 373.88 116.09 373.56 115.65 373.25C112.597 371.25 109.633 369.15 106.76 366.95C106.21 366.53 105.66 366.1 105.13 365.66L104.01 364.76L102.62 363.6C101.62 362.77 100.62 361.93 99.7 361.06C99.41 360.81 99.14 360.56 98.85 360.29C98.56 360.02 98.01 359.53 97.6 359.14C95.84 357.493 94.1334 355.8 92.48 354.06L91.6 353.12C89.38 350.75 87.27 348.29 85.26 345.77C84.72 345.11 84.26 344.44 83.7 343.77C82.07 341.66 80.53 339.49 79.06 337.28C78.65 336.65 78.23 336.02 77.83 335.39C76.43 333.2 75.12 330.99 73.83 328.73C73.43 328.01 73.04 327.28 72.66 326.55C72.28 325.82 71.98 325.24 71.66 324.55C70.4734 322.19 69.37 319.787 68.35 317.34C68.09 316.71 67.83 316.07 67.58 315.42C66.1316 311.77 64.8798 308.044 63.83 304.26C63.67 303.68 63.52 303.1 63.36 302.53C63.3649 302.474 63.3649 302.417 63.36 302.36C63.25 301.91 63.13 301.48 63.03 301.03C62.87 300.36 62.71 299.7 62.56 299.03C62.41 298.36 62.24 297.57 62.09 296.85C61.91 295.95 61.73 295.03 61.58 294.11C61.43 293.19 61.31 292.54 61.19 291.74C61.07 290.94 60.95 290.11 60.84 289.29C58.1 268.23 62.29 244.64 73.64 226.07C75.2014 223.506 76.911 221.035 78.76 218.67C80.9873 215.819 83.4312 213.145 86.07 210.67C86.1767 210.553 86.2939 210.446 86.42 210.35C90.7869 206.306 95.6936 202.886 101 200.19L104.7 198.33C107.08 197.15 109.38 196.02 111.64 194.95L113.71 193.95L114.02 193.8C115.587 193.073 117.13 192.373 118.65 191.7C121.49 190.42 124.243 189.227 126.91 188.12C127.58 187.83 128.25 187.56 128.91 187.29C130.91 186.46 132.91 185.66 134.82 184.91C136.28 184.33 137.72 183.77 139.15 183.24L139.65 183.04C140.93 182.56 142.19 182.04 143.44 181.64C148.37 179.8 153.08 178.14 157.66 176.53C182.15 167.89 203.28 160.37 236.85 134.98C267.53 111.81 303.26 92.1301 343 95.5001C393.18 99.7601 436.43 129.42 441.38 181.78C445.17 221.89 431.73 270.9 411.57 305.3Z" fill="white"/>
<path d="M399 324.39C372.15 360.91 337.36 383.65 299.89 395.29H299.82C296.486 396.33 293.153 397.273 289.82 398.12C286.293 399.033 282.74 399.84 279.16 400.54C228.86 410.63 175.59 402.4 131.23 381.89C106.197 370.347 85.6323 350.924 72.6797 326.59C85.5097 317.41 109.48 308.7 150.6 319.83C221.12 338.91 275.17 383.97 322.11 351.12C355.34 327.9 379.69 319.82 399 324.39Z" fill="#407BFF"/>
<path d="M249.999 472.92C323.851 472.92 383.719 465.967 383.719 457.39C383.719 448.813 323.851 441.86 249.999 441.86C176.148 441.86 116.279 448.813 116.279 457.39C116.279 465.967 176.148 472.92 249.999 472.92Z" fill="#407BFF"/>
<path opacity="0.5" d="M249.999 472.92C323.851 472.92 383.719 465.967 383.719 457.39C383.719 448.813 323.851 441.86 249.999 441.86C176.148 441.86 116.279 448.813 116.279 457.39C116.279 465.967 176.148 472.92 249.999 472.92Z" fill="white"/>
<path d="M367.84 315.15L367.78 315.08L367.55 314.77C367.4 314.58 367.27 314.4 367.13 314.24L362.7 309.75L362.6 309.66L347.7 294.57C347.648 294.522 347.601 294.468 347.56 294.41C346.8 293.51 341.22 286.89 338.83 283.18C338.803 283.142 338.78 283.102 338.76 283.06C338.543 282.738 338.343 282.404 338.16 282.06C337.808 281.43 337.392 280.837 336.92 280.29C336.881 280.255 336.848 280.215 336.82 280.17C333.775 276.852 330.212 274.049 326.27 271.87L326.08 271.78C325.289 271.345 324.475 270.955 323.64 270.61L323.47 270.54C324.207 270.143 324.808 269.534 325.196 268.793C325.585 268.052 325.743 267.212 325.65 266.38C325.655 266.297 325.655 266.213 325.65 266.13C325.66 266.07 325.66 266.01 325.65 265.95V265.8C325.02 263.29 321.85 259.89 319.02 257.94L318.31 257.47C318.107 257.336 317.897 257.213 317.68 257.1L317.41 256.95L316.63 249.41H315.26L314.86 244.77C314.86 244.77 314.86 242.94 314.96 240.02C314.96 239.86 314.96 239.71 314.96 239.55C315.14 232.55 315.55 219.92 316.3 210.9C317.37 197.76 318.94 183.16 319.53 175.15C319.53 175.06 319.53 174.98 319.53 174.9C319.526 174.854 319.526 174.807 319.53 174.76C319.53 174.3 319.6 173.85 319.63 173.4C319.66 172.95 319.7 172.6 319.73 172.21C320.24 166.47 320.86 161.21 319.96 158.89C319.824 158.485 319.561 158.135 319.21 157.89C317.39 156.75 314.54 164.06 312.39 171.21C311.98 172.61 311.59 174.01 311.24 175.33C311.19 175.51 311.14 175.68 311.08 175.87C309.53 181.77 305.79 196.32 303.71 207.87C302.816 212.124 302.337 216.454 302.28 220.8V220.85C302.73 230.09 303.37 230.85 305.63 237.85C306.855 241.473 307.719 245.208 308.21 249L307.13 249.2L306.27 249.36L305.57 253.75C304.004 253.715 302.45 254.029 301.02 254.67C300.224 255.026 299.519 255.56 298.96 256.23L297.96 256.01C295.562 255.56 293.13 255.303 290.69 255.24C287.951 255.178 285.211 255.349 282.5 255.75H282.41C274.2 257.01 267.02 259.66 264.41 261.24C264.32 261.288 264.233 261.341 264.15 261.4C264.054 261.453 263.963 261.517 263.88 261.59C263.83 261.618 263.786 261.655 263.75 261.7L263.66 261.77C263.619 261.798 263.582 261.832 263.55 261.87L263.45 261.98C262.62 262.98 261.94 265.29 261.69 267.68C261.518 269.13 261.572 270.597 261.85 272.03C261.895 272.263 261.962 272.49 262.05 272.71L271.9 273.29L276.41 273.56L282.49 273.91L281.59 294.28C281.59 294.28 279.09 296.11 276.09 298.69C273.709 300.715 271.492 302.925 269.46 305.3C269.28 305.5 269.13 305.71 268.96 305.93L268.34 306.76C268.278 306.83 268.225 306.907 268.18 306.99C265.488 311.054 263.012 315.256 260.76 319.58C258.29 324.14 256.15 328.23 255.25 329.49C254.19 330.98 252.25 334.82 250.25 338.33C248.66 341.18 247.05 343.83 245.89 344.82C243.32 347.02 241.74 349.39 243.05 350C244.36 350.61 246.49 350.25 250.41 347C250.46 346.976 250.504 346.942 250.54 346.9C254.42 343.7 264.32 330.54 264.93 329.73C265.54 328.92 266.35 327.98 267.08 327.11C267.37 326.75 267.67 326.37 267.98 326.01C269.75 323.88 271.98 321.15 273.98 318.77C274.47 318.15 274.98 317.54 275.5 316.92C275.794 316.56 276.094 316.2 276.4 315.84C277.05 315.04 277.71 314.25 278.4 313.46C280.4 311.13 280.88 311.46 280.88 311.46L280.73 315.11L280.62 317.46L276.96 450.21C280.23 449.56 283.49 451.04 286.73 450.21C289.81 449.42 295.86 451.16 298.9 450.21H298.97L294.06 295.05V294.81L294.2 294.67L296.37 292.27L307.57 279.95C307.6 279.91 307.637 279.875 307.68 279.85C307.843 279.966 308.013 280.07 308.19 280.16C308.48 280.342 308.811 280.447 309.152 280.464C309.494 280.482 309.834 280.411 310.14 280.26C311.14 279.58 313.36 274.82 313.36 274.82L316.25 274.08H316.32L317.73 273.72L318.94 274.85L326.3 282L326.61 282.29L367.38 320.18L367.44 320.23C367.69 320.52 370.01 323.03 371.51 322.29C372.74 321.7 369.39 317.13 367.84 315.15ZM295.47 283L294.83 283.73L294.75 283.82L293.95 284.72H293.9V275H294.83H300.19L300.48 276.19V276.36L299.89 277.24C298.515 279.233 297.04 281.156 295.47 283Z" fill="white"/>
<path d="M320.18 272.7L318.84 275.1L317.63 274L316.18 274.37H316.11L313.22 275.11C313.22 275.11 311.05 279.87 310 280.55C309.694 280.702 309.354 280.772 309.012 280.754C308.671 280.737 308.34 280.632 308.05 280.45L308.72 278.67C308.234 277.296 307.308 276.122 306.085 275.328C304.863 274.534 303.413 274.166 301.96 274.28L301.5 277.15C301.5 277.15 299.5 273.8 299.55 273.33C299.6 272.86 296.72 269.79 296.27 265.28C295.82 260.77 298.04 251.95 309.58 254.34C309.58 254.34 305.85 254.7 304.34 260.86C302.83 267.02 312 271.38 320.18 272.7Z" fill="#407BFF"/>
<path d="M280.34 317.89L291.32 306.45L290.27 299.38L281.03 310.78L280.34 317.89Z" fill="#407BFF"/>
<path d="M288.18 265.89V264.41L294.47 270.62L293.96 274.73V285.08C292.32 286.72 289.54 288.96 288.24 289.98C288.38 275.83 288.38 266.36 288.18 265.89Z" fill="#407BFF"/>
<path d="M298.83 450.49H298.76C295.76 451.44 289.67 449.7 286.59 450.49C286.92 431.58 287.36 354.68 287.71 331.07C287.81 324.27 287.9 317.61 287.99 311.33C287.99 310.84 287.99 310.33 287.99 309.89C287.99 307.2 288.06 304.58 288.09 302.05V302L288.88 301.1L290.27 299.51L293.9 295.35L298.83 450.49Z" fill="#407BFF"/>
<path d="M371.51 322.32C369.92 323.11 367.42 320.24 367.42 320.24L317.63 274L316.18 274.37C318.866 273.578 321.391 272.319 323.64 270.65C329 272.81 336.3 278.65 338.16 282.1C340.02 285.55 347.65 294.54 347.65 294.54L367.13 314.26C367.13 314.26 373.09 321.53 371.51 322.32Z" fill="#407BFF"/>
<path d="M296.56 261.71C296.56 261.71 267.2 259.98 264.06 261.44C260.92 262.9 261.01 270.24 261.96 272.85L299.51 275.06V273.32L299.6 272.85C299.6 272.85 295.76 270.14 296.56 261.71Z" fill="#407BFF"/>
<path d="M305.581 274.73C305.581 274.73 300.161 286.46 293.011 291.53C285.861 296.6 271.861 306.26 259.811 320.74C259.811 320.74 266.061 306.97 272.961 301.25C279.861 295.53 289.161 290.04 291.961 287.09C294.761 284.14 301.961 274.27 301.961 274.27L305.581 274.73Z" fill="#407BFF"/>
<path d="M312.28 171.48C308.07 192.67 306.92 222.21 309.63 232.6C312.34 242.99 311.44 249.41 311.44 249.41H307.14V249.25L308.21 249.05C307.72 245.217 306.838 241.444 305.58 237.79C303.31 230.79 302.68 230.01 302.22 220.79C301.76 211.57 309.02 183.44 311.16 175.37C311.52 174.03 311.92 172.61 312.34 171.19L312.28 171.48Z" fill="#407BFF"/>
<path d="M305.58 253.79C302.13 253.92 299.47 254.72 297.83 258C295.41 262.82 295.66 269.25 299.63 272.85" stroke="#263238" stroke-linecap="round" stroke-linejoin="round"/>
<path d="M313.221 275.1C319.671 273.82 325.411 270.27 325.641 267.01C325.871 263.75 322.051 259.51 316.811 256.68" stroke="#263238" stroke-linecap="round" stroke-linejoin="round"/>
<path d="M317.31 257L316.52 249.45H306.26L305.58 253.83C307.569 253.905 309.539 254.241 311.44 254.83" stroke="#263238" stroke-linecap="round" stroke-linejoin="round"/>
<path d="M308.17 249.41C308.17 249.41 309.07 244.41 304.17 234.87C299.27 225.33 304.17 202.76 308.17 186.52C312.17 170.28 315.67 158.52 319.09 157.83C322.51 157.14 316.21 199.15 315.85 217.37C315.49 235.59 314.2 240.16 314.85 249.37" stroke="#263238" stroke-linecap="round" stroke-linejoin="round"/>
<path d="M308.73 278.66C308.73 278.66 306.07 272.87 301.96 274.27C298.48 279.64 294.35 285.76 289.08 289.48C283.53 293.39 277.71 296.24 272.96 301.25C268.417 306.254 264.529 311.815 261.39 317.8C255.81 327.92 251.2 338.73 243.78 347.59C243.15 348.34 242.47 349.36 242.97 350.2C243.47 351.04 244.97 350.84 245.97 350.31C252.06 347.07 255.78 340.98 260.04 335.8C263.42 331.69 266.78 327.57 270.16 323.47C277.93 314.06 285.73 304.68 293.66 295.41C296.66 291.9 299.66 288.41 302.76 284.98C303.21 284.47 308.87 279 308.73 278.66Z" stroke="#263238" stroke-linecap="round" stroke-linejoin="round"/>
<path d="M300.751 276.12C300.203 275.256 299.795 274.311 299.541 273.32C299.541 272.43 301.541 269.58 301.541 269.58" stroke="#263238" stroke-linecap="round" stroke-linejoin="round"/>
<path d="M307.53 280.12C307.53 280.12 309.53 281.04 310.26 280.12C310.99 279.2 313.52 274.53 313.52 274.53C313.52 274.53 310.12 270.14 307.52 269.58" stroke="#263238" stroke-linecap="round" stroke-linejoin="round"/>
<path d="M317.85 273.88C327.85 283.48 367.93 322.32 370.49 322.32C373.43 322.32 369.28 316.98 367.13 314.24C364.98 311.5 344.43 293.24 338.75 283.06C335.14 276.56 327.75 272.37 323.47 270.55" stroke="#263238" stroke-linecap="round" stroke-linejoin="round"/>
<path d="M300.19 275.1L291.62 274.6L287.06 274.32L276.32 273.7L271.82 273.43L261.96 272.85C261.96 272.85 260.28 263.85 264.06 261.44C266.62 259.82 274.37 257.57 280.29 256.24C282.426 255.707 284.598 255.336 286.79 255.13C288.126 255.116 289.461 255.176 290.79 255.31C292.69 255.47 294.73 255.72 296.37 255.93C297.13 256.03 298.43 256.05 298.95 256.13" stroke="#263238" stroke-linecap="round" stroke-linejoin="round"/>
<path d="M281.5 294.43L282.4 274.05" stroke="#263238" stroke-linecap="round" stroke-linejoin="round"/>
<path d="M298.76 450.49H276.82L280.48 317.74V317.73L280.59 315.38L280.6 315.28L280.79 310.7" stroke="#263238" stroke-linecap="round" stroke-linejoin="round"/>
<path d="M298.76 450.49C298.37 431.8 294.86 352.83 294.47 330.49C294.34 323.49 294.23 316.67 294.13 310.42C294.05 304.94 293.97 299.86 293.92 295.42V295.19" stroke="#263238" stroke-linecap="round" stroke-linejoin="round"/>
<path d="M294 274.73C293.85 274.73 293.87 278.39 293.92 285.19" stroke="#263238" stroke-linecap="round" stroke-linejoin="round"/>
<path d="M290.801 255.31C288.311 256.1 278.661 259.31 277.621 261.04C276.171 263.49 276.231 270.68 276.321 273.7L271.821 273.43C271.731 269.75 271.771 262.75 273.251 260.28C274.461 258.84 277.401 257.39 280.251 256.28C282.387 255.747 284.56 255.376 286.751 255.17C288.103 255.141 289.455 255.188 290.801 255.31Z" fill="#263238"/>
<path d="M299 256.29C299 256.29 293.2 258.94 292.15 261.76C291.27 264.11 291.54 272 291.66 274.6L287.1 274.32C287.1 271.04 287.2 263.25 287.66 261.22C288.24 258.64 296.42 255.93 296.42 255.93L298.37 256.2L299 256.29Z" fill="#263238"/>
<path d="M294.13 310.37C291.478 310.953 288.782 311.317 286.07 311.46V330.93C288.876 331.282 291.723 331.119 294.47 330.45" stroke="#263238" stroke-linecap="round" stroke-linejoin="round"/>
<path d="M282.4 274.05C285.409 277.425 289.522 279.616 294 280.23L293.94 274.51L282.4 274.05Z" fill="#263238"/>
<path opacity="0.1" d="M293.921 295.33L290.291 299.49V299.38L288.931 301.07L288.141 301.97V302.04L281.001 310.78L280.311 317.89L287.981 309.89C287.981 310.37 287.981 310.89 287.981 311.32C287.891 317.6 287.801 324.26 287.701 331.06C287.351 354.67 286.911 431.57 286.581 450.48C289.661 449.69 295.711 451.43 298.751 450.48H298.821L293.921 295.31V295.33Z" fill="black"/>
<path opacity="0.1" d="M367.131 314.23L347.651 294.51C347.651 294.51 340.041 285.56 338.161 282.07C336.281 278.58 329.001 272.78 323.641 270.62C322.544 271.44 321.376 272.16 320.151 272.77V272.7C311.921 271.38 302.801 267.02 304.311 260.85C305.821 254.68 309.551 254.33 309.551 254.33C300.641 252.48 297.291 257.33 296.431 261.7C294.611 261.6 267.071 260.03 264.031 261.44C260.991 262.85 260.981 270.24 261.931 272.85L288.311 274.4C288.311 278.45 288.311 283.76 288.211 289.98C289.261 289.16 291.281 287.53 292.881 286.07C292.541 286.46 292.231 286.81 291.961 287.07C289.131 290.07 279.841 295.51 272.961 301.23C266.081 306.95 259.811 320.72 259.811 320.72C271.861 306.24 285.861 296.58 293.011 291.51C299.611 286.83 304.721 276.51 305.481 274.92C306.976 275.726 308.128 277.048 308.721 278.64L308.051 280.42C308.34 280.602 308.671 280.707 309.013 280.724C309.354 280.742 309.694 280.671 310.001 280.52C311.051 279.84 313.221 275.08 313.221 275.08L316.111 274.34H316.181L317.631 273.97L367.421 320.24C367.421 320.24 369.921 323.11 371.511 322.32C373.101 321.53 367.131 314.23 367.131 314.23ZM298.911 272.14C298.071 271.115 297.455 269.927 297.101 268.65C297.586 269.871 298.192 271.04 298.911 272.14ZM293.911 284.82V274.73L299.461 275.06V273.32C299.737 274.236 300.148 275.105 300.681 275.9C299.161 278.09 296.221 282.05 294.001 284.82H293.911ZM301.911 274.27C302.851 274.198 303.797 274.317 304.691 274.62L301.911 274.27Z" fill="black"/>
<path opacity="0.1" d="M305.581 237.79C306.839 241.444 307.72 245.217 308.211 249.05L307.141 249.25V249.41H311.441C311.441 249.41 312.341 242.99 309.631 232.6C306.921 222.21 308.071 192.67 312.281 171.48L312.341 171.16C311.921 172.58 311.521 174 311.161 175.34C309.021 183.41 301.751 211.53 302.221 220.76C302.691 229.99 303.311 230.8 305.581 237.79Z" fill="black"/>
<path d="M318.75 233L305.41 222.12C305.41 222.12 285.57 202.12 282.41 196.34C279.25 190.56 274.33 186.01 265.41 182.43L265.13 182.31C266.351 181.647 267.347 180.636 267.992 179.406C268.636 178.175 268.9 176.781 268.75 175.4C268.31 170.4 260.36 162.48 254.86 159.72L253.55 147.18H251.29L250.61 139.47C250.61 139.47 251.23 104.96 253.04 83.14C254.85 61.32 256.45 50.35 257.43 37.05C258.41 23.75 260.18 26.37 256.56 24.11C253.56 22.24 245.69 43.94 245.1 46.11C241.53 59.53 231.85 86.32 231.85 101.68C231.85 114.8 229.9 119.79 235.34 127.83C242.17 137.93 239.71 146.54 239.71 146.54L237.93 146.87L236.48 147.13L235.82 151.27L235.34 154.42C235.34 154.42 227.95 154.09 224.34 158.57C215.28 156.6 205.934 156.315 196.77 157.73C181.3 160.06 167.99 165.41 165.39 167.73C162.79 170.05 160.81 180.63 162.73 186.05L196.73 188.05V188.22L215.88 189.8V189.73H217.43L226.36 189.78L226.57 190.67L228.57 192.79C226.19 196.5 221.79 200.55 219.36 203.36C218.413 204.445 217.234 205.302 215.91 205.87V205.7C212.84 208.87 207.66 213.96 203.55 216.59C200.37 218.59 196.41 221.29 193.27 223.42C189.27 226.52 182.95 233.6 177.27 243.42C171.33 253.7 160.57 271.23 154.85 278.34C152.25 285.71 166.31 275.76 166.31 275.76C166.31 275.76 186.37 252.39 190.22 247.76C191.9 245.76 214.43 220.9 214.43 220.9L225.76 208.65L237.31 197.08C238.003 197.639 238.724 198.163 239.47 198.65C239.956 198.951 240.51 199.123 241.081 199.149C241.651 199.175 242.219 199.055 242.73 198.8C244.46 197.68 248.08 189.8 248.08 189.8L252.9 188.57H253.01L256.14 187.76L257.64 189.49L322.92 243.04L325.42 243.15L324.35 239.91L318.75 233Z" fill="white"/>
<path d="M204.44 232.38L202.41 278.66L199.25 350.63L195.93 426.05H230.26L225.77 208.75L204.44 232.38Z" fill="white"/>
<path d="M225.759 206.38V190.47L206.609 188.89L205.119 222.59C205.119 222.59 204.369 223.14 203.119 224.1C206.259 221.97 210.229 219.31 213.399 217.28C217.509 214.65 222.699 209.55 225.759 206.38Z" fill="white"/>
<path d="M259.69 185.89L257.51 187.14L255.43 187.99L253.02 188.6H252.91L248.09 189.83C248.09 189.83 244.47 197.74 242.74 198.83C241.65 199.53 237.97 198.3 237.13 197.83L240.32 193.91C240.32 193.91 239.43 187.91 231.52 188.63L228.58 193.14C228.58 193.14 225.17 187.58 225.32 186.8C225.47 186.02 220.62 180.91 219.87 173.41C219.12 165.91 222.82 151.26 242.03 155.24C242.03 155.24 235.82 155.84 233.3 166.08C230.78 176.32 246 183.68 259.69 185.89Z" fill="#407BFF"/>
<path d="M203.561 244.62L221.841 225.62L220.241 214.88L204.711 232.81L203.561 244.62Z" fill="#407BFF"/>
<path d="M216.6 174.56V172.11L227.08 182.43L226.23 189.26V206.45C223.197 209.327 220.02 212.047 216.71 214.6C216.94 191.08 217 175.34 216.6 174.56Z" fill="#407BFF"/>
<path d="M230.26 450.49H213.18C213.61 426.94 217.33 287.58 218.18 216.91L225.7 209.7L230.26 450.49Z" fill="#407BFF"/>
<path d="M324.75 243.5C322.11 244.81 256.5 187.55 256.5 187.55L255.16 186.88C259.025 186.139 262.651 184.464 265.72 182C274.64 185.58 281.34 193.54 284.44 199.26C287.54 204.98 304.93 219.76 304.93 219.76L321.33 235.87C321.33 235.87 327.38 242.18 324.75 243.5Z" fill="#407BFF"/>
<path d="M220.35 167.62C220.35 167.62 171.47 164.74 166.24 167.17C161.01 169.6 161.15 181.8 162.74 186.17L225.27 189.83V186.94L225.42 186.16C225.42 186.16 219 181.63 220.35 167.62Z" fill="#407BFF"/>
<path d="M235.371 189.26C235.371 189.26 227.941 211.66 214.441 217.17C189.781 227.25 179.641 248.48 159.561 272.55C159.561 272.55 173.851 248.87 181.811 236.26C193.581 217.59 206.201 212.26 212.051 208.75C220.132 203.843 226.832 196.961 231.521 188.75L235.371 189.26Z" fill="#407BFF"/>
<path d="M242.11 119.26C247.11 136.38 245.11 147.18 245.11 147.18H238V146.92L239.78 146.59C239.78 146.59 241.91 141.84 236.37 130.97C233.72 125.77 232.8 127.25 231.7 111.97C230.6 96.69 244.1 42.65 252.7 27.71C253.75 25.69 232.81 87.41 242.11 119.26Z" fill="#407BFF"/>
<path d="M235.37 154.47C229.62 154.68 225.2 156.02 222.46 161.47C218.46 169.47 218.85 180.15 225.46 186.13" stroke="#263238" stroke-width="1.02127" stroke-linecap="round" stroke-linejoin="round"/>
<path d="M248.09 189.87C258.83 187.75 268.38 181.87 268.77 176.43C269.16 170.99 262.77 163.97 254.07 159.27" stroke="#263238" stroke-width="1.02127" stroke-linecap="round" stroke-linejoin="round"/>
<path d="M254.889 159.72L253.579 147.18H236.509L235.369 154.47C235.369 154.47 238.619 154.36 245.129 156.12" stroke="#263238" stroke-width="1.02127" stroke-linecap="round" stroke-linejoin="round"/>
<path d="M240.201 147.18C240.201 147.18 241.541 140.5 234.291 127.65C227.041 114.8 234.211 84.49 240.291 62.65C246.371 40.81 251.481 25.06 256.591 24.09C261.701 23.12 252.291 79.62 251.751 104.09C251.211 128.56 249.291 134.71 250.301 147.14" stroke="#263238" stroke-width="1.02127" stroke-linecap="round" stroke-linejoin="round"/>
<path d="M240.319 194C240.319 194 236.859 187 231.519 188.72C227.009 195.18 221.649 202.52 214.789 206.99C207.589 211.69 200.029 215.12 193.869 221.13C188.029 227.079 182.987 233.761 178.869 241.01C171.629 253.18 165.639 266.16 155.989 276.8C155.179 277.7 154.289 278.93 154.939 279.94C155.589 280.95 157.569 280.7 158.839 280.08C166.749 276.18 171.589 268.86 177.119 262.64C181.509 257.71 185.869 252.76 190.259 247.83C200.349 236.52 210.479 225.25 220.779 214.12C224.669 209.91 228.589 205.71 232.589 201.58C233.149 201 240.499 194.4 240.319 194Z" stroke="#263238" stroke-width="1.02127" stroke-linecap="round" stroke-linejoin="round"/>
<path d="M227.329 191.56C227.329 191.56 225.399 188.39 225.329 186.91C225.259 185.43 228.589 180.71 228.589 180.71" stroke="#263238" stroke-width="1.02127" stroke-linecap="round" stroke-linejoin="round"/>
<path d="M238.62 198.22C238.62 198.22 241.91 199.75 243.16 198.22C244.41 196.69 248.6 188.93 248.6 188.93C248.6 188.93 242.92 181.64 238.6 180.71" stroke="#263238" stroke-width="1.02127" stroke-linecap="round" stroke-linejoin="round"/>
<path d="M256.15 187.54C269.08 198.91 320.79 243.54 324.15 243.54C327.96 243.54 322.58 237.22 319.78 233.97C316.98 230.72 290.33 209.14 282.97 197.08C278.743 190.405 272.528 185.225 265.2 182.27" stroke="#263238" stroke-width="1.02127" stroke-linecap="round" stroke-linejoin="round"/>
<path d="M226.389 189.87L212.119 189L204.539 188.54L186.659 187.54L179.149 187.1L162.739 186.1C162.739 186.1 159.939 171.1 166.239 167.1C170.499 164.42 183.399 160.68 193.239 158.46C196.791 157.574 200.404 156.959 204.049 156.62C206.276 156.593 208.503 156.69 210.719 156.91C213.889 157.19 217.289 157.6 220.019 157.96C221.289 158.11 223.449 158.15 224.319 158.28" stroke="#263238" stroke-width="1.02127" stroke-linecap="round" stroke-linejoin="round"/>
<path d="M206 212.05L206.98 189.56" stroke="#263238" stroke-width="1.02127" stroke-linecap="round" stroke-linejoin="round"/>
<path d="M225.769 208.75C226.559 276.25 230.259 450.49 230.259 450.49H195.939L204.439 232.38" stroke="#263238" stroke-width="1.02127" stroke-linecap="round" stroke-linejoin="round"/>
<path d="M210.75 157C206.62 158.32 190.55 163.61 188.81 166.53C186.39 170.6 186.5 182.53 186.66 187.53L179.15 187.09C179.01 180.97 179.08 169.35 181.55 165.24C183.55 162.84 188.45 160.44 193.27 158.52C196.821 157.634 200.435 157.019 204.08 156.68C206.307 156.663 208.534 156.77 210.75 157Z" fill="#263238"/>
<path d="M224.35 158.62C224.35 158.62 214.7 163 213 167.7C211.53 171.6 212 184.7 212.17 189.04L204.59 188.58C204.59 183.12 204.74 170.18 205.51 166.82C206.51 162.53 220.1 158.03 220.1 158.03L223.35 158.47L224.35 158.62Z" fill="#263238"/>
<path d="M226.52 259.43C222.104 260.408 217.616 261.017 213.1 261.25V293.59C217.776 294.181 222.521 293.91 227.1 292.79" stroke="#263238" stroke-width="1.02127" stroke-linecap="round" stroke-linejoin="round"/>
<path d="M226.191 196.2C225.241 197.25 224.191 198.33 223.281 199.28C216.796 197.559 211.006 193.865 206.711 188.71L226.131 190.33L226.191 196.2Z" fill="#263238"/>
<path d="M323.29 457.39C323.97 452.11 324.29 442.39 319.02 437.09C311.47 429.54 300.15 441.8 297.32 441.8C294.49 441.8 293.54 434.26 285.05 427.65C276.56 421.04 266.18 429.54 260.52 427.65C254.86 425.76 265.24 396.52 249.2 395.58C233.16 394.64 227.5 435.2 216.2 435.2C204.9 435.2 202.99 427.65 191.67 434.26C182.8 439.43 177.99 452.12 176.32 457.39H323.29Z" fill="#407BFF"/>
<path opacity="0.2" d="M323.29 457.39C323.97 452.11 324.29 442.39 319.02 437.09C311.47 429.54 300.15 441.8 297.32 441.8C294.49 441.8 293.54 434.26 285.05 427.65C276.56 421.04 266.18 429.54 260.52 427.65C254.86 425.76 265.24 396.52 249.2 395.58C233.16 394.64 227.5 435.2 216.2 435.2C204.9 435.2 202.99 427.65 191.67 434.26C182.8 439.43 177.99 452.12 176.32 457.39H323.29Z" fill="black"/>
<path d="M207.07 456.75L197.48 441.16" stroke="#263238" stroke-linecap="round" stroke-linejoin="round"/>
<path d="M243.891 456.34L248.951 408.67" stroke="#263238" stroke-linecap="round" stroke-linejoin="round"/>
<path d="M273.121 456.75L278.061 438.63" stroke="#263238" stroke-linecap="round" stroke-linejoin="round"/>
<path d="M309.031 456.75L313.921 444.95" stroke="#263238" stroke-linecap="round" stroke-linejoin="round"/>
<path d="M208.45 441.58L203.39 450.44L191.58 445.8" stroke="#263238" stroke-linecap="round" stroke-linejoin="round"/>
<path d="M241.359 412.47L247.259 423.02L255.279 413.31" stroke="#263238" stroke-linecap="round" stroke-linejoin="round"/>
<path d="M237.98 429.35L245.58 438.63L253.17 432.72" stroke="#263238" stroke-linecap="round" stroke-linejoin="round"/>
<path d="M275.951 446.64L286.071 440.74" stroke="#263238" stroke-linecap="round" stroke-linejoin="round"/>
<path d="M275.111 450.02L270.041 436.94" stroke="#263238" stroke-linecap="round" stroke-linejoin="round"/>
<path d="M311.39 451.28L308.85 442.84" stroke="#263238" stroke-linecap="round" stroke-linejoin="round"/>
<path d="M310.541 452.97L317.711 450.02" stroke="#263238" stroke-linecap="round" stroke-linejoin="round"/>
<path d="M431.18 143.73H472.42C472.42 143.73 474.42 137.65 467.11 133.66C459.8 129.67 456.46 132.99 453.8 129.66C451.14 126.33 461.12 117.66 441.16 109.03C441.16 109.03 439.82 90.3299 412.53 89.7199C385.24 89.1099 392.53 108.42 385.25 113.1C377.97 117.78 375.9 110.43 368.6 115.1C361.3 119.77 364.6 129.1 358.6 130.4C352.6 131.7 344.6 124.4 337.3 129.08C330 133.76 329.97 137.73 326.64 137.73C323.31 137.73 316.64 135.06 312.64 137.73C308.64 140.4 303.98 143.73 303.98 143.73H422.75" stroke="#263238" stroke-miterlimit="10"/>
<path d="M64.0905 263H158.471C158.471 263 155.881 261.13 153.611 259.64C151.341 258.15 147.611 259.64 145.751 259.64C143.891 259.64 143.861 257.4 139.751 254.79C135.641 252.18 131.171 256.25 127.821 255.54C124.471 254.83 126.311 249.54 122.231 246.96C118.151 244.38 117.011 248.46 112.901 245.84C108.791 243.22 112.901 232.41 97.6105 232.75C82.3205 233.09 81.6105 243.57 81.6105 243.57C70.4205 248.41 76.0205 253.27 74.5205 255.13C73.0205 256.99 71.1605 255.13 67.0705 257.36C62.9805 259.59 64.0905 263 64.0905 263Z" stroke="#263238" stroke-miterlimit="10"/>
<path d="M377.84 197.07C386.063 196.908 394.269 197.895 402.22 200C413.39 202.94 424.1 207.81 435.54 209.37C446.98 210.93 459.98 208.37 467 199.23" stroke="#263238" stroke-linecap="round" stroke-linejoin="round"/>
<path d="M334.641 212.31C344.501 203.93 356.801 199.23 369.641 197.65" stroke="#263238" stroke-linecap="round" stroke-linejoin="round"/>
<path d="M447.41 224C455.1 223 462.36 219.84 467 213.78" stroke="#263238" stroke-linecap="round" stroke-linejoin="round"/>
<path d="M334.641 226.86C352.781 211.44 379.201 208.47 402.221 214.54C413.391 217.48 424.101 222.35 435.541 223.91C437.685 224.205 439.847 224.348 442.011 224.34" stroke="#263238" stroke-linecap="round" stroke-linejoin="round"/>
<path d="M420.471 234.83C425.381 236.467 430.423 237.681 435.541 238.46C447.001 240 460.001 237.49 467.001 228.32" stroke="#263238" stroke-linecap="round" stroke-linejoin="round"/>
<path d="M386.5 226.42C391.809 226.839 397.07 227.732 402.22 229.09C407.35 230.44 412.38 232.2 417.42 233.85" stroke="#263238" stroke-linecap="round" stroke-linejoin="round"/>
<path d="M334.641 241.41C345.821 231.91 360.141 227.13 374.871 226.29" stroke="#263238" stroke-linecap="round" stroke-linejoin="round"/>
</svg>
