<svg width="1512" height="450" viewBox="0 0 1512 450" fill="none" xmlns="http://www.w3.org/2000/svg">
<g clip-path="url(#clip0_2005_3969)">
<rect width="1512" height="450" fill="#2564B0" fill-opacity="0.81"/>
<path d="M252.208 262.079C283.661 301.628 299.106 351.552 295.481 401.954C291.856 452.356 269.426 499.556 232.638 534.198C195.849 568.84 147.387 588.395 96.8585 588.986C46.33 589.578 -2.5763 571.163 -40.1658 537.391C-77.7554 503.62 -101.284 456.958 -106.088 406.655C-110.891 356.352 -96.619 306.08 -66.1003 265.805C-35.5817 225.529 8.95551 198.191 58.6827 189.209C108.41 180.227 159.697 190.256 202.377 217.31L192.711 232.559C153.855 207.929 107.164 198.798 61.892 206.976C16.6203 215.153 -23.9264 240.042 -51.7105 276.708C-79.4947 313.375 -92.488 359.142 -88.1148 404.938C-83.7417 450.734 -62.3213 493.215 -28.0998 523.961C6.12175 554.706 50.6461 571.471 96.6472 570.933C142.648 570.395 186.768 552.592 220.26 521.054C253.753 489.516 274.173 446.545 277.473 400.659C280.773 354.773 266.712 309.322 238.077 273.316L252.208 262.079Z" fill="#6391C5"/>
<path d="M230.959 233.238C267.383 265.237 291.353 309.057 298.652 356.987C305.951 404.917 296.111 453.886 270.863 495.276C245.616 536.666 206.578 567.824 160.621 583.269C114.664 598.713 64.7325 597.453 19.6129 579.71C-25.5067 561.968 -62.9226 528.879 -86.0505 486.269C-109.178 443.658 -116.536 394.255 -106.829 346.754C-97.1212 299.253 -70.971 256.698 -32.9797 226.578C5.01155 196.457 52.4092 180.702 100.872 182.084L100.794 184.84C52.9793 183.477 6.21619 199.021 -31.2665 228.738C-68.7492 258.456 -94.5494 300.441 -104.127 347.306C-113.704 394.171 -106.445 442.913 -83.6268 484.953C-60.8086 526.994 -23.8935 559.639 20.6221 577.144C65.1376 594.649 114.401 595.892 159.743 580.655C205.085 565.417 243.599 534.676 268.509 493.84C293.419 453.004 303.127 404.691 295.926 357.402C288.725 310.113 265.075 266.88 229.139 235.31L230.959 233.238Z" fill="#6391C5"/>
<path d="M225.606 281.654C252.15 314.533 265.372 356.185 262.65 398.353C259.928 440.522 241.462 480.128 210.912 509.322C180.361 538.515 139.957 555.165 97.7087 555.969C55.4601 556.774 14.4514 541.675 -17.1885 513.666C-48.8283 485.657 -68.7894 446.782 -73.1149 404.748C-77.4404 362.714 -65.8145 320.589 -40.5418 286.723C-15.2691 252.858 21.8054 229.724 63.3324 221.908C104.859 214.091 147.807 222.164 183.663 244.524L177.605 254.238C144.186 233.397 104.156 225.873 65.45 233.159C26.7445 240.444 -7.81106 262.006 -31.3666 293.57C-54.9222 325.135 -65.7582 364.398 -61.7266 403.576C-57.695 442.755 -39.0901 478.988 -9.59999 505.094C19.8901 531.2 58.1126 545.273 97.4907 544.523C136.869 543.773 174.528 528.255 203.002 501.045C231.477 473.835 248.689 436.919 251.225 397.616C253.762 358.312 241.439 319.49 216.699 288.846L225.606 281.654Z" fill="#6391C5"/>
<path d="M241 388C241 424.614 227.243 459.891 202.457 486.839C177.67 513.787 143.663 530.438 107.177 533.491C70.6907 536.545 34.389 525.778 5.46779 503.326C-23.4534 480.873 -42.8828 448.373 -48.9688 412.269C-55.0549 376.164 -47.3534 339.091 -27.391 308.398C-7.42853 277.705 23.3375 255.633 58.8085 246.557C94.2794 237.481 131.866 242.063 164.117 259.396C196.368 276.729 220.929 305.547 232.932 340.138L196.263 352.862C187.451 327.467 169.419 306.311 145.742 293.586C122.065 280.86 94.471 277.496 68.4299 284.159C42.3889 290.823 19.802 307.027 5.14652 329.56C-9.50894 352.094 -15.163 379.311 -10.6949 405.817C-6.22681 432.323 8.03729 456.183 29.2698 472.666C50.5023 489.15 77.1533 497.054 103.94 494.813C130.726 492.571 155.692 480.346 173.889 460.563C192.086 440.779 202.186 414.88 202.186 388H241Z" fill="#6391C5"/>
<path d="M207.153 249.038C241.876 277.289 264.717 317.555 271.148 361.855C277.579 406.155 267.131 451.254 241.875 488.212C216.618 525.171 178.397 551.29 134.789 561.394C91.1797 571.497 45.3664 564.847 6.43028 542.761C-32.5059 520.675 -61.7224 484.766 -75.4278 442.151C-89.1333 399.537 -86.327 353.329 -67.5653 312.686C-48.8036 272.044 -15.4562 239.934 25.8665 222.722C67.1892 205.51 113.471 204.453 155.536 219.76L153.696 224.816C112.899 209.971 68.0126 210.997 27.9356 227.69C-12.1414 244.383 -44.4835 275.524 -62.6796 314.942C-80.8757 354.359 -83.5973 399.174 -70.3051 440.504C-57.0128 481.833 -28.6771 516.66 9.08529 538.08C46.8476 559.501 91.2798 565.95 133.574 556.152C175.868 546.353 212.937 521.02 237.432 485.176C261.927 449.332 272.06 405.592 265.823 362.628C259.586 319.664 237.433 280.612 203.757 253.213L207.153 249.038Z" fill="#6391C5"/>
<rect x="27" y="99" width="44" height="44" fill="#6391C5"/>
<rect x="95" y="55" width="44" height="44" fill="#6391C5"/>
<circle cx="6" cy="27" r="6" transform="rotate(-90 6 27)" fill="#6391C5"/>
<circle cx="6" cy="7" r="6" transform="rotate(-90 6 7)" fill="#6391C5"/>
<circle cx="26" cy="27" r="6" transform="rotate(-90 26 27)" fill="#6391C5"/>
<circle cx="26" cy="7" r="6" transform="rotate(-90 26 7)" fill="#6391C5"/>
<circle cx="46" cy="27" r="6" transform="rotate(-90 46 27)" fill="#6391C5"/>
<circle cx="46" cy="7" r="6" transform="rotate(-90 46 7)" fill="#6391C5"/>
<circle cx="66" cy="27" r="6" transform="rotate(-90 66 27)" fill="#6391C5"/>
<circle cx="66" cy="7" r="6" transform="rotate(-90 66 7)" fill="#6391C5"/>
<circle cx="86" cy="27" r="6" transform="rotate(-90 86 27)" fill="#6391C5"/>
<circle cx="86" cy="7" r="6" transform="rotate(-90 86 7)" fill="#6391C5"/>
<circle cx="106" cy="27" r="6" transform="rotate(-90 106 27)" fill="#6391C5"/>
<circle cx="106" cy="7" r="6" transform="rotate(-90 106 7)" fill="#6391C5"/>
<circle cx="126" cy="27" r="6" transform="rotate(-90 126 27)" fill="#6391C5"/>
<circle cx="126" cy="7" r="6" transform="rotate(-90 126 7)" fill="#6391C5"/>
<circle cx="146" cy="27" r="6" transform="rotate(-90 146 27)" fill="#6391C5"/>
<circle cx="146" cy="7" r="6" transform="rotate(-90 146 7)" fill="#6391C5"/>
<circle cx="166" cy="27" r="6" transform="rotate(-90 166 27)" fill="#6391C5"/>
<circle cx="166" cy="7" r="6" transform="rotate(-90 166 7)" fill="#6391C5"/>
<circle cx="186" cy="27" r="6" transform="rotate(-90 186 27)" fill="#6391C5"/>
<circle cx="186" cy="7" r="6" transform="rotate(-90 186 7)" fill="#6391C5"/>
<path d="M1359.47 160.41C1322.61 131.405 1298.19 89.446 1291.18 43.0719C1284.16 -3.3021 1295.08 -50.6057 1321.72 -89.2115C1348.35 -127.817 1388.69 -154.824 1434.54 -164.735C1480.38 -174.645 1528.27 -166.716 1568.48 -142.559L1559.97 -128.397C1523.37 -150.389 1479.76 -157.608 1438.03 -148.586C1396.29 -139.563 1359.56 -114.976 1335.32 -79.8293C1311.07 -44.6826 1301.13 -1.61741 1307.51 40.6015C1313.9 82.8204 1336.13 121.02 1369.68 147.426L1359.47 160.41Z" fill="#6391C5"/>
<path d="M1587.53 -129.412C1624.39 -100.408 1648.81 -58.4491 1655.83 -12.0751C1662.84 34.2988 1651.92 81.6026 1625.29 120.209C1598.65 158.815 1558.31 185.822 1512.47 195.734C1466.63 205.646 1418.73 197.717 1378.53 173.561L1387.04 159.399C1423.64 181.39 1467.24 188.609 1508.98 179.585C1550.71 170.562 1587.44 145.974 1611.69 110.827C1635.93 75.6798 1645.88 32.6144 1639.49 -9.60441C1633.11 -51.8232 1610.87 -90.0225 1577.32 -116.428L1587.53 -129.412Z" fill="#6391C5"/>
<path d="M1330.15 138.875C1300.12 104.171 1283.78 59.7048 1284.19 13.8141C1284.61 -32.0767 1301.75 -76.2401 1332.4 -110.395C1363.05 -144.55 1405.11 -166.351 1450.69 -171.709C1496.27 -177.068 1542.24 -165.616 1579.98 -139.501C1617.71 -113.386 1644.63 -74.4022 1655.68 -29.859C1666.72 14.6843 1661.14 61.7275 1639.98 102.45C1618.82 143.172 1583.53 174.775 1540.73 191.335C1497.93 207.895 1450.55 208.273 1407.49 192.398L1408.37 190.03C1450.85 205.692 1497.59 205.319 1539.82 188.981C1582.04 172.643 1616.86 141.463 1637.74 101.286C1658.62 61.1089 1664.13 14.6955 1653.23 -29.2515C1642.33 -73.1985 1615.77 -111.661 1578.54 -137.426C1541.31 -163.191 1495.95 -174.489 1450.99 -169.203C1406.02 -163.916 1364.52 -142.407 1334.28 -108.71C1304.04 -75.0118 1287.13 -31.4396 1286.72 13.8369C1286.31 59.1133 1302.43 102.984 1332.06 137.223L1330.15 138.875Z" fill="#6391C5"/>
<path d="M1343.29 99.2713C1332.36 82.2251 1324.89 63.1929 1321.32 43.2613C1317.74 23.3297 1318.13 2.88897 1322.45 -16.8937C1326.78 -36.6764 1334.95 -55.4137 1346.52 -72.0357C1358.08 -88.6577 1372.81 -102.839 1389.86 -113.77C1406.9 -124.7 1425.94 -132.167 1445.87 -135.742C1465.8 -139.318 1486.24 -138.932 1506.02 -134.608C1525.8 -130.284 1544.54 -122.105 1561.16 -110.54C1577.79 -98.9743 1591.97 -84.248 1602.9 -67.2019L1594.08 -61.5465C1583.89 -77.4345 1570.67 -91.1602 1555.18 -101.94C1539.69 -112.72 1522.22 -120.342 1503.78 -124.373C1485.35 -128.403 1466.29 -128.762 1447.72 -125.43C1429.14 -122.097 1411.4 -115.138 1395.51 -104.95C1379.62 -94.7623 1365.9 -81.5445 1355.12 -66.0519C1344.34 -50.5592 1336.72 -33.095 1332.69 -14.6565C1328.66 3.78213 1328.3 22.834 1331.63 41.4114C1334.96 59.9888 1341.92 77.7279 1352.11 93.6159L1343.29 99.2713Z" fill="#6391C5"/>
<path d="M1611.34 -52.2653C1627.97 -18.6004 1631.75 19.9763 1621.96 56.2274C1612.18 92.4786 1589.5 123.913 1558.18 144.633C1526.87 165.353 1489.07 173.934 1451.88 168.768C1414.68 163.601 1380.66 145.041 1356.17 116.57L1364.12 109.739C1386.94 136.276 1418.65 153.575 1453.32 158.39C1487.98 163.206 1523.21 155.207 1552.4 135.895C1581.59 116.583 1602.73 87.2847 1611.85 53.4966C1620.97 19.7085 1617.45 -16.2472 1601.95 -47.6248L1611.34 -52.2653Z" fill="#6391C5"/>
<path d="M1339.11 13.7912C1339.52 -17.8876 1351.17 -48.3901 1371.99 -72.2724C1392.8 -96.1548 1421.43 -111.863 1452.76 -116.593C1484.08 -121.323 1516.07 -114.768 1543.01 -98.0967C1569.95 -81.4256 1590.09 -55.7238 1599.84 -25.5783L1566.04 -14.6527C1558.88 -36.7841 1544.1 -55.6531 1524.32 -67.8922C1504.54 -80.1313 1481.06 -84.944 1458.06 -81.4713C1435.06 -77.9986 1414.04 -66.4665 1398.76 -48.9333C1383.48 -31.4001 1374.92 -9.0066 1374.62 14.2504L1339.11 13.7912Z" fill="#6391C5"/>
<path d="M1602.76 -15.0779C1606.98 2.83233 1607.44 21.4198 1604.14 39.5196C1600.83 57.6195 1593.83 74.8416 1583.55 90.1068C1573.28 105.372 1559.97 118.351 1544.45 128.231C1528.93 138.111 1511.53 144.678 1493.35 147.522C1475.18 150.366 1456.61 149.425 1438.81 144.757C1421.01 140.089 1404.37 131.796 1389.93 120.397C1375.49 108.998 1363.55 94.7393 1354.88 78.5135C1346.2 62.2878 1340.97 44.4453 1339.51 26.104L1374.92 23.2899C1375.99 36.7551 1379.83 49.8543 1386.2 61.7664C1392.57 73.6785 1401.33 84.1469 1411.93 92.5154C1422.54 100.884 1434.75 106.972 1447.82 110.399C1460.89 113.826 1474.52 114.517 1487.86 112.429C1501.21 110.341 1513.98 105.52 1525.38 98.2666C1536.77 91.0132 1546.54 81.4845 1554.09 70.2776C1561.63 59.0706 1566.77 46.427 1569.2 33.139C1571.62 19.8509 1571.28 6.20495 1568.19 -6.94385L1602.76 -15.0779Z" fill="#6391C5"/>
<path d="M1353.58 128.425C1324.77 97.578 1309.03 56.78 1309.64 14.5804C1310.25 -27.6193 1327.16 -67.9452 1356.85 -97.947C1386.53 -127.949 1426.67 -145.298 1468.86 -146.359C1511.05 -147.419 1552.02 -132.109 1583.17 -103.637L1579.85 -100.002C1549.64 -127.616 1509.91 -142.464 1468.99 -141.436C1428.07 -140.407 1389.14 -123.581 1360.35 -94.4835C1331.56 -65.3861 1315.15 -26.2759 1314.56 14.6515C1313.97 55.579 1329.24 95.147 1357.18 125.064L1353.58 128.425Z" fill="#6391C5"/>
<path d="M1592.35 -94.5634C1620.7 -64.196 1636.42 -24.1649 1636.3 17.3827C1636.19 58.9303 1620.24 98.872 1591.72 129.078C1563.19 159.285 1524.22 177.486 1482.75 179.978C1441.28 182.469 1400.41 169.064 1368.48 142.49L1371.62 138.704C1402.6 164.477 1442.23 177.479 1482.45 175.062C1522.68 172.646 1560.47 154.993 1588.14 125.697C1615.8 96.4014 1631.27 57.6639 1631.38 17.3688C1631.49 -22.9263 1616.25 -61.7506 1588.75 -91.2025L1592.35 -94.5634Z" fill="#6391C5"/>
<path d="M1487.69 426.466L1499.05 388.113L1537.94 378.775L1565.48 407.79L1554.11 446.143L1515.22 455.481L1487.69 426.466Z" fill="#6391C5"/>
<path d="M1408.34 404.379L1419.7 366.026L1458.59 356.688L1486.13 385.703L1474.77 424.056L1435.87 433.394L1408.34 404.379Z" fill="#6391C5"/>
<path d="M1428.96 481.701L1440.32 443.349L1479.21 434.011L1506.75 463.026L1495.39 501.379L1456.49 510.716L1428.96 481.701Z" fill="#6391C5"/>
<path d="M1249.92 213.076L1298.54 244.077C1301.77 246.132 1304.04 249.384 1304.87 253.117C1305.69 256.85 1305 260.759 1302.95 263.983L1287.45 288.296C1285.39 291.52 1282.14 293.795 1278.41 294.621C1274.67 295.448 1270.77 294.757 1267.54 292.702L1261.46 288.827L1245.96 313.139C1244.94 314.751 1243.31 315.889 1241.44 316.302C1239.58 316.715 1237.62 316.37 1236.01 315.342L1223.85 307.592C1222.24 306.564 1221.1 304.938 1220.69 303.072C1220.28 301.205 1220.62 299.251 1221.65 297.639L1237.15 273.326L1218.92 261.701L1173.03 266.638L1235.03 169.388L1249.92 213.076ZM1176.67 200.575C1170.05 210.969 1169.88 224.11 1176.37 234.575L1207.37 185.95C1195.16 184.58 1183.26 190.242 1176.67 200.575Z" fill="#6391C5"/>
<rect x="1098.18" y="227.259" width="12" height="61" transform="rotate(-89.5709 1098.18 227.259)" fill="#6391C5"/>
<rect x="1106.81" y="162.793" width="12" height="61" transform="rotate(-57.4806 1106.81 162.793)" fill="#6391C5"/>
<rect x="1158.43" y="120.896" width="12" height="61" transform="rotate(-25.7559 1158.43 120.896)" fill="#6391C5"/>
<g opacity="0.4">
<path d="M569.541 119.207L575.372 143.903L550.676 149.734L544.845 125.038L569.541 119.207ZM410.732 182.778L435.428 176.947L429.597 152.251L404.901 158.082L410.732 182.778ZM518.662 87.7661C516.524 78.711 507.366 73.0516 498.31 75.1897L448.919 86.8522C439.864 88.9903 434.204 98.1485 436.342 107.204L451.892 173.059L534.212 153.622L518.662 87.7661ZM455.78 189.523L447.548 191.467L451.435 207.931L492.595 198.212L494.539 206.444L469.386 247.147L492.436 241.704L506.27 219.318L528.656 233.152L551.706 227.709L511.003 202.557L509.059 194.325L550.219 184.606L546.331 168.142L455.78 189.523Z" fill="#6391C5"/>
</g>
<rect y="70" width="1512" height="213" fill="url(#paint0_linear_2005_3969)" fill-opacity="0.2"/>
</g>
<defs>
<linearGradient id="paint0_linear_2005_3969" x1="1.22623e-07" y1="207.5" x2="1452.5" y2="203" gradientUnits="userSpaceOnUse">
<stop/>
<stop offset="1" stop-color="#EBEBEB" stop-opacity="0"/>
</linearGradient>
<clipPath id="clip0_2005_3969">
<rect width="1512" height="450" fill="white"/>
</clipPath>
</defs>
</svg>
