<svg width="1512" height="450" viewBox="0 0 1512 450" fill="none" xmlns="http://www.w3.org/2000/svg">
<g clip-path="url(#clip0_1999_3833)">
<rect width="1512" height="450" fill="#F48652"/>
<circle cx="21" cy="36" r="6" transform="rotate(-90 21 36)" fill="#F7612F"/>
<circle cx="21" cy="16" r="6" transform="rotate(-90 21 16)" fill="#F7612F"/>
<circle cx="41" cy="36" r="6" transform="rotate(-90 41 36)" fill="#F7612F"/>
<circle cx="41" cy="16" r="6" transform="rotate(-90 41 16)" fill="#F7612F"/>
<circle cx="61" cy="36" r="6" transform="rotate(-90 61 36)" fill="#F7612F"/>
<circle cx="61" cy="16" r="6" transform="rotate(-90 61 16)" fill="#F7612F"/>
<circle cx="81" cy="36" r="6" transform="rotate(-90 81 36)" fill="#F7612F"/>
<circle cx="81" cy="16" r="6" transform="rotate(-90 81 16)" fill="#F7612F"/>
<circle cx="101" cy="36" r="6" transform="rotate(-90 101 36)" fill="#F7612F"/>
<circle cx="101" cy="16" r="6" transform="rotate(-90 101 16)" fill="#F7612F"/>
<circle cx="121" cy="36" r="6" transform="rotate(-90 121 36)" fill="#F7612F"/>
<circle cx="121" cy="16" r="6" transform="rotate(-90 121 16)" fill="#F7612F"/>
<circle cx="141" cy="36" r="6" transform="rotate(-90 141 36)" fill="#F7612F"/>
<circle cx="141" cy="16" r="6" transform="rotate(-90 141 16)" fill="#F7612F"/>
<circle cx="161" cy="36" r="6" transform="rotate(-90 161 36)" fill="#F7612F"/>
<circle cx="161" cy="16" r="6" transform="rotate(-90 161 16)" fill="#F7612F"/>
<circle cx="181" cy="36" r="6" transform="rotate(-90 181 36)" fill="#F7612F"/>
<circle cx="181" cy="16" r="6" transform="rotate(-90 181 16)" fill="#F7612F"/>
<circle cx="201" cy="36" r="6" transform="rotate(-90 201 36)" fill="#F7612F"/>
<circle cx="201" cy="16" r="6" transform="rotate(-90 201 16)" fill="#F7612F"/>
<rect x="15" y="53" width="10" height="10" fill="#F85826"/>
<rect x="33" y="53" width="10" height="10" fill="#F85826"/>
<rect x="15" y="71" width="10" height="10" fill="#F85826"/>
<rect x="33" y="71" width="10" height="10" fill="#F85826"/>
<rect x="15" y="89" width="10" height="10" fill="#F85826"/>
<rect x="33" y="89" width="10" height="10" fill="#F85826"/>
<rect x="15" y="107" width="10" height="10" fill="#F85826"/>
<rect x="33" y="107" width="10" height="10" fill="#F85826"/>
<rect x="15" y="125" width="10" height="10" fill="#F85826"/>
<rect x="33" y="125" width="10" height="10" fill="#F85826"/>
<rect x="15" y="143" width="10" height="10" fill="#F85826"/>
<rect x="33" y="143" width="10" height="10" fill="#F85826"/>
<rect x="15" y="161" width="10" height="10" fill="#F85826"/>
<rect x="33" y="161" width="10" height="10" fill="#F85826"/>
<rect x="15" y="179" width="10" height="10" fill="#F85826"/>
<rect x="33" y="179" width="10" height="10" fill="#F85826"/>
<rect x="15" y="197" width="10" height="10" fill="#F85826"/>
<rect x="33" y="197" width="10" height="10" fill="#F85826"/>
<path d="M28.7966 370.27L45.5516 313.706L102.915 299.934L143.523 342.726L126.768 399.29L69.405 413.062L28.7966 370.27Z" fill="#F85826" fill-opacity="0.8"/>
<path d="M-88.2268 337.695L-71.4718 281.131L-14.1085 267.36L26.4998 310.152L9.74483 366.716L-47.6185 380.488L-88.2268 337.695Z" fill="#F85826" fill-opacity="0.8"/>
<path d="M-57.8147 451.733L-41.0597 395.169L16.3036 381.398L56.9119 424.19L40.1569 480.754L-17.2064 494.526L-57.8147 451.733Z" fill="#F85826" fill-opacity="0.8"/>
<path d="M1443.87 320.321C1492.84 307.835 1544.71 314.203 1589.2 338.162C1633.69 362.12 1667.55 401.921 1684.08 449.674C1700.61 497.428 1698.59 549.647 1678.42 595.981C1658.26 642.315 1621.42 679.382 1575.21 699.833C1529 720.284 1476.8 722.627 1428.94 706.397C1381.09 690.167 1341.08 656.549 1316.84 612.207C1292.61 567.865 1285.92 516.037 1298.1 466.995C1310.29 417.954 1340.45 375.279 1382.62 347.432L1392.57 362.497C1354.18 387.85 1326.72 426.7 1315.63 471.348C1304.53 515.995 1310.62 563.18 1332.69 603.549C1354.75 643.917 1391.17 674.523 1434.74 689.299C1478.31 704.075 1525.84 701.942 1567.9 683.323C1609.97 664.705 1643.51 630.959 1661.87 588.777C1680.22 546.594 1682.06 499.053 1667.02 455.579C1651.97 412.104 1621.14 375.87 1580.64 354.058C1540.13 332.246 1492.91 326.448 1448.33 337.815L1443.87 320.321Z" fill="#F7612F"/>
<path d="M1408.86 327.887C1452.97 307.772 1502.77 303.862 1549.48 316.843C1596.19 329.825 1636.83 358.866 1664.24 398.856C1691.65 438.847 1704.08 487.224 1699.33 535.474C1694.59 583.724 1672.98 628.756 1638.31 662.644C1603.64 696.531 1558.12 717.104 1509.78 720.741C1461.43 724.379 1413.35 710.847 1374 682.529C1334.64 654.21 1306.54 612.919 1294.63 565.921C1282.72 518.924 1287.77 469.232 1308.89 425.59L1311.37 426.792C1290.54 469.849 1285.56 518.876 1297.31 565.244C1309.06 611.612 1336.78 652.351 1375.61 680.29C1414.43 708.23 1461.87 721.58 1509.57 717.991C1557.27 714.403 1602.17 694.106 1636.38 660.671C1670.59 627.237 1691.91 582.809 1696.59 535.204C1701.27 487.6 1689.01 439.871 1661.96 400.416C1634.92 360.96 1594.83 332.308 1548.74 319.5C1502.65 306.693 1453.53 310.551 1410 330.396L1408.86 327.887Z" fill="#F7612F"/>
<path d="M1450.83 352.608C1491.7 341.867 1535.11 346.873 1572.46 366.634C1609.81 386.396 1638.37 419.47 1652.49 459.3C1666.6 499.13 1665.23 542.808 1648.65 581.677C1632.08 620.546 1601.5 651.767 1562.98 669.152C1524.47 686.537 1480.83 688.816 1440.71 675.538C1400.6 662.26 1366.94 634.394 1346.4 597.464C1325.86 560.534 1319.95 517.236 1329.84 476.152C1339.72 435.069 1364.68 399.199 1399.77 375.654L1406.15 385.161C1373.45 407.106 1350.18 440.538 1340.97 478.831C1331.75 517.123 1337.26 557.479 1356.4 591.9C1375.55 626.321 1406.92 652.294 1444.31 664.67C1481.7 677.046 1522.38 674.921 1558.27 658.717C1594.17 642.514 1622.67 613.414 1638.12 577.186C1653.57 540.958 1654.85 500.247 1641.7 463.123C1628.54 425.999 1601.92 395.172 1567.11 376.754C1532.29 358.335 1491.83 353.669 1453.74 363.68L1450.83 352.608Z" fill="#F7612F"/>
<path d="M1554.14 382.141C1587.54 397.144 1614.09 424.148 1628.51 457.8C1642.94 491.452 1644.19 529.296 1632.03 563.83C1619.86 598.364 1595.17 627.066 1562.83 644.248C1530.5 661.43 1492.9 665.836 1457.47 656.594C1422.04 647.352 1391.38 625.136 1371.56 594.349C1351.74 563.563 1344.21 526.454 1350.47 490.379C1356.72 454.304 1376.3 421.895 1405.33 399.578C1434.36 377.261 1470.71 366.665 1507.18 369.889L1503.76 408.552C1476.99 406.185 1450.3 413.964 1428.99 430.349C1407.68 446.733 1393.3 470.525 1388.71 497.01C1384.12 523.495 1389.65 550.738 1404.19 573.34C1418.74 595.942 1441.26 612.252 1467.26 619.037C1493.27 625.822 1520.88 622.587 1544.62 609.973C1568.36 597.359 1586.49 576.287 1595.42 550.934C1604.35 525.581 1603.43 497.798 1592.84 473.092C1582.25 448.386 1562.76 428.561 1538.24 417.547L1554.14 382.141Z" fill="#F7612F"/>
<path d="M1413.52 356.077C1453.52 335.978 1499.61 331.642 1542.65 343.927C1585.7 356.213 1622.55 384.223 1645.92 422.405C1669.28 460.588 1677.45 506.156 1668.8 550.076C1660.14 593.995 1635.3 633.061 1599.2 659.529C1563.1 685.996 1518.37 697.934 1473.89 692.974C1429.4 688.015 1388.4 666.521 1359.01 632.753C1329.62 598.986 1314 555.409 1315.23 510.662C1316.46 465.915 1334.46 423.264 1365.66 391.164L1369.52 394.914C1339.26 426.047 1321.8 467.412 1320.61 510.81C1319.41 554.208 1334.57 596.471 1363.07 629.221C1391.57 661.971 1431.33 682.816 1474.48 687.626C1517.63 692.436 1561.01 680.859 1596.02 655.189C1631.03 629.519 1655.12 591.631 1663.52 549.035C1671.91 506.44 1663.99 462.246 1641.33 425.214C1618.67 388.183 1582.92 361.017 1541.17 349.102C1499.43 337.187 1454.73 341.392 1415.93 360.885L1413.52 356.077Z" fill="#F7612F"/>
<rect y="65" width="1512" height="213" fill="url(#paint0_linear_1999_3833)" fill-opacity="0.2"/>
<path d="M883.084 227.2H885.165C888.607 227.2 891.407 224.399 891.407 220.957V183.503C891.407 180.061 888.607 177.261 885.165 177.261H831.065C827.623 177.261 824.822 180.061 824.822 183.503V243.846L847.016 227.2H883.084ZM844.244 218.876L833.145 227.2V185.584H883.084V218.876H844.244Z" fill="#F35E19"/>
<path d="M901.813 202.23H899.732V227.204C899.732 231.781 896.016 235.498 891.45 235.523H849.793V237.603C849.793 241.045 852.594 243.846 856.035 243.846H885.861L908.055 260.492V208.472C908.055 205.031 905.254 202.23 901.813 202.23Z" fill="#F35E19"/>
<path d="M1137.14 46.8606L1196.03 46.8606L1237.67 88.5041L1237.67 147.397L1196.03 189.04L1137.14 189.04L1095.49 147.397L1095.49 88.504L1137.14 46.8606Z" stroke="#FC5B11" stroke-width="2"/>
<path d="M1237.02 146.738L1295.91 146.738L1337.55 188.381L1337.55 247.274L1295.91 288.918L1237.02 288.918L1195.37 247.274L1195.37 188.381L1237.02 146.738Z" stroke="#FC5B11" stroke-width="2"/>
<path d="M937.382 246.616L996.275 246.616L1037.92 288.259L1037.92 347.152L996.275 388.796L937.382 388.796L895.739 347.152L895.739 288.259L937.382 246.616Z" stroke="#FC5B11" stroke-width="2"/>
<path d="M837.504 146.738L896.396 146.738L938.04 188.381L938.04 247.274L896.396 288.918L837.504 288.918L795.86 247.274L795.86 188.381L837.504 146.738Z" stroke="#FC5B11" stroke-width="2"/>
<path d="M1037.26 146.738L1096.15 146.738L1137.8 188.381L1137.8 247.274L1096.15 288.918L1037.26 288.918L995.618 247.274L995.618 188.381L1037.26 146.738Z" stroke="#FC5B11" stroke-width="2"/>
<path d="M1336.89 46.8606L1395.78 46.8606L1437.43 88.5041L1437.43 147.397L1395.79 189.04L1336.89 189.04L1295.25 147.397L1295.25 88.504L1336.89 46.8606Z" stroke="#FC5B11" stroke-width="2"/>
<path d="M1265.55 193.827C1263.08 193.827 1260.66 194.559 1258.61 195.931C1256.56 197.303 1254.96 199.253 1254.01 201.534C1253.07 203.815 1252.82 206.326 1253.3 208.748C1253.78 211.169 1254.97 213.394 1256.72 215.14C1258.46 216.886 1260.69 218.075 1263.11 218.557C1265.53 219.038 1268.04 218.791 1270.32 217.846C1272.6 216.901 1274.55 215.301 1275.93 213.248C1277.3 211.195 1278.03 208.781 1278.03 206.312C1278.03 203.002 1276.71 199.829 1274.37 197.488C1272.03 195.147 1268.86 193.831 1265.55 193.827ZM1265.55 212.554C1264.31 212.554 1263.1 212.188 1262.08 211.502C1261.05 210.816 1260.25 209.841 1259.78 208.701C1259.31 207.56 1259.18 206.305 1259.42 205.094C1259.66 203.883 1260.26 202.771 1261.13 201.898C1262 201.025 1263.12 200.43 1264.33 200.189C1265.54 199.949 1266.79 200.072 1267.93 200.545C1269.07 201.017 1270.05 201.817 1270.74 202.844C1271.42 203.87 1271.79 205.077 1271.79 206.312C1271.79 207.967 1271.13 209.554 1269.96 210.724C1268.79 211.894 1267.2 212.552 1265.55 212.554Z" fill="#F35E19"/>
<path d="M1289.54 182.303C1283.6 176.373 1275.69 172.85 1267.31 172.414C1258.93 171.979 1250.69 174.662 1244.18 179.945C1237.66 185.228 1233.34 192.737 1232.03 201.023C1230.73 209.308 1232.54 217.783 1237.12 224.812L1260.7 261.02C1261.23 261.825 1261.95 262.487 1262.79 262.946C1263.64 263.404 1264.58 263.644 1265.55 263.644C1266.51 263.644 1267.45 263.404 1268.3 262.946C1269.14 262.487 1269.86 261.825 1270.39 261.02L1293.97 224.812C1298.22 218.292 1300.1 210.51 1299.29 202.771C1298.48 195.031 1295.04 187.805 1289.54 182.303ZM1288.74 221.404L1265.55 257.015L1242.35 221.404C1235.25 210.504 1236.77 195.916 1245.97 186.717C1248.54 184.146 1251.59 182.107 1254.95 180.715C1258.31 179.324 1261.91 178.608 1265.55 178.608C1269.18 178.608 1272.78 179.324 1276.14 180.715C1279.5 182.107 1282.55 184.146 1285.12 186.717C1294.32 195.916 1295.84 210.504 1288.74 221.404Z" fill="#F35E19"/>
<path fill-rule="evenodd" clip-rule="evenodd" d="M1164.51 79.4849C1154.44 79.4849 1144.79 83.4835 1137.67 90.6012C1130.56 97.7189 1126.56 107.372 1126.56 117.438C1126.56 127.504 1130.56 137.158 1137.67 144.276C1144.79 151.393 1154.44 155.392 1164.51 155.392C1174.58 155.392 1184.23 151.393 1191.35 144.276C1198.47 137.158 1202.46 127.504 1202.46 117.438C1202.46 107.372 1198.47 97.7189 1191.35 90.6012C1184.23 83.4835 1174.58 79.4849 1164.51 79.4849ZM1120.56 117.438C1120.56 111.667 1121.7 105.953 1123.91 100.621C1126.12 95.2891 1129.36 90.4445 1133.44 86.3637C1137.52 82.2829 1142.36 79.0459 1147.69 76.8374C1153.02 74.6289 1158.74 73.4922 1164.51 73.4922C1170.28 73.4922 1176 74.6289 1181.33 76.8374C1186.66 79.0459 1191.5 82.2829 1195.59 86.3637C1199.67 90.4445 1202.9 95.2891 1205.11 100.621C1207.32 105.953 1208.46 111.667 1208.46 117.438C1208.46 129.094 1203.83 140.272 1195.59 148.513C1187.34 156.755 1176.17 161.385 1164.51 161.385C1152.86 161.385 1141.68 156.755 1133.44 148.513C1125.19 140.272 1120.56 129.094 1120.56 117.438Z" fill="#F35E19"/>
<path fill-rule="evenodd" clip-rule="evenodd" d="M1204.46 120.102H1124.56V114.775H1204.46V120.102Z" fill="#F35E19"/>
<path fill-rule="evenodd" clip-rule="evenodd" d="M1161.85 157.389V77.4871H1167.17V157.389H1161.85ZM1183.65 117.438C1183.65 102.969 1178.45 88.6601 1168.25 79.1984L1171.42 75.7759C1182.75 86.2963 1188.31 101.944 1188.31 117.438C1188.31 132.933 1182.75 148.587 1171.42 159.101L1168.25 155.678C1178.45 146.223 1183.65 131.907 1183.65 117.438ZM1141.21 117.438C1141.21 101.964 1146.59 86.323 1157.57 75.8025L1160.79 79.1717C1150.91 88.6268 1145.87 102.943 1145.87 117.438C1145.87 131.927 1150.91 146.25 1160.79 155.705L1157.57 159.074C1146.59 148.553 1141.21 132.906 1141.21 117.438Z" fill="#F35E19"/>
<path fill-rule="evenodd" clip-rule="evenodd" d="M1164.51 93.854C1178.96 93.854 1193.64 96.5241 1203.6 102.084C1203.86 102.233 1204.1 102.432 1204.29 102.672C1204.48 102.912 1204.62 103.187 1204.71 103.481C1204.79 103.775 1204.81 104.083 1204.78 104.387C1204.74 104.692 1204.65 104.986 1204.5 105.253C1204.35 105.521 1204.15 105.757 1203.91 105.947C1203.67 106.137 1203.4 106.278 1203.1 106.363C1202.81 106.447 1202.5 106.472 1202.2 106.437C1201.89 106.402 1201.6 106.308 1201.33 106.159C1192.34 101.138 1178.55 98.515 1164.51 98.515C1150.47 98.515 1136.68 101.138 1127.69 106.159C1127.15 106.459 1126.51 106.532 1125.92 106.363C1125.32 106.193 1124.82 105.794 1124.52 105.253C1124.22 104.713 1124.15 104.075 1124.32 103.481C1124.49 102.887 1124.88 102.384 1125.42 102.084C1135.38 96.5241 1150.06 93.854 1164.51 93.854ZM1164.51 139.744C1178.96 139.744 1193.64 137.074 1203.6 131.515C1203.86 131.366 1204.1 131.166 1204.29 130.926C1204.48 130.687 1204.62 130.412 1204.71 130.117C1204.79 129.823 1204.81 129.515 1204.78 129.211C1204.74 128.907 1204.65 128.613 1204.5 128.345C1204.35 128.078 1204.15 127.842 1203.91 127.652C1203.67 127.461 1203.4 127.32 1203.1 127.236C1202.81 127.152 1202.5 127.127 1202.2 127.161C1201.89 127.196 1201.6 127.291 1201.33 127.44C1192.34 132.46 1178.55 135.084 1164.51 135.084C1150.47 135.084 1136.68 132.46 1127.69 127.44C1127.42 127.274 1127.12 127.164 1126.81 127.116C1126.5 127.069 1126.18 127.086 1125.88 127.165C1125.57 127.244 1125.28 127.385 1125.04 127.577C1124.79 127.77 1124.58 128.012 1124.42 128.287C1124.27 128.563 1124.18 128.867 1124.14 129.18C1124.11 129.494 1124.14 129.811 1124.24 130.112C1124.33 130.413 1124.48 130.692 1124.69 130.932C1124.89 131.172 1125.14 131.368 1125.42 131.508C1135.38 137.074 1150.06 139.744 1164.51 139.744Z" fill="#F35E19"/>
<path d="M1099.28 256.331C1090.33 256.331 1081.61 254.336 1073.12 250.346C1064.62 246.36 1057.09 241.088 1050.54 234.532C1043.98 227.979 1038.71 220.454 1034.73 211.956C1030.74 203.461 1028.74 194.739 1028.74 185.792C1028.74 184.544 1029.16 183.503 1029.99 182.671C1030.82 181.839 1031.86 181.422 1033.11 181.422H1049.97C1050.94 181.422 1051.8 181.734 1052.57 182.359C1053.33 182.983 1053.78 183.781 1053.92 184.752L1056.62 199.317C1056.76 200.288 1056.75 201.172 1056.57 201.968C1056.4 202.767 1056 203.479 1055.38 204.103L1045.28 214.299C1048.2 219.293 1051.86 223.974 1056.26 228.344C1060.67 232.714 1065.5 236.494 1070.77 239.684L1080.55 229.905C1081.18 229.28 1081.99 228.812 1083 228.498C1084.01 228.187 1084.99 228.101 1085.96 228.24L1100.32 231.153C1101.29 231.361 1102.09 231.829 1102.71 232.556C1103.34 233.285 1103.65 234.136 1103.65 235.107V251.961C1103.65 253.209 1103.23 254.25 1102.4 255.082C1101.57 255.915 1100.53 256.331 1099.28 256.331ZM1041.33 206.392L1048.2 199.525L1046.43 189.746H1037.17C1037.52 192.589 1038 195.398 1038.63 198.173C1039.25 200.947 1040.15 203.687 1041.33 206.392ZM1078.58 243.638C1081.28 244.817 1084.04 245.753 1086.85 246.447C1089.66 247.141 1092.48 247.591 1095.33 247.799V238.644L1085.55 236.667L1078.58 243.638Z" fill="#F35E19"/>
<path d="M982.964 280.78H949.671C945.676 280.78 942.389 284.068 942.389 288.063V346.325C942.389 350.32 945.676 353.608 949.671 353.608H982.964C986.959 353.608 990.247 350.32 990.247 346.325V288.063C990.247 284.068 986.959 280.78 982.964 280.78ZM984.004 346.325C984.004 346.908 983.547 347.365 982.964 347.365H949.671C949.089 347.365 948.631 346.908 948.631 346.325V288.063C948.631 287.48 949.089 287.023 949.671 287.023H982.964C983.547 287.023 984.004 287.48 984.004 288.063V346.325ZM970.479 333.84C970.479 336.129 968.607 338.002 966.318 338.002C964.029 338.002 962.156 336.129 962.156 333.84C962.156 331.551 964.029 329.679 966.318 329.679C968.607 329.679 970.479 331.551 970.479 333.84Z" fill="#F35E19"/>
<path d="M1402.24 84.146H1335.66C1331.08 84.146 1327.38 87.8914 1327.38 92.4691L1327.33 142.408C1327.33 146.986 1331.08 150.731 1335.66 150.731H1402.24C1406.82 150.731 1410.57 146.986 1410.57 142.408V92.4691C1410.57 87.8914 1406.82 84.146 1402.24 84.146ZM1402.24 142.408H1335.66V100.792L1368.95 121.6L1402.24 100.792V142.408ZM1368.95 113.277L1335.66 92.4691H1402.24L1368.95 113.277Z" fill="#F35E19"/>
</g>
<defs>
<linearGradient id="paint0_linear_1999_3833" x1="1.22623e-07" y1="202.5" x2="1452.5" y2="198" gradientUnits="userSpaceOnUse">
<stop stop-color="#EBEBEB"/>
<stop offset="1" stop-color="#EBEBEB" stop-opacity="0"/>
</linearGradient>
<clipPath id="clip0_1999_3833">
<rect width="1512" height="450" fill="white"/>
</clipPath>
</defs>
</svg>
