<svg width="24" height="24" viewBox="0 0 24 24" fill="none" xmlns="http://www.w3.org/2000/svg">
<path d="M10.18 17.0078C10.3 17.0078 10.391 17.0038 10.451 16.9958C10.5214 16.9815 10.5848 16.9438 10.631 16.8888C10.691 16.8258 10.721 16.7348 10.721 16.6148L10.717 16.0578C10.714 15.7028 10.713 15.4208 10.713 15.2138L10.525 15.2468C10.3745 15.2704 10.2222 15.2798 10.07 15.2748C9.87873 15.2714 9.68809 15.2523 9.49997 15.2178C9.30033 15.1805 9.11246 15.0962 8.95197 14.9718C8.78373 14.8445 8.65817 14.6691 8.59197 14.4688L8.50997 14.2798C8.441 14.1309 8.35437 13.9909 8.25197 13.8628C8.16002 13.7314 8.0375 13.6243 7.89497 13.5508L7.83797 13.5108C7.79871 13.4818 7.76312 13.4483 7.73197 13.4108C7.70173 13.3767 7.67679 13.3383 7.65797 13.2968C7.64197 13.2588 7.65497 13.2268 7.69797 13.2028C7.77344 13.1724 7.85485 13.1598 7.93597 13.1658L8.09997 13.1908C8.20997 13.2118 8.34497 13.2778 8.50597 13.3868C8.66597 13.4968 8.79897 13.6378 8.90297 13.8128C9.02897 14.0368 9.17997 14.2078 9.35797 14.3248C9.51509 14.4356 9.70175 14.4969 9.89397 14.5008C10.074 14.5008 10.23 14.4878 10.361 14.4608C10.4885 14.4343 10.6124 14.3927 10.73 14.3368C10.779 13.9718 10.912 13.6898 11.13 13.4938C10.847 13.4658 10.5665 13.4163 10.291 13.3458C10.022 13.2716 9.76329 13.1641 9.52097 13.0258C9.2672 12.8881 9.04295 12.7019 8.86097 12.4778C8.68697 12.2588 8.54397 11.9728 8.43097 11.6178C8.31315 11.219 8.25683 10.8045 8.26397 10.3888C8.26397 9.72876 8.47997 9.16576 8.91097 8.70176C8.70897 8.20476 8.72797 7.64776 8.96797 7.03076C9.12697 6.98076 9.36197 7.01776 9.67297 7.14076C9.98397 7.26376 10.213 7.36876 10.357 7.45676C10.502 7.54376 10.617 7.61676 10.705 7.67676C11.2171 7.53452 11.7464 7.46319 12.278 7.46476C12.818 7.46476 13.343 7.53476 13.851 7.67776L14.161 7.48076C14.375 7.35076 14.626 7.22976 14.915 7.12076C15.205 7.01076 15.426 6.98076 15.579 7.03076C15.825 7.64776 15.847 8.20476 15.644 8.70076C16.076 9.16576 16.292 9.72776 16.292 10.3888C16.292 10.8528 16.236 11.2638 16.124 11.6218C16.012 11.9798 15.867 12.2658 15.69 12.4818C15.505 12.7037 15.2797 12.8886 15.026 13.0268C14.7837 13.1652 14.525 13.2727 14.256 13.3468C13.9801 13.417 13.6993 13.4662 13.416 13.4938C13.7 13.7388 13.842 14.1268 13.842 14.6568V16.6138C13.842 16.7068 13.856 16.7818 13.883 16.8398C13.8957 16.8674 13.9138 16.8922 13.9363 16.9126C13.9588 16.9331 13.9852 16.9488 14.014 16.9588C14.074 16.9798 14.128 16.9938 14.174 16.9988C14.221 17.0048 14.287 17.0078 14.374 17.0078H10.181H10.18Z" fill="#F3F9FC"/>
<path d="M6 4C5.46957 4 4.96086 4.21071 4.58579 4.58579C4.21071 4.96086 4 5.46957 4 6V18C4 18.5304 4.21071 19.0391 4.58579 19.4142C4.96086 19.7893 5.46957 20 6 20H18C18.5304 20 19.0391 19.7893 19.4142 19.4142C19.7893 19.0391 20 18.5304 20 18V6C20 5.46957 19.7893 4.96086 19.4142 4.58579C19.0391 4.21071 18.5304 4 18 4H6ZM6 2H18C19.0609 2 20.0783 2.42143 20.8284 3.17157C21.5786 3.92172 22 4.93913 22 6V18C22 19.0609 21.5786 20.0783 20.8284 20.8284C20.0783 21.5786 19.0609 22 18 22H6C4.93913 22 3.92172 21.5786 3.17157 20.8284C2.42143 20.0783 2 19.0609 2 18V6C2 4.93913 2.42143 3.92172 3.17157 3.17157C3.92172 2.42143 4.93913 2 6 2V2Z" fill="#F3F9FC"/>
</svg>
