<svg width="1536" height="94" viewBox="0 0 1536 94" fill="none" xmlns="http://www.w3.org/2000/svg">
<path d="M0 0V32.887C0 32.887 118.245 68.3363 260 77.9279C540 96.8737 830.363 22.1555 1114.5 18.2308C1297.67 15.7008 1536 50.5 1536 50.5V0H0Z" fill="#263238"/>
<path d="M0 27.0195V58.5C0 58.5 112.815 77.7365 253.293 89.1361C536.153 112.09 823.164 29.7112 1107.3 27.0195C1290.47 25.2843 1536 69.5 1536 69.5V39C1536 39 1247.5 12 1107.3 12C967.103 12 626.5 74.5 416 74.5C205.5 74.5 0 27.0195 0 27.0195Z" fill="#F35E19"/>
</svg>
