<svg width="1512" height="750" viewBox="0 0 1512 750" fill="none" xmlns="http://www.w3.org/2000/svg">
<g clip-path="url(#clip0_2019_3287)">
<rect width="1512" height="750" fill="#0D1528"/>
<g clip-path="url(#clip1_2019_3287)">
<path fill-rule="evenodd" clip-rule="evenodd" d="M1446 131C1492.39 131 1530 93.3919 1530 47C1530 0.608082 1492.39 -37 1446 -37C1399.61 -37 1362 0.608082 1362 47C1362 93.3919 1399.61 131 1446 131ZM1379.49 80.5595C1374.39 70.4746 1371.52 59.0727 1371.52 47C1371.52 5.86397 1404.86 -27.4834 1446 -27.4834C1487.14 -27.4834 1520.48 5.86397 1520.48 47C1520.48 88.136 1487.14 121.483 1446 121.483C1419.06 121.483 1395.47 107.186 1382.39 85.7655L1382.78 85.9282C1383.09 85.3363 1383.38 84.737 1383.67 84.1305C1383.95 83.5271 1384.22 82.9167 1384.47 82.2996C1386.75 76.8169 1388 70.805 1388 64.5C1388 58.195 1386.75 52.1831 1384.47 46.7004C1384.22 46.0833 1383.95 45.4729 1383.67 44.8695C1383.38 44.263 1383.09 43.6637 1382.78 43.0718L1381.77 43.4918L1381.77 43.4898L1377.89 45.0969C1378.2 45.6856 1378.51 46.2829 1378.79 46.8882C1379.08 47.4899 1379.35 48.0997 1379.6 48.7169C1381.62 53.5785 1382.73 58.9093 1382.73 64.5C1382.73 70.0907 1381.62 75.4215 1379.6 80.2831C1379.56 80.3754 1379.53 80.4675 1379.49 80.5595ZM1362.51 104.767L1362.93 105.779C1362.34 106.087 1361.74 106.383 1361.13 106.665C1360.53 106.947 1359.92 107.216 1359.3 107.472C1353.82 109.745 1347.81 111 1341.5 111C1335.19 111 1329.18 109.745 1323.7 107.472C1323.08 107.216 1322.47 106.947 1321.87 106.665C1321.26 106.383 1320.66 106.087 1320.07 105.779L1320.49 104.767L1320.49 104.766L1322.1 100.89C1322.69 101.205 1323.28 101.506 1323.89 101.792C1324.49 102.077 1325.1 102.347 1325.72 102.603C1330.58 104.619 1335.91 105.732 1341.5 105.732C1347.09 105.732 1352.42 104.619 1357.28 102.603C1357.9 102.347 1358.51 102.077 1359.11 101.792C1359.72 101.506 1360.31 101.205 1360.9 100.89L1362.51 104.766L1362.51 104.767ZM1299.33 44.8695C1299.62 44.263 1299.91 43.6637 1300.22 43.0718L1301.23 43.4918L1301.23 43.4898L1305.11 45.0969C1304.8 45.6856 1304.49 46.2829 1304.21 46.8882C1303.92 47.4899 1303.65 48.0996 1303.4 48.7169C1301.38 53.5785 1300.27 58.9093 1300.27 64.5C1300.27 70.0907 1301.38 75.4215 1303.4 80.2831C1303.65 80.9003 1303.92 81.5101 1304.21 82.1118C1304.49 82.7171 1304.8 83.3144 1305.11 83.9031L1301.23 85.5102L1301.23 85.5082L1300.22 85.9282C1299.91 85.3363 1299.62 84.737 1299.33 84.1305C1299.05 83.5271 1298.78 82.9167 1298.53 82.2996C1296.25 76.8169 1295 70.805 1295 64.5C1295 58.195 1296.25 52.1831 1298.53 46.7004C1298.78 46.0833 1299.05 45.4729 1299.33 44.8695ZM1320.49 24.2333L1320.07 23.2207C1320.66 22.9129 1321.26 22.6174 1321.87 22.3345C1322.47 22.0532 1323.08 21.7843 1323.7 21.5284C1329.18 19.2549 1335.19 18 1341.5 18C1347.81 18 1353.82 19.2549 1359.3 21.5284C1359.92 21.7843 1360.53 22.0532 1361.13 22.3345C1361.74 22.6174 1362.34 22.9129 1362.93 23.2207L1362.51 24.2333L1362.51 24.2341L1360.9 28.1096C1360.31 27.7951 1359.72 27.4944 1359.11 27.208C1358.51 26.9234 1357.9 26.6528 1357.28 26.3968C1352.42 24.3808 1347.09 23.2681 1341.5 23.2681C1335.91 23.2681 1330.58 24.3808 1325.72 26.3968C1325.1 26.6528 1324.49 26.9233 1323.89 27.208C1323.28 27.4944 1322.69 27.7951 1322.1 28.1096L1320.49 24.2341L1320.49 24.2333Z" fill="#69799C"/>
<rect x="-98.5" y="595.5" width="382" height="194" stroke="#69799C" stroke-opacity="0.35" stroke-width="5" stroke-dasharray="10 10"/>
<path d="M273 544L312.837 617.5H233.163L273 544Z" fill="#69799C" fill-opacity="0.35"/>
<path d="M168.002 46.9998L138.002 64.3203V29.6792L168.002 46.9998Z" fill="#2D3851"/>
<path d="M208 47L178 64.3205V29.6795L208 47Z" fill="#2D3851"/>
<path d="M248 47L218 64.3205V29.6795L248 47Z" fill="#2D3851"/>
<path d="M1030 374L1047.32 344H1012.68L1030 374Z" fill="#69799C" fill-opacity="0.35"/>
<path d="M1016 382L1033.32 352H998.679L1016 382Z" fill="#69799C" fill-opacity="0.35"/>
<path d="M1002 391L1019.32 361H984.679L1002 391Z" fill="#69799C" fill-opacity="0.35"/>
<g clip-path="url(#clip2_2019_3287)">
<rect x="1306" y="431.752" width="134" height="7" transform="rotate(-45 1306 431.752)" fill="#2D3851"/>
<rect x="1306" y="455.454" width="134" height="7" transform="rotate(-45 1306 455.454)" fill="#2D3851"/>
<rect x="1306" y="479.156" width="134" height="7" transform="rotate(-45 1306 479.156)" fill="#2D3851"/>
<rect x="1306" y="502.858" width="134" height="7" transform="rotate(-45 1306 502.858)" fill="#2D3851"/>
<rect x="1306" y="526.561" width="134" height="7" transform="rotate(-45 1306 526.561)" fill="#2D3851"/>
<rect x="1306" y="550.263" width="134" height="7" transform="rotate(-45 1306 550.263)" fill="#2D3851"/>
<rect x="1306" y="573.965" width="134" height="7" transform="rotate(-45 1306 573.965)" fill="#2D3851"/>
<rect x="1306" y="597.667" width="134" height="7" transform="rotate(-45 1306 597.667)" fill="#2D3851"/>
<rect x="1306" y="621.369" width="134" height="7" transform="rotate(-45 1306 621.369)" fill="#2D3851"/>
<rect x="1306" y="645.071" width="134" height="7" transform="rotate(-45 1306 645.071)" fill="#2D3851"/>
<rect x="1306" y="668.773" width="134" height="7" transform="rotate(-45 1306 668.773)" fill="#2D3851"/>
<rect x="1306" y="692.475" width="134" height="7" transform="rotate(-45 1306 692.475)" fill="#2D3851"/>
<rect x="1306" y="716.177" width="134" height="7" transform="rotate(-45 1306 716.177)" fill="#2D3851"/>
<rect x="1306" y="739.879" width="134" height="7" transform="rotate(-45 1306 739.879)" fill="#2D3851"/>
<rect x="1306" y="763.581" width="134" height="7" transform="rotate(-45 1306 763.581)" fill="#2D3851"/>
</g>
<path d="M324.5 136L330.774 130.771C334.091 128.007 338.909 128.007 342.226 130.771L343.248 131.623C346.223 134.102 350.615 133.885 353.353 131.147V131.147C356.204 128.296 360.83 128.219 363.75 131L363.88 131.123C366.727 133.836 371.219 133.781 374 131V131C376.781 128.219 381.273 128.164 384.12 130.877L384.314 131.061C387.218 133.827 391.782 133.827 394.686 131.061L394.811 130.942C397.735 128.157 402.314 128.104 405.302 130.82L405.683 131.167C408.731 133.937 413.356 134.037 416.52 131.4L417.566 130.529C420.755 127.871 425.348 127.74 428.684 130.211L436.5 136" stroke="#2D3851" stroke-width="4"/>
<path d="M324.5 146L330.774 140.771C334.091 138.007 338.909 138.007 342.226 140.771L343.248 141.623C346.223 144.102 350.615 143.885 353.353 141.147V141.147C356.204 138.296 360.83 138.219 363.75 141L363.88 141.123C366.727 143.836 371.219 143.781 374 141V141C376.781 138.219 381.273 138.164 384.12 140.877L384.314 141.061C387.218 143.827 391.782 143.827 394.686 141.061L394.811 140.942C397.735 138.157 402.314 138.104 405.302 140.82L405.683 141.167C408.731 143.937 413.356 144.037 416.52 141.4L417.566 140.529C420.755 137.871 425.348 137.74 428.684 140.211L436.5 146" stroke="#2D3851" stroke-width="4"/>
<path d="M324.5 156L330.774 150.771C334.091 148.007 338.909 148.007 342.226 150.771L343.248 151.623C346.223 154.102 350.615 153.885 353.353 151.147V151.147C356.204 148.296 360.83 148.219 363.75 151L363.88 151.123C366.727 153.836 371.219 153.781 374 151V151C376.781 148.219 381.273 148.164 384.12 150.877L384.314 151.061C387.218 153.827 391.782 153.827 394.686 151.061L394.811 150.942C397.735 148.157 402.314 148.104 405.302 150.82L405.683 151.167C408.731 153.937 413.356 154.037 416.52 151.4L417.566 150.529C420.755 147.871 425.348 147.74 428.684 150.211L436.5 156" stroke="#2D3851" stroke-width="4"/>
<path d="M324.5 166L330.774 160.771C334.091 158.007 338.909 158.007 342.226 160.771L343.248 161.623C346.223 164.102 350.615 163.885 353.353 161.147V161.147C356.204 158.296 360.83 158.219 363.75 161L363.88 161.123C366.727 163.836 371.219 163.781 374 161V161C376.781 158.219 381.273 158.164 384.12 160.877L384.314 161.061C387.218 163.827 391.782 163.827 394.686 161.061L394.811 160.942C397.735 158.157 402.314 158.104 405.302 160.82L405.683 161.167C408.731 163.937 413.356 164.037 416.52 161.4L417.566 160.529C420.755 157.871 425.348 157.74 428.684 160.211L436.5 166" stroke="#2D3851" stroke-width="4"/>
<rect x="1060.17" y="91" width="1.32653" height="65" fill="#2D3851"/>
<rect x="1066.36" y="91" width="1.32653" height="65" fill="#2D3851"/>
<rect x="1072.55" y="91" width="1.32653" height="65" fill="#2D3851"/>
<rect x="1078.74" y="91" width="1.32653" height="65" fill="#2D3851"/>
<rect x="1084.93" y="91" width="1.32653" height="65" fill="#2D3851"/>
<rect x="1091.12" y="91" width="1.32653" height="65" fill="#2D3851"/>
<rect x="1097.31" y="91" width="1.32653" height="65" fill="#2D3851"/>
<rect x="1103.5" y="91" width="1.32653" height="65" fill="#2D3851"/>
<rect x="1050" y="145.83" width="1.32653" height="65" transform="rotate(-90 1050 145.83)" fill="#2D3851"/>
<rect x="1050" y="139.639" width="1.32653" height="65" transform="rotate(-90 1050 139.639)" fill="#2D3851"/>
<rect x="1050" y="133.449" width="1.32653" height="65" transform="rotate(-90 1050 133.449)" fill="#2D3851"/>
<rect x="1050" y="127.259" width="1.32653" height="65" transform="rotate(-90 1050 127.259)" fill="#2D3851"/>
<rect x="1050" y="121.068" width="1.32653" height="65" transform="rotate(-90 1050 121.068)" fill="#2D3851"/>
<rect x="1050" y="114.877" width="1.32653" height="65" transform="rotate(-90 1050 114.877)" fill="#2D3851"/>
<rect x="1050" y="108.687" width="1.32653" height="65" transform="rotate(-90 1050 108.687)" fill="#2D3851"/>
<rect x="1050" y="102.497" width="1.32653" height="65" transform="rotate(-90 1050 102.497)" fill="#2D3851"/>
<path d="M658.734 87.8784C660.163 86.3376 661.274 84.5305 662.004 82.5603C662.734 80.5901 663.069 78.4953 662.99 76.3957C662.911 74.296 662.418 72.2326 661.542 70.3231C660.665 68.4137 659.42 66.6956 657.88 65.2671C656.339 63.8386 654.532 62.7275 652.561 61.9973C650.591 61.2672 648.497 60.9322 646.397 61.0116C644.297 61.091 642.234 61.5831 640.324 62.46C638.415 63.3368 636.697 64.5812 635.268 66.122L636.773 67.5167C638.018 66.1734 639.516 65.0886 641.18 64.3242C642.845 63.5598 644.644 63.1307 646.474 63.0615C648.305 62.9923 650.131 63.2843 651.849 63.9209C653.566 64.5574 655.142 65.526 656.485 66.7714C657.828 68.0168 658.913 69.5146 659.677 71.1792C660.442 72.8438 660.871 74.6427 660.94 76.4732C661.009 78.3036 660.717 80.1298 660.081 81.8474C659.444 83.565 658.476 85.1404 657.23 86.4837L658.734 87.8784Z" fill="#2D3851"/>
<path d="M664.601 93.3174C666.744 91.0062 668.41 88.2956 669.505 85.3403C670.601 82.385 671.103 79.2429 670.984 76.0934C670.865 72.9439 670.127 69.8487 668.811 66.9846C667.496 64.1204 665.63 61.5434 663.318 59.4005C661.007 57.2577 658.297 55.5911 655.341 54.4959C652.386 53.4006 649.244 52.8982 646.094 53.0173C642.945 53.1364 639.85 53.8746 636.986 55.1899C634.121 56.5051 631.544 58.3716 629.401 60.6829L631.002 62.1665C632.95 60.0654 635.292 58.3686 637.896 57.1729C640.5 55.9773 643.314 55.3061 646.177 55.1979C649.04 55.0896 651.896 55.5464 654.583 56.542C657.269 57.5377 659.734 59.0528 661.835 61.0008C663.936 62.9487 665.633 65.2915 666.828 67.8952C668.024 70.499 668.695 73.3127 668.803 76.1758C668.912 79.039 668.455 81.8954 667.459 84.582C666.464 87.2686 664.948 89.7327 663 91.8338L664.601 93.3174Z" fill="#2D3851"/>
<path d="M670.467 98.7565C673.324 95.6749 675.546 92.0607 677.006 88.1203C678.467 84.1799 679.137 79.9904 678.978 75.7911C678.819 71.5918 677.835 67.4649 676.081 63.646C674.327 59.8271 671.839 56.3911 668.757 53.534C665.676 50.6769 662.061 48.4547 658.121 46.9944C654.181 45.5341 649.991 44.8642 645.792 45.023C641.592 45.1817 637.466 46.1661 633.647 47.9197C629.828 49.6734 626.392 52.1621 623.535 55.2437L625.032 56.6319C627.707 53.7469 630.924 51.417 634.499 49.7752C638.074 48.1335 641.938 47.2119 645.869 47.0633C649.8 46.9147 653.722 47.5418 657.411 48.909C661.1 50.2761 664.484 52.3565 667.369 55.0312C670.254 57.706 672.584 60.9229 674.226 64.4981C675.867 68.0733 676.789 71.9369 676.938 75.8683C677.086 79.7996 676.459 83.7218 675.092 87.4107C673.725 91.0997 671.644 94.4833 668.97 97.3683L670.467 98.7565Z" fill="#2D3851"/>
<circle cx="596.3" cy="187.2" r="3.3" fill="#2D3851"/>
<circle cx="596.3" cy="207" r="3.3" fill="#2D3851"/>
<circle cx="596.3" cy="226.8" r="3.3" fill="#2D3851"/>
<circle cx="596.3" cy="246.6" r="3.3" fill="#2D3851"/>
<circle cx="596.3" cy="266.4" r="3.3" fill="#2D3851"/>
<circle cx="596.3" cy="286.2" r="3.3" fill="#2D3851"/>
<circle cx="596.3" cy="306" r="3.3" fill="#2D3851"/>
<circle cx="596.3" cy="325.8" r="3.3" fill="#2D3851"/>
<circle cx="609.499" cy="177.3" r="3.3" fill="#2D3851"/>
<circle cx="609.499" cy="197.1" r="3.3" fill="#2D3851"/>
<circle cx="609.499" cy="216.9" r="3.3" fill="#2D3851"/>
<circle cx="609.499" cy="236.7" r="3.3" fill="#2D3851"/>
<circle cx="609.499" cy="256.5" r="3.3" fill="#2D3851"/>
<circle cx="609.499" cy="276.3" r="3.3" fill="#2D3851"/>
<circle cx="609.499" cy="296.1" r="3.3" fill="#2D3851"/>
<circle cx="609.499" cy="315.9" r="3.3" fill="#2D3851"/>
<circle cx="622.7" cy="187.2" r="3.3" fill="#2D3851"/>
<circle cx="622.7" cy="207" r="3.3" fill="#2D3851"/>
<circle cx="622.7" cy="226.8" r="3.3" fill="#2D3851"/>
<circle cx="622.7" cy="246.6" r="3.3" fill="#2D3851"/>
<circle cx="622.7" cy="266.4" r="3.3" fill="#2D3851"/>
<circle cx="622.7" cy="286.2" r="3.3" fill="#2D3851"/>
<circle cx="622.7" cy="306" r="3.3" fill="#2D3851"/>
<circle cx="622.7" cy="325.8" r="3.3" fill="#2D3851"/>
<circle cx="649.101" cy="187.2" r="3.3" fill="#2D3851"/>
<circle cx="649.101" cy="207" r="3.3" fill="#2D3851"/>
<circle cx="649.101" cy="226.8" r="3.3" fill="#2D3851"/>
<circle cx="649.101" cy="246.6" r="3.3" fill="#2D3851"/>
<circle cx="649.101" cy="266.4" r="3.3" fill="#2D3851"/>
<circle cx="649.101" cy="286.2" r="3.3" fill="#2D3851"/>
<circle cx="649.101" cy="306" r="3.3" fill="#2D3851"/>
<circle cx="649.101" cy="325.8" r="3.3" fill="#2D3851"/>
<circle cx="675.499" cy="187.2" r="3.3" fill="#2D3851"/>
<circle cx="675.499" cy="207" r="3.3" fill="#2D3851"/>
<circle cx="675.499" cy="226.8" r="3.3" fill="#2D3851"/>
<circle cx="675.499" cy="246.6" r="3.3" fill="#2D3851"/>
<circle cx="675.499" cy="266.4" r="3.3" fill="#2D3851"/>
<circle cx="675.499" cy="286.2" r="3.3" fill="#2D3851"/>
<circle cx="675.499" cy="306" r="3.3" fill="#2D3851"/>
<circle cx="675.499" cy="325.8" r="3.3" fill="#2D3851"/>
<circle cx="635.9" cy="177.3" r="3.3" fill="#2D3851"/>
<circle cx="635.9" cy="197.1" r="3.3" fill="#2D3851"/>
<circle cx="635.9" cy="216.9" r="3.3" fill="#2D3851"/>
<circle cx="635.9" cy="236.7" r="3.3" fill="#2D3851"/>
<circle cx="635.9" cy="256.5" r="3.3" fill="#2D3851"/>
<circle cx="635.9" cy="276.3" r="3.3" fill="#2D3851"/>
<circle cx="635.9" cy="296.1" r="3.3" fill="#2D3851"/>
<circle cx="635.9" cy="315.9" r="3.3" fill="#2D3851"/>
<circle cx="662.3" cy="177.3" r="3.3" fill="#2D3851"/>
<circle cx="662.3" cy="197.1" r="3.3" fill="#2D3851"/>
<circle cx="662.3" cy="216.9" r="3.3" fill="#2D3851"/>
<circle cx="662.3" cy="236.7" r="3.3" fill="#2D3851"/>
<circle cx="662.3" cy="256.5" r="3.3" fill="#2D3851"/>
<circle cx="662.3" cy="276.3" r="3.3" fill="#2D3851"/>
<circle cx="662.3" cy="296.1" r="3.3" fill="#2D3851"/>
<circle cx="662.3" cy="315.9" r="3.3" fill="#2D3851"/>
<circle cx="688.7" cy="177.3" r="3.3" fill="#2D3851"/>
<circle cx="688.7" cy="197.1" r="3.3" fill="#2D3851"/>
<circle cx="688.7" cy="216.9" r="3.3" fill="#2D3851"/>
<circle cx="688.7" cy="236.7" r="3.3" fill="#2D3851"/>
<circle cx="688.7" cy="256.5" r="3.3" fill="#2D3851"/>
<circle cx="688.7" cy="276.3" r="3.3" fill="#2D3851"/>
<circle cx="688.7" cy="296.1" r="3.3" fill="#2D3851"/>
<circle cx="688.7" cy="315.9" r="3.3" fill="#2D3851"/>
<circle cx="17.6899" cy="381.625" r="5.35593" transform="rotate(-90 17.6899 381.625)" fill="#202940"/>
<circle cx="49.8305" cy="381.625" r="5.35593" transform="rotate(-90 49.8305 381.625)" fill="#202940"/>
<circle cx="81.9653" cy="381.625" r="5.35593" transform="rotate(-90 81.9653 381.625)" fill="#202940"/>
<circle cx="114.1" cy="381.625" r="5.35593" transform="rotate(-90 114.1 381.625)" fill="#202940"/>
<circle cx="146.239" cy="381.625" r="5.35593" transform="rotate(-90 146.239 381.625)" fill="#202940"/>
<circle cx="210.504" cy="382.965" r="5.35593" transform="rotate(-90 210.504 382.965)" fill="#202940"/>
<circle cx="178.37" cy="381.625" r="5.35593" transform="rotate(-90 178.37 381.625)" fill="#202940"/>
<circle cx="242.643" cy="382.965" r="5.35593" transform="rotate(-90 242.643 382.965)" fill="#202940"/>
<circle cx="17.6899" cy="338.781" r="5.35593" transform="rotate(-90 17.6899 338.781)" fill="#202940"/>
<circle cx="49.8305" cy="338.781" r="5.35593" transform="rotate(-90 49.8305 338.781)" fill="#202940"/>
<circle cx="81.9653" cy="338.781" r="5.35593" transform="rotate(-90 81.9653 338.781)" fill="#202940"/>
<circle cx="114.1" cy="338.781" r="5.35593" transform="rotate(-90 114.1 338.781)" fill="#202940"/>
<circle cx="146.239" cy="338.781" r="5.35593" transform="rotate(-90 146.239 338.781)" fill="#202940"/>
<circle cx="210.504" cy="340.12" r="5.35593" transform="rotate(-90 210.504 340.12)" fill="#202940"/>
<circle cx="178.37" cy="338.781" r="5.35593" transform="rotate(-90 178.37 338.781)" fill="#202940"/>
<circle cx="242.643" cy="340.12" r="5.35593" transform="rotate(-90 242.643 340.12)" fill="#202940"/>
<circle cx="1.61765" cy="403.051" r="5.35593" transform="rotate(-90 1.61765 403.051)" fill="#202940"/>
<circle cx="33.7661" cy="403.051" r="5.35593" transform="rotate(-90 33.7661 403.051)" fill="#202940"/>
<circle cx="65.8989" cy="403.051" r="5.35593" transform="rotate(-90 65.8989 403.051)" fill="#202940"/>
<circle cx="98.0317" cy="403.051" r="5.35593" transform="rotate(-90 98.0317 403.051)" fill="#202940"/>
<circle cx="130.165" cy="403.051" r="5.35593" transform="rotate(-90 130.165 403.051)" fill="#202940"/>
<circle cx="194.44" cy="404.391" r="5.35593" transform="rotate(-90 194.44 404.391)" fill="#202940"/>
<circle cx="162.301" cy="403.051" r="5.35593" transform="rotate(-90 162.301 403.051)" fill="#202940"/>
<circle cx="226.581" cy="404.391" r="5.35593" transform="rotate(-90 226.581 404.391)" fill="#202940"/>
<circle cx="1.61765" cy="360.204" r="5.35593" transform="rotate(-90 1.61765 360.204)" fill="#202940"/>
<circle cx="33.7661" cy="360.204" r="5.35593" transform="rotate(-90 33.7661 360.204)" fill="#202940"/>
<circle cx="65.8989" cy="360.204" r="5.35593" transform="rotate(-90 65.8989 360.204)" fill="#202940"/>
<circle cx="98.0317" cy="360.204" r="5.35593" transform="rotate(-90 98.0317 360.204)" fill="#202940"/>
<circle cx="130.165" cy="360.204" r="5.35593" transform="rotate(-90 130.165 360.204)" fill="#202940"/>
<circle cx="194.44" cy="361.543" r="5.35593" transform="rotate(-90 194.44 361.543)" fill="#202940"/>
<circle cx="162.301" cy="360.204" r="5.35593" transform="rotate(-90 162.301 360.204)" fill="#202940"/>
<circle cx="226.581" cy="361.543" r="5.35593" transform="rotate(-90 226.581 361.543)" fill="#202940"/>
<circle cx="1.61765" cy="317.356" r="5.35593" transform="rotate(-90 1.61765 317.356)" fill="#202940"/>
<circle cx="33.7661" cy="317.356" r="5.35593" transform="rotate(-90 33.7661 317.356)" fill="#202940"/>
<circle cx="65.8989" cy="317.356" r="5.35593" transform="rotate(-90 65.8989 317.356)" fill="#202940"/>
<circle cx="98.0317" cy="317.356" r="5.35593" transform="rotate(-90 98.0317 317.356)" fill="#202940"/>
<circle cx="130.165" cy="317.356" r="5.35593" transform="rotate(-90 130.165 317.356)" fill="#202940"/>
<circle cx="194.44" cy="318.694" r="5.35593" transform="rotate(-90 194.44 318.694)" fill="#202940"/>
<circle cx="162.301" cy="317.356" r="5.35593" transform="rotate(-90 162.301 317.356)" fill="#202940"/>
<circle cx="226.581" cy="318.694" r="5.35593" transform="rotate(-90 226.581 318.694)" fill="#202940"/>
<circle cx="1272" cy="205" r="12" fill="#343E56"/>
<circle cx="1242" cy="235" r="18" fill="#69799C"/>
<circle cx="1230" cy="186" r="7" fill="#2D3851"/>
<path fill-rule="evenodd" clip-rule="evenodd" d="M1223.75 434H1215.25V446.75H1202.5V455.25H1215.25V468H1223.75V455.25H1236.5V446.75H1223.75V434Z" fill="#69799C"/>
<mask id="path-156-inside-1_2019_3287" fill="white">
<path d="M988.991 230.162C988.991 295.239 936.235 347.995 871.157 347.995C806.08 347.995 753.324 295.239 753.324 230.162C753.324 165.084 806.08 112.329 871.157 112.329C936.235 112.329 988.991 165.084 988.991 230.162ZM774.578 230.162C774.578 283.501 817.818 326.742 871.157 326.742C924.497 326.742 967.737 283.501 967.737 230.162C967.737 176.822 924.497 133.582 871.157 133.582C817.818 133.582 774.578 176.822 774.578 230.162Z"/>
</mask>
<path d="M988.991 230.162C988.991 295.239 936.235 347.995 871.157 347.995C806.08 347.995 753.324 295.239 753.324 230.162C753.324 165.084 806.08 112.329 871.157 112.329C936.235 112.329 988.991 165.084 988.991 230.162ZM774.578 230.162C774.578 283.501 817.818 326.742 871.157 326.742C924.497 326.742 967.737 283.501 967.737 230.162C967.737 176.822 924.497 133.582 871.157 133.582C817.818 133.582 774.578 176.822 774.578 230.162Z" stroke="#2D3851" stroke-width="10" stroke-dasharray="95 75 175 40" mask="url(#path-156-inside-1_2019_3287)"/>
<mask id="path-157-inside-2_2019_3287" fill="white">
<path d="M930.497 301.002C891.007 334.138 832.133 328.987 798.997 289.498C765.861 250.008 771.012 191.133 810.502 157.998C849.991 124.862 908.866 130.013 942.002 169.502C975.137 208.992 969.986 267.867 930.497 301.002ZM821.323 170.894C788.956 198.054 784.734 246.309 811.894 278.676C839.053 311.043 887.308 315.265 919.675 288.106C952.042 260.947 956.264 212.691 929.105 180.324C901.946 147.957 853.69 143.735 821.323 170.894Z"/>
</mask>
<path d="M930.497 301.002C891.007 334.138 832.133 328.987 798.997 289.498C765.861 250.008 771.012 191.133 810.502 157.998C849.991 124.862 908.866 130.013 942.002 169.502C975.137 208.992 969.986 267.867 930.497 301.002ZM821.323 170.894C788.956 198.054 784.734 246.309 811.894 278.676C839.053 311.043 887.308 315.265 919.675 288.106C952.042 260.947 956.264 212.691 929.105 180.324C901.946 147.957 853.69 143.735 821.323 170.894Z" stroke="#2D3851" stroke-width="10" stroke-dasharray="95 75 175 40" mask="url(#path-157-inside-2_2019_3287)"/>
<path fill-rule="evenodd" clip-rule="evenodd" d="M153.771 182.306L144.941 187.001L166.037 219.576L168.981 218.012L153.771 182.306ZM170.785 218.562L165.487 221.379L167.991 226.088L173.288 223.272L170.785 218.562Z" fill="#69799C"/>
<path fill-rule="evenodd" clip-rule="evenodd" d="M481 468C507.308 468 529.594 450.782 537.204 427H424.796C432.406 450.782 454.692 468 481 468ZM423.671 423H538.329C539.421 418.512 540 413.824 540 409C540 376.415 513.585 350 481 350C448.415 350 422 376.415 422 409C422 413.824 422.579 418.512 423.671 423ZM544 409C544 413.812 543.461 418.497 542.439 423H592H596V427V489H621.29H625.909L623.6 493L595.309 542L593 546L590.691 542L578.566 521H415H411V517V427V423H415H419.561C418.539 418.497 418 413.812 418 409C418 374.206 446.206 346 481 346C515.794 346 544 374.206 544 409ZM583.185 521L593 538L618.981 493H596V517V521H592H583.185ZM592 493V517H580.876L567.019 493H592ZM592 489H564.71H560.091L562.4 493L576.257 517H415V427H420.609C428.354 453.023 452.461 472 481 472C509.539 472 533.646 453.023 541.391 427H592V489Z" fill="#2D3851"/>
<circle cx="767.016" cy="648.65" r="4.85" transform="rotate(-90 767.016 648.65)" fill="#2D3851"/>
<circle cx="799.35" cy="648.65" r="4.85" transform="rotate(-90 799.35 648.65)" fill="#2D3851"/>
<circle cx="831.684" cy="648.65" r="4.85" transform="rotate(-90 831.684 648.65)" fill="#2D3851"/>
<circle cx="864.016" cy="648.65" r="4.85" transform="rotate(-90 864.016 648.65)" fill="#2D3851"/>
<circle cx="896.35" cy="648.65" r="4.85" transform="rotate(-90 896.35 648.65)" fill="#2D3851"/>
<circle cx="928.684" cy="648.65" r="4.85" transform="rotate(-90 928.684 648.65)" fill="#2D3851"/>
<circle cx="961.016" cy="648.65" r="4.85" transform="rotate(-90 961.016 648.65)" fill="#2D3851"/>
<circle cx="993.35" cy="648.65" r="4.85" transform="rotate(-90 993.35 648.65)" fill="#2D3851"/>
<circle cx="1025.68" cy="648.65" r="4.85" transform="rotate(-90 1025.68 648.65)" fill="#2D3851"/>
<circle cx="1058.02" cy="648.65" r="4.85" transform="rotate(-90 1058.02 648.65)" fill="#2D3851"/>
<circle cx="1090.35" cy="648.65" r="4.85" transform="rotate(-90 1090.35 648.65)" fill="#2D3851"/>
<circle cx="1122.68" cy="648.65" r="4.85" transform="rotate(-90 1122.68 648.65)" fill="#2D3851"/>
<circle cx="1155.02" cy="648.65" r="4.85" transform="rotate(-90 1155.02 648.65)" fill="#2D3851"/>
<circle cx="1187.35" cy="648.65" r="4.85" transform="rotate(-90 1187.35 648.65)" fill="#2D3851"/>
<circle cx="1219.68" cy="648.65" r="4.85" transform="rotate(-90 1219.68 648.65)" fill="#2D3851"/>
<circle cx="1252.02" cy="648.65" r="4.85" transform="rotate(-90 1252.02 648.65)" fill="#2D3851"/>
<circle cx="767.016" cy="571.05" r="4.85" transform="rotate(-90 767.016 571.05)" fill="#2D3851"/>
<circle cx="799.35" cy="571.05" r="4.85" transform="rotate(-90 799.35 571.05)" fill="#2D3851"/>
<circle cx="831.684" cy="571.05" r="4.85" transform="rotate(-90 831.684 571.05)" fill="#2D3851"/>
<circle cx="864.016" cy="571.05" r="4.85" transform="rotate(-90 864.016 571.05)" fill="#2D3851"/>
<circle cx="896.35" cy="571.05" r="4.85" transform="rotate(-90 896.35 571.05)" fill="#2D3851"/>
<circle cx="928.684" cy="571.05" r="4.85" transform="rotate(-90 928.684 571.05)" fill="#2D3851"/>
<circle cx="961.016" cy="571.05" r="4.85" transform="rotate(-90 961.016 571.05)" fill="#2D3851"/>
<circle cx="993.35" cy="571.05" r="4.85" transform="rotate(-90 993.35 571.05)" fill="#2D3851"/>
<circle cx="1025.68" cy="571.05" r="4.85" transform="rotate(-90 1025.68 571.05)" fill="#2D3851"/>
<circle cx="1058.02" cy="571.05" r="4.85" transform="rotate(-90 1058.02 571.05)" fill="#2D3851"/>
<circle cx="1090.35" cy="571.05" r="4.85" transform="rotate(-90 1090.35 571.05)" fill="#2D3851"/>
<circle cx="1122.68" cy="571.05" r="4.85" transform="rotate(-90 1122.68 571.05)" fill="#2D3851"/>
<circle cx="1155.02" cy="571.05" r="4.85" transform="rotate(-90 1155.02 571.05)" fill="#2D3851"/>
<circle cx="1187.35" cy="571.05" r="4.85" transform="rotate(-90 1187.35 571.05)" fill="#2D3851"/>
<circle cx="1219.68" cy="571.05" r="4.85" transform="rotate(-90 1219.68 571.05)" fill="#2D3851"/>
<circle cx="1252.02" cy="571.05" r="4.85" transform="rotate(-90 1252.02 571.05)" fill="#2D3851"/>
<circle cx="767.016" cy="609.85" r="4.85" transform="rotate(-90 767.016 609.85)" fill="#2D3851"/>
<circle cx="799.35" cy="609.85" r="4.85" transform="rotate(-90 799.35 609.85)" fill="#2D3851"/>
<circle cx="831.684" cy="609.85" r="4.85" transform="rotate(-90 831.684 609.85)" fill="#2D3851"/>
<circle cx="864.016" cy="609.85" r="4.85" transform="rotate(-90 864.016 609.85)" fill="#2D3851"/>
<circle cx="896.35" cy="609.85" r="4.85" transform="rotate(-90 896.35 609.85)" fill="#2D3851"/>
<circle cx="928.684" cy="609.85" r="4.85" transform="rotate(-90 928.684 609.85)" fill="#2D3851"/>
<circle cx="961.016" cy="609.85" r="4.85" transform="rotate(-90 961.016 609.85)" fill="#2D3851"/>
<circle cx="993.35" cy="609.85" r="4.85" transform="rotate(-90 993.35 609.85)" fill="#2D3851"/>
<circle cx="1025.68" cy="609.85" r="4.85" transform="rotate(-90 1025.68 609.85)" fill="#2D3851"/>
<circle cx="1058.02" cy="609.85" r="4.85" transform="rotate(-90 1058.02 609.85)" fill="#2D3851"/>
<circle cx="1090.35" cy="609.85" r="4.85" transform="rotate(-90 1090.35 609.85)" fill="#2D3851"/>
<circle cx="1122.68" cy="609.85" r="4.85" transform="rotate(-90 1122.68 609.85)" fill="#2D3851"/>
<circle cx="1155.02" cy="609.85" r="4.85" transform="rotate(-90 1155.02 609.85)" fill="#2D3851"/>
<circle cx="1187.35" cy="609.85" r="4.85" transform="rotate(-90 1187.35 609.85)" fill="#2D3851"/>
<circle cx="1219.68" cy="609.85" r="4.85" transform="rotate(-90 1219.68 609.85)" fill="#2D3851"/>
<circle cx="1252.02" cy="609.85" r="4.85" transform="rotate(-90 1252.02 609.85)" fill="#2D3851"/>
<circle cx="767.016" cy="532.25" r="4.85" transform="rotate(-90 767.016 532.25)" fill="#2D3851"/>
<circle cx="799.35" cy="532.25" r="4.85" transform="rotate(-90 799.35 532.25)" fill="#2D3851"/>
<circle cx="831.684" cy="532.25" r="4.85" transform="rotate(-90 831.684 532.25)" fill="#2D3851"/>
<circle cx="864.016" cy="532.25" r="4.85" transform="rotate(-90 864.016 532.25)" fill="#2D3851"/>
<circle cx="896.35" cy="532.25" r="4.85" transform="rotate(-90 896.35 532.25)" fill="#2D3851"/>
<circle cx="928.684" cy="532.25" r="4.85" transform="rotate(-90 928.684 532.25)" fill="#2D3851"/>
<circle cx="961.016" cy="532.25" r="4.85" transform="rotate(-90 961.016 532.25)" fill="#2D3851"/>
<circle cx="993.35" cy="532.25" r="4.85" transform="rotate(-90 993.35 532.25)" fill="#2D3851"/>
<circle cx="1025.68" cy="532.25" r="4.85" transform="rotate(-90 1025.68 532.25)" fill="#2D3851"/>
<circle cx="1058.02" cy="532.25" r="4.85" transform="rotate(-90 1058.02 532.25)" fill="#2D3851"/>
<circle cx="1090.35" cy="532.25" r="4.85" transform="rotate(-90 1090.35 532.25)" fill="#2D3851"/>
<circle cx="1122.68" cy="532.25" r="4.85" transform="rotate(-90 1122.68 532.25)" fill="#2D3851"/>
<circle cx="1155.02" cy="532.25" r="4.85" transform="rotate(-90 1155.02 532.25)" fill="#2D3851"/>
<circle cx="1187.35" cy="532.25" r="4.85" transform="rotate(-90 1187.35 532.25)" fill="#2D3851"/>
<circle cx="1219.68" cy="532.25" r="4.85" transform="rotate(-90 1219.68 532.25)" fill="#2D3851"/>
<circle cx="1252.02" cy="532.25" r="4.85" transform="rotate(-90 1252.02 532.25)" fill="#2D3851"/>
<circle cx="750.85" cy="629.25" r="4.85" transform="rotate(-90 750.85 629.25)" fill="#2D3851"/>
<circle cx="783.184" cy="629.25" r="4.85" transform="rotate(-90 783.184 629.25)" fill="#2D3851"/>
<circle cx="815.516" cy="629.25" r="4.85" transform="rotate(-90 815.516 629.25)" fill="#2D3851"/>
<circle cx="847.85" cy="629.25" r="4.85" transform="rotate(-90 847.85 629.25)" fill="#2D3851"/>
<circle cx="880.184" cy="629.25" r="4.85" transform="rotate(-90 880.184 629.25)" fill="#2D3851"/>
<circle cx="912.516" cy="629.25" r="4.85" transform="rotate(-90 912.516 629.25)" fill="#2D3851"/>
<circle cx="944.85" cy="629.25" r="4.85" transform="rotate(-90 944.85 629.25)" fill="#2D3851"/>
<circle cx="977.184" cy="629.25" r="4.85" transform="rotate(-90 977.184 629.25)" fill="#2D3851"/>
<circle cx="1009.52" cy="629.25" r="4.85" transform="rotate(-90 1009.52 629.25)" fill="#2D3851"/>
<circle cx="1041.85" cy="629.25" r="4.85" transform="rotate(-90 1041.85 629.25)" fill="#2D3851"/>
<circle cx="1074.18" cy="629.25" r="4.85" transform="rotate(-90 1074.18 629.25)" fill="#2D3851"/>
<circle cx="1106.52" cy="629.25" r="4.85" transform="rotate(-90 1106.52 629.25)" fill="#2D3851"/>
<circle cx="1138.85" cy="629.25" r="4.85" transform="rotate(-90 1138.85 629.25)" fill="#2D3851"/>
<circle cx="1171.18" cy="629.25" r="4.85" transform="rotate(-90 1171.18 629.25)" fill="#2D3851"/>
<circle cx="1203.52" cy="629.25" r="4.85" transform="rotate(-90 1203.52 629.25)" fill="#2D3851"/>
<circle cx="1235.85" cy="629.25" r="4.85" transform="rotate(-90 1235.85 629.25)" fill="#2D3851"/>
<circle cx="750.85" cy="551.65" r="4.85" transform="rotate(-90 750.85 551.65)" fill="#2D3851"/>
<circle cx="783.184" cy="551.65" r="4.85" transform="rotate(-90 783.184 551.65)" fill="#2D3851"/>
<circle cx="815.516" cy="551.65" r="4.85" transform="rotate(-90 815.516 551.65)" fill="#2D3851"/>
<circle cx="847.85" cy="551.65" r="4.85" transform="rotate(-90 847.85 551.65)" fill="#2D3851"/>
<circle cx="880.184" cy="551.65" r="4.85" transform="rotate(-90 880.184 551.65)" fill="#2D3851"/>
<circle cx="912.516" cy="551.65" r="4.85" transform="rotate(-90 912.516 551.65)" fill="#2D3851"/>
<circle cx="944.85" cy="551.65" r="4.85" transform="rotate(-90 944.85 551.65)" fill="#2D3851"/>
<circle cx="977.184" cy="551.65" r="4.85" transform="rotate(-90 977.184 551.65)" fill="#2D3851"/>
<circle cx="1009.52" cy="551.65" r="4.85" transform="rotate(-90 1009.52 551.65)" fill="#2D3851"/>
<circle cx="1041.85" cy="551.65" r="4.85" transform="rotate(-90 1041.85 551.65)" fill="#2D3851"/>
<circle cx="1074.18" cy="551.65" r="4.85" transform="rotate(-90 1074.18 551.65)" fill="#2D3851"/>
<circle cx="1106.52" cy="551.65" r="4.85" transform="rotate(-90 1106.52 551.65)" fill="#2D3851"/>
<circle cx="1138.85" cy="551.65" r="4.85" transform="rotate(-90 1138.85 551.65)" fill="#2D3851"/>
<circle cx="1171.18" cy="551.65" r="4.85" transform="rotate(-90 1171.18 551.65)" fill="#2D3851"/>
<circle cx="1203.52" cy="551.65" r="4.85" transform="rotate(-90 1203.52 551.65)" fill="#2D3851"/>
<circle cx="1235.85" cy="551.65" r="4.85" transform="rotate(-90 1235.85 551.65)" fill="#2D3851"/>
<circle cx="750.85" cy="590.45" r="4.85" transform="rotate(-90 750.85 590.45)" fill="#2D3851"/>
<circle cx="783.184" cy="590.45" r="4.85" transform="rotate(-90 783.184 590.45)" fill="#2D3851"/>
<circle cx="815.516" cy="590.45" r="4.85" transform="rotate(-90 815.516 590.45)" fill="#2D3851"/>
<circle cx="847.85" cy="590.45" r="4.85" transform="rotate(-90 847.85 590.45)" fill="#2D3851"/>
<circle cx="880.184" cy="590.45" r="4.85" transform="rotate(-90 880.184 590.45)" fill="#2D3851"/>
<circle cx="912.516" cy="590.45" r="4.85" transform="rotate(-90 912.516 590.45)" fill="#2D3851"/>
<circle cx="944.85" cy="590.45" r="4.85" transform="rotate(-90 944.85 590.45)" fill="#2D3851"/>
<circle cx="977.184" cy="590.45" r="4.85" transform="rotate(-90 977.184 590.45)" fill="#2D3851"/>
<circle cx="1009.52" cy="590.45" r="4.85" transform="rotate(-90 1009.52 590.45)" fill="#2D3851"/>
<circle cx="1041.85" cy="590.45" r="4.85" transform="rotate(-90 1041.85 590.45)" fill="#2D3851"/>
<circle cx="1074.18" cy="590.45" r="4.85" transform="rotate(-90 1074.18 590.45)" fill="#2D3851"/>
<circle cx="1106.52" cy="590.45" r="4.85" transform="rotate(-90 1106.52 590.45)" fill="#2D3851"/>
<circle cx="1138.85" cy="590.45" r="4.85" transform="rotate(-90 1138.85 590.45)" fill="#2D3851"/>
<circle cx="1171.18" cy="590.45" r="4.85" transform="rotate(-90 1171.18 590.45)" fill="#2D3851"/>
<circle cx="1203.52" cy="590.45" r="4.85" transform="rotate(-90 1203.52 590.45)" fill="#2D3851"/>
<circle cx="1235.85" cy="590.45" r="4.85" transform="rotate(-90 1235.85 590.45)" fill="#2D3851"/>
<circle cx="750.85" cy="512.85" r="4.85" transform="rotate(-90 750.85 512.85)" fill="#2D3851"/>
<circle cx="783.184" cy="512.85" r="4.85" transform="rotate(-90 783.184 512.85)" fill="#2D3851"/>
<circle cx="815.516" cy="512.85" r="4.85" transform="rotate(-90 815.516 512.85)" fill="#2D3851"/>
<circle cx="847.85" cy="512.85" r="4.85" transform="rotate(-90 847.85 512.85)" fill="#2D3851"/>
<circle cx="880.184" cy="512.85" r="4.85" transform="rotate(-90 880.184 512.85)" fill="#2D3851"/>
<circle cx="912.516" cy="512.85" r="4.85" transform="rotate(-90 912.516 512.85)" fill="#2D3851"/>
<circle cx="944.85" cy="512.85" r="4.85" transform="rotate(-90 944.85 512.85)" fill="#2D3851"/>
<circle cx="977.184" cy="512.85" r="4.85" transform="rotate(-90 977.184 512.85)" fill="#2D3851"/>
<circle cx="1009.52" cy="512.85" r="4.85" transform="rotate(-90 1009.52 512.85)" fill="#2D3851"/>
<circle cx="1041.85" cy="512.85" r="4.85" transform="rotate(-90 1041.85 512.85)" fill="#2D3851"/>
<circle cx="1074.18" cy="512.85" r="4.85" transform="rotate(-90 1074.18 512.85)" fill="#2D3851"/>
<circle cx="1106.52" cy="512.85" r="4.85" transform="rotate(-90 1106.52 512.85)" fill="#2D3851"/>
<circle cx="1138.85" cy="512.85" r="4.85" transform="rotate(-90 1138.85 512.85)" fill="#2D3851"/>
<circle cx="1171.18" cy="512.85" r="4.85" transform="rotate(-90 1171.18 512.85)" fill="#2D3851"/>
<circle cx="1203.52" cy="512.85" r="4.85" transform="rotate(-90 1203.52 512.85)" fill="#2D3851"/>
<circle cx="1235.85" cy="512.85" r="4.85" transform="rotate(-90 1235.85 512.85)" fill="#2D3851"/>
</g>
</g>
<defs>
<clipPath id="clip0_2019_3287">
<rect width="1512" height="750" fill="white"/>
</clipPath>
<clipPath id="clip1_2019_3287">
<rect width="1512" height="750" fill="white"/>
</clipPath>
<clipPath id="clip2_2019_3287">
<rect width="57" height="290" fill="white" transform="translate(1333 402)"/>
</clipPath>
</defs>
</svg>
