<svg width="195" height="48" viewBox="0 0 195 48" fill="none" xmlns="http://www.w3.org/2000/svg">
<g clip-path="url(#clip0_2338_6265)">
<path d="M122.851 22.541C124.064 23.0959 124.992 23.8153 125.449 24.6707V21.8898C125.449 19.5442 121.276 17.6434 116.129 17.6434C110.982 17.6434 106.809 19.5442 106.809 21.8898V24.6677C107.267 23.8144 108.194 23.0959 109.405 22.541C111.148 21.749 113.514 21.2706 116.129 21.2687C118.741 21.2706 121.11 21.749 122.851 22.541Z" fill="#D6471A"/>
<path d="M190.491 39.6019C193.301 35.6218 195 30.6199 195 25.2108C195 19.5626 193.177 14.3917 190.151 10.3093C189.564 9.52661 188.482 9.42433 187.804 10.1383L187.433 10.5129C186.815 11.1592 186.754 12.2482 187.278 12.9622C189.749 16.2965 191.232 20.5493 191.232 25.1762C191.232 29.6336 189.842 33.7506 187.557 37.0167C187.031 37.7653 187.124 38.8192 187.772 39.4319L188.143 39.8065C188.823 40.5205 189.903 40.4192 190.491 39.6019Z" fill="#F35E19"/>
<path d="M186.414 35.1791C188.236 32.3552 189.317 28.9196 189.317 25.2108C189.317 21.3325 188.142 17.7259 186.167 14.8334C185.58 13.9835 184.468 13.8471 183.757 14.5952L183.387 14.9703C182.769 15.6161 182.707 16.6374 183.202 17.3855C184.684 19.563 185.58 22.2846 185.58 25.2108C185.58 28.0346 184.777 30.654 183.387 32.7633C182.923 33.5124 183.047 34.5323 183.665 35.1114L184.035 35.4513C184.715 36.1999 185.827 36.0294 186.414 35.1791Z" fill="#F35E19"/>
<path d="M181.904 30.5863C182.769 29.021 183.263 27.1834 183.263 25.2109C183.263 23.1351 182.707 21.1616 181.75 19.5285C181.194 18.5759 180.02 18.4064 179.278 19.155L178.908 19.5285C178.353 20.1076 178.197 21.0593 178.63 21.7743C179.186 22.7605 179.526 23.9514 179.526 25.2109C179.526 26.3671 179.247 27.4556 178.754 28.4093C178.353 29.1569 178.475 30.0759 179.063 30.655L179.433 31.0286C180.175 31.7426 181.379 31.539 181.904 30.5863Z" fill="#F35E19"/>
<path d="M174.959 25.1086C174.959 26.2549 174.115 27.1833 173.075 27.1833C172.034 27.1833 171.191 26.2549 171.191 25.1086C171.191 23.9627 172.034 23.0338 173.075 23.0338C174.115 23.0338 174.959 23.9627 174.959 25.1086Z" fill="#F35E19"/>
<path d="M143.609 9.23223C144.369 9.23223 145.012 9.53067 145.537 10.1256C146.064 10.7215 146.327 11.4375 146.327 12.274V24.8265C146.327 26.9502 145.954 28.9543 145.209 30.8374C144.464 32.72 143.456 34.3614 142.184 35.7613C140.914 37.1616 139.424 38.2719 137.714 39.0931C136.005 39.9138 134.186 40.3239 132.257 40.3239C130.3 40.3239 128.466 39.9138 126.757 39.0931C125.048 38.2719 123.558 37.1616 122.287 35.7613C121.016 34.3614 120.008 32.72 119.263 30.8374C118.517 28.9543 118.145 26.9502 118.145 24.8265V12.274C118.145 11.4375 118.415 10.7215 118.956 10.1256C119.496 9.53067 120.146 9.23223 120.906 9.23223C121.665 9.23223 122.309 9.52969 122.835 10.1241C123.36 10.7185 123.623 11.4325 123.623 12.2681V24.7964C123.623 26.1132 123.849 27.342 124.303 28.4829C124.755 29.6234 125.369 30.6269 126.143 31.4941C126.918 32.3617 127.831 33.0441 128.883 33.5422C129.935 34.0403 131.059 34.2888 132.257 34.2888C133.426 34.2888 134.536 34.0403 135.588 33.5422C136.641 33.0441 137.561 32.3617 138.35 31.4941C139.139 30.6269 139.759 29.6234 140.213 28.4829C140.665 27.342 140.892 26.1132 140.892 24.7964H140.848V12.2681C140.848 11.4325 141.118 10.7185 141.659 10.1241C142.199 9.52969 142.849 9.23223 143.609 9.23223Z" fill="#ABADAC"/>
<path d="M170.505 25.454C170.651 23.2014 170.14 21.174 168.973 19.3705C168.39 18.4381 167.682 17.6495 166.851 17.0047C166.019 16.3618 165.122 15.8949 164.159 15.6048C162.175 14.9941 160.263 15.1389 158.425 16.0397C158.659 15.9117 158.893 15.7906 159.127 15.6775C159.361 15.5648 159.595 15.4601 159.83 15.3637C159.537 15.4927 159.252 15.6221 158.975 15.7501C158.697 15.8786 158.427 16.0239 158.164 16.1844C157.083 16.6998 156.148 17.4721 155.359 18.5018C154.336 19.8221 153.672 21.3346 153.365 23.0398C153.058 24.746 153.168 26.4195 153.693 28.061C154.103 29.2844 154.716 30.3784 155.535 31.3439C156.352 32.3094 157.316 33.0659 158.427 33.6134C159.537 34.1282 160.69 34.3857 161.885 34.3857C163.081 34.3857 164.234 34.1124 165.342 33.5649C165.809 33.308 166.253 33.0338 166.677 32.7442C167.1 32.4542 167.501 32.1162 167.88 31.7303C168.639 30.8937 169.25 29.9362 169.717 28.858C170.184 27.7798 170.446 26.6449 170.505 25.454ZM169.794 11.984C170.789 12.7247 171.674 13.5854 172.45 14.5672C173.225 15.5495 173.877 16.6114 174.403 17.7538C174.93 18.8966 175.332 20.1033 175.611 21.3741C175.889 22.646 176.012 23.9257 175.984 25.2129C175.925 26.8539 175.647 28.4553 175.151 30.0162C174.654 31.5781 173.953 33.0179 173.047 34.3372C171.908 35.9787 170.519 37.3064 168.883 38.3203C167.247 39.3342 165.508 39.9701 163.668 40.2271C161.798 40.4845 159.965 40.3313 158.168 39.7685C156.37 39.2057 154.727 38.3124 153.237 37.089V37.0405V45.0067C153.237 45.8437 152.971 46.5517 152.441 47.1309C151.911 47.7104 151.263 48 150.497 48C149.732 48 149.083 47.7104 148.553 47.1309C148.023 46.5517 147.758 45.8437 147.758 45.0067V24.8744V24.5849C147.758 24.328 147.765 24.0779 147.78 23.8368C147.795 23.5952 147.817 23.3461 147.846 23.0882C147.962 21.7689 148.248 20.4897 148.702 19.2499C149.155 18.0112 149.726 16.8599 150.413 15.7985C151.101 14.7362 151.906 13.7786 152.828 12.9258C153.75 12.0734 154.752 11.3564 155.835 10.7773C158.088 9.61815 160.459 9.1443 162.946 9.35282C165.433 9.56281 167.716 10.4394 169.794 11.984" fill="#ABADAC"/>
<path d="M71.6167 24.9542C71.6167 23.3004 71.2552 21.7735 70.5334 20.3732C70.5334 20.3411 70.5258 20.3179 70.5119 20.3006C70.4971 20.2853 70.4899 20.2611 70.4899 20.2289C70.3742 20.0387 70.2594 19.848 70.1432 19.6563C70.0275 19.466 69.9117 19.2911 69.7969 19.132C69.0168 18.0173 68.0488 17.1427 66.8947 16.5063C65.7387 15.8709 64.4675 15.5521 63.0819 15.5521C61.6945 15.5521 60.4161 15.8941 59.2462 16.5784C58.0768 17.2638 57.1025 18.1611 56.322 19.2748C55.7734 20.0708 55.3469 20.9454 55.0441 21.8995C54.7404 22.8542 54.5883 23.873 54.5883 24.9542V28.4861C55.7151 27.5957 56.9567 26.9034 58.3154 26.4093C59.6719 25.9172 61.1028 25.6701 62.6042 25.6701H63.0819L71.6167 24.9542ZM63.0819 9.58522C65.0161 9.58522 66.8287 9.99187 68.5185 10.8027C70.2082 11.6141 71.6822 12.7125 72.9382 14.0955C74.1946 15.48 75.1922 17.1111 75.9279 18.9887C76.6644 20.8664 77.0327 22.8542 77.0327 24.9542V37.3639C77.0327 38.192 76.773 38.8907 76.2526 39.4638C75.7328 40.036 75.0971 40.3236 74.3462 40.3236C73.5949 40.3236 72.953 40.036 72.4183 39.4638C71.8841 38.8907 71.6167 38.192 71.6167 37.3639V31.6361H63.0819V31.5882C62.9944 31.6198 62.8352 31.6361 62.6042 31.6361C61.651 31.6361 60.7413 31.7967 59.8747 32.1139C59.0089 32.4326 58.2217 32.8773 57.5143 33.4495C56.8051 34.0232 56.1919 34.707 55.6716 35.5025C55.1517 36.2985 54.7619 37.1736 54.5027 38.1273C54.4726 38.1604 54.4587 38.192 54.4587 38.2236C54.4587 38.2547 54.4439 38.2864 54.4152 38.3185C54.2429 38.9233 53.9249 39.409 53.462 39.7737C52.9995 40.1393 52.4666 40.3236 51.8588 40.3236C51.1075 40.3236 50.4723 40.036 49.9524 39.4638C49.4325 38.8907 49.1724 38.192 49.1724 37.3639V36.9345V24.9542C49.1724 23.077 49.4608 21.3111 50.039 19.6563C50.7325 17.6205 51.7731 15.8066 53.1597 14.2156C54.4587 12.7836 55.9533 11.6546 57.6439 10.8274C59.3328 9.99879 61.1454 9.58522 63.0819 9.58522" fill="#0D1528"/>
<path d="M106.273 35.2881C106.794 35.845 107.054 36.5367 107.054 37.3639C107.054 38.192 106.794 38.8907 106.273 39.4639C105.754 40.037 105.118 40.3226 104.367 40.3226H81.5759C80.8254 40.3226 80.1903 40.037 79.6695 39.4639C79.1501 38.8907 78.8899 38.192 78.8899 37.3639C78.8899 36.7601 79.0491 36.1864 79.3672 35.6453L79.6269 35.3597L97.6511 15.4558H82.7031C81.9513 15.4558 81.3234 15.1781 80.8183 14.6212C80.3127 14.0644 80.0602 13.3721 80.0602 12.545C80.0602 11.7173 80.3127 11.0177 80.8183 10.445C81.3234 9.87181 81.9513 9.58522 82.7031 9.58522H104.194C104.945 9.58522 105.573 9.87181 106.079 10.445C106.583 11.0177 106.837 11.7173 106.837 12.545C106.837 13.1493 106.678 13.722 106.36 14.263C106.302 14.3268 106.237 14.4068 106.165 14.5017C106.093 14.597 106.014 14.6924 105.927 14.7883L97.9983 23.5222V23.4748L88.0321 34.4525H104.367C105.118 34.4525 105.754 34.7312 106.273 35.2881Z" fill="#0D1528"/>
<path d="M111.597 9.58543C112.348 9.58543 112.99 9.88042 113.526 10.4684C114.06 11.0574 114.327 11.7655 114.327 12.5926V37.2213C114.327 38.0484 114.06 38.7565 113.526 39.3445C112.99 39.934 112.348 40.2275 111.597 40.2275C110.846 40.2275 110.211 39.934 109.691 39.3445C109.171 38.7565 108.911 38.0484 108.911 37.2213V12.5926C108.911 11.7655 109.171 11.0574 109.691 10.4684C110.211 9.88042 110.846 9.58543 111.597 9.58543Z" fill="#0D1528"/>
<path d="M46.5185 10.4926C45.9982 9.91993 45.3626 9.63383 44.6121 9.63383C43.8603 9.63383 43.2323 9.91993 42.7272 10.4926C42.2213 11.0653 41.9687 11.7659 41.9687 12.5926V30.2997L38.4686 26.4347C37.056 24.8748 35.3425 24.0951 33.3253 24.0951C32.3452 24.0951 31.4091 24.2942 30.5155 24.6915C29.622 25.0902 28.8446 25.6703 28.1821 26.4347L24.7246 30.2523V12.5926C24.7246 11.7654 24.4617 11.0653 23.9378 10.4926C23.4139 9.92042 22.7738 9.63383 22.0166 9.63383C21.2598 9.63383 20.6184 9.92042 20.0945 10.4926C19.5701 11.0653 19.3086 11.7654 19.3086 12.5926V37.3641C19.3086 38.1922 19.5688 38.8909 20.0886 39.464C20.6081 40.0372 21.2433 40.3228 21.995 40.3228C22.5436 40.3228 23.0635 40.1494 23.5552 39.7981V39.845L31.527 31.0157C32.0178 30.4751 32.6103 30.2053 33.3038 30.2053C33.9385 30.2053 34.5167 30.4598 35.0362 30.9677L42.7497 39.5115L43.0955 39.845L43.139 39.7981C43.6006 40.1494 44.0922 40.3228 44.6121 40.3228C45.3626 40.3228 45.9982 40.0372 46.5185 39.464C47.0384 38.8909 47.2981 38.1922 47.2981 37.3641V12.5926C47.2981 11.7659 47.0384 11.0653 46.5185 10.4926Z" fill="#0D1528"/>
<path d="M4.50942 10.3397C1.69871 14.3203 0 19.3222 0 24.7313C0 30.379 1.82252 35.5504 4.84898 39.6328C5.43615 40.4155 6.51809 40.5177 7.19632 39.8037L7.56728 39.4282C8.18495 38.7824 8.24641 37.6939 7.72159 36.9799C5.25089 33.6456 3.76884 29.3927 3.76884 24.7649C3.76884 20.3084 5.15804 16.1915 7.44348 12.9254C7.96875 12.1768 7.87589 11.1224 7.22817 10.5101L6.85675 10.1356C6.17718 9.42161 5.09704 9.5229 4.50942 10.3397Z" fill="#F35E19"/>
<path d="M8.58646 14.7626C6.76439 17.5864 5.68335 21.0225 5.68335 24.7313C5.68335 28.6096 6.85769 32.2162 8.83362 35.1087C9.42034 35.9586 10.5323 36.095 11.2429 35.3459L11.6134 34.9714C12.231 34.3261 12.2938 33.3047 11.7986 32.5561C10.3161 30.3786 9.42034 27.6575 9.42034 24.7313C9.42034 21.9075 10.2233 19.2877 11.6134 17.1788C12.0767 16.4297 11.9529 15.4089 11.3353 14.8308L10.9656 14.4903C10.2852 13.7422 9.17408 13.9117 8.58646 14.7626Z" fill="#F35E19"/>
<path d="M13.0956 19.3557C12.2307 20.9201 11.7373 22.7582 11.7373 24.7312C11.7373 26.806 12.2926 28.7795 13.2499 30.4126C13.8061 31.3662 14.9795 31.5357 15.7215 30.7871L16.0924 30.4126C16.6473 29.8344 16.8029 28.8818 16.3696 28.1678C15.8143 27.1806 15.4738 25.9897 15.4738 24.7312C15.4738 23.574 15.752 22.4855 16.2458 21.5328C16.6473 20.7847 16.5248 19.8662 15.9372 19.2871L15.5662 18.913C14.8252 18.1985 13.6208 18.4031 13.0956 19.3557Z" fill="#F35E19"/>
<path d="M119.572 26.5576V27.197V27.9303C119.181 27.992 118.816 28.0385 118.472 28.075C118.127 28.1121 117.801 28.1388 117.488 28.1576C117.173 28.1773 116.872 28.1887 116.574 28.1951C116.276 28.2015 115.982 28.2015 115.684 28.1951C115.386 28.1887 115.084 28.1773 114.77 28.1576C114.456 28.1388 114.131 28.1121 113.786 28.075C113.441 28.0385 113.077 27.992 112.686 27.9303V27.197V26.5576V25.8243C113.077 25.8856 113.441 25.9321 113.786 25.9691C114.131 26.0057 114.456 26.0319 114.77 26.0516C115.084 26.0704 115.386 26.0833 115.684 26.0882C115.982 26.0941 116.276 26.0941 116.574 26.0882C116.872 26.0833 117.173 26.0704 117.488 26.0516C117.801 26.0319 118.127 26.0057 118.472 25.9691C118.816 25.9321 119.181 25.8856 119.572 25.8243V26.5576ZM122.851 23.8677C121.11 24.6592 118.741 25.138 116.129 25.14C113.514 25.138 111.148 24.6592 109.406 23.8677C108.194 23.3128 107.267 22.5943 106.809 21.741V24.5189C106.809 26.8645 110.982 28.7653 116.129 28.7653C121.276 28.7653 125.449 26.8645 125.449 24.5189V21.738C124.992 22.5933 124.064 23.3128 122.851 23.8677Z" fill="#F35E19"/>
<path d="M119.572 26.5576V27.197V27.9303C119.181 27.9921 118.817 28.0385 118.472 28.0751C118.127 28.1121 117.801 28.1388 117.488 28.1576C117.173 28.1773 116.872 28.1887 116.574 28.1951C116.276 28.2016 115.983 28.2016 115.684 28.1951C115.386 28.1887 115.084 28.1773 114.77 28.1576C114.457 28.1388 114.131 28.1121 113.786 28.0751C113.441 28.0385 113.077 27.9921 112.686 27.9303V27.197V26.5576V25.8244C113.077 25.8856 113.441 25.9321 113.786 25.9691C114.131 26.0057 114.457 26.0319 114.77 26.0517C115.084 26.0704 115.386 26.0833 115.684 26.0882C115.983 26.0942 116.276 26.0942 116.574 26.0882C116.872 26.0833 117.173 26.0704 117.488 26.0517C117.801 26.0319 118.127 26.0057 118.472 25.9691C118.817 25.9321 119.181 25.8856 119.572 25.8244V26.5576Z" fill="white"/>
<path d="M114.21 2.91879C114.21 4.5306 113.024 5.83704 111.56 5.83704C110.097 5.83704 108.911 4.5306 108.911 2.91879C108.911 1.30699 110.097 5.72408e-05 111.56 5.72408e-05C113.024 5.72408e-05 114.21 1.30699 114.21 2.91879Z" fill="#F35E19"/>
</g>
<defs>
<clipPath id="clip0_2338_6265">
<rect width="195" height="48" fill="white"/>
</clipPath>
</defs>
</svg>
