<svg width="1512" height="350" viewBox="0 0 1512 350" fill="none" xmlns="http://www.w3.org/2000/svg">
<g clip-path="url(#clip0_2039_3791)">
<rect width="1512" height="350" fill="#0D1528"/>
<g clip-path="url(#clip1_2039_3791)">
<path fill-rule="evenodd" clip-rule="evenodd" d="M279 46.9997L249 64.3202V29.6792L279 46.9997ZM318.998 47L288.998 64.3205V29.6794L318.998 47ZM328.998 64.3205L358.998 47L328.998 29.6794V64.3205Z" fill="#2D3851" fill-opacity="0.5"/>
<path d="M667.23 100.102L669.843 92.3636C671.225 88.2731 675.331 85.7534 679.603 86.3744L680.921 86.5659C684.752 87.1228 688.382 84.6398 689.284 80.8744V80.8744C690.223 76.9529 694.125 74.4685 698.069 75.3115L698.244 75.3489C702.089 76.1711 705.889 73.7752 706.805 69.9505V69.9505C707.721 66.1258 711.52 63.7299 715.366 64.5521L715.628 64.608C719.549 65.4465 723.439 63.0596 724.468 59.1833L724.512 59.0163C725.548 55.1132 729.423 52.673 733.39 53.4255L733.896 53.5214C737.943 54.2889 741.937 51.9552 743.255 48.0525L743.69 46.7629C745.018 42.8296 748.865 40.3151 753 40.6765L762.69 41.5231" stroke="#2D3851" stroke-opacity="0.5" stroke-width="4"/>
<path d="M672.461 108.625L675.074 100.887C676.455 96.7963 680.561 94.2766 684.834 94.8976L686.151 95.089C689.983 95.646 693.613 93.163 694.514 89.3976V89.3976C695.453 85.4761 699.356 82.9917 703.299 83.8347L703.474 83.8721C707.32 84.6943 711.12 82.2984 712.035 78.4737V78.4737C712.951 74.649 716.751 72.2531 720.597 73.0753L720.858 73.1312C724.78 73.9697 728.67 71.5828 729.698 67.7065L729.743 67.5395C730.778 63.6364 734.653 61.1962 738.621 61.9487L739.127 62.0446C743.174 62.8121 747.167 60.4784 748.485 56.5757L748.921 55.2861C750.249 51.3528 754.095 48.8383 758.231 49.1997L767.92 50.0463" stroke="#2D3851" stroke-opacity="0.5" stroke-width="4"/>
<path d="M677.691 117.148L680.304 109.41C681.686 105.32 685.792 102.8 690.064 103.421L691.381 103.612C695.213 104.169 698.843 101.686 699.745 97.9208V97.9208C700.684 93.9993 704.586 91.5149 708.53 92.3579L708.705 92.3953C712.55 93.2175 716.35 90.8216 717.266 86.9969V86.9969C718.182 83.1722 721.981 80.7763 725.827 81.5985L726.089 81.6544C730.01 82.4928 733.9 80.106 734.929 76.2297L734.973 76.0627C736.009 72.1596 739.884 69.7194 743.851 70.4718L744.357 70.5678C748.404 71.3353 752.398 69.0016 753.716 65.0989L754.151 63.8093C755.479 59.876 759.326 57.3615 763.461 57.7229L773.151 58.5695" stroke="#2D3851" stroke-opacity="0.5" stroke-width="4"/>
<path d="M682.922 125.671L685.535 117.933C686.916 113.843 691.022 111.323 695.295 111.944L696.612 112.135C700.444 112.692 704.074 110.209 704.975 106.444V106.444C705.914 102.522 709.817 100.038 713.76 100.881L713.935 100.919C717.781 101.741 721.581 99.3448 722.496 95.5201V95.5201C723.412 91.6954 727.212 89.2995 731.058 90.1217L731.319 90.1776C735.241 91.016 739.131 88.6291 740.159 84.7528L740.203 84.5859C741.239 80.6828 745.114 78.2426 749.082 78.995L749.588 79.091C753.635 79.8585 757.628 77.5248 758.946 73.6221L759.382 72.3325C760.71 68.3992 764.556 65.8847 768.692 66.2461L778.381 67.0927" stroke="#2D3851" stroke-opacity="0.5" stroke-width="4"/>
<rect x="1320.17" y="256" width="1.32653" height="65" fill="#2D3851" fill-opacity="0.5"/>
<rect x="1326.36" y="256" width="1.32653" height="65" fill="#2D3851" fill-opacity="0.5"/>
<rect x="1332.55" y="256" width="1.32653" height="65" fill="#2D3851" fill-opacity="0.5"/>
<rect x="1338.74" y="256" width="1.32653" height="65" fill="#2D3851" fill-opacity="0.5"/>
<rect x="1344.93" y="256" width="1.32653" height="65" fill="#2D3851" fill-opacity="0.5"/>
<rect x="1351.12" y="256" width="1.32653" height="65" fill="#2D3851" fill-opacity="0.5"/>
<rect x="1357.31" y="256" width="1.32653" height="65" fill="#2D3851" fill-opacity="0.5"/>
<rect x="1363.5" y="256" width="1.32653" height="65" fill="#2D3851" fill-opacity="0.5"/>
<rect x="1310" y="310.83" width="1.32653" height="65" transform="rotate(-90 1310 310.83)" fill="#2D3851" fill-opacity="0.5"/>
<rect x="1310" y="304.639" width="1.32653" height="65" transform="rotate(-90 1310 304.639)" fill="#2D3851" fill-opacity="0.5"/>
<rect x="1310" y="298.449" width="1.32653" height="65" transform="rotate(-90 1310 298.449)" fill="#2D3851" fill-opacity="0.5"/>
<rect x="1310" y="292.259" width="1.32653" height="65" transform="rotate(-90 1310 292.259)" fill="#2D3851" fill-opacity="0.5"/>
<rect x="1310" y="286.068" width="1.32653" height="65" transform="rotate(-90 1310 286.068)" fill="#2D3851" fill-opacity="0.5"/>
<rect x="1310" y="279.877" width="1.32653" height="65" transform="rotate(-90 1310 279.877)" fill="#2D3851" fill-opacity="0.5"/>
<rect x="1310" y="273.687" width="1.32653" height="65" transform="rotate(-90 1310 273.687)" fill="#2D3851" fill-opacity="0.5"/>
<rect x="1310" y="267.497" width="1.32653" height="65" transform="rotate(-90 1310 267.497)" fill="#2D3851" fill-opacity="0.5"/>
<path d="M1399.96 104.101C1401.39 102.56 1402.5 100.753 1403.23 98.7827C1403.96 96.8125 1404.29 94.7177 1404.21 92.6181C1404.13 90.5184 1403.64 88.455 1402.76 86.5455C1401.89 84.6361 1400.64 82.9181 1399.1 81.4895C1397.56 80.061 1395.75 78.9499 1393.78 78.2197C1391.81 77.4896 1389.72 77.1546 1387.62 77.234C1385.52 77.3134 1383.46 77.8056 1381.55 78.6824C1379.64 79.5592 1377.92 80.8036 1376.49 82.3444L1378 83.7391C1379.24 82.3958 1380.74 81.311 1382.4 80.5466C1384.07 79.7822 1385.87 79.3531 1387.7 79.2839C1389.53 79.2147 1391.35 79.5067 1393.07 80.1433C1394.79 80.7798 1396.36 81.7484 1397.71 82.9938C1399.05 84.2392 1400.14 85.737 1400.9 87.4016C1401.66 89.0662 1402.09 90.8651 1402.16 92.6956C1402.23 94.5261 1401.94 96.3522 1401.3 98.0698C1400.67 99.7874 1399.7 101.363 1398.45 102.706L1399.96 104.101Z" fill="#2D3851" fill-opacity="0.5"/>
<path d="M1405.82 109.54C1407.97 107.229 1409.63 104.518 1410.73 101.563C1411.82 98.6074 1412.33 95.4653 1412.21 92.3158C1412.09 89.1663 1411.35 86.0712 1410.03 83.207C1408.72 80.3428 1406.85 77.7658 1404.54 75.6229C1402.23 73.4801 1399.52 71.8135 1396.56 70.7183C1393.61 69.623 1390.47 69.1206 1387.32 69.2397C1384.17 69.3588 1381.07 70.097 1378.21 71.4123C1375.34 72.7275 1372.77 74.5941 1370.62 76.9053L1372.22 78.3889C1374.17 76.2878 1376.52 74.591 1379.12 73.3953C1381.72 72.1997 1384.54 71.5286 1387.4 71.4203C1390.26 71.3121 1393.12 71.7688 1395.81 72.7645C1398.49 73.7601 1400.96 75.2752 1403.06 77.2232C1405.16 79.1712 1406.86 81.5139 1408.05 84.1176C1409.25 86.7214 1409.92 89.5351 1410.03 92.3983C1410.13 95.2614 1409.68 98.1178 1408.68 100.804C1407.69 103.491 1406.17 105.955 1404.22 108.056L1405.82 109.54Z" fill="#2D3851" fill-opacity="0.5"/>
<path d="M1411.69 114.979C1414.55 111.897 1416.77 108.283 1418.23 104.343C1419.69 100.402 1420.36 96.2128 1420.2 92.0135C1420.04 87.8142 1419.06 83.6873 1417.3 79.8684C1415.55 76.0495 1413.06 72.6135 1409.98 69.7564C1406.9 66.8993 1403.28 64.6771 1399.34 63.2168C1395.4 61.7565 1391.21 61.0866 1387.01 61.2454C1382.82 61.4041 1378.69 62.3885 1374.87 64.1421C1371.05 65.8958 1367.61 68.3845 1364.76 71.4661L1366.25 72.8543C1368.93 69.9693 1372.15 67.6394 1375.72 65.9977C1379.3 64.3559 1383.16 63.4343 1387.09 63.2857C1391.02 63.1371 1394.95 63.7642 1398.63 65.1314C1402.32 66.4985 1405.71 68.5789 1408.59 71.2537C1411.48 73.9284 1413.81 77.1453 1415.45 80.7205C1417.09 84.2957 1418.01 88.1593 1418.16 92.0907C1418.31 96.022 1417.68 99.9442 1416.31 103.633C1414.95 107.322 1412.87 110.706 1410.19 113.591L1411.69 114.979Z" fill="#2D3851" fill-opacity="0.5"/>
<circle cx="13.3" cy="96.1999" r="3.3" fill="#2D3851" fill-opacity="0.5"/>
<circle cx="13.3" cy="116" r="3.3" fill="#2D3851" fill-opacity="0.5"/>
<circle cx="13.3" cy="135.8" r="3.3" fill="#2D3851" fill-opacity="0.5"/>
<circle cx="13.3" cy="155.6" r="3.3" fill="#2D3851" fill-opacity="0.5"/>
<circle cx="13.3" cy="175.4" r="3.3" fill="#2D3851" fill-opacity="0.5"/>
<circle cx="13.3" cy="195.2" r="3.3" fill="#2D3851" fill-opacity="0.5"/>
<circle cx="13.3" cy="215" r="3.3" fill="#2D3851" fill-opacity="0.5"/>
<circle cx="13.3" cy="234.8" r="3.3" fill="#2D3851" fill-opacity="0.5"/>
<circle cx="26.4992" cy="86.3" r="3.3" fill="#2D3851" fill-opacity="0.5"/>
<circle cx="26.4992" cy="106.1" r="3.3" fill="#2D3851" fill-opacity="0.5"/>
<circle cx="26.4992" cy="125.9" r="3.3" fill="#2D3851" fill-opacity="0.5"/>
<circle cx="26.4992" cy="145.7" r="3.3" fill="#2D3851" fill-opacity="0.5"/>
<circle cx="26.4992" cy="165.5" r="3.3" fill="#2D3851" fill-opacity="0.5"/>
<circle cx="26.4992" cy="185.3" r="3.3" fill="#2D3851" fill-opacity="0.5"/>
<circle cx="26.4992" cy="205.1" r="3.3" fill="#2D3851" fill-opacity="0.5"/>
<circle cx="26.4992" cy="224.9" r="3.3" fill="#2D3851" fill-opacity="0.5"/>
<circle cx="39.7004" cy="96.1999" r="3.3" fill="#2D3851" fill-opacity="0.5"/>
<circle cx="39.7004" cy="116" r="3.3" fill="#2D3851" fill-opacity="0.5"/>
<circle cx="39.7004" cy="135.8" r="3.3" fill="#2D3851" fill-opacity="0.5"/>
<circle cx="39.7004" cy="155.6" r="3.3" fill="#2D3851" fill-opacity="0.5"/>
<circle cx="39.7004" cy="175.4" r="3.3" fill="#2D3851" fill-opacity="0.5"/>
<circle cx="39.7004" cy="195.2" r="3.3" fill="#2D3851" fill-opacity="0.5"/>
<circle cx="39.7004" cy="215" r="3.3" fill="#2D3851" fill-opacity="0.5"/>
<circle cx="39.7004" cy="234.8" r="3.3" fill="#2D3851" fill-opacity="0.5"/>
<circle cx="66.1008" cy="96.1999" r="3.3" fill="#2D3851" fill-opacity="0.5"/>
<circle cx="66.1008" cy="116" r="3.3" fill="#2D3851" fill-opacity="0.5"/>
<circle cx="66.1008" cy="135.8" r="3.3" fill="#2D3851" fill-opacity="0.5"/>
<circle cx="66.1008" cy="155.6" r="3.3" fill="#2D3851" fill-opacity="0.5"/>
<circle cx="66.1008" cy="175.4" r="3.3" fill="#2D3851" fill-opacity="0.5"/>
<circle cx="66.1008" cy="195.2" r="3.3" fill="#2D3851" fill-opacity="0.5"/>
<circle cx="66.1008" cy="215" r="3.3" fill="#2D3851" fill-opacity="0.5"/>
<circle cx="66.1008" cy="234.8" r="3.3" fill="#2D3851" fill-opacity="0.5"/>
<circle cx="92.4992" cy="96.1999" r="3.3" fill="#2D3851" fill-opacity="0.5"/>
<circle cx="92.4992" cy="116" r="3.3" fill="#2D3851" fill-opacity="0.5"/>
<circle cx="92.4992" cy="135.8" r="3.3" fill="#2D3851" fill-opacity="0.5"/>
<circle cx="92.4992" cy="155.6" r="3.3" fill="#2D3851" fill-opacity="0.5"/>
<circle cx="92.4992" cy="175.4" r="3.3" fill="#2D3851" fill-opacity="0.5"/>
<circle cx="92.4992" cy="195.2" r="3.3" fill="#2D3851" fill-opacity="0.5"/>
<circle cx="92.4992" cy="215" r="3.3" fill="#2D3851" fill-opacity="0.5"/>
<circle cx="92.4992" cy="234.8" r="3.3" fill="#2D3851" fill-opacity="0.5"/>
<circle cx="52.8996" cy="86.3" r="3.3" fill="#2D3851" fill-opacity="0.5"/>
<circle cx="52.8996" cy="106.1" r="3.3" fill="#2D3851" fill-opacity="0.5"/>
<circle cx="52.8996" cy="125.9" r="3.3" fill="#2D3851" fill-opacity="0.5"/>
<circle cx="52.8996" cy="145.7" r="3.3" fill="#2D3851" fill-opacity="0.5"/>
<circle cx="52.8996" cy="165.5" r="3.3" fill="#2D3851" fill-opacity="0.5"/>
<circle cx="52.8996" cy="185.3" r="3.3" fill="#2D3851" fill-opacity="0.5"/>
<circle cx="52.8996" cy="205.1" r="3.3" fill="#2D3851" fill-opacity="0.5"/>
<circle cx="52.8996" cy="224.9" r="3.3" fill="#2D3851" fill-opacity="0.5"/>
<circle cx="79.3" cy="86.3" r="3.3" fill="#2D3851" fill-opacity="0.5"/>
<circle cx="79.3" cy="106.1" r="3.3" fill="#2D3851" fill-opacity="0.5"/>
<circle cx="79.3" cy="125.9" r="3.3" fill="#2D3851" fill-opacity="0.5"/>
<circle cx="79.3" cy="145.7" r="3.3" fill="#2D3851" fill-opacity="0.5"/>
<circle cx="79.3" cy="165.5" r="3.3" fill="#2D3851" fill-opacity="0.5"/>
<circle cx="79.3" cy="185.3" r="3.3" fill="#2D3851" fill-opacity="0.5"/>
<circle cx="79.3" cy="205.1" r="3.3" fill="#2D3851" fill-opacity="0.5"/>
<circle cx="79.3" cy="224.9" r="3.3" fill="#2D3851" fill-opacity="0.5"/>
<circle cx="105.7" cy="86.3" r="3.3" fill="#2D3851" fill-opacity="0.5"/>
<circle cx="105.7" cy="106.1" r="3.3" fill="#2D3851" fill-opacity="0.5"/>
<circle cx="105.7" cy="125.9" r="3.3" fill="#2D3851" fill-opacity="0.5"/>
<circle cx="105.7" cy="145.7" r="3.3" fill="#2D3851" fill-opacity="0.5"/>
<circle cx="105.7" cy="165.5" r="3.3" fill="#2D3851" fill-opacity="0.5"/>
<circle cx="105.7" cy="185.3" r="3.3" fill="#2D3851" fill-opacity="0.5"/>
<circle cx="105.7" cy="205.1" r="3.3" fill="#2D3851" fill-opacity="0.5"/>
<circle cx="105.7" cy="224.9" r="3.3" fill="#2D3851" fill-opacity="0.5"/>
<path fill-rule="evenodd" clip-rule="evenodd" d="M1035 30C1038.87 30 1042 26.866 1042 23C1042 19.134 1038.87 16 1035 16C1031.13 16 1028 19.134 1028 23C1028 26.866 1031.13 30 1035 30ZM1089 42C1089 48.6274 1083.63 54 1077 54C1070.37 54 1065 48.6274 1065 42C1065 35.3726 1070.37 30 1077 30C1083.63 30 1089 35.3726 1089 42ZM1065 72C1065 81.9411 1056.94 90 1047 90C1037.06 90 1029 81.9411 1029 72C1029 62.0589 1037.06 54 1047 54C1056.94 54 1065 62.0589 1065 72Z" fill="#2D3851" fill-opacity="0.5"/>
<path fill-rule="evenodd" clip-rule="evenodd" d="M153.771 182.306L144.941 187.001L166.037 219.576L168.981 218.012L153.771 182.306ZM170.785 218.562L165.487 221.379L167.991 226.088L173.288 223.272L170.785 218.562Z" fill="#69799C" fill-opacity="0.6"/>
<path fill-rule="evenodd" clip-rule="evenodd" d="M455 193C481.308 193 503.594 175.782 511.204 152H398.796C406.406 175.782 428.692 193 455 193ZM397.671 148H512.329C513.421 143.512 514 138.824 514 134C514 101.415 487.585 75 455 75C422.415 75 396 101.415 396 134C396 138.824 396.579 143.512 397.671 148ZM518 134C518 138.812 517.461 143.497 516.439 148H566H570V152V214H595.29H599.909L597.6 218L569.309 267L567 271L564.691 267L552.566 246H389H385V242V152V148H389H393.561C392.539 143.497 392 138.812 392 134C392 99.2061 420.206 71 455 71C489.794 71 518 99.2061 518 134ZM557.185 246L567 263L592.981 218H570V242V246H566H557.185ZM566 218V242H554.876L541.019 218H566ZM566 214H538.71H534.091L536.4 218L550.257 242H389V152H394.609C402.354 178.023 426.461 197 455 197C483.539 197 507.646 178.023 515.391 152H566V214Z" fill="#2D3851" fill-opacity="0.5"/>
<circle cx="704.875" cy="301.134" r="4.85" transform="rotate(-65.8795 704.875 301.134)" fill="#2D3851" fill-opacity="0.5"/>
<circle cx="734.385" cy="314.347" r="4.85" transform="rotate(-65.8795 734.385 314.347)" fill="#2D3851" fill-opacity="0.5"/>
<circle cx="763.897" cy="327.56" r="4.85" transform="rotate(-65.8795 763.897 327.56)" fill="#2D3851" fill-opacity="0.5"/>
<circle cx="793.407" cy="340.773" r="4.85" transform="rotate(-65.8795 793.407 340.773)" fill="#2D3851" fill-opacity="0.5"/>
<circle cx="822.916" cy="353.987" r="4.85" transform="rotate(-65.8795 822.916 353.987)" fill="#2D3851" fill-opacity="0.5"/>
<circle cx="689.02" cy="336.546" r="4.85" transform="rotate(-65.8795 689.02 336.546)" fill="#2D3851" fill-opacity="0.5"/>
<circle cx="718.53" cy="349.759" r="4.85" transform="rotate(-65.8795 718.53 349.759)" fill="#2D3851" fill-opacity="0.5"/>
<circle cx="720.731" cy="265.721" r="4.85" transform="rotate(-65.8795 720.731 265.721)" fill="#2D3851" fill-opacity="0.5"/>
<circle cx="750.242" cy="278.935" r="4.85" transform="rotate(-65.8795 750.242 278.935)" fill="#2D3851" fill-opacity="0.5"/>
<circle cx="779.752" cy="292.148" r="4.85" transform="rotate(-65.8795 779.752 292.148)" fill="#2D3851" fill-opacity="0.5"/>
<circle cx="809.262" cy="305.361" r="4.85" transform="rotate(-65.8795 809.262 305.361)" fill="#2D3851" fill-opacity="0.5"/>
<circle cx="838.772" cy="318.574" r="4.85" transform="rotate(-65.8795 838.772 318.574)" fill="#2D3851" fill-opacity="0.5"/>
<circle cx="868.282" cy="331.787" r="4.85" transform="rotate(-65.8795 868.282 331.787)" fill="#2D3851" fill-opacity="0.5"/>
<circle cx="897.793" cy="345.001" r="4.85" transform="rotate(-65.8795 897.793 345.001)" fill="#2D3851" fill-opacity="0.5"/>
<circle cx="666.336" cy="347.646" r="4.85" transform="rotate(-65.8795 666.336 347.646)" fill="#2D3851" fill-opacity="0.5"/>
<circle cx="698.049" cy="276.821" r="4.85" transform="rotate(-65.8795 698.049 276.821)" fill="#2D3851" fill-opacity="0.5"/>
<circle cx="727.559" cy="290.034" r="4.85" transform="rotate(-65.8795 727.559 290.034)" fill="#2D3851" fill-opacity="0.5"/>
<circle cx="757.069" cy="303.247" r="4.85" transform="rotate(-65.8795 757.069 303.247)" fill="#2D3851" fill-opacity="0.5"/>
<circle cx="786.578" cy="316.46" r="4.85" transform="rotate(-65.8795 786.578 316.46)" fill="#2D3851" fill-opacity="0.5"/>
<circle cx="816.09" cy="329.674" r="4.85" transform="rotate(-65.8795 816.09 329.674)" fill="#2D3851" fill-opacity="0.5"/>
<circle cx="845.6" cy="342.887" r="4.85" transform="rotate(-65.8795 845.6 342.887)" fill="#2D3851" fill-opacity="0.5"/>
<circle cx="875.11" cy="356.1" r="4.85" transform="rotate(-65.8795 875.11 356.1)" fill="#2D3851" fill-opacity="0.5"/>
<circle cx="682.192" cy="312.233" r="4.85" transform="rotate(-65.8795 682.192 312.233)" fill="#2D3851" fill-opacity="0.5"/>
<circle cx="711.703" cy="325.446" r="4.85" transform="rotate(-65.8795 711.703 325.446)" fill="#2D3851" fill-opacity="0.5"/>
<circle cx="741.213" cy="338.66" r="4.85" transform="rotate(-65.8795 741.213 338.66)" fill="#2D3851" fill-opacity="0.5"/>
<circle cx="770.723" cy="351.873" r="4.85" transform="rotate(-65.8795 770.723 351.873)" fill="#2D3851" fill-opacity="0.5"/>
<circle cx="713.905" cy="241.408" r="4.85" transform="rotate(-65.8795 713.905 241.408)" fill="#2D3851" fill-opacity="0.5"/>
<circle cx="743.414" cy="254.622" r="4.85" transform="rotate(-65.8795 743.414 254.622)" fill="#2D3851" fill-opacity="0.5"/>
<circle cx="772.924" cy="267.835" r="4.85" transform="rotate(-65.8795 772.924 267.835)" fill="#2D3851" fill-opacity="0.5"/>
<circle cx="802.434" cy="281.048" r="4.85" transform="rotate(-65.8795 802.434 281.048)" fill="#2D3851" fill-opacity="0.5"/>
<circle cx="831.946" cy="294.262" r="4.85" transform="rotate(-65.8795 831.946 294.262)" fill="#2D3851" fill-opacity="0.5"/>
<circle cx="861.455" cy="307.475" r="4.85" transform="rotate(-65.8795 861.455 307.475)" fill="#2D3851" fill-opacity="0.5"/>
<circle cx="890.965" cy="320.688" r="4.85" transform="rotate(-65.8795 890.965 320.688)" fill="#2D3851" fill-opacity="0.5"/>
<circle cx="920.475" cy="333.901" r="4.85" transform="rotate(-65.8795 920.475 333.901)" fill="#2D3851" fill-opacity="0.5"/>
<circle cx="949.987" cy="347.114" r="4.85" transform="rotate(-65.8795 949.987 347.114)" fill="#2D3851" fill-opacity="0.5"/>
</g>
</g>
<defs>
<clipPath id="clip0_2039_3791">
<rect width="1512" height="350" fill="white"/>
</clipPath>
<clipPath id="clip1_2039_3791">
<rect width="1512" height="350" fill="white"/>
</clipPath>
</defs>
</svg>
