<svg class="tech-ring-color" width="300" height="307" viewBox="0 0 300 307" fill="none" xmlns="http://www.w3.org/2000/svg">
<path d="M239.682 263.233C224.25 275.857 206.249 284.963 186.936 289.914C167.622 294.866 147.461 295.544 127.858 291.902C108.255 288.26 89.683 280.385 73.437 268.827C57.1909 257.268 43.6621 242.305 33.7942 224.98C23.9263 207.655 17.9571 188.385 16.3027 168.516C14.6484 148.646 17.3488 128.655 24.2157 109.937C31.0825 91.2182 41.9505 74.2232 56.0614 60.1372C70.1723 46.0512 87.1864 35.2134 105.917 28.3796L106.231 29.2396C87.6253 36.0277 70.7248 46.7932 56.7081 60.7851C42.6915 74.777 31.8961 91.6585 25.0751 110.252C18.2541 128.845 15.5717 148.703 17.215 168.44C18.8583 188.177 24.7877 207.317 34.5897 224.527C44.3916 241.736 57.8301 256.6 73.9677 268.081C90.1052 279.562 108.553 287.384 128.025 291.002C147.497 294.62 167.524 293.946 186.708 289.028C205.893 284.109 223.773 275.064 239.103 262.524L239.682 263.233Z" fill="#F35E19"/>
<path d="M86.5571 292.2C52.0204 276.098 24.9518 247.394 10.9014 211.973L15.1485 210.289C28.7688 244.625 55.0085 272.45 88.4878 288.059L86.5571 292.2Z" fill="#F35E19"/>
<path d="M22.4576 81.5369C30.0499 68.7497 39.5109 57.1691 50.5271 47.1791L53.5964 50.5637C42.9175 60.2478 33.7462 71.4738 26.3864 83.8696L22.4576 81.5369Z" fill="#F35E19"/>
<path d="M93.071 19.0777C106.849 13.4814 121.386 9.97605 136.201 8.67785L136.6 13.2295C122.239 14.4879 108.147 17.8859 94.7904 23.3109L93.071 19.0777Z" fill="#F35E19"/>
<path d="M255.135 262.47C228.19 289.415 191.958 305.031 153.867 306.117L153.752 302.061C190.806 301.004 226.053 285.813 252.265 259.6L255.135 262.47Z" fill="#F35E19"/>
<path d="M51.9496 49.4402C64.3687 37.6329 78.7703 28.105 94.4944 21.2931L95.2479 23.0324C79.728 29.7559 65.5135 39.16 53.2557 50.814L51.9496 49.4402Z" fill="#F35E19"/>
<path d="M46.1213 39.8427C58.0297 28.5955 71.7466 19.4333 86.6969 12.7401L87.1501 13.7525C72.3135 20.3948 58.7008 29.4874 46.8829 40.6491L46.1213 39.8427Z" fill="#F35E19"/>
<path d="M23.0782 201.125C15.8211 179.704 13.9771 156.821 17.7107 134.515C21.4444 112.209 30.6396 91.1739 44.4765 73.2843L46.9084 75.1653C33.3818 92.6536 24.3929 113.217 20.743 135.023C17.0931 156.828 18.8957 179.198 25.9901 200.138L23.0782 201.125Z" fill="#F35E19"/>
<path d="M64.4987 52.391C80.6425 38.7677 99.7167 29.0601 120.232 24.0262C140.747 18.9922 162.148 18.7681 182.765 23.3713L182.194 25.9252C161.972 21.4098 140.979 21.6297 120.856 26.5675C100.732 31.5054 82.0219 41.0277 66.1863 54.3909L64.4987 52.391Z" fill="#F35E19"/>
<path d="M239.682 259.372C220.028 275.45 196.294 285.752 171.127 289.13C145.96 292.507 120.349 288.827 97.1512 278.5L98.6781 275.07C121.241 285.114 146.15 288.693 170.627 285.408C195.105 282.123 218.189 272.103 237.305 256.466L239.682 259.372Z" fill="#F35E19"/>
<path d="M77.2275 57.912C95.6695 43.9038 117.638 35.2898 140.686 33.0296C163.735 30.7693 186.958 34.9516 207.77 45.1104L207.294 46.085C186.663 36.0142 163.641 31.8682 140.792 34.1088C117.944 36.3495 96.1655 44.8888 77.8835 58.7756L77.2275 57.912Z" fill="#F35E19"/>
<path d="M50.148 86.1698C64.4724 65.5447 84.6725 49.7079 108.12 40.7199L109.628 44.6527C86.9695 53.3381 67.4494 68.6416 53.6073 88.5724L50.148 86.1698Z" fill="#F35E19"/>
<path d="M184.953 278.448C163.295 284.19 140.493 284.01 118.929 277.926C97.3644 271.842 77.8299 260.078 62.3666 243.864C46.9032 227.649 36.0785 207.579 31.0238 185.75C25.969 163.922 26.8697 141.137 33.6317 119.775L36.7581 120.765C30.1733 141.566 29.2962 163.755 34.2185 185.011C39.1408 206.267 49.6816 225.811 64.7397 241.6C79.7977 257.39 98.8201 268.845 119.819 274.77C140.818 280.694 163.023 280.87 184.113 275.278L184.953 278.448Z" fill="#F35E19"/>
<path d="M240.51 225.229C230.001 239.845 216.095 251.685 199.99 259.729C183.886 267.773 166.067 271.78 148.069 271.404C130.072 271.029 112.436 266.281 96.6812 257.572C80.9267 248.862 67.5269 236.452 57.6367 221.411C47.7466 206.37 41.6629 189.149 39.9102 171.233C38.1575 153.316 40.7884 135.243 47.576 118.57C54.3635 101.897 65.1042 87.1253 78.872 75.5277C92.6398 63.9301 109.022 55.8549 126.605 51.9983L127.411 55.6707C110.423 59.3967 94.5957 67.1984 81.2943 78.4032C67.9928 89.6079 57.6159 103.88 51.0582 119.988C44.5005 136.096 41.9587 153.557 43.6521 170.866C45.3454 188.176 51.223 204.813 60.7782 219.345C70.3334 233.877 83.2794 245.867 98.5002 254.282C113.721 262.696 130.76 267.282 148.148 267.646C165.536 268.009 182.751 264.137 198.31 256.366C213.869 248.594 227.304 237.155 237.458 223.034L240.51 225.229Z" fill="#F35E19"/>
<path d="M181.268 255.083C159.638 261.917 136.353 261.383 115.059 253.566L116.431 249.828C136.898 257.341 159.279 257.854 180.068 251.286L181.268 255.083Z" fill="#F35E19"/>
<path d="M100.737 247.02C80.892 236.033 65.2511 218.775 56.2646 197.947L59.9209 196.37C68.5583 216.388 83.5916 232.976 102.666 243.536L100.737 247.02Z" fill="#F35E19"/>
<path d="M163.429 257.854C140.93 260.74 118.109 256.082 98.5405 244.61L99.1933 243.496C118.515 254.824 141.049 259.424 163.265 256.574L163.429 257.854Z" fill="#F35E19"/>
<path d="M210.087 230.746C197.874 240.737 183.355 247.514 167.853 250.46C152.351 253.406 136.358 252.428 121.331 247.613C106.303 242.799 92.7194 234.301 81.8155 222.895C70.9116 211.489 63.0342 197.536 58.9007 182.308C54.7673 167.079 54.5091 151.059 58.1496 135.705C61.7902 120.351 69.2138 106.152 79.7445 94.4001C90.2752 82.6485 103.578 73.718 118.443 68.4217C133.307 63.1255 149.26 61.6318 164.849 64.0767L164.564 65.8917C149.278 63.4943 133.635 64.959 119.059 70.1524C104.484 75.3458 91.4389 84.1029 81.1127 95.6262C70.7866 107.15 63.5071 121.073 59.9373 136.129C56.3675 151.184 56.6207 166.894 60.6738 181.827C64.727 196.759 72.4514 210.441 83.1435 221.626C93.8357 232.81 107.156 241.142 121.891 245.863C136.626 250.584 152.309 251.544 167.51 248.655C182.711 245.767 196.948 239.121 208.924 229.324L210.087 230.746Z" fill="#F35E19"/>
<path d="M197.754 223.606C189.76 230.146 180.527 235.002 170.609 237.884C160.69 240.765 150.292 241.612 140.039 240.374C129.785 239.136 119.887 235.838 110.94 230.678C101.993 225.519 94.1812 218.604 87.9736 210.349L89.1633 209.455C95.2503 217.549 102.911 224.329 111.684 229.389C120.457 234.448 130.163 237.682 140.217 238.896C150.272 240.11 160.468 239.28 170.193 236.454C179.919 233.629 188.973 228.867 196.812 222.454L197.754 223.606Z" fill="#F35E19"/>
<path d="M193.641 219.152C178.541 230.559 159.617 235.689 140.823 233.471C122.029 231.253 104.819 221.857 92.7899 207.248L93.2725 206.851C105.199 221.336 122.262 230.651 140.896 232.85C159.53 235.05 178.293 229.963 193.264 218.653L193.641 219.152Z" fill="#F35E19"/>
<path d="M193.641 219.152C183.646 226.702 171.884 231.568 159.476 233.284L159.262 231.731C171.404 230.051 182.914 225.289 192.695 217.9L193.641 219.152Z" fill="#F35E19"/>
<path d="M123.078 229.084C111.387 224.585 101.043 217.169 93.0314 207.54L94.2369 206.537C102.078 215.96 112.201 223.218 123.641 227.62L123.078 229.084Z" fill="#F35E19"/>
<path d="M64.8803 156.325C65.238 139.775 71.928 123.993 83.5728 112.228C95.2176 100.463 110.93 93.6107 127.475 93.083L127.539 95.0723C111.503 95.5837 96.2737 102.225 84.9873 113.628C73.7009 125.031 67.2167 140.327 66.8701 156.368L64.8803 156.325Z" fill="#F35E19"/>
<path d="M70.6565 156.361C70.6324 148.629 72.1315 140.968 75.0682 133.815C78.005 126.662 82.3218 120.158 87.7722 114.673L89.2637 116.155C84.0079 121.444 79.8452 127.716 77.0133 134.613C74.1815 141.511 72.7359 148.899 72.7592 156.355L70.6565 156.361Z" fill="#F35E19"/>
<path d="M86.8889 117.18C92.1116 111.478 98.4063 106.86 105.413 103.591C112.421 100.322 120.003 98.4648 127.728 98.126L127.753 98.6963C120.103 99.0318 112.594 100.871 105.655 104.108C98.7156 107.346 92.482 111.918 87.3099 117.565L86.8889 117.18Z" fill="#F35E19"/>
<line x1="65.6367" y1="154.371" x2="71.8143" y2="154.371" stroke="#F35E19" stroke-width="4"/>
<line x1="193.404" y1="217.223" x2="198.423" y2="223.014" stroke="#F35E19" stroke-width="4"/>
</svg>
