<svg width="1800" height="1933" viewBox="0 0 1800 1933" fill="none" xmlns="http://www.w3.org/2000/svg">
<g clip-path="url(#clip0_2364_6302)">
<path d="M1408.42 223.326C1243.29 125.935 1050.13 87.1211 860.202 113.167C670.272 139.213 494.69 228.594 361.877 366.843" stroke="#B3B3B3" stroke-width="40"/>
<path d="M176.043 664.894C114.614 833.236 107.867 1016.67 156.761 1189.07C205.655 1361.47 307.698 1514.05 448.359 1625.08C589.019 1736.1 761.125 1799.92 940.167 1807.44C1119.21 1814.96 1296.06 1765.79 1445.53 1666.95" stroke="#B3B3B3" stroke-width="40"/>
<path d="M1296.63 251.545C1165.66 191.984 1020.68 170.077 877.952 188.28C735.225 206.483 600.389 264.077 488.555 354.606C376.721 445.135 292.31 565.022 244.782 700.829" stroke="#B3B3B3" stroke-width="29.9998"/>
<path d="M204.385 1025.81C215.227 1146.84 254.391 1263.62 318.712 1366.72C383.032 1469.82 470.706 1556.34 574.647 1619.3C678.588 1682.25 795.881 1719.86 917.048 1729.1C1038.21 1738.34 1159.85 1718.95 1272.14 1672.49" stroke="#B3B3B3" stroke-width="29.9998"/>
<path d="M1134.95 319.172C1001.47 285.878 860.907 295.32 733.076 346.168C605.246 397.015 496.6 486.703 422.456 602.585" stroke="#B3B3B3" stroke-width="79.9975"/>
<path d="M1461.95 1332.73C1362.44 1461.59 1215.83 1545.64 1054.36 1566.4C892.887 1587.15 729.785 1542.9 600.932 1443.39C472.079 1343.88 388.032 1197.25 367.278 1035.77C346.524 874.289 390.765 711.176 490.267 582.317C589.77 453.457 736.383 369.406 897.855 348.654" stroke="#B3B3B3" stroke-width="70.0004"/>
<path d="M184.236 1027.83C199.241 1195.07 266.826 1353.27 377.298 1479.73C487.77 1606.19 635.454 1694.42 799.168 1731.76C962.881 1769.1 1134.21 1753.63 1288.6 1687.58C1442.98 1621.52 1572.47 1508.27 1658.51 1364.07" stroke="#B3B3B3" stroke-width="15.0004"/>
<path d="M1495.16 1531.54C1552.41 1479.84 1601.62 1419.86 1641.15 1353.62" stroke="#B3B3B3" stroke-width="29.9998"/>
<path d="M1304.56 232.926C1170.01 171.825 1021.08 149.443 874.512 168.295C727.942 187.147 589.529 246.485 474.815 339.647C360.102 432.809 273.631 556.106 225.113 695.692" stroke="#B3B3B3" stroke-width="15.0004"/>
<path d="M801.832 1590.26C911.754 1620.47 1027.64 1621.55 1138.11 1593.41C1248.58 1565.27 1349.83 1508.88 1431.9 1429.77" stroke="#B3B3B3" stroke-width="79.9975"/>
<path d="M345.907 1143.26C385.333 1276.44 465.944 1393.7 576.166 1478.2" stroke="#B3B3B3" stroke-width="79.9975"/>
<path d="M861.351 424.549C759.27 446.523 665.663 497.393 591.692 571.093" stroke="#B3B3B3" stroke-width="50.0001"/>
<path d="M451.848 1103.93C484.495 1220.11 554.825 1322.15 651.784 1394.01" stroke="#B3B3B3" stroke-width="50.0001"/>
<path d="M434.416 1109.05C465.346 1219.02 529.027 1316.97 616.986 1389.87C704.946 1462.76 813.016 1507.15 926.819 1517.12C1040.62 1527.1 1154.77 1502.18 1254.06 1445.7" stroke="#B3B3B3" stroke-width="20.0001"/>
<path d="M642.317 565.655C583.478 615.854 536.725 678.684 505.542 749.463C474.359 820.241 459.55 897.144 462.217 974.442C464.885 1051.74 484.96 1127.44 520.949 1195.9C556.937 1264.36 607.91 1323.82 670.07 1369.84" stroke="#B3B3B3" stroke-width="40.0002"/>
<path d="M1047.39 447.637C965.042 436.085 881.119 444.683 802.823 472.694" stroke="#B3B3B3" stroke-width="40.0002"/>
<path d="M608.593 1117.18C649.883 1211.82 726.099 1286.88 821.362 1326.72C916.625 1366.57 1023.59 1368.12 1119.96 1331.05" stroke="#B3B3B3" stroke-width="30.0004"/>
<path d="M1009.52 557.225C929.135 550.478 848.588 568.135 778.401 607.889C708.214 647.643 651.651 707.646 616.104 780.055C580.558 852.464 567.68 933.912 579.155 1013.76" stroke="#B3B3B3" stroke-width="30.0004"/>
<path d="M976.112 584.059C913.982 584.038 852.832 599.552 798.227 629.192C743.621 658.831 697.294 701.654 663.46 753.764C629.626 805.874 609.359 865.617 604.503 927.558C599.648 989.498 610.357 1051.67 635.658 1108.42C660.959 1165.16 700.047 1214.68 749.366 1252.47" stroke="#B3B3B3" stroke-width="30.0002"/>
<path d="M318.324 1265.11C305.12 1248.66 222.208 1071.28 273.135 787.977C306.901 600.14 436.803 437.481 584.091 340.186C731.379 242.89 930.212 209.392 1103.16 244.742M841.483 1640.73C1014.43 1676.08 1194.34 1641.28 1341.62 1543.99" stroke="#B3B3B3" stroke-width="10.0003"/>
<path d="M801.963 1587.28C890.472 1611.7 983.13 1617.21 1073.91 1603.45C1164.69 1589.7 1251.55 1556.99 1328.86 1507.45" stroke="#B3B3B3" stroke-width="14.9999"/>
<path d="M365.458 697.265C308.833 815.319 288.939 947.65 308.349 1077.14" stroke="#B3B3B3" stroke-width="14.9999"/>
</g>
<defs>
<clipPath id="clip0_2364_6302">
<rect width="1590.4" height="1742.9" fill="white" transform="matrix(-0.991842 0.127471 0.127471 0.991842 1577.83 0.744141)"/>
</clipPath>
</defs>
</svg>
