<svg width="1024" height="350" viewBox="0 0 1024 350" fill="none" xmlns="http://www.w3.org/2000/svg">
<rect width="1024" height="350" fill="white"/>
<path fill-rule="evenodd" clip-rule="evenodd" d="M964.274 64.3176C964.554 64.1566 964.863 64.0536 965.183 64.0147C965.573 63.9713 965.968 64.0243 966.333 64.169C966.698 64.3138 967.021 64.5458 967.276 64.8448C967.53 65.1438 967.707 65.5006 967.791 65.884C967.875 66.2673 967.864 66.6655 967.759 67.0435L953.22 125.197C953.109 125.603 952.894 125.972 952.596 126.268C952.297 126.564 951.926 126.776 951.52 126.884C951.113 126.991 950.686 126.99 950.28 126.881C949.874 126.771 949.505 126.556 949.208 126.259L935.425 112.476C935.425 112.476 935.124 112.898 934.642 113.575C932.886 116.043 928.716 121.9 927.853 123.077C926.227 125.292 924.594 124.875 924.294 122.471C924.131 121.164 923.584 116.931 923.059 112.873C922.616 109.443 922.189 106.138 922.023 104.829L906.576 100.211C906.126 100.072 905.726 99.8047 905.427 99.4409C905.128 99.0771 904.943 98.6333 904.894 98.1649C904.846 97.6964 904.936 97.2241 905.154 96.8067C905.372 96.3892 905.708 96.0453 906.121 95.8176L964.274 64.3176ZM949.511 119.898L961.704 71.1337L961.699 71.1313L913.467 97.332L924.749 100.664L955.719 78.5532L935.806 106.191L936.09 106.475C936.487 106.212 936.883 105.948 937.279 105.683L938.391 107.346C938.105 107.537 937.819 107.728 937.533 107.918L949.511 119.898ZM257.227 207.882C261.89 206.863 266.495 205.978 271.02 205.248L270.702 203.274C266.136 204.01 261.495 204.902 256.8 205.928L257.227 207.882ZM230.067 215.062C234.588 213.681 239.098 212.388 243.576 211.198L243.063 209.265C238.558 210.461 234.025 211.762 229.483 213.149L230.067 215.062ZM284.909 203.488C287.265 203.277 289.59 203.118 291.88 203.014C294.37 202.9 296.865 202.792 299.365 202.688L299.282 200.689C296.78 200.794 294.282 200.902 291.789 201.016C289.468 201.122 287.114 201.283 284.731 201.495L284.909 203.488ZM203.429 224.086C207.828 222.46 212.252 220.887 216.684 219.382L216.041 217.489C211.591 219 207.15 220.579 202.735 222.21L203.429 224.086ZM177.262 234.445C181.549 232.642 185.9 230.861 190.296 229.119L189.559 227.26C185.149 229.007 180.786 230.793 176.487 232.602L177.262 234.445ZM314.402 202.117C319.392 201.945 324.398 201.788 329.421 201.646L329.364 199.647C324.338 199.789 319.327 199.946 314.333 200.118L314.402 202.117ZM151.521 245.838C155.693 243.904 159.981 241.957 164.361 240.017L163.551 238.188C159.16 240.133 154.862 242.085 150.679 244.024L151.521 245.838ZM344.444 201.261C349.443 201.145 354.456 201.041 359.482 200.947L359.445 198.948C354.416 199.042 349.4 199.146 344.397 199.261L344.444 201.261ZM126.184 258.081C130.193 256.067 134.408 253.986 138.798 251.864L137.927 250.063C133.528 252.19 129.304 254.276 125.286 256.294L126.184 258.081ZM374.525 200.693C379.523 200.616 384.531 200.548 389.55 200.485L389.525 198.485C384.505 198.548 379.494 198.617 374.494 198.693L374.525 200.693ZM101.191 271.112C104.885 269.113 109.061 266.888 113.649 264.496L112.725 262.722C108.127 265.119 103.941 267.349 100.239 269.353L101.191 271.112ZM404.588 200.311C409.596 200.258 414.612 200.208 419.634 200.161L419.615 198.161C414.592 198.208 409.575 198.258 404.567 198.311L404.588 200.311ZM77.1303 281.681C77.7747 284.556 80.6271 286.363 83.5013 285.719C86.3754 285.074 88.183 282.222 87.5386 279.348C87.4939 279.148 87.4386 278.954 87.3733 278.765C87.8457 278.497 88.3529 278.209 88.894 277.904L87.9104 276.162C87.364 276.471 86.852 276.761 86.3752 277.032C85.1314 275.591 83.1548 274.865 81.1677 275.31C78.2936 275.955 76.486 278.807 77.1303 281.681ZM434.667 200.021L434.788 200.02C439.756 199.975 444.729 199.929 449.706 199.882L449.688 197.882C444.73 197.929 439.777 197.975 434.828 198.02L434.822 198.02L434.649 198.021L434.667 200.021ZM464.75 199.732C469.761 199.679 474.775 199.622 479.79 199.56L479.765 197.56C474.751 197.622 469.739 197.679 464.729 197.732L464.75 199.732ZM494.831 199.355C499.845 199.28 504.86 199.198 509.873 199.106L509.837 197.106C504.826 197.198 499.814 197.28 494.801 197.355L494.831 199.355ZM524.913 198.802C529.93 198.69 534.944 198.568 539.956 198.432L539.902 196.433C534.894 196.568 529.882 196.691 524.868 196.803L524.913 198.802ZM554.995 197.984C560.01 197.82 565.021 197.642 570.025 197.447L569.947 195.449C564.947 195.644 559.941 195.822 554.93 195.985L554.995 197.984ZM906.077 126.732C910.51 124.351 914.894 121.892 919.227 119.351L918.215 117.626C913.904 120.154 909.542 122.601 905.131 124.97L906.077 126.732ZM585.065 196.809C590.084 196.577 595.095 196.327 600.097 196.057L599.989 194.06C594.993 194.33 589.987 194.58 584.973 194.811L585.065 196.809ZM615.113 195.179C620.13 194.863 625.136 194.525 630.13 194.162L629.985 192.167C624.998 192.53 619.998 192.868 614.988 193.183L615.113 195.179ZM879.039 140.03C883.629 137.967 888.175 135.83 892.675 133.619L891.792 131.824C887.314 134.025 882.789 136.152 878.219 138.206L879.039 140.03ZM645.142 192.991C650.152 192.573 655.148 192.128 660.13 191.655L659.941 189.664C654.967 190.137 649.978 190.581 644.976 190.998L645.142 192.991ZM851.157 151.491C855.876 149.722 860.555 147.886 865.192 145.981L864.433 144.131C859.815 146.028 855.155 147.856 850.455 149.618L851.157 151.491ZM675.094 190.137C680.101 189.597 685.091 189.025 690.063 188.42L689.822 186.435C684.859 187.039 679.878 187.61 674.88 188.149L675.094 190.137ZM822.66 161.244C827.467 159.747 832.239 158.19 836.973 156.572L836.326 154.679C831.61 156.292 826.856 157.843 822.066 159.335L822.66 161.244ZM704.996 186.491C709.98 185.809 714.943 185.091 719.885 184.334L719.583 182.357C714.651 183.112 709.698 183.829 704.725 184.509L704.996 186.491ZM734.749 181.928C739.716 181.08 744.66 180.19 749.579 179.255L749.206 177.29C744.299 178.222 739.368 179.11 734.412 179.957L734.749 181.928ZM793.669 169.462C798.551 168.207 803.403 166.898 808.221 165.534L807.676 163.61C802.874 164.97 798.038 166.274 793.171 167.525L793.669 169.462ZM764.344 176.3C769.269 175.263 774.166 174.179 779.035 173.045L778.581 171.097C773.727 172.228 768.843 173.309 763.932 174.343L764.344 176.3Z" fill="#0D1528"/>
</svg>
