<svg width="56" height="70" viewBox="0 0 56 70" fill="none" xmlns="http://www.w3.org/2000/svg">
<rect width="56" height="70" rx="4" fill="#407BFF"/>
<rect width="56" height="17" transform="translate(0 53)" fill="#263238"/>
<path d="M4.18896 59H3.40039V55.499H4.18896V59ZM6.10303 59.061C5.68636 59.061 5.3584 58.9447 5.11914 58.7119C4.88151 58.4775 4.7627 58.1602 4.7627 57.7598C4.7627 57.3464 4.88639 57.0233 5.13379 56.7905C5.38118 56.5562 5.71566 56.439 6.13721 56.439C6.55225 56.439 6.87777 56.5562 7.11377 56.7905C7.34977 57.0233 7.46777 57.3317 7.46777 57.7158C7.46777 58.1309 7.3457 58.4588 7.10156 58.6997C6.85905 58.9406 6.5262 59.061 6.10303 59.061ZM6.12256 57.0298C5.94027 57.0298 5.79867 57.0924 5.69775 57.2178C5.59684 57.3431 5.54639 57.5205 5.54639 57.75C5.54639 58.2301 5.74007 58.4702 6.12744 58.4702C6.49691 58.4702 6.68164 58.2236 6.68164 57.7305C6.68164 57.2633 6.49528 57.0298 6.12256 57.0298ZM10.5024 56.1411H9.50391V59H8.71289V56.1411H7.71924V55.499H10.5024V56.1411ZM14.8652 58.8755C14.6097 58.9992 14.276 59.061 13.8643 59.061C13.3271 59.061 12.9048 58.9032 12.5972 58.5874C12.2896 58.2716 12.1357 57.8509 12.1357 57.3252C12.1357 56.7653 12.3083 56.3112 12.6533 55.9629C13 55.6146 13.4492 55.4404 14.001 55.4404C14.3428 55.4404 14.6309 55.4836 14.8652 55.5698V56.3291C14.6309 56.1891 14.3639 56.1191 14.0645 56.1191C13.7357 56.1191 13.4704 56.2225 13.2686 56.4292C13.0667 56.6359 12.9658 56.9159 12.9658 57.269C12.9658 57.6076 13.061 57.8778 13.2515 58.0796C13.4419 58.2798 13.6982 58.3799 14.0205 58.3799C14.3281 58.3799 14.6097 58.305 14.8652 58.1553V58.8755ZM16.1714 59H15.3999V55.2988H16.1714V59ZM18.0122 59.061C17.5955 59.061 17.2676 58.9447 17.0283 58.7119C16.7907 58.4775 16.6719 58.1602 16.6719 57.7598C16.6719 57.3464 16.7956 57.0233 17.043 56.7905C17.2904 56.5562 17.6248 56.439 18.0464 56.439C18.4614 56.439 18.7869 56.5562 19.0229 56.7905C19.259 57.0233 19.377 57.3317 19.377 57.7158C19.377 58.1309 19.2549 58.4588 19.0107 58.6997C18.7682 58.9406 18.4354 59.061 18.0122 59.061ZM18.0317 57.0298C17.8494 57.0298 17.7078 57.0924 17.6069 57.2178C17.506 57.3431 17.4556 57.5205 17.4556 57.75C17.4556 58.2301 17.6493 58.4702 18.0366 58.4702C18.4061 58.4702 18.5908 58.2236 18.5908 57.7305C18.5908 57.2633 18.4045 57.0298 18.0317 57.0298ZM22.2529 59H21.4839V58.6191H21.4717C21.2812 58.9137 21.0265 59.061 20.7075 59.061C20.1281 59.061 19.8384 58.7103 19.8384 58.0088V56.5H20.6074V57.9404C20.6074 58.2936 20.7474 58.4702 21.0273 58.4702C21.1657 58.4702 21.2764 58.4222 21.3594 58.3262C21.4424 58.2285 21.4839 58.0967 21.4839 57.9307V56.5H22.2529V59ZM25.3511 59H24.5796V58.6558H24.5698C24.394 58.9259 24.1361 59.061 23.7959 59.061C23.4834 59.061 23.2319 58.9512 23.0415 58.7314C22.8511 58.5101 22.7559 58.2017 22.7559 57.8062C22.7559 57.3927 22.8608 57.0615 23.0708 56.8125C23.2808 56.5635 23.5558 56.439 23.896 56.439C24.2183 56.439 24.4429 56.5545 24.5698 56.7856H24.5796V55.2988H25.3511V59ZM24.5942 57.7842V57.5962C24.5942 57.4334 24.547 57.2983 24.4526 57.1909C24.3582 57.0835 24.2354 57.0298 24.084 57.0298C23.9131 57.0298 23.7796 57.0973 23.6836 57.2324C23.5876 57.3659 23.5396 57.5498 23.5396 57.7842C23.5396 58.0039 23.5859 58.1732 23.6787 58.292C23.7715 58.4108 23.9001 58.4702 24.0645 58.4702C24.2207 58.4702 24.3477 58.4076 24.4453 58.2822C24.5446 58.1569 24.5942 57.9909 24.5942 57.7842ZM3.23926 65.8657V65.0845C3.38086 65.2033 3.53467 65.2928 3.70068 65.353C3.8667 65.4116 4.03434 65.4409 4.20361 65.4409C4.3029 65.4409 4.38916 65.432 4.4624 65.4141C4.53727 65.3962 4.59912 65.3717 4.64795 65.3408C4.6984 65.3083 4.73584 65.2708 4.76025 65.2285C4.78467 65.1846 4.79688 65.1374 4.79688 65.0869C4.79688 65.0186 4.77734 64.9575 4.73828 64.9038C4.69922 64.8501 4.64551 64.8005 4.57715 64.7549C4.51042 64.7093 4.43066 64.6654 4.33789 64.623C4.24512 64.5807 4.14502 64.5376 4.0376 64.4937C3.76416 64.3797 3.5599 64.2406 3.4248 64.0762C3.29134 63.9118 3.22461 63.7132 3.22461 63.4805C3.22461 63.2982 3.26123 63.1419 3.33447 63.0117C3.40771 62.8799 3.507 62.7716 3.63232 62.687C3.75928 62.6024 3.90576 62.5405 4.07178 62.5015C4.23779 62.4608 4.41357 62.4404 4.59912 62.4404C4.78141 62.4404 4.94255 62.4518 5.08252 62.4746C5.22412 62.4958 5.35433 62.5291 5.47314 62.5747V63.3047C5.41455 63.264 5.35026 63.2282 5.28027 63.1973C5.21191 63.1663 5.14111 63.1411 5.06787 63.1216C4.99463 63.1004 4.92139 63.085 4.84814 63.0752C4.77653 63.0654 4.70817 63.0605 4.64307 63.0605C4.55355 63.0605 4.47217 63.0695 4.39893 63.0874C4.32568 63.1037 4.26383 63.1273 4.21338 63.1582C4.16292 63.1891 4.12386 63.2266 4.09619 63.2705C4.06852 63.3128 4.05469 63.3608 4.05469 63.4146C4.05469 63.4731 4.07015 63.526 4.10107 63.5732C4.132 63.6188 4.17594 63.6628 4.23291 63.7051C4.28988 63.7458 4.35905 63.7865 4.44043 63.8271C4.52181 63.8662 4.61377 63.9069 4.71631 63.9492C4.85628 64.0078 4.98161 64.0705 5.09229 64.1372C5.20459 64.2023 5.30062 64.2764 5.38037 64.3594C5.46012 64.4424 5.52116 64.5376 5.56348 64.645C5.60579 64.7508 5.62695 64.8745 5.62695 65.0161C5.62695 65.2114 5.58952 65.3758 5.51465 65.5093C5.44141 65.6411 5.34131 65.7485 5.21436 65.8315C5.0874 65.9129 4.93929 65.9715 4.77002 66.0073C4.60238 66.0431 4.42497 66.061 4.23779 66.061C4.04574 66.061 3.86263 66.0448 3.68848 66.0122C3.51595 65.9797 3.36621 65.9308 3.23926 65.8657ZM8.37354 64.9697H6.74268C6.76872 65.3327 6.9974 65.5142 7.42871 65.5142C7.70378 65.5142 7.94548 65.4491 8.15381 65.3188V65.8755C7.92269 65.9992 7.6224 66.061 7.25293 66.061C6.84928 66.061 6.53597 65.9495 6.31299 65.7266C6.09001 65.502 5.97852 65.1895 5.97852 64.7891C5.97852 64.374 6.09896 64.0452 6.33984 63.8027C6.58073 63.5602 6.87695 63.439 7.22852 63.439C7.5931 63.439 7.87467 63.5472 8.07324 63.7637C8.27344 63.9801 8.37354 64.2739 8.37354 64.645V64.9697ZM7.6582 64.4961C7.6582 64.138 7.51335 63.959 7.22363 63.959C7.09993 63.959 6.99251 64.0103 6.90137 64.1128C6.81185 64.2153 6.75732 64.3431 6.73779 64.4961H7.6582ZM10.7271 65.9097C10.5529 66.0106 10.3014 66.061 9.97266 66.061C9.58854 66.061 9.27767 65.9447 9.04004 65.7119C8.80241 65.4792 8.68359 65.1789 8.68359 64.811C8.68359 64.3862 8.81055 64.0518 9.06445 63.8076C9.31999 63.5618 9.66097 63.439 10.0874 63.439C10.382 63.439 10.5952 63.478 10.7271 63.5562V64.2104C10.5659 64.09 10.3861 64.0298 10.1875 64.0298C9.96615 64.0298 9.79036 64.0949 9.66016 64.2251C9.53158 64.3537 9.46729 64.5319 9.46729 64.7598C9.46729 64.9811 9.52913 65.1553 9.65283 65.2822C9.77653 65.4076 9.94661 65.4702 10.1631 65.4702C10.3551 65.4702 10.5431 65.41 10.7271 65.2896V65.9097ZM13.6104 66H12.8413V65.6191H12.8291C12.6387 65.9137 12.384 66.061 12.0649 66.061C11.4855 66.061 11.1958 65.7103 11.1958 65.0088V63.5H11.9648V64.9404C11.9648 65.2936 12.1048 65.4702 12.3848 65.4702C12.5231 65.4702 12.6338 65.4222 12.7168 65.3262C12.7998 65.2285 12.8413 65.0967 12.8413 64.9307V63.5H13.6104V66ZM15.8931 64.1958C15.8003 64.1453 15.6921 64.1201 15.5684 64.1201C15.4007 64.1201 15.2697 64.182 15.1753 64.3057C15.0809 64.4277 15.0337 64.5946 15.0337 64.8062V66H14.2622V63.5H15.0337V63.9639H15.0435C15.1655 63.6253 15.3853 63.4561 15.7026 63.4561C15.784 63.4561 15.8475 63.4658 15.8931 63.4854V64.1958ZM16.6646 63.1045C16.5343 63.1045 16.4277 63.0662 16.3447 62.9897C16.2617 62.9116 16.2202 62.8164 16.2202 62.7041C16.2202 62.5885 16.2617 62.4941 16.3447 62.4209C16.4277 62.3477 16.5343 62.311 16.6646 62.311C16.7964 62.311 16.903 62.3477 16.9844 62.4209C17.0674 62.4941 17.1089 62.5885 17.1089 62.7041C17.1089 62.8213 17.0674 62.9173 16.9844 62.9922C16.903 63.0671 16.7964 63.1045 16.6646 63.1045ZM17.0454 66H16.2739V63.5H17.0454V66ZM19.2061 65.9707C19.0921 66.0309 18.9204 66.061 18.6909 66.061C18.1473 66.061 17.8755 65.7786 17.8755 65.2139V64.0688H17.4702V63.5H17.8755V62.9604L18.6445 62.7407V63.5H19.2061V64.0688H18.6445V65.0796C18.6445 65.34 18.7479 65.4702 18.9546 65.4702C19.036 65.4702 19.1198 65.4466 19.2061 65.3994V65.9707ZM22.0234 63.5L21.0078 66.2002C20.7637 66.8496 20.3958 67.1743 19.9043 67.1743C19.7171 67.1743 19.5633 67.1532 19.4429 67.1108V66.4956C19.5454 66.5558 19.6569 66.5859 19.7773 66.5859C19.9759 66.5859 20.1143 66.4924 20.1924 66.3052L20.3242 65.9951L19.3086 63.5H20.1631L20.6294 65.021C20.6587 65.1154 20.6815 65.2269 20.6978 65.3555H20.7075C20.7222 65.2611 20.749 65.1512 20.7881 65.0259L21.2593 63.5H22.0234Z" fill="white"/>
<g clip-path="url(#clip0_2126_3654)">
<path d="M39.2978 23.4934V22.6045C39.3144 19.9544 38.2812 17.4055 36.424 15.515C34.5667 13.6245 32.0366 12.5461 29.3866 12.5156H29.2889C26.9974 12.5222 24.7773 13.3135 22.9982 14.7578C21.2192 16.2021 19.9885 18.2122 19.5111 20.4534C17.7501 20.4534 16.0611 21.153 14.8159 22.3982C13.5707 23.6435 12.8711 25.3324 12.8711 27.0934C12.8711 28.8544 13.5707 30.5433 14.8159 31.7886C16.0611 33.0338 17.7501 33.7334 19.5111 33.7334H37.8933C39.1618 33.7471 40.3917 33.2975 41.3522 32.4688C42.3128 31.6401 42.9379 30.4894 43.1102 29.2326C43.2826 27.9758 42.9904 26.6993 42.2885 25.6426C41.5865 24.5859 40.5231 23.8217 39.2978 23.4934ZM37.8933 31.9556H19.52C18.8815 31.9556 18.2492 31.8299 17.6593 31.5855C17.0694 31.3412 16.5334 30.983 16.0819 30.5315C15.6304 30.08 15.2722 29.544 15.0279 28.9541C14.7835 28.3642 14.6578 27.7319 14.6578 27.0934C14.6578 26.4549 14.7835 25.8226 15.0279 25.2327C15.2722 24.6428 15.6304 24.1068 16.0819 23.6553C16.5334 23.2038 17.0694 22.8456 17.6593 22.6013C18.2492 22.3569 18.8815 22.2312 19.52 22.2312H21.0222L21.12 21.4578C21.4101 19.3912 22.4735 17.5116 24.0955 16.1986C25.7176 14.8856 27.7774 14.2369 29.8591 14.3836C31.9409 14.5303 33.8894 15.4614 35.3113 16.9889C36.7332 18.5164 37.5226 20.5265 37.52 22.6134V23.9912L37.4578 25.0134L38.2933 25.1112C39.2021 25.1619 40.0536 25.5715 40.6604 26.25C41.2671 26.9284 41.5796 27.8201 41.5289 28.729C41.4782 29.6378 41.0686 30.4892 40.3901 31.096C39.7116 31.7028 38.8199 32.0152 37.9111 31.9645L37.8933 31.9556Z" fill="#FFC727"/>
<path d="M38.2934 37.7154H28.7556V35.582H26.9778V37.7154H17.4045C17.1688 37.7154 16.9427 37.809 16.776 37.9757C16.6093 38.1424 16.5156 38.3685 16.5156 38.6043C16.5156 38.84 16.6093 39.0661 16.776 39.2328C16.9427 39.3995 17.1688 39.4931 17.4045 39.4931H38.2934C38.5291 39.4931 38.7552 39.3995 38.9219 39.2328C39.0886 39.0661 39.1823 38.84 39.1823 38.6043C39.1823 38.3685 39.0886 38.1424 38.9219 37.9757C38.7552 37.809 38.5291 37.7154 38.2934 37.7154Z" fill="#C9DAFF"/>
</g>
<defs>
<clipPath id="clip0_2126_3654">
<rect width="32" height="32" fill="white" transform="translate(12 10)"/>
</clipPath>
</defs>
</svg>
