<svg width="56" height="70" viewBox="0 0 56 70" fill="none" xmlns="http://www.w3.org/2000/svg">
<rect width="56" height="70" rx="4" fill="#407BFF"/>
<rect width="56" height="17" transform="translate(0 53)" fill="#263238"/>
<path d="M7.98047 55.499L7.05518 59H6.18115L5.6001 56.7539C5.56917 56.6367 5.55046 56.5057 5.54395 56.3608H5.53418C5.51953 56.5203 5.49837 56.6514 5.4707 56.7539L4.875 59H3.96436L3.04395 55.499H3.90576L4.39893 57.8306C4.42008 57.9299 4.43555 58.0633 4.44531 58.231H4.45996C4.46647 58.1056 4.49007 57.9689 4.53076 57.8208L5.16553 55.499H6.01025L6.58398 57.8501C6.60514 57.9364 6.62386 58.0617 6.64014 58.2261H6.6499C6.65641 58.0975 6.6735 57.9673 6.70117 57.8354L7.18457 55.499H7.98047ZM8.73975 56.1045C8.60954 56.1045 8.50293 56.0662 8.41992 55.9897C8.33691 55.9116 8.29541 55.8164 8.29541 55.7041C8.29541 55.5885 8.33691 55.4941 8.41992 55.4209C8.50293 55.3477 8.60954 55.311 8.73975 55.311C8.87158 55.311 8.97819 55.3477 9.05957 55.4209C9.14258 55.4941 9.18408 55.5885 9.18408 55.7041C9.18408 55.8213 9.14258 55.9173 9.05957 55.9922C8.97819 56.0671 8.87158 56.1045 8.73975 56.1045ZM9.12061 59H8.34912V56.5H9.12061V59ZM11.4009 57.1958C11.3081 57.1453 11.1999 57.1201 11.0762 57.1201C10.9085 57.1201 10.7775 57.182 10.6831 57.3057C10.5887 57.4277 10.5415 57.5946 10.5415 57.8062V59H9.77002V56.5H10.5415V56.9639H10.5513C10.6733 56.6253 10.8931 56.4561 11.2104 56.4561C11.2918 56.4561 11.3553 56.4658 11.4009 56.4854V57.1958ZM13.9888 57.9697H12.3579C12.384 58.3327 12.6126 58.5142 13.0439 58.5142C13.319 58.5142 13.5607 58.4491 13.769 58.3188V58.8755C13.5379 58.9992 13.2376 59.061 12.8682 59.061C12.4645 59.061 12.1512 58.9495 11.9282 58.7266C11.7052 58.502 11.5938 58.1895 11.5938 57.7891C11.5938 57.374 11.7142 57.0452 11.9551 56.8027C12.196 56.5602 12.4922 56.439 12.8438 56.439C13.2083 56.439 13.4899 56.5472 13.6885 56.7637C13.8887 56.9801 13.9888 57.2739 13.9888 57.645V57.9697ZM13.2734 57.4961C13.2734 57.138 13.1286 56.959 12.8389 56.959C12.7152 56.959 12.6077 57.0103 12.5166 57.1128C12.4271 57.2153 12.3726 57.3431 12.353 57.4961H13.2734ZM15.2192 59H14.4478V55.2988H15.2192V59ZM18.1147 57.9697H16.4839C16.5099 58.3327 16.7386 58.5142 17.1699 58.5142C17.445 58.5142 17.6867 58.4491 17.895 58.3188V58.8755C17.6639 58.9992 17.3636 59.061 16.9941 59.061C16.5905 59.061 16.2772 58.9495 16.0542 58.7266C15.8312 58.502 15.7197 58.1895 15.7197 57.7891C15.7197 57.374 15.8402 57.0452 16.0811 56.8027C16.3219 56.5602 16.6182 56.439 16.9697 56.439C17.3343 56.439 17.6159 56.5472 17.8145 56.7637C18.0146 56.9801 18.1147 57.2739 18.1147 57.645V57.9697ZM17.3994 57.4961C17.3994 57.138 17.2546 56.959 16.9648 56.959C16.8411 56.959 16.7337 57.0103 16.6426 57.1128C16.5531 57.2153 16.4985 57.3431 16.479 57.4961H17.3994ZM18.4102 58.9341V58.3091C18.5371 58.3856 18.6632 58.4425 18.7886 58.48C18.9155 58.5174 19.0352 58.5361 19.1475 58.5361C19.2842 58.5361 19.3916 58.5174 19.4697 58.48C19.5495 58.4425 19.5894 58.3856 19.5894 58.3091C19.5894 58.2603 19.5715 58.2196 19.5356 58.187C19.4998 58.1545 19.4535 58.126 19.3965 58.1016C19.3411 58.0771 19.2801 58.0552 19.2134 58.0356C19.1466 58.0161 19.0824 57.9941 19.0205 57.9697C18.9212 57.9323 18.8333 57.8924 18.7568 57.8501C18.682 57.8062 18.6185 57.7557 18.5664 57.6987C18.516 57.6418 18.4769 57.5758 18.4492 57.501C18.4232 57.4261 18.4102 57.3374 18.4102 57.2349C18.4102 57.0949 18.4403 56.9744 18.5005 56.8735C18.5623 56.7726 18.6437 56.6904 18.7446 56.627C18.8472 56.5618 18.9635 56.5146 19.0938 56.4854C19.2256 56.4544 19.3623 56.439 19.5039 56.439C19.6146 56.439 19.7269 56.4479 19.8408 56.4658C19.9548 56.4821 20.0671 56.5065 20.1777 56.5391V57.1348C20.0801 57.0778 19.9751 57.0355 19.8628 57.0078C19.7521 56.9785 19.6431 56.9639 19.5356 56.9639C19.4852 56.9639 19.4372 56.9688 19.3916 56.9785C19.3477 56.9867 19.3086 56.9997 19.2744 57.0176C19.2402 57.0339 19.2134 57.0558 19.1938 57.0835C19.1743 57.1095 19.1646 57.1396 19.1646 57.1738C19.1646 57.2194 19.1792 57.2585 19.2085 57.291C19.2378 57.3236 19.276 57.3521 19.3232 57.3765C19.3704 57.3993 19.4225 57.4204 19.4795 57.4399C19.5381 57.4578 19.5959 57.4766 19.6528 57.4961C19.7554 57.5319 19.8481 57.571 19.9312 57.6133C20.0142 57.6556 20.085 57.7052 20.1436 57.7622C20.2038 57.8192 20.2493 57.8859 20.2803 57.9624C20.3128 58.0389 20.3291 58.13 20.3291 58.2358C20.3291 58.384 20.2965 58.5109 20.2314 58.6167C20.168 58.7209 20.0825 58.8063 19.9751 58.873C19.8693 58.9382 19.7464 58.9854 19.6064 59.0146C19.4681 59.0456 19.3241 59.061 19.1743 59.061C18.8993 59.061 18.6445 59.0187 18.4102 58.9341ZM20.6123 58.9341V58.3091C20.7393 58.3856 20.8654 58.4425 20.9907 58.48C21.1177 58.5174 21.2373 58.5361 21.3496 58.5361C21.4863 58.5361 21.5938 58.5174 21.6719 58.48C21.7516 58.4425 21.7915 58.3856 21.7915 58.3091C21.7915 58.2603 21.7736 58.2196 21.7378 58.187C21.702 58.1545 21.6556 58.126 21.5986 58.1016C21.5433 58.0771 21.4823 58.0552 21.4155 58.0356C21.3488 58.0161 21.2845 57.9941 21.2227 57.9697C21.1234 57.9323 21.0355 57.8924 20.959 57.8501C20.8841 57.8062 20.8206 57.7557 20.7686 57.6987C20.7181 57.6418 20.679 57.5758 20.6514 57.501C20.6253 57.4261 20.6123 57.3374 20.6123 57.2349C20.6123 57.0949 20.6424 56.9744 20.7026 56.8735C20.7645 56.7726 20.8459 56.6904 20.9468 56.627C21.0493 56.5618 21.1657 56.5146 21.2959 56.4854C21.4277 56.4544 21.5645 56.439 21.7061 56.439C21.8167 56.439 21.929 56.4479 22.043 56.4658C22.1569 56.4821 22.2692 56.5065 22.3799 56.5391V57.1348C22.2822 57.0778 22.1772 57.0355 22.0649 57.0078C21.9543 56.9785 21.8452 56.9639 21.7378 56.9639C21.6873 56.9639 21.6393 56.9688 21.5938 56.9785C21.5498 56.9867 21.5107 56.9997 21.4766 57.0176C21.4424 57.0339 21.4155 57.0558 21.396 57.0835C21.3765 57.1095 21.3667 57.1396 21.3667 57.1738C21.3667 57.2194 21.3813 57.2585 21.4106 57.291C21.4399 57.3236 21.4782 57.3521 21.5254 57.3765C21.5726 57.3993 21.6247 57.4204 21.6816 57.4399C21.7402 57.4578 21.798 57.4766 21.855 57.4961C21.9575 57.5319 22.0503 57.571 22.1333 57.6133C22.2163 57.6556 22.2871 57.7052 22.3457 57.7622C22.4059 57.8192 22.4515 57.8859 22.4824 57.9624C22.515 58.0389 22.5312 58.13 22.5312 58.2358C22.5312 58.384 22.4987 58.5109 22.4336 58.6167C22.3701 58.7209 22.2847 58.8063 22.1772 58.873C22.0715 58.9382 21.9486 58.9854 21.8086 59.0146C21.6702 59.0456 21.5262 59.061 21.3765 59.061C21.1014 59.061 20.8467 59.0187 20.6123 58.9341ZM25.2241 59H24.4355V55.499H25.2241V59ZM27.1382 59.061C26.7215 59.061 26.3936 58.9447 26.1543 58.7119C25.9167 58.4775 25.7979 58.1602 25.7979 57.7598C25.7979 57.3464 25.9215 57.0233 26.1689 56.7905C26.4163 56.5562 26.7508 56.439 27.1724 56.439C27.5874 56.439 27.9129 56.5562 28.1489 56.7905C28.3849 57.0233 28.5029 57.3317 28.5029 57.7158C28.5029 58.1309 28.3809 58.4588 28.1367 58.6997C27.8942 58.9406 27.5614 59.061 27.1382 59.061ZM27.1577 57.0298C26.9754 57.0298 26.8338 57.0924 26.7329 57.2178C26.632 57.3431 26.5815 57.5205 26.5815 57.75C26.5815 58.2301 26.7752 58.4702 27.1626 58.4702C27.5321 58.4702 27.7168 58.2236 27.7168 57.7305C27.7168 57.2633 27.5304 57.0298 27.1577 57.0298ZM31.5376 56.1411H30.5391V59H29.748V56.1411H28.7544V55.499H31.5376V56.1411ZM5.91016 65.8755C5.65462 65.9992 5.32096 66.061 4.90918 66.061C4.37207 66.061 3.94971 65.9032 3.64209 65.5874C3.33447 65.2716 3.18066 64.8509 3.18066 64.3252C3.18066 63.7653 3.35319 63.3112 3.69824 62.9629C4.04492 62.6146 4.49414 62.4404 5.0459 62.4404C5.3877 62.4404 5.67578 62.4836 5.91016 62.5698V63.3291C5.67578 63.1891 5.40885 63.1191 5.10938 63.1191C4.7806 63.1191 4.5153 63.2225 4.31348 63.4292C4.11165 63.6359 4.01074 63.9159 4.01074 64.269C4.01074 64.6076 4.10596 64.8778 4.29639 65.0796C4.48682 65.2798 4.74316 65.3799 5.06543 65.3799C5.37305 65.3799 5.65462 65.305 5.91016 65.1553V65.8755ZM7.63623 66.061C7.21956 66.061 6.8916 65.9447 6.65234 65.7119C6.41471 65.4775 6.2959 65.1602 6.2959 64.7598C6.2959 64.3464 6.4196 64.0233 6.66699 63.7905C6.91439 63.5562 7.24886 63.439 7.67041 63.439C8.08545 63.439 8.41097 63.5562 8.64697 63.7905C8.88298 64.0233 9.00098 64.3317 9.00098 64.7158C9.00098 65.1309 8.87891 65.4588 8.63477 65.6997C8.39225 65.9406 8.05941 66.061 7.63623 66.061ZM7.65576 64.0298C7.47347 64.0298 7.33187 64.0924 7.23096 64.2178C7.13005 64.3431 7.07959 64.5205 7.07959 64.75C7.07959 65.2301 7.27327 65.4702 7.66064 65.4702C8.03011 65.4702 8.21484 65.2236 8.21484 64.7305C8.21484 64.2633 8.02848 64.0298 7.65576 64.0298ZM13.4712 66H12.7021V64.5742C12.7021 64.2113 12.5687 64.0298 12.3018 64.0298C12.1748 64.0298 12.0715 64.0843 11.9917 64.1934C11.9119 64.3024 11.8721 64.4383 11.8721 64.6011V66H11.1006V64.5596C11.1006 64.2064 10.9696 64.0298 10.7075 64.0298C10.5757 64.0298 10.4699 64.0819 10.3901 64.186C10.312 64.2902 10.2729 64.4318 10.2729 64.6108V66H9.50146V63.5H10.2729V63.8906H10.2827C10.3625 63.7572 10.474 63.6489 10.6172 63.5659C10.762 63.4813 10.9199 63.439 11.0908 63.439C11.444 63.439 11.6857 63.5944 11.8159 63.9053C12.0063 63.5944 12.2863 63.439 12.6558 63.439C13.1994 63.439 13.4712 63.7743 13.4712 64.4448V66ZM18.0513 66H17.2822V64.5742C17.2822 64.2113 17.1488 64.0298 16.8818 64.0298C16.7549 64.0298 16.6515 64.0843 16.5718 64.1934C16.492 64.3024 16.4521 64.4383 16.4521 64.6011V66H15.6807V64.5596C15.6807 64.2064 15.5496 64.0298 15.2876 64.0298C15.1558 64.0298 15.05 64.0819 14.9702 64.186C14.8921 64.2902 14.853 64.4318 14.853 64.6108V66H14.0815V63.5H14.853V63.8906H14.8628C14.9425 63.7572 15.054 63.6489 15.1973 63.5659C15.3421 63.4813 15.5 63.439 15.6709 63.439C16.0241 63.439 16.2658 63.5944 16.396 63.9053C16.5864 63.5944 16.8664 63.439 17.2358 63.439C17.7795 63.439 18.0513 63.7743 18.0513 64.4448V66ZM21.0371 66H20.2681V65.6191H20.2559C20.0654 65.9137 19.8107 66.061 19.4917 66.061C18.9123 66.061 18.6226 65.7103 18.6226 65.0088V63.5H19.3916V64.9404C19.3916 65.2936 19.5316 65.4702 19.8115 65.4702C19.9499 65.4702 20.0605 65.4222 20.1436 65.3262C20.2266 65.2285 20.2681 65.0967 20.2681 64.9307V63.5H21.0371V66ZM24.1035 66H23.3345V64.6108C23.3345 64.2235 23.1961 64.0298 22.9194 64.0298C22.786 64.0298 22.6761 64.0811 22.5898 64.1836C22.5036 64.2861 22.4604 64.4163 22.4604 64.5742V66H21.689V63.5H22.4604V63.8955H22.4702C22.6541 63.5911 22.9219 63.439 23.2734 63.439C23.8268 63.439 24.1035 63.7824 24.1035 64.4692V66ZM25.1069 63.1045C24.9767 63.1045 24.8701 63.0662 24.7871 62.9897C24.7041 62.9116 24.6626 62.8164 24.6626 62.7041C24.6626 62.5885 24.7041 62.4941 24.7871 62.4209C24.8701 62.3477 24.9767 62.311 25.1069 62.311C25.2388 62.311 25.3454 62.3477 25.4268 62.4209C25.5098 62.4941 25.5513 62.5885 25.5513 62.7041C25.5513 62.8213 25.5098 62.9173 25.4268 62.9922C25.3454 63.0671 25.2388 63.1045 25.1069 63.1045ZM25.4878 66H24.7163V63.5H25.4878V66ZM28.0317 65.9097C27.8576 66.0106 27.6061 66.061 27.2773 66.061C26.8932 66.061 26.5824 65.9447 26.3447 65.7119C26.1071 65.4792 25.9883 65.1789 25.9883 64.811C25.9883 64.3862 26.1152 64.0518 26.3691 63.8076C26.6247 63.5618 26.9657 63.439 27.3921 63.439C27.6867 63.439 27.8999 63.478 28.0317 63.5562V64.2104C27.8706 64.09 27.6908 64.0298 27.4922 64.0298C27.2708 64.0298 27.0951 64.0949 26.9648 64.2251C26.8363 64.3537 26.772 64.5319 26.772 64.7598C26.772 64.9811 26.8338 65.1553 26.9575 65.2822C27.0812 65.4076 27.2513 65.4702 27.4678 65.4702C27.6598 65.4702 27.8478 65.41 28.0317 65.2896V65.9097ZM30.6196 66H29.8896V65.6411H29.8799C29.7122 65.9211 29.464 66.061 29.1353 66.061C28.8927 66.061 28.7015 65.9927 28.5615 65.856C28.4232 65.7176 28.354 65.5337 28.354 65.3042C28.354 64.8192 28.6413 64.5392 29.2158 64.4644L29.8945 64.374C29.8945 64.1006 29.7464 63.9639 29.4502 63.9639C29.1523 63.9639 28.8691 64.0526 28.6006 64.23V63.6489C28.708 63.5936 28.8545 63.5448 29.04 63.5024C29.2272 63.4601 29.3973 63.439 29.5503 63.439C30.2632 63.439 30.6196 63.7946 30.6196 64.5059V66ZM29.8945 64.9844V64.8159L29.4404 64.8745C29.1898 64.9071 29.0645 65.0202 29.0645 65.2139C29.0645 65.3018 29.0946 65.3742 29.1548 65.4312C29.2166 65.4865 29.2996 65.5142 29.4038 65.5142C29.5487 65.5142 29.6667 65.4645 29.7578 65.3652C29.849 65.2643 29.8945 65.1374 29.8945 64.9844ZM32.7412 65.9707C32.6273 66.0309 32.4556 66.061 32.2261 66.061C31.6825 66.061 31.4106 65.7786 31.4106 65.2139V64.0688H31.0054V63.5H31.4106V62.9604L32.1797 62.7407V63.5H32.7412V64.0688H32.1797V65.0796C32.1797 65.34 32.283 65.4702 32.4897 65.4702C32.5711 65.4702 32.6549 65.4466 32.7412 65.3994V65.9707ZM33.5688 63.1045C33.4386 63.1045 33.332 63.0662 33.249 62.9897C33.166 62.9116 33.1245 62.8164 33.1245 62.7041C33.1245 62.5885 33.166 62.4941 33.249 62.4209C33.332 62.3477 33.4386 62.311 33.5688 62.311C33.7007 62.311 33.8073 62.3477 33.8887 62.4209C33.9717 62.4941 34.0132 62.5885 34.0132 62.7041C34.0132 62.8213 33.9717 62.9173 33.8887 62.9922C33.8073 63.0671 33.7007 63.1045 33.5688 63.1045ZM33.9497 66H33.1782V63.5H33.9497V66ZM35.7905 66.061C35.3739 66.061 35.0459 65.9447 34.8066 65.7119C34.569 65.4775 34.4502 65.1602 34.4502 64.7598C34.4502 64.3464 34.5739 64.0233 34.8213 63.7905C35.0687 63.5562 35.4032 63.439 35.8247 63.439C36.2397 63.439 36.5653 63.5562 36.8013 63.7905C37.0373 64.0233 37.1553 64.3317 37.1553 64.7158C37.1553 65.1309 37.0332 65.4588 36.7891 65.6997C36.5465 65.9406 36.2137 66.061 35.7905 66.061ZM35.8101 64.0298C35.6278 64.0298 35.4862 64.0924 35.3853 64.2178C35.2843 64.3431 35.2339 64.5205 35.2339 64.75C35.2339 65.2301 35.4276 65.4702 35.8149 65.4702C36.1844 65.4702 36.3691 65.2236 36.3691 64.7305C36.3691 64.2633 36.1828 64.0298 35.8101 64.0298ZM40.0703 66H39.3013V64.6108C39.3013 64.2235 39.1629 64.0298 38.8862 64.0298C38.7528 64.0298 38.6429 64.0811 38.5566 64.1836C38.4704 64.2861 38.4272 64.4163 38.4272 64.5742V66H37.6558V63.5H38.4272V63.8955H38.437C38.6209 63.5911 38.8887 63.439 39.2402 63.439C39.7936 63.439 40.0703 63.7824 40.0703 64.4692V66Z" fill="white"/>
<path d="M37.2 19.4667C37.4946 19.1721 37.4969 18.6905 37.1704 18.4319C36.0555 17.5491 34.6944 17.0667 33.3333 17.0667C31.9722 17.0667 30.6111 17.5491 29.4963 18.4319C29.1697 18.6905 29.1721 19.1721 29.4667 19.4667V19.4667C29.7612 19.7612 30.2356 19.7547 30.5752 19.5133C31.4019 18.9257 32.3676 18.6667 33.3333 18.6667C34.299 18.6667 35.2648 18.9257 36.0915 19.5133C36.431 19.7547 36.9054 19.7612 37.2 19.4667V19.4667Z" fill="#FFC727"/>
<path fill-rule="evenodd" clip-rule="evenodd" d="M37.3333 27.3333H34.6667V23.3333C34.6667 22.597 34.0697 22 33.3333 22V22C32.597 22 32 22.597 32 23.3333V27.3333H18.6667C17.9594 27.3333 17.2811 27.6143 16.781 28.1144C16.281 28.6145 16 29.2928 16 30V35.3333C16 36.0406 16.281 36.7189 16.781 37.219C17.2811 37.719 17.9594 38 18.6667 38H37.3333C38.0406 38 38.7189 37.719 39.219 37.219C39.719 36.7189 40 36.0406 40 35.3333V30C40 29.2928 39.719 28.6145 39.219 28.1144C38.7189 27.6143 38.0406 27.3333 37.3333 27.3333ZM22.6667 34H20V31.3333H22.6667V34ZM27.3333 34H24.6667V31.3333H27.3333V34ZM32 34H29.3333V31.3333H32V34Z" fill="#C9DAFF"/>
<path d="M38.3699 17.3903C38.6955 17.6438 39.1633 17.6367 39.4551 17.3449V17.3449C39.756 17.044 39.7579 16.5533 39.4345 16.2766C37.6615 14.7589 35.4974 14 33.3333 14C31.1693 14 29.0052 14.7589 27.2321 16.2766C26.9088 16.5533 26.9106 17.044 27.2116 17.3449V17.3449C27.5033 17.6367 27.9711 17.6438 28.2967 17.3903C29.7903 16.2277 31.5618 15.6 33.3333 15.6C35.1049 15.6 36.8764 16.2277 38.3699 17.3903Z" fill="#FFC727"/>
</svg>
