<svg width="56" height="70" viewBox="0 0 56 70" fill="none" xmlns="http://www.w3.org/2000/svg">
<rect width="56" height="70" rx="4" fill="#407BFF"/>
<rect width="56" height="17" transform="translate(0 53)" fill="#263238"/>
<path d="M4.18896 59H3.40039V55.499H4.18896V59ZM7.32617 59H6.55713V57.6108C6.55713 57.2235 6.41878 57.0298 6.14209 57.0298C6.00863 57.0298 5.89876 57.0811 5.8125 57.1836C5.72624 57.2861 5.68311 57.4163 5.68311 57.5742V59H4.91162V56.5H5.68311V56.8955H5.69287C5.87679 56.5911 6.14453 56.439 6.49609 56.439C7.04948 56.439 7.32617 56.7824 7.32617 57.4692V59ZM9.4502 58.9707C9.33626 59.0309 9.16455 59.061 8.93506 59.061C8.39144 59.061 8.11963 58.7786 8.11963 58.2139V57.0688H7.71436V56.5H8.11963V55.9604L8.88867 55.7407V56.5H9.4502V57.0688H8.88867V58.0796C8.88867 58.34 8.99202 58.4702 9.19873 58.4702C9.28011 58.4702 9.36393 58.4466 9.4502 58.3994V58.9707ZM11.5181 57.1958C11.4253 57.1453 11.3171 57.1201 11.1934 57.1201C11.0257 57.1201 10.8947 57.182 10.8003 57.3057C10.7059 57.4277 10.6587 57.5946 10.6587 57.8062V59H9.88721V56.5H10.6587V56.9639H10.6685C10.7905 56.6253 11.0103 56.4561 11.3276 56.4561C11.409 56.4561 11.4725 56.4658 11.5181 56.4854V57.1958ZM13.0513 59.061C12.6346 59.061 12.3066 58.9447 12.0674 58.7119C11.8298 58.4775 11.7109 58.1602 11.7109 57.7598C11.7109 57.3464 11.8346 57.0233 12.082 56.7905C12.3294 56.5562 12.6639 56.439 13.0854 56.439C13.5005 56.439 13.826 56.5562 14.062 56.7905C14.298 57.0233 14.416 57.3317 14.416 57.7158C14.416 58.1309 14.2939 58.4588 14.0498 58.6997C13.8073 58.9406 13.4744 59.061 13.0513 59.061ZM13.0708 57.0298C12.8885 57.0298 12.7469 57.0924 12.646 57.2178C12.5451 57.3431 12.4946 57.5205 12.4946 57.75C12.4946 58.2301 12.6883 58.4702 13.0757 58.4702C13.4451 58.4702 13.6299 58.2236 13.6299 57.7305C13.6299 57.2633 13.4435 57.0298 13.0708 57.0298ZM17.3628 59H16.5913V58.6558H16.5815C16.4058 58.9259 16.1478 59.061 15.8076 59.061C15.4951 59.061 15.2437 58.9512 15.0532 58.7314C14.8628 58.5101 14.7676 58.2017 14.7676 57.8062C14.7676 57.3927 14.8726 57.0615 15.0825 56.8125C15.2925 56.5635 15.5675 56.439 15.9077 56.439C16.23 56.439 16.4546 56.5545 16.5815 56.7856H16.5913V55.2988H17.3628V59ZM16.606 57.7842V57.5962C16.606 57.4334 16.5588 57.2983 16.4644 57.1909C16.37 57.0835 16.2471 57.0298 16.0957 57.0298C15.9248 57.0298 15.7913 57.0973 15.6953 57.2324C15.5993 57.3659 15.5513 57.5498 15.5513 57.7842C15.5513 58.0039 15.5977 58.1732 15.6904 58.292C15.7832 58.4108 15.9118 58.4702 16.0762 58.4702C16.2324 58.4702 16.3594 58.4076 16.457 58.2822C16.5563 58.1569 16.606 57.9909 16.606 57.7842ZM20.3877 59H19.6187V58.6191H19.6064C19.416 58.9137 19.1613 59.061 18.8423 59.061C18.2629 59.061 17.9731 58.7103 17.9731 58.0088V56.5H18.7422V57.9404C18.7422 58.2936 18.8822 58.4702 19.1621 58.4702C19.3005 58.4702 19.4111 58.4222 19.4941 58.3262C19.5771 58.2285 19.6187 58.0967 19.6187 57.9307V56.5H20.3877V59ZM22.9341 58.9097C22.7599 59.0106 22.5085 59.061 22.1797 59.061C21.7956 59.061 21.4847 58.9447 21.2471 58.7119C21.0094 58.4792 20.8906 58.1789 20.8906 57.811C20.8906 57.3862 21.0176 57.0518 21.2715 56.8076C21.527 56.5618 21.868 56.439 22.2944 56.439C22.589 56.439 22.8022 56.478 22.9341 56.5562V57.2104C22.7729 57.09 22.5931 57.0298 22.3945 57.0298C22.1732 57.0298 21.9974 57.0949 21.8672 57.2251C21.7386 57.3537 21.6743 57.5319 21.6743 57.7598C21.6743 57.9811 21.7362 58.1553 21.8599 58.2822C21.9836 58.4076 22.1536 58.4702 22.3701 58.4702C22.5622 58.4702 22.7502 58.41 22.9341 58.2896V58.9097ZM24.9531 58.9707C24.8392 59.0309 24.6675 59.061 24.438 59.061C23.8944 59.061 23.6226 58.7786 23.6226 58.2139V57.0688H23.2173V56.5H23.6226V55.9604L24.3916 55.7407V56.5H24.9531V57.0688H24.3916V58.0796C24.3916 58.34 24.495 58.4702 24.7017 58.4702C24.783 58.4702 24.8669 58.4466 24.9531 58.3994V58.9707ZM25.7808 56.1045C25.6506 56.1045 25.5439 56.0662 25.4609 55.9897C25.3779 55.9116 25.3364 55.8164 25.3364 55.7041C25.3364 55.5885 25.3779 55.4941 25.4609 55.4209C25.5439 55.3477 25.6506 55.311 25.7808 55.311C25.9126 55.311 26.0192 55.3477 26.1006 55.4209C26.1836 55.4941 26.2251 55.5885 26.2251 55.7041C26.2251 55.8213 26.1836 55.9173 26.1006 55.9922C26.0192 56.0671 25.9126 56.1045 25.7808 56.1045ZM26.1616 59H25.3901V56.5H26.1616V59ZM28.0024 59.061C27.5858 59.061 27.2578 58.9447 27.0186 58.7119C26.7809 58.4775 26.6621 58.1602 26.6621 57.7598C26.6621 57.3464 26.7858 57.0233 27.0332 56.7905C27.2806 56.5562 27.6151 56.439 28.0366 56.439C28.4517 56.439 28.7772 56.5562 29.0132 56.7905C29.2492 57.0233 29.3672 57.3317 29.3672 57.7158C29.3672 58.1309 29.2451 58.4588 29.001 58.6997C28.7585 58.9406 28.4256 59.061 28.0024 59.061ZM28.022 57.0298C27.8397 57.0298 27.6981 57.0924 27.5972 57.2178C27.4963 57.3431 27.4458 57.5205 27.4458 57.75C27.4458 58.2301 27.6395 58.4702 28.0269 58.4702C28.3963 58.4702 28.5811 58.2236 28.5811 57.7305C28.5811 57.2633 28.3947 57.0298 28.022 57.0298ZM32.2822 59H31.5132V57.6108C31.5132 57.2235 31.3748 57.0298 31.0981 57.0298C30.9647 57.0298 30.8548 57.0811 30.7686 57.1836C30.6823 57.2861 30.6392 57.4163 30.6392 57.5742V59H29.8677V56.5H30.6392V56.8955H30.6489C30.8328 56.5911 31.1006 56.439 31.4521 56.439C32.0055 56.439 32.2822 56.7824 32.2822 57.4692V59ZM35.7881 58.9707C35.6742 59.0309 35.5024 59.061 35.2729 59.061C34.7293 59.061 34.4575 58.7786 34.4575 58.2139V57.0688H34.0522V56.5H34.4575V55.9604L35.2266 55.7407V56.5H35.7881V57.0688H35.2266V58.0796C35.2266 58.34 35.3299 58.4702 35.5366 58.4702C35.618 58.4702 35.7018 58.4466 35.7881 58.3994V58.9707ZM37.397 59.061C36.9803 59.061 36.6523 58.9447 36.4131 58.7119C36.1755 58.4775 36.0566 58.1602 36.0566 57.7598C36.0566 57.3464 36.1803 57.0233 36.4277 56.7905C36.6751 56.5562 37.0096 56.439 37.4312 56.439C37.8462 56.439 38.1717 56.5562 38.4077 56.7905C38.6437 57.0233 38.7617 57.3317 38.7617 57.7158C38.7617 58.1309 38.6396 58.4588 38.3955 58.6997C38.153 58.9406 37.8201 59.061 37.397 59.061ZM37.4165 57.0298C37.2342 57.0298 37.0926 57.0924 36.9917 57.2178C36.8908 57.3431 36.8403 57.5205 36.8403 57.75C36.8403 58.2301 37.034 58.4702 37.4214 58.4702C37.7909 58.4702 37.9756 58.2236 37.9756 57.7305C37.9756 57.2633 37.7892 57.0298 37.4165 57.0298ZM7.38965 66H6.61084V63.9053C6.61084 63.679 6.62061 63.4292 6.64014 63.1558H6.62061C6.57992 63.3706 6.54329 63.5252 6.51074 63.6196L5.69043 66H5.0459L4.21094 63.644C4.18815 63.5806 4.15153 63.4178 4.10107 63.1558H4.0791C4.10026 63.5008 4.11084 63.8035 4.11084 64.064V66H3.40039V62.499H4.55518L5.27051 64.5742C5.32747 64.7402 5.36898 64.9071 5.39502 65.0747H5.40967C5.45361 64.881 5.5 64.7126 5.54883 64.5693L6.26416 62.499H7.38965V66ZM10.1899 66H9.45996V65.6411H9.4502C9.28255 65.9211 9.03434 66.061 8.70557 66.061C8.46305 66.061 8.27181 65.9927 8.13184 65.856C7.99349 65.7176 7.92432 65.5337 7.92432 65.3042C7.92432 64.8192 8.21159 64.5392 8.78613 64.4644L9.46484 64.374C9.46484 64.1006 9.31673 63.9639 9.02051 63.9639C8.72266 63.9639 8.43945 64.0526 8.1709 64.23V63.6489C8.27832 63.5936 8.4248 63.5448 8.61035 63.5024C8.79753 63.4601 8.96761 63.439 9.12061 63.439C9.8335 63.439 10.1899 63.7946 10.1899 64.5059V66ZM9.46484 64.9844V64.8159L9.01074 64.8745C8.76009 64.9071 8.63477 65.0202 8.63477 65.2139C8.63477 65.3018 8.66488 65.3742 8.7251 65.4312C8.78695 65.4865 8.86995 65.5142 8.97412 65.5142C9.11898 65.5142 9.23698 65.4645 9.32812 65.3652C9.41927 65.2643 9.46484 65.1374 9.46484 64.9844ZM12.6948 65.9097C12.5207 66.0106 12.2692 66.061 11.9404 66.061C11.5563 66.061 11.2454 65.9447 11.0078 65.7119C10.7702 65.4792 10.6514 65.1789 10.6514 64.811C10.6514 64.3862 10.7783 64.0518 11.0322 63.8076C11.2878 63.5618 11.6287 63.439 12.0552 63.439C12.3498 63.439 12.563 63.478 12.6948 63.5562V64.2104C12.5337 64.09 12.3538 64.0298 12.1553 64.0298C11.9339 64.0298 11.7581 64.0949 11.6279 64.2251C11.4993 64.3537 11.4351 64.5319 11.4351 64.7598C11.4351 64.9811 11.4969 65.1553 11.6206 65.2822C11.7443 65.4076 11.9144 65.4702 12.1309 65.4702C12.3229 65.4702 12.5109 65.41 12.6948 65.2896V65.9097ZM15.6025 66H14.8335V64.5791C14.8335 64.2129 14.7 64.0298 14.4331 64.0298C14.2964 64.0298 14.1857 64.0811 14.1011 64.1836C14.0164 64.2861 13.9741 64.4163 13.9741 64.5742V66H13.2026V62.2988H13.9741V63.8711H13.9839C14.1727 63.583 14.429 63.439 14.7529 63.439C15.3193 63.439 15.6025 63.7808 15.6025 64.4644V66ZM16.606 63.1045C16.4757 63.1045 16.3691 63.0662 16.2861 62.9897C16.2031 62.9116 16.1616 62.8164 16.1616 62.7041C16.1616 62.5885 16.2031 62.4941 16.2861 62.4209C16.3691 62.3477 16.4757 62.311 16.606 62.311C16.7378 62.311 16.8444 62.3477 16.9258 62.4209C17.0088 62.4941 17.0503 62.5885 17.0503 62.7041C17.0503 62.8213 17.0088 62.9173 16.9258 62.9922C16.8444 63.0671 16.7378 63.1045 16.606 63.1045ZM16.9868 66H16.2153V63.5H16.9868V66ZM20.0508 66H19.2817V64.6108C19.2817 64.2235 19.1434 64.0298 18.8667 64.0298C18.7332 64.0298 18.6234 64.0811 18.5371 64.1836C18.4508 64.2861 18.4077 64.4163 18.4077 64.5742V66H17.6362V63.5H18.4077V63.8955H18.4175C18.6014 63.5911 18.8691 63.439 19.2207 63.439C19.7741 63.439 20.0508 63.7824 20.0508 64.4692V66ZM22.9097 64.9697H21.2788C21.3049 65.3327 21.5335 65.5142 21.9648 65.5142C22.2399 65.5142 22.4816 65.4491 22.6899 65.3188V65.8755C22.4588 65.9992 22.1585 66.061 21.7891 66.061C21.3854 66.061 21.0721 65.9495 20.8491 65.7266C20.6261 65.502 20.5146 65.1895 20.5146 64.7891C20.5146 64.374 20.6351 64.0452 20.876 63.8027C21.1169 63.5602 21.4131 63.439 21.7646 63.439C22.1292 63.439 22.4108 63.5472 22.6094 63.7637C22.8096 63.9801 22.9097 64.2739 22.9097 64.645V64.9697ZM22.1943 64.4961C22.1943 64.138 22.0495 63.959 21.7598 63.959C21.6361 63.959 21.5286 64.0103 21.4375 64.1128C21.348 64.2153 21.2935 64.3431 21.2739 64.4961H22.1943ZM26.9111 66H24.8262V62.499H25.6147V65.3604H26.9111V66ZM29.5552 64.9697H27.9243C27.9504 65.3327 28.179 65.5142 28.6104 65.5142C28.8854 65.5142 29.1271 65.4491 29.3354 65.3188V65.8755C29.1043 65.9992 28.804 66.061 28.4346 66.061C28.0309 66.061 27.7176 65.9495 27.4946 65.7266C27.2716 65.502 27.1602 65.1895 27.1602 64.7891C27.1602 64.374 27.2806 64.0452 27.5215 63.8027C27.7624 63.5602 28.0586 63.439 28.4102 63.439C28.7747 63.439 29.0563 63.5472 29.2549 63.7637C29.4551 63.9801 29.5552 64.2739 29.5552 64.645V64.9697ZM28.8398 64.4961C28.8398 64.138 28.695 63.959 28.4053 63.959C28.2816 63.959 28.1742 64.0103 28.083 64.1128C27.9935 64.2153 27.939 64.3431 27.9194 64.4961H28.8398ZM32.0942 66H31.3643V65.6411H31.3545C31.1868 65.9211 30.9386 66.061 30.6099 66.061C30.3674 66.061 30.1761 65.9927 30.0361 65.856C29.8978 65.7176 29.8286 65.5337 29.8286 65.3042C29.8286 64.8192 30.1159 64.5392 30.6904 64.4644L31.3691 64.374C31.3691 64.1006 31.221 63.9639 30.9248 63.9639C30.627 63.9639 30.3438 64.0526 30.0752 64.23V63.6489C30.1826 63.5936 30.3291 63.5448 30.5146 63.5024C30.7018 63.4601 30.8719 63.439 31.0249 63.439C31.7378 63.439 32.0942 63.7946 32.0942 64.5059V66ZM31.3691 64.9844V64.8159L30.915 64.8745C30.6644 64.9071 30.5391 65.0202 30.5391 65.2139C30.5391 65.3018 30.5692 65.3742 30.6294 65.4312C30.6912 65.4865 30.7743 65.5142 30.8784 65.5142C31.0233 65.5142 31.1413 65.4645 31.2324 65.3652C31.3236 65.2643 31.3691 65.1374 31.3691 64.9844ZM34.3354 64.1958C34.2427 64.1453 34.1344 64.1201 34.0107 64.1201C33.8431 64.1201 33.7121 64.182 33.6177 64.3057C33.5233 64.4277 33.4761 64.5946 33.4761 64.8062V66H32.7046V63.5H33.4761V63.9639H33.4858C33.6079 63.6253 33.8276 63.4561 34.145 63.4561C34.2264 63.4561 34.2899 63.4658 34.3354 63.4854V64.1958ZM37.126 66H36.3569V64.6108C36.3569 64.2235 36.2186 64.0298 35.9419 64.0298C35.8084 64.0298 35.6986 64.0811 35.6123 64.1836C35.526 64.2861 35.4829 64.4163 35.4829 64.5742V66H34.7114V63.5H35.4829V63.8955H35.4927C35.6766 63.5911 35.9443 63.439 36.2959 63.439C36.8493 63.439 37.126 63.7824 37.126 64.4692V66ZM38.1294 63.1045C37.9992 63.1045 37.8926 63.0662 37.8096 62.9897C37.7266 62.9116 37.6851 62.8164 37.6851 62.7041C37.6851 62.5885 37.7266 62.4941 37.8096 62.4209C37.8926 62.3477 37.9992 62.311 38.1294 62.311C38.2612 62.311 38.3678 62.3477 38.4492 62.4209C38.5322 62.4941 38.5737 62.5885 38.5737 62.7041C38.5737 62.8213 38.5322 62.9173 38.4492 62.9922C38.3678 63.0671 38.2612 63.1045 38.1294 63.1045ZM38.5103 66H37.7388V63.5H38.5103V66ZM41.5742 66H40.8052V64.6108C40.8052 64.2235 40.6668 64.0298 40.3901 64.0298C40.2567 64.0298 40.1468 64.0811 40.0605 64.1836C39.9743 64.2861 39.9312 64.4163 39.9312 64.5742V66H39.1597V63.5H39.9312V63.8955H39.9409C40.1248 63.5911 40.3926 63.439 40.7441 63.439C41.2975 63.439 41.5742 63.7824 41.5742 64.4692V66ZM44.6382 65.7144C44.6382 66.1782 44.5039 66.5371 44.2354 66.791C43.9668 67.0465 43.5778 67.1743 43.0684 67.1743C42.7314 67.1743 42.4645 67.1263 42.2676 67.0303V66.3809C42.5247 66.5306 42.7843 66.6055 43.0464 66.6055C43.3068 66.6055 43.5086 66.5363 43.6519 66.3979C43.7951 66.2612 43.8667 66.0749 43.8667 65.8389V65.6411H43.8569C43.6812 65.9211 43.4215 66.061 43.0781 66.061C42.7591 66.061 42.506 65.9487 42.3188 65.7241C42.1317 65.4995 42.0381 65.1984 42.0381 64.8208C42.0381 64.3976 42.1423 64.0615 42.3506 63.8125C42.5589 63.5635 42.8332 63.439 43.1733 63.439C43.4777 63.439 43.7056 63.5562 43.8569 63.7905H43.8667V63.5H44.6382V65.7144ZM43.8765 64.7988V64.6011C43.8765 64.4432 43.8293 64.3089 43.7349 64.1982C43.6421 64.0859 43.5208 64.0298 43.3711 64.0298C43.2002 64.0298 43.0659 64.0965 42.9683 64.23C42.8706 64.3634 42.8218 64.5514 42.8218 64.7939C42.8218 65.0023 42.8682 65.1675 42.9609 65.2896C43.0537 65.41 43.1807 65.4702 43.3418 65.4702C43.5013 65.4702 43.6299 65.4092 43.7275 65.2871C43.8268 65.1634 43.8765 65.0007 43.8765 64.7988Z" fill="white"/>
<g clip-path="url(#clip0_2126_3415)">
<path d="M41.0205 29.933C40.6005 30.0816 40.2195 30.323 39.9058 30.6393L34.43 27.9943L31.2053 29.1185L31.8637 31.007L34.3056 30.1558L39.0364 32.4409C38.9835 32.8832 39.0309 33.3318 39.1752 33.7533C39.3705 34.3136 39.7275 34.8034 40.2012 35.1607C40.6749 35.5181 41.2439 35.7269 41.8362 35.7609C42.4286 35.7949 43.0177 35.6524 43.5292 35.3515C44.0406 35.0507 44.4513 34.6049 44.7093 34.0706C44.9674 33.5364 45.0613 32.9376 44.979 32.3499C44.8967 31.7623 44.6421 31.2123 44.2472 30.7694C43.8524 30.3265 43.3351 30.0107 42.7607 29.8618C42.1863 29.7129 41.5807 29.7377 41.0205 29.933ZM42.3371 33.7101C42.1504 33.7752 41.9485 33.7835 41.7571 33.7338C41.5656 33.6842 41.3932 33.5789 41.2615 33.4313C41.1299 33.2837 41.045 33.1003 41.0176 32.9044C40.9902 32.7086 41.0215 32.509 41.1075 32.3309C41.1935 32.1528 41.3304 32.0042 41.5009 31.9039C41.6714 31.8036 41.8677 31.7561 42.0652 31.7675C42.2627 31.7788 42.4523 31.8484 42.6102 31.9675C42.7681 32.0866 42.8871 32.2499 42.9522 32.4366C43.0395 32.6871 43.0238 32.9619 42.9084 33.2008C42.7931 33.4396 42.5876 33.6228 42.3371 33.7101ZM37.3996 19.546C36.8162 19.7513 36.3107 20.1322 35.9525 20.6363C35.5942 21.1404 35.4009 21.7431 35.3989 22.3615L29.5595 24.3971L30.2178 26.2856L36.0572 24.2501C36.4014 24.6778 36.8565 25.0026 37.3729 25.1892C37.8892 25.3757 38.4469 25.4167 38.985 25.3078C39.5231 25.1988 40.0208 24.944 40.4239 24.5713C40.827 24.1985 41.1199 23.7222 41.2705 23.1942C41.4212 22.6663 41.4238 22.1071 41.2782 21.5778C41.1325 21.0484 40.8442 20.5693 40.4446 20.1928C40.0451 19.8162 39.5498 19.5568 39.0127 19.4427C38.4757 19.3286 37.9177 19.3644 37.3996 19.546ZM38.7163 23.3231C38.5295 23.3882 38.3276 23.3965 38.1362 23.3469C37.9447 23.2972 37.7723 23.1919 37.6407 23.0443C37.509 22.8967 37.4242 22.7133 37.3967 22.5175C37.3693 22.3216 37.4006 22.122 37.4866 21.9439C37.5727 21.7658 37.7096 21.6172 37.88 21.5169C38.0505 21.4166 38.2469 21.3692 38.4443 21.3805C38.6418 21.3918 38.8315 21.4614 38.9893 21.5805C39.1472 21.6997 39.2663 21.8629 39.3314 22.0497C39.4187 22.3001 39.4029 22.575 39.2876 22.8138C39.1722 23.0526 38.9667 23.2358 38.7163 23.3231ZM33.7787 9.15905C33.0279 9.42163 32.4119 9.97135 32.066 10.6876C31.72 11.4038 31.6723 12.228 31.9334 12.9794C32.0943 13.4306 32.3621 13.8361 32.714 14.1613L30.365 18.8212L27.9136 19.6757L28.572 21.5643L31.7863 20.4438L34.5414 14.9804C34.9861 15.0142 35.4326 14.9484 35.8486 14.7878C36.2646 14.6272 36.6395 14.3758 36.9461 14.0521C37.2527 13.7283 37.4832 13.3402 37.6209 12.9161C37.7586 12.492 37.8 12.0425 37.7421 11.6004C37.6841 11.1583 37.5284 10.7346 37.286 10.3603C37.0437 9.98601 36.721 9.67043 36.3414 9.43657C35.9617 9.20271 35.5347 9.05645 35.0914 9.00845C34.6481 8.96044 34.1996 9.01189 33.7787 9.15905ZM35.0954 12.9361C34.9086 13.0012 34.7068 13.0095 34.5153 12.9599C34.3239 12.9102 34.1514 12.805 34.0198 12.6573C33.8882 12.5097 33.8033 12.3264 33.7759 12.1305C33.7485 11.9346 33.7797 11.735 33.8658 11.5569C33.9518 11.3788 34.0887 11.2302 34.2592 11.13C34.4296 11.0297 34.626 10.9822 34.8235 10.9935C35.0209 11.0048 35.2106 11.0744 35.3685 11.1936C35.5264 11.3127 35.6454 11.4759 35.7105 11.6627C35.7978 11.9131 35.782 12.188 35.6667 12.4268C35.5513 12.6656 35.3458 12.8488 35.0954 12.9361Z" fill="#FFC727"/>
<path d="M26.5967 15.8987L28.4853 15.2403L27.8269 13.3518L25.9384 14.0101C25.4009 14.1995 24.9104 14.5022 24.5001 14.8978C24.0899 15.2933 23.7694 15.7724 23.5605 16.3026C23.0673 16.0172 22.5184 15.8411 21.9512 15.7863C21.3839 15.7316 20.8115 15.7994 20.2728 15.9852L19.3285 16.3143C17.0762 17.1023 15.2285 18.7515 14.1906 20.9001C13.1528 23.0487 13.0097 25.5213 13.7926 27.7753L15.7676 33.4409C16.5556 35.6932 18.2048 37.541 20.3534 38.5788C22.502 39.6166 24.9746 39.7598 27.2286 38.9768L28.1729 38.6476C28.7104 38.4583 29.2009 38.1555 29.6111 37.76C30.0214 37.3645 30.3419 36.8854 30.5508 36.3552C31.044 36.6406 31.5929 36.8167 32.1601 36.8714C32.7273 36.9262 33.2997 36.8584 33.8385 36.6726L35.727 36.0143L35.0687 34.1257L33.1802 34.7841C32.6793 34.9581 32.1298 34.9264 31.6523 34.6957C31.1748 34.4651 30.8083 34.0544 30.6333 33.5539L25.3665 18.4456C25.1925 17.9447 25.2243 17.3952 25.4549 16.9177C25.6856 16.4402 26.0962 16.0737 26.5967 15.8987ZM27.5145 36.7591L26.5703 37.0883C24.9814 37.639 23.2475 37.5997 21.6852 36.9777C20.1229 36.3557 18.8365 35.1925 18.0609 33.7005L19.8739 33.0685L19.2155 31.18L17.327 31.8383L16.0103 28.0612L18.8431 27.0737C19.5939 26.8111 20.2099 26.2614 20.5559 25.5452C20.9018 24.829 20.9495 24.0047 20.6884 23.2534L20.0301 21.3648L18.1416 22.0232L18.7999 23.9117C18.8872 24.1622 18.8714 24.437 18.7561 24.6758C18.6407 24.9147 18.4352 25.0979 18.1848 25.1852L15.4275 26.1463C15.1075 24.4955 15.3921 22.7847 16.2291 21.3263C17.0662 19.8678 18.4 18.7592 19.9869 18.2029L20.9311 17.8737C21.432 17.6996 21.9815 17.7314 22.459 17.9621C22.9365 18.1927 23.303 18.6034 23.478 19.1039L24.7947 22.881L22.9061 23.5393L23.5645 25.4279L25.453 24.7695L26.7697 28.5466L24.8812 29.2049C24.1303 29.4675 23.5144 30.0172 23.1684 30.7335C22.8225 31.4497 22.7748 32.2739 23.0359 33.0253L23.6942 34.9138L25.5827 34.2555L24.9244 32.3669C24.8371 32.1165 24.8529 31.8416 24.9682 31.6028C25.0836 31.364 25.2891 31.1808 25.5395 31.0935L27.428 30.4351L28.7447 34.2122C28.9188 34.7131 28.887 35.2626 28.6564 35.7401C28.4257 36.2176 28.0151 36.5841 27.5145 36.7591Z" fill="#FFC727"/>
</g>
<defs>
<clipPath id="clip0_2126_3415">
<rect width="32" height="32" fill="white" transform="translate(7.625 16.1582) rotate(-19.2184)"/>
</clipPath>
</defs>
</svg>
