<svg width="56" height="70" viewBox="0 0 56 70" fill="none" xmlns="http://www.w3.org/2000/svg">
<rect width="56" height="70" rx="4" fill="#407BFF"/>
<rect width="56" height="17" transform="translate(0 53)" fill="#263238"/>
<path d="M6.18896 59H5.40039V55.499H6.18896V59ZM9.32617 59H8.55713V57.6108C8.55713 57.2235 8.41878 57.0298 8.14209 57.0298C8.00863 57.0298 7.89876 57.0811 7.8125 57.1836C7.72624 57.2861 7.68311 57.4163 7.68311 57.5742V59H6.91162V56.5H7.68311V56.8955H7.69287C7.87679 56.5911 8.14453 56.439 8.49609 56.439C9.04948 56.439 9.32617 56.7824 9.32617 57.4692V59ZM11.4502 58.9707C11.3363 59.0309 11.1646 59.061 10.9351 59.061C10.3914 59.061 10.1196 58.7786 10.1196 58.2139V57.0688H9.71436V56.5H10.1196V55.9604L10.8887 55.7407V56.5H11.4502V57.0688H10.8887V58.0796C10.8887 58.34 10.992 58.4702 11.1987 58.4702C11.2801 58.4702 11.3639 58.4466 11.4502 58.3994V58.9707ZM13.5181 57.1958C13.4253 57.1453 13.3171 57.1201 13.1934 57.1201C13.0257 57.1201 12.8947 57.182 12.8003 57.3057C12.7059 57.4277 12.6587 57.5946 12.6587 57.8062V59H11.8872V56.5H12.6587V56.9639H12.6685C12.7905 56.6253 13.0103 56.4561 13.3276 56.4561C13.409 56.4561 13.4725 56.4658 13.5181 56.4854V57.1958ZM15.0513 59.061C14.6346 59.061 14.3066 58.9447 14.0674 58.7119C13.8298 58.4775 13.7109 58.1602 13.7109 57.7598C13.7109 57.3464 13.8346 57.0233 14.082 56.7905C14.3294 56.5562 14.6639 56.439 15.0854 56.439C15.5005 56.439 15.826 56.5562 16.062 56.7905C16.298 57.0233 16.416 57.3317 16.416 57.7158C16.416 58.1309 16.2939 58.4588 16.0498 58.6997C15.8073 58.9406 15.4744 59.061 15.0513 59.061ZM15.0708 57.0298C14.8885 57.0298 14.7469 57.0924 14.646 57.2178C14.5451 57.3431 14.4946 57.5205 14.4946 57.75C14.4946 58.2301 14.6883 58.4702 15.0757 58.4702C15.4451 58.4702 15.6299 58.2236 15.6299 57.7305C15.6299 57.2633 15.4435 57.0298 15.0708 57.0298ZM19.3628 59H18.5913V58.6558H18.5815C18.4058 58.9259 18.1478 59.061 17.8076 59.061C17.4951 59.061 17.2437 58.9512 17.0532 58.7314C16.8628 58.5101 16.7676 58.2017 16.7676 57.8062C16.7676 57.3927 16.8726 57.0615 17.0825 56.8125C17.2925 56.5635 17.5675 56.439 17.9077 56.439C18.23 56.439 18.4546 56.5545 18.5815 56.7856H18.5913V55.2988H19.3628V59ZM18.606 57.7842V57.5962C18.606 57.4334 18.5588 57.2983 18.4644 57.1909C18.37 57.0835 18.2471 57.0298 18.0957 57.0298C17.9248 57.0298 17.7913 57.0973 17.6953 57.2324C17.5993 57.3659 17.5513 57.5498 17.5513 57.7842C17.5513 58.0039 17.5977 58.1732 17.6904 58.292C17.7832 58.4108 17.9118 58.4702 18.0762 58.4702C18.2324 58.4702 18.3594 58.4076 18.457 58.2822C18.5563 58.1569 18.606 57.9909 18.606 57.7842ZM22.3877 59H21.6187V58.6191H21.6064C21.416 58.9137 21.1613 59.061 20.8423 59.061C20.2629 59.061 19.9731 58.7103 19.9731 58.0088V56.5H20.7422V57.9404C20.7422 58.2936 20.8822 58.4702 21.1621 58.4702C21.3005 58.4702 21.4111 58.4222 21.4941 58.3262C21.5771 58.2285 21.6187 58.0967 21.6187 57.9307V56.5H22.3877V59ZM24.9341 58.9097C24.7599 59.0106 24.5085 59.061 24.1797 59.061C23.7956 59.061 23.4847 58.9447 23.2471 58.7119C23.0094 58.4792 22.8906 58.1789 22.8906 57.811C22.8906 57.3862 23.0176 57.0518 23.2715 56.8076C23.527 56.5618 23.868 56.439 24.2944 56.439C24.589 56.439 24.8022 56.478 24.9341 56.5562V57.2104C24.7729 57.09 24.5931 57.0298 24.3945 57.0298C24.1732 57.0298 23.9974 57.0949 23.8672 57.2251C23.7386 57.3537 23.6743 57.5319 23.6743 57.7598C23.6743 57.9811 23.7362 58.1553 23.8599 58.2822C23.9836 58.4076 24.1536 58.4702 24.3701 58.4702C24.5622 58.4702 24.7502 58.41 24.9341 58.2896V58.9097ZM26.9531 58.9707C26.8392 59.0309 26.6675 59.061 26.438 59.061C25.8944 59.061 25.6226 58.7786 25.6226 58.2139V57.0688H25.2173V56.5H25.6226V55.9604L26.3916 55.7407V56.5H26.9531V57.0688H26.3916V58.0796C26.3916 58.34 26.495 58.4702 26.7017 58.4702C26.783 58.4702 26.8669 58.4466 26.9531 58.3994V58.9707ZM27.7808 56.1045C27.6506 56.1045 27.5439 56.0662 27.4609 55.9897C27.3779 55.9116 27.3364 55.8164 27.3364 55.7041C27.3364 55.5885 27.3779 55.4941 27.4609 55.4209C27.5439 55.3477 27.6506 55.311 27.7808 55.311C27.9126 55.311 28.0192 55.3477 28.1006 55.4209C28.1836 55.4941 28.2251 55.5885 28.2251 55.7041C28.2251 55.8213 28.1836 55.9173 28.1006 55.9922C28.0192 56.0671 27.9126 56.1045 27.7808 56.1045ZM28.1616 59H27.3901V56.5H28.1616V59ZM30.0024 59.061C29.5858 59.061 29.2578 58.9447 29.0186 58.7119C28.7809 58.4775 28.6621 58.1602 28.6621 57.7598C28.6621 57.3464 28.7858 57.0233 29.0332 56.7905C29.2806 56.5562 29.6151 56.439 30.0366 56.439C30.4517 56.439 30.7772 56.5562 31.0132 56.7905C31.2492 57.0233 31.3672 57.3317 31.3672 57.7158C31.3672 58.1309 31.2451 58.4588 31.001 58.6997C30.7585 58.9406 30.4256 59.061 30.0024 59.061ZM30.022 57.0298C29.8397 57.0298 29.6981 57.0924 29.5972 57.2178C29.4963 57.3431 29.4458 57.5205 29.4458 57.75C29.4458 58.2301 29.6395 58.4702 30.0269 58.4702C30.3963 58.4702 30.5811 58.2236 30.5811 57.7305C30.5811 57.2633 30.3947 57.0298 30.022 57.0298ZM34.2822 59H33.5132V57.6108C33.5132 57.2235 33.3748 57.0298 33.0981 57.0298C32.9647 57.0298 32.8548 57.0811 32.7686 57.1836C32.6823 57.2861 32.6392 57.4163 32.6392 57.5742V59H31.8677V56.5H32.6392V56.8955H32.6489C32.8328 56.5911 33.1006 56.439 33.4521 56.439C34.0055 56.439 34.2822 56.7824 34.2822 57.4692V59ZM37.7881 58.9707C37.6742 59.0309 37.5024 59.061 37.2729 59.061C36.7293 59.061 36.4575 58.7786 36.4575 58.2139V57.0688H36.0522V56.5H36.4575V55.9604L37.2266 55.7407V56.5H37.7881V57.0688H37.2266V58.0796C37.2266 58.34 37.3299 58.4702 37.5366 58.4702C37.618 58.4702 37.7018 58.4466 37.7881 58.3994V58.9707ZM39.397 59.061C38.9803 59.061 38.6523 58.9447 38.4131 58.7119C38.1755 58.4775 38.0566 58.1602 38.0566 57.7598C38.0566 57.3464 38.1803 57.0233 38.4277 56.7905C38.6751 56.5562 39.0096 56.439 39.4312 56.439C39.8462 56.439 40.1717 56.5562 40.4077 56.7905C40.6437 57.0233 40.7617 57.3317 40.7617 57.7158C40.7617 58.1309 40.6396 58.4588 40.3955 58.6997C40.153 58.9406 39.8201 59.061 39.397 59.061ZM39.4165 57.0298C39.2342 57.0298 39.0926 57.0924 38.9917 57.2178C38.8908 57.3431 38.8403 57.5205 38.8403 57.75C38.8403 58.2301 39.034 58.4702 39.4214 58.4702C39.7909 58.4702 39.9756 58.2236 39.9756 57.7305C39.9756 57.2633 39.7892 57.0298 39.4165 57.0298ZM43.5083 59H42.7197V55.499H43.5083V59ZM45.4224 59.061C45.0057 59.061 44.6777 58.9447 44.4385 58.7119C44.2008 58.4775 44.082 58.1602 44.082 57.7598C44.082 57.3464 44.2057 57.0233 44.4531 56.7905C44.7005 56.5562 45.035 56.439 45.4565 56.439C45.8716 56.439 46.1971 56.5562 46.4331 56.7905C46.6691 57.0233 46.7871 57.3317 46.7871 57.7158C46.7871 58.1309 46.665 58.4588 46.4209 58.6997C46.1784 58.9406 45.8455 59.061 45.4224 59.061ZM45.4419 57.0298C45.2596 57.0298 45.118 57.0924 45.0171 57.2178C44.9162 57.3431 44.8657 57.5205 44.8657 57.75C44.8657 58.2301 45.0594 58.4702 45.4468 58.4702C45.8162 58.4702 46.001 58.2236 46.001 57.7305C46.001 57.2633 45.8146 57.0298 45.4419 57.0298ZM49.8218 56.1411H48.8232V59H48.0322V56.1411H47.0386V55.499H49.8218V56.1411Z" fill="white"/>
<path fill-rule="evenodd" clip-rule="evenodd" d="M17.875 39.25V26.875H15.125V39.25H17.875ZM42.625 29.625V26.875H34.375V29.625H37.125V39.25H39.875V29.625H42.625Z" fill="#C9DAFF"/>
<path d="M27.5 24.125C29.0498 24.1333 30.573 24.4889 31.9595 25.1599C32.5529 25.4471 33.2752 25.374 33.7408 24.9074V24.9074C34.3629 24.284 34.27 23.2445 33.4879 22.8398C31.6441 21.8856 29.5921 21.3797 27.5 21.375C25.443 21.379 23.4255 21.8757 21.6126 22.813C20.8301 23.2176 20.7379 24.2574 21.36 24.8812V24.8812C21.8275 25.3499 22.5532 25.4222 23.1492 25.134C24.5019 24.4799 25.988 24.1332 27.5 24.125Z" fill="#FFC727"/>
<path d="M27.4999 18.625C30.4834 18.6312 33.3957 19.4815 35.9047 21.0658C36.4889 21.4347 37.2585 21.3837 37.7465 20.8946V20.8946C38.3373 20.3025 38.2777 19.3228 37.5763 18.8671C34.5861 16.9243 31.088 15.8791 27.4999 15.875C23.9463 15.8795 20.4825 16.9164 17.5228 18.8427C16.8228 19.2983 16.7639 20.2765 17.3537 20.8679V20.8679C17.8422 21.3578 18.6132 21.4083 19.198 21.0386C21.6756 19.4721 24.5524 18.6311 27.4999 18.625Z" fill="#FFC727"/>
<path fill-rule="evenodd" clip-rule="evenodd" d="M24.0627 27.9178C25.0802 27.2379 26.2765 26.875 27.5003 26.875C29.1413 26.875 30.7151 27.5269 31.8755 28.6873C33.0359 29.8476 33.6878 31.4215 33.6878 33.0625C33.6878 34.2863 33.3249 35.4825 32.645 36.5001C31.9651 37.5176 30.9988 38.3107 29.8682 38.779C28.7375 39.2473 27.4934 39.3698 26.2932 39.1311C25.0929 38.8923 23.9904 38.303 23.1251 37.4377C22.2597 36.5724 21.6704 35.4699 21.4317 34.2696C21.193 33.0693 21.3155 31.8252 21.7838 30.6946C22.2521 29.564 23.0452 28.5977 24.0627 27.9178ZM25.5905 35.9207C26.1558 36.2984 26.8204 36.5 27.5003 36.5C28.412 36.5 29.2863 36.1378 29.931 35.4932C30.5756 34.8485 30.9378 33.9742 30.9378 33.0625C30.9378 32.3826 30.7362 31.718 30.3585 31.1527C29.9808 30.5874 29.4439 30.1468 28.8158 29.8866C28.1877 29.6265 27.4965 29.5584 26.8297 29.691C26.1629 29.8237 25.5504 30.1511 25.0696 30.6318C24.5889 31.1125 24.2615 31.725 24.1289 32.3919C23.9962 33.0587 24.0643 33.7498 24.3245 34.378C24.5846 35.0061 25.0252 35.5429 25.5905 35.9207Z" fill="#C9DAFF"/>
<path d="M27.5003 13.125C31.9276 13.1257 36.2336 14.5074 39.8249 17.0613C40.4033 17.4726 41.2 17.4331 41.7015 16.9309V16.9309C42.2809 16.3507 42.2365 15.3945 41.5719 14.9144C37.5029 11.9746 32.6009 10.3789 27.5554 10.375C22.5098 10.3711 17.6054 11.9593 13.5319 14.8928C12.8669 15.3718 12.8218 16.3276 13.4009 16.9076V16.9076C13.9022 17.4096 14.6987 17.4484 15.2765 17.0367C18.8368 14.4997 23.108 13.1264 27.5003 13.125Z" fill="#FFC727"/>
</svg>
