<svg width="20" height="20" viewBox="0 0 20 20" fill="none" xmlns="http://www.w3.org/2000/svg">
<mask id="mask0_2562_6738" style="mask-type:alpha" maskUnits="userSpaceOnUse" x="0" y="0" width="20" height="20">
<rect width="20" height="20" fill="#D9D9D9"/>
</mask>
<g mask="url(#mask0_2562_6738)">
<path d="M9.99935 18.3337C8.86046 18.3337 7.78407 18.1149 6.77018 17.6774C5.75629 17.2399 4.87088 16.6427 4.11393 15.8857C3.35699 15.1288 2.75977 14.2434 2.32227 13.2295C1.88477 12.2156 1.66602 11.1392 1.66602 10.0003C1.66602 8.84755 1.88477 7.76769 2.32227 6.76074C2.75977 5.7538 3.35699 4.87185 4.11393 4.11491C4.87088 3.35796 5.75629 2.76074 6.77018 2.32324C7.78407 1.88574 8.86046 1.66699 9.99935 1.66699C11.1521 1.66699 12.232 1.88574 13.2389 2.32324C14.2459 2.76074 15.1278 3.35796 15.8848 4.11491C16.6417 4.87185 17.2389 5.7538 17.6764 6.76074C18.1139 7.76769 18.3327 8.84755 18.3327 10.0003C18.3327 11.1392 18.1139 12.2156 17.6764 13.2295C17.2389 14.2434 16.6417 15.1288 15.8848 15.8857C15.1278 16.6427 14.2459 17.2399 13.2389 17.6774C12.232 18.1149 11.1521 18.3337 9.99935 18.3337ZM9.99935 16.6253C10.3605 16.1253 10.673 15.6045 10.9368 15.0628C11.2007 14.5212 11.416 13.9448 11.5827 13.3337H8.41602C8.58268 13.9448 8.79796 14.5212 9.06185 15.0628C9.32574 15.6045 9.63824 16.1253 9.99935 16.6253ZM7.83268 16.292C7.58268 15.8337 7.36393 15.358 7.17643 14.8649C6.98893 14.3719 6.83268 13.8614 6.70768 13.3337H4.24935C4.65213 14.0281 5.1556 14.6323 5.75977 15.1462C6.36393 15.66 7.0549 16.042 7.83268 16.292ZM12.166 16.292C12.9438 16.042 13.6348 15.66 14.2389 15.1462C14.8431 14.6323 15.3466 14.0281 15.7493 13.3337H13.291C13.166 13.8614 13.0098 14.3719 12.8223 14.8649C12.6348 15.358 12.416 15.8337 12.166 16.292ZM3.54102 11.667H6.37435C6.33268 11.3892 6.30143 11.1149 6.2806 10.8441C6.25977 10.5732 6.24935 10.292 6.24935 10.0003C6.24935 9.70866 6.25977 9.42741 6.2806 9.15658C6.30143 8.88574 6.33268 8.61144 6.37435 8.33366H3.54102C3.47157 8.61144 3.41949 8.88574 3.38477 9.15658C3.35004 9.42741 3.33268 9.70866 3.33268 10.0003C3.33268 10.292 3.35004 10.5732 3.38477 10.8441C3.41949 11.1149 3.47157 11.3892 3.54102 11.667ZM8.04102 11.667H11.9577C11.9993 11.3892 12.0306 11.1149 12.0514 10.8441C12.0723 10.5732 12.0827 10.292 12.0827 10.0003C12.0827 9.70866 12.0723 9.42741 12.0514 9.15658C12.0306 8.88574 11.9993 8.61144 11.9577 8.33366H8.04102C7.99935 8.61144 7.9681 8.88574 7.94727 9.15658C7.92643 9.42741 7.91602 9.70866 7.91602 10.0003C7.91602 10.292 7.92643 10.5732 7.94727 10.8441C7.9681 11.1149 7.99935 11.3892 8.04102 11.667ZM13.6243 11.667H16.4577C16.5271 11.3892 16.5792 11.1149 16.6139 10.8441C16.6487 10.5732 16.666 10.292 16.666 10.0003C16.666 9.70866 16.6487 9.42741 16.6139 9.15658C16.5792 8.88574 16.5271 8.61144 16.4577 8.33366H13.6243C13.666 8.61144 13.6973 8.88574 13.7181 9.15658C13.7389 9.42741 13.7493 9.70866 13.7493 10.0003C13.7493 10.292 13.7389 10.5732 13.7181 10.8441C13.6973 11.1149 13.666 11.3892 13.6243 11.667ZM13.291 6.66699H15.7493C15.3466 5.97255 14.8431 5.36838 14.2389 4.85449C13.6348 4.3406 12.9438 3.95866 12.166 3.70866C12.416 4.16699 12.6348 4.64269 12.8223 5.13574C13.0098 5.6288 13.166 6.13921 13.291 6.66699ZM8.41602 6.66699H11.5827C11.416 6.05588 11.2007 5.47949 10.9368 4.93783C10.673 4.39616 10.3605 3.87533 9.99935 3.37533C9.63824 3.87533 9.32574 4.39616 9.06185 4.93783C8.79796 5.47949 8.58268 6.05588 8.41602 6.66699ZM4.24935 6.66699H6.70768C6.83268 6.13921 6.98893 5.6288 7.17643 5.13574C7.36393 4.64269 7.58268 4.16699 7.83268 3.70866C7.0549 3.95866 6.36393 4.3406 5.75977 4.85449C5.1556 5.36838 4.65213 5.97255 4.24935 6.66699Z" fill="#407BFF"/>
</g>
</svg>
