<svg width="665" height="667" viewBox="0 0 665 667" fill="none" xmlns="http://www.w3.org/2000/svg">
<g filter="url(#filter0_d_2278_3236)">
<path d="M231.658 20.4867C231.658 20.4867 193.474 34.5659 171.017 47.5292C148.592 60.4742 136.361 68.8837 117.342 86.454C98.7546 103.625 80.4772 110.887 75.1391 135.622C72.7763 146.571 75.1391 164.304 75.1391 164.304C75.1391 164.304 49.1459 178.613 40.3117 194.214C36.468 201.002 33.1413 212.857 33.1413 212.857L40.3117 213.881L48.0966 218.389H65.7152L55.0621 204.867L81.6949 183.971V172.089L89.0701 160.206H98.494L102.182 167.172L92.7577 183.971L102.591 194.214V204.867L109.557 198.312H121.849L109.557 172.089L134.551 117.594L130.453 97.1071L145.204 86.454L151.35 91.7806V103.663L171.017 73.3425L196.83 60.231L211.99 51.2168L218.546 56.5434L209.532 64.7381L181.67 86.454L157.906 125.789L196.83 100.795L231.658 86.454L253.783 56.5434L263.207 53.6752V43.8416L250.915 36.0566L241.082 47.5292L231.658 36.0566V20.4867Z" fill="#C1D3E8"/>
<path fill-rule="evenodd" clip-rule="evenodd" d="M366.46 558.468L383.26 603.001H469.304H512.326L505.36 531.426L531.174 504.383L524.618 475.702L509.048 452.347L541.827 378.595L538.139 337.212L512.326 356.469L493.888 337.212L469.304 324.1L451.276 299.106L430.789 283.536L434.067 263.05L460.29 290.502L486.513 318.774L512.326 341.719L545.515 299.106L549.612 254.855L524.618 243.382L509.048 254.855L480.776 234.368L493.888 231.5L512.326 239.695L553.709 231.5L561.494 218.389L590.176 224.125L609.433 243.382V117.594L590.176 97.1071L561.494 69.6549C561.494 69.6549 522.153 40.6877 493.888 27.862C468.774 16.4664 453.724 11.6051 426.691 6.14602C401.174 0.992859 360.314 0 360.314 0H313.605L360.314 20.4867L333.272 24.1743L366.46 36.0566V53.6752L348.432 69.6549L345.154 91.7806H333.272V77.4398H291.479L286.562 103.663L267.305 129.476L286.562 135.622L296.806 143.817L307.459 135.622L301.722 112.677L313.605 100.795V117.594L327.945 121.281L317.292 143.817L296.806 151.192L277.138 143.817L271.812 164.304L257.881 183.971L238.214 198.312L246.408 204.867V218.389H214.859V260.181H241.082L257.881 249.938L267.305 218.389L291.479 209.784L321.799 231.5L313.605 243.382H327.945L333.272 224.125L301.722 204.867L307.459 198.312L339.418 218.389L345.154 234.368H360.314L355.398 213.881H366.46L374.245 177.415L398.01 172.089L417.677 177.415L422.184 188.888L394.322 198.312L366.46 213.881L383.26 234.368L412.351 224.125L417.677 249.938L390.225 263.05H352.12L345.154 283.536L301.722 269.196V249.938L246.408 274.932L226.741 269.196L209.532 309.35L181.67 352.782L186.177 417.11L238.214 463.82L277.138 456.035L296.806 443.333L321.799 452.347L333.272 443.333L345.154 460.132V485.945L379.572 519.544L366.46 558.468ZM430.789 164.304L435.706 140.949L441.852 160.206L455.373 164.304L480.776 188.888L460.29 194.214L430.789 164.304Z" fill="#C1D3E8"/>
<path d="M92.7577 519.544L104.64 525.28V548.225L92.7577 563.795L102.591 571.58L134.551 574.448V558.468L145.204 528.558L92.7577 519.544Z" fill="#C1D3E8"/>
<path d="M233.706 186.429L257.881 167.172L246.408 135.622L231.658 151.192L241.082 164.304H233.706L222.234 160.206L218.546 183.971L231.658 167.172H238.214L233.706 186.429Z" fill="#C1D3E8"/>
<path d="M360.314 243.382L366.46 249.938L374.245 239.695L360.314 243.382Z" fill="#C1D3E8"/>
<path d="M512.326 603.001H469.304H383.26L390.225 631.555L417.677 662.201L469.304 648.324L486.513 631.555L493.888 612.131L512.326 603.001Z" fill="#C1D3E8"/>
<path d="M609.433 117.594V243.382L636.626 239.695L662.956 290.502L659.503 243.013L650.439 234.368V198.312L636.626 160.206L609.433 117.594Z" fill="#C1D3E8"/>
<path d="M383.26 603.001L366.46 558.468L379.572 519.544L345.154 485.945V460.132L333.272 443.333L321.799 452.347L296.806 443.333L277.138 456.035L238.214 463.82L186.177 417.11L181.67 352.782L209.532 309.35L226.741 269.196L246.408 274.932L301.722 249.938V269.196L345.154 283.536L352.12 263.05H390.225L417.677 249.938L412.351 224.125L383.26 234.368L366.46 213.881M383.26 603.001H469.304H512.326M383.26 603.001L390.225 631.555L417.677 662.201L469.304 648.324L486.513 631.555L493.888 612.131L512.326 603.001M383.26 603.001H512.326M366.46 213.881H355.398L360.314 234.368H345.154L339.418 218.389L307.459 198.312L301.722 204.867L333.272 224.125L327.945 243.382H313.605L321.799 231.5L291.479 209.784L267.305 218.389L257.881 249.938L241.082 260.181H214.859V218.389H246.408V204.867L238.214 198.312L257.881 183.971L271.812 164.304L277.138 143.817L296.806 151.192L317.292 143.817L327.945 121.281L313.605 117.594V100.795L301.722 112.677L307.459 135.622L296.806 143.817L286.562 135.622L267.305 129.476L286.562 103.663L291.479 77.4398H333.272V91.7806H345.154L348.432 69.6549L366.46 53.6752V36.0566L333.272 24.1743L360.314 20.4867L313.605 0H360.314C360.314 0 401.174 0.992859 426.691 6.14602C453.724 11.6051 468.774 16.4664 493.888 27.862C522.153 40.6877 561.494 69.6549 561.494 69.6549L590.176 97.1071L609.433 117.594M366.46 213.881L374.245 177.415L398.01 172.089L417.677 177.415L422.184 188.888L394.322 198.312L366.46 213.881ZM609.433 117.594V243.382M609.433 117.594L636.626 160.206L650.439 198.312V234.368L659.503 243.013M609.433 243.382L590.176 224.125L561.494 218.389L553.709 231.5L512.326 239.695L493.888 231.5L480.776 234.368L509.048 254.855L524.618 243.382L549.612 254.855L545.515 299.106L512.326 341.719L486.513 318.774L460.29 290.502L434.067 263.05L430.789 283.536L451.276 299.106L469.304 324.1L493.888 337.212L512.326 356.469L538.139 337.212L541.827 378.595L509.048 452.347L524.618 475.702L531.174 504.383L505.36 531.426L512.326 603.001M609.433 243.382L636.626 239.695L662.956 290.502L659.503 243.013M92.7577 519.544L69.8126 531.426L51.3745 525.28C51.3745 525.28 61.9212 520.481 65.7152 514.627C68.9665 509.61 69.0432 505.805 69.8126 499.876C70.5127 494.481 70.1929 491.372 69.8126 485.945C69.1983 477.179 65.7152 463.82 65.7152 463.82L55.0621 456.035L40.3117 467.507H25.971C25.971 467.507 26.2052 460.509 25.971 456.035C24.9332 436.214 15.9803 426.642 11.6302 407.276C9.13339 396.161 7.20463 389.951 6.3037 378.595C5.62038 369.981 6.3037 356.469 6.3037 356.469L30.8878 369.171C30.8878 369.171 29.6364 353.906 25.971 344.997C21.1005 333.158 6.3037 318.774 6.3037 318.774C6.3037 318.774 11.571 284.541 16.9568 263.05C20.0717 250.62 25.971 231.5 25.971 231.5L33.1413 212.857M92.7577 519.544L104.64 525.28V548.225L92.7577 563.795L102.591 571.58L134.551 574.448V558.468L145.204 528.558L92.7577 519.544ZM33.1413 212.857C33.1413 212.857 36.468 201.002 40.3117 194.214C49.1459 178.613 75.1391 164.304 75.1391 164.304C75.1391 164.304 72.7763 146.571 75.1391 135.622C80.4772 110.887 98.7546 103.625 117.342 86.454C136.361 68.8837 148.592 60.4742 171.017 47.5292C193.474 34.5659 231.658 20.4867 231.658 20.4867V36.0566L241.082 47.5292L250.915 36.0566L263.207 43.8416V53.6752L253.783 56.5434L231.658 86.454L196.83 100.795L157.906 125.789L181.67 86.454L209.532 64.7381L218.546 56.5434L211.99 51.2168L196.83 60.231L171.017 73.3425L151.35 103.663V91.7806L145.204 86.454L130.453 97.1071L134.551 117.594L109.557 172.089L121.849 198.312H109.557L102.591 204.867V194.214L92.7577 183.971L102.182 167.172L98.494 160.206H89.0701L81.6949 172.089V183.971L55.0621 204.867L65.7152 218.389H48.0966L40.3117 213.881L33.1413 212.857ZM659.503 243.013L665.115 290.502V324.1L662.956 356.469M435.706 140.949L430.789 164.304L460.29 194.214L480.776 188.888L455.373 164.304L441.852 160.206L435.706 140.949ZM360.314 243.382L366.46 249.938L374.245 239.695L360.314 243.382ZM233.706 186.429L257.881 167.172L246.408 135.622L231.658 151.192L241.082 164.304H233.706L222.234 160.206L218.546 183.971L231.658 167.172H238.214L233.706 186.429Z" stroke="#C1D3E8" stroke-width="3" stroke-linecap="round" stroke-linejoin="bevel"/>
</g>
<path d="M264.121 188.483C265.342 188.483 266.513 187.998 267.376 187.134C268.24 186.271 268.725 185.1 268.725 183.879C268.725 182.658 268.24 181.487 267.376 180.623C266.513 179.76 265.342 179.275 264.121 179.275C262.9 179.275 261.729 179.76 260.865 180.623C260.002 181.487 259.517 182.658 259.517 183.879C259.517 185.1 260.002 186.271 260.865 187.134C261.729 187.998 262.9 188.483 264.121 188.483ZM264.121 188.483V202.295" stroke="#F35E19" stroke-width="2.66667"/>
<g clip-path="url(#clip0_2278_3236)">
<path fill-rule="evenodd" clip-rule="evenodd" d="M259.805 179.562H268.437V188.195H259.805V179.562Z" fill="white"/>
<path fill-rule="evenodd" clip-rule="evenodd" d="M259.805 179.562H262.682V188.195H259.805V179.562Z" fill="#002654"/>
<path fill-rule="evenodd" clip-rule="evenodd" d="M265.561 179.562H268.438V188.195H265.561V179.562Z" fill="#CE1126"/>
</g>
<path d="M309.875 202.295C311.096 202.295 312.267 201.81 313.13 200.947C313.994 200.084 314.479 198.912 314.479 197.691C314.479 196.47 313.994 195.299 313.13 194.436C312.267 193.572 311.096 193.087 309.875 193.087C308.654 193.087 307.482 193.572 306.619 194.436C305.756 195.299 305.271 196.47 305.271 197.691C305.271 198.912 305.756 200.084 306.619 200.947C307.482 201.81 308.654 202.295 309.875 202.295ZM309.875 202.295V216.108" stroke="#F35E19" stroke-width="2.66667"/>
<g clip-path="url(#clip1_2278_3236)">
<path fill-rule="evenodd" clip-rule="evenodd" d="M305.559 193.375H314.191V202.008H305.559V193.375Z" fill="white"/>
<path fill-rule="evenodd" clip-rule="evenodd" d="M305.559 193.375H308.436V202.008H305.559V193.375Z" fill="#009246"/>
<path fill-rule="evenodd" clip-rule="evenodd" d="M311.314 193.375H314.192V202.008H311.314V193.375Z" fill="#CE2B37"/>
</g>
<path d="M291.745 177.26C292.966 177.26 294.137 176.775 295 175.912C295.864 175.048 296.349 173.877 296.349 172.656C296.349 171.435 295.864 170.264 295 169.401C294.137 168.537 292.966 168.052 291.745 168.052C290.524 168.052 289.353 168.537 288.489 169.401C287.626 170.264 287.141 171.435 287.141 172.656C287.141 173.877 287.626 175.048 288.489 175.912C289.353 176.775 290.524 177.26 291.745 177.26ZM291.745 177.26V191.073" stroke="#F35E19" stroke-width="2.66667"/>
<g clip-path="url(#clip2_2278_3236)">
<path d="M287.429 174.095H296.062V176.973H287.429V174.095Z" fill="#FFCE00"/>
<path d="M287.429 168.34H296.062V171.217H287.429V168.34Z" fill="black"/>
<path d="M287.429 171.217H296.062V174.095H287.429V171.217Z" fill="#DD0000"/>
</g>
<path d="M282.25 422.432C283.471 422.432 284.642 421.947 285.505 421.083C286.369 420.22 286.854 419.049 286.854 417.828C286.854 416.607 286.369 415.436 285.505 414.572C284.642 413.709 283.471 413.224 282.25 413.224C281.029 413.224 279.857 413.709 278.994 414.572C278.131 415.436 277.646 416.607 277.646 417.828C277.646 419.049 278.131 420.22 278.994 421.083C279.857 421.947 281.029 422.432 282.25 422.432ZM282.25 422.432V436.244" stroke="#F35E19" stroke-width="2.66667"/>
<g clip-path="url(#clip3_2278_3236)">
<mask id="mask0_2278_3236" style="mask-type:luminance" maskUnits="userSpaceOnUse" x="277" y="413" width="10" height="10">
<path d="M277.934 413.511H286.567V422.144H277.934V413.511Z" fill="white"/>
</mask>
<g mask="url(#mask0_2278_3236)">
<path fill-rule="evenodd" clip-rule="evenodd" d="M277.934 413.511H287.64V422.144H277.934V413.511Z" fill="#FFE300"/>
<path fill-rule="evenodd" clip-rule="evenodd" d="M277.934 417.02H287.64V418.755H277.934V417.02ZM277.934 413.515H287.64V415.25H277.934V413.515Z" fill="#118600"/>
<path fill-rule="evenodd" clip-rule="evenodd" d="M277.934 413.516H281.81V418.753H277.934V413.516Z" fill="#D80000"/>
<path fill-rule="evenodd" clip-rule="evenodd" d="M279.633 415.676C279.633 415.663 279.872 414.783 279.872 414.783L280.087 415.663C280.087 415.663 280.813 415.692 280.813 415.676C280.813 415.661 280.24 416.255 280.24 416.255C280.24 416.255 280.51 417.266 280.499 417.236C280.489 417.207 279.872 416.629 279.872 416.629C279.872 416.629 279.243 417.207 279.255 417.207C279.265 417.207 279.492 416.255 279.492 416.255L278.93 415.692L279.633 415.676Z" fill="white"/>
<path fill-rule="evenodd" clip-rule="evenodd" d="M277.934 420.411H287.64V422.144H277.934V420.411Z" fill="#118600"/>
</g>
</g>
<path d="M231.315 279.127C232.536 279.127 233.707 278.642 234.571 277.779C235.434 276.915 235.919 275.744 235.919 274.523C235.919 273.302 235.434 272.131 234.571 271.268C233.707 270.404 232.536 269.919 231.315 269.919C230.094 269.919 228.923 270.404 228.059 271.268C227.196 272.131 226.711 273.302 226.711 274.523C226.711 275.744 227.196 276.915 228.059 277.779C228.923 278.642 230.094 279.127 231.315 279.127ZM231.315 279.127V292.94" stroke="#F35E19" stroke-width="2.66667"/>
<g clip-path="url(#clip4_2278_3236)">
<path d="M235.632 270.207H226.999V278.84H235.632V270.207Z" fill="#C1272D"/>
<path d="M231.315 273.66L230.782 275.386L232.179 274.322H230.452L231.849 275.386L231.315 273.66Z" stroke="#006233" stroke-width="1.4625"/>
</g>
<path d="M498.933 453.51C500.154 453.51 501.325 453.025 502.189 452.162C503.052 451.298 503.537 450.127 503.537 448.906C503.537 447.685 503.052 446.514 502.189 445.65C501.325 444.787 500.154 444.302 498.933 444.302C497.712 444.302 496.541 444.787 495.678 445.65C494.814 446.514 494.329 447.685 494.329 448.906C494.329 450.127 494.814 451.298 495.678 452.162C496.541 453.025 497.712 453.51 498.933 453.51ZM498.933 453.51V467.323" stroke="#F35E19" stroke-width="2.66667"/>
<g clip-path="url(#clip5_2278_3236)">
<mask id="mask1_2278_3236" style="mask-type:luminance" maskUnits="userSpaceOnUse" x="494" y="444" width="10" height="10">
<path d="M494.617 444.59H503.25V453.222H494.617V444.59Z" fill="white"/>
</mask>
<g mask="url(#mask1_2278_3236)">
<path fill-rule="evenodd" clip-rule="evenodd" d="M494.078 444.59H503.79V453.222H494.078V444.59Z" fill="#0099FF"/>
<path fill-rule="evenodd" clip-rule="evenodd" d="M494.078 444.59H503.79L494.078 453.222V444.59Z" fill="#009900"/>
<path fill-rule="evenodd" clip-rule="evenodd" d="M494.078 453.222H496.236L503.79 446.388V444.59H501.632L494.078 451.424V453.222Z" fill="black"/>
<path fill-rule="evenodd" clip-rule="evenodd" d="M494.078 451.172L501.481 444.59H502.209L494.078 451.82V451.172ZM495.659 453.222L503.79 445.992V446.64L496.387 453.222H495.659Z" fill="#FFFF00"/>
</g>
</g>
<path d="M291.745 306.752C292.966 306.752 294.137 306.267 295 305.404C295.864 304.54 296.349 303.369 296.349 302.148C296.349 300.927 295.864 299.756 295 298.893C294.137 298.029 292.966 297.544 291.745 297.544C290.524 297.544 289.353 298.029 288.489 298.893C287.626 299.756 287.141 300.927 287.141 302.148C287.141 303.369 287.626 304.54 288.489 305.404C289.353 306.267 290.524 306.752 291.745 306.752ZM291.745 306.752V320.565" stroke="#F35E19" stroke-width="2.66667"/>
<g clip-path="url(#clip6_2278_3236)">
<path d="M291.745 297.832H296.062V306.465H291.745V297.832Z" fill="white"/>
<path d="M287.429 297.832H291.745V306.465H287.429V297.832Z" fill="#006233"/>
<path d="M293.148 301.069C292.97 300.658 292.695 300.336 292.366 300.154C292.037 299.972 291.672 299.941 291.328 300.064C290.983 300.186 290.679 300.457 290.462 300.834C290.246 301.211 290.128 301.673 290.128 302.148C290.128 302.623 290.246 303.085 290.462 303.462C290.679 303.839 290.983 304.11 291.328 304.233C291.672 304.356 292.037 304.324 292.366 304.142C292.695 303.96 292.97 303.639 293.148 303.227C292.981 303.507 292.752 303.709 292.494 303.808C292.236 303.906 291.962 303.896 291.709 303.777C291.456 303.659 291.236 303.438 291.081 303.147C290.926 302.855 290.843 302.506 290.843 302.148C290.843 301.79 290.926 301.442 291.081 301.15C291.236 300.858 291.456 300.638 291.709 300.519C291.962 300.401 292.236 300.39 292.494 300.488C292.752 300.587 292.981 300.79 293.148 301.069ZM293.202 302.148L291.746 301.515L292.652 303.17V301.127L291.746 302.781L293.202 302.148Z" fill="#D21034"/>
</g>
<path d="M480.803 418.116C482.024 418.116 483.196 417.63 484.059 416.767C484.922 415.904 485.408 414.732 485.408 413.511C485.408 412.29 484.922 411.119 484.059 410.256C483.196 409.392 482.024 408.907 480.803 408.907C479.582 408.907 478.411 409.392 477.548 410.256C476.684 411.119 476.199 412.29 476.199 413.511C476.199 414.732 476.684 415.904 477.548 416.767C478.411 417.63 479.582 418.116 480.803 418.116ZM480.803 418.116V431.928" stroke="#F35E19" stroke-width="2.66667"/>
<g clip-path="url(#clip7_2278_3236)">
<mask id="mask2_2278_3236" style="mask-type:luminance" maskUnits="userSpaceOnUse" x="476" y="409" width="10" height="9">
<path d="M476.488 409.195H485.12V417.828H476.488V409.195Z" fill="white"/>
</mask>
<g mask="url(#mask2_2278_3236)">
<path fill-rule="evenodd" clip-rule="evenodd" d="M475.948 414.951H485.66V416.39H475.948V414.951Z" fill="#FFE700"/>
<path fill-rule="evenodd" clip-rule="evenodd" d="M475.948 413.511H485.66V414.95H475.948V413.511Z" fill="black"/>
<path fill-rule="evenodd" clip-rule="evenodd" d="M475.948 412.073H485.66V413.511H475.948V412.073Z" fill="#DE3908"/>
<path fill-rule="evenodd" clip-rule="evenodd" d="M475.948 410.635H485.66V412.073H475.948V410.635Z" fill="#FFE700"/>
<path fill-rule="evenodd" clip-rule="evenodd" d="M475.948 409.195H485.66V410.633H475.948V409.195Z" fill="black"/>
<path fill-rule="evenodd" clip-rule="evenodd" d="M481.812 413.511C481.812 413.868 481.705 414.21 481.516 414.462C481.327 414.714 481.071 414.855 480.804 414.855C480.536 414.855 480.28 414.714 480.091 414.462C479.902 414.21 479.796 413.868 479.796 413.511C479.796 413.155 479.902 412.813 480.091 412.561C480.28 412.309 480.536 412.167 480.804 412.167C481.071 412.167 481.327 412.309 481.516 412.561C481.705 412.813 481.812 413.155 481.812 413.511Z" fill="#FFFDFF" stroke="black" stroke-width="0.117188"/>
<path fill-rule="evenodd" clip-rule="evenodd" d="M480.627 412.482L480.562 412.321C480.587 412.287 480.629 412.26 480.697 412.26L480.689 412.438L480.626 412.482H480.627Z" fill="#DE3108" stroke="black" stroke-width="0.117188"/>
<path fill-rule="evenodd" clip-rule="evenodd" d="M480.691 412.438L480.7 412.26C480.7 412.26 480.835 412.25 480.909 412.368L480.836 412.507L480.689 412.439L480.691 412.438Z" fill="#FFE700" stroke="black" stroke-width="0.117188"/>
<path fill-rule="evenodd" clip-rule="evenodd" d="M480.837 412.505L480.904 412.366C480.949 412.429 480.968 412.473 480.974 412.541C480.975 412.542 480.869 412.576 480.869 412.575L480.837 412.505Z" fill="#DE3108" stroke="black" stroke-width="0.117188"/>
<path fill-rule="evenodd" clip-rule="evenodd" d="M480.66 414.778C480.66 414.778 480.785 414.587 481.028 414.628C480.991 414.548 480.872 414.558 480.872 414.558C480.872 414.558 480.837 414.187 480.865 414.167C480.892 414.147 481.016 414.169 481.016 414.169C481.032 414.169 481.059 414.112 481.037 414.074C481.015 414.037 480.951 413.897 480.977 413.869C481.004 413.842 481.147 413.886 481.147 413.886L480.742 413.194C480.742 413.194 480.7 412.933 480.784 412.807C480.884 412.697 480.872 412.577 480.87 412.579C480.856 412.458 480.718 412.372 480.624 412.483C480.57 412.57 480.607 412.638 480.607 412.638C480.607 412.638 480.461 412.69 480.456 412.724C480.45 412.758 480.619 412.719 480.619 412.719L480.603 412.872C480.603 412.872 480.274 413.27 480.527 413.614L480.535 413.601C480.535 413.601 480.623 413.746 480.715 413.778C480.804 413.896 480.795 413.879 480.795 413.879C480.795 413.879 480.812 414.066 480.795 414.103C480.774 414.095 480.551 414.083 480.518 414.1C480.488 414.113 480.374 414.105 480.402 414.354L480.444 414.228C480.444 414.228 480.44 414.317 480.468 414.349C480.463 414.255 480.494 414.191 480.494 414.191C480.494 414.191 480.499 414.295 480.517 414.309C480.535 414.326 480.535 414.14 480.631 414.157C480.724 414.172 480.794 414.167 480.794 414.167C480.794 414.167 480.825 414.528 480.815 414.562C480.747 414.54 480.583 414.57 480.573 414.626C480.669 414.617 480.713 414.633 480.713 414.633C480.713 414.633 480.636 414.725 480.66 414.778Z" fill="black" stroke="black" stroke-width="0.105469" stroke-linecap="round" stroke-linejoin="round"/>
<path fill-rule="evenodd" clip-rule="evenodd" d="M480.698 412.817C480.698 412.817 480.459 413.167 480.562 413.435C480.567 413.398 480.565 413.375 480.569 413.376C480.562 413.371 480.598 413.408 480.595 413.402C480.595 413.381 480.585 413.339 480.585 413.339L480.617 413.351L480.598 413.304L480.644 413.311C480.644 413.311 480.628 413.253 480.633 413.253L480.671 413.257C480.603 413.095 480.667 412.96 480.698 412.815V412.817Z" fill="#9CA69C" stroke="#9CA69C" stroke-width="0.105469" stroke-linecap="round" stroke-linejoin="round"/>
<path fill-rule="evenodd" clip-rule="evenodd" d="M480.781 412.515C480.781 412.515 480.794 412.636 480.743 412.67C480.737 412.679 480.705 412.692 480.711 412.718C480.716 412.751 480.73 412.745 480.749 412.738C480.8 412.726 480.861 412.579 480.781 412.515Z" fill="#9CA69C" stroke="#9CA69C" stroke-width="0.117188"/>
<path fill-rule="evenodd" clip-rule="evenodd" d="M480.693 412.618C480.693 412.625 480.691 412.631 480.688 412.636C480.684 412.641 480.679 412.643 480.674 412.643C480.669 412.643 480.664 412.641 480.661 412.636C480.657 412.631 480.655 412.625 480.655 412.618C480.655 412.611 480.657 412.605 480.661 412.6C480.664 412.595 480.669 412.592 480.674 412.592C480.679 412.592 480.684 412.595 480.688 412.6C480.691 412.605 480.693 412.611 480.693 412.618Z" fill="white"/>
<path fill-rule="evenodd" clip-rule="evenodd" d="M480.616 412.719C480.603 412.734 480.537 412.825 480.603 412.858C480.67 412.835 480.651 412.818 480.666 412.798C480.666 412.756 480.633 412.746 480.616 412.721V412.719Z" fill="#DE3108" stroke="black" stroke-width="0.117188"/>
<path fill-rule="evenodd" clip-rule="evenodd" d="M480.761 413.587C480.757 413.607 480.742 413.681 480.762 413.739C480.82 413.705 480.847 413.715 480.866 413.732C480.819 413.681 480.8 413.66 480.761 413.587Z" fill="#9CA69C" stroke="#9CA69C" stroke-width="0.105469" stroke-linecap="round" stroke-linejoin="round"/>
<path fill-rule="evenodd" clip-rule="evenodd" d="M480.859 413.935L480.862 414.107C480.862 414.107 480.908 414.117 480.928 414.107C480.948 414.097 480.928 413.989 480.859 413.935Z" fill="white" stroke="white" stroke-width="0.105469" stroke-linecap="round" stroke-linejoin="round"/>
<path fill-rule="evenodd" clip-rule="evenodd" d="M481.183 413.956C481.183 413.956 481.101 413.69 480.89 413.623C480.679 413.555 480.707 413.255 480.723 413.237C480.733 413.211 480.739 413.171 480.8 413.21C480.861 413.248 481.142 413.435 481.182 413.446C481.223 413.456 481.187 413.963 481.185 413.956H481.183Z" fill="#9CA69C" stroke="black" stroke-width="0.117188"/>
<path fill-rule="evenodd" clip-rule="evenodd" d="M480.984 413.621C480.98 413.624 481.266 413.847 481.18 414.037C481.261 413.965 481.235 413.84 481.235 413.84C481.235 413.84 481.301 414.071 481.139 414.184C481.157 414.204 481.168 414.201 481.168 414.201L481.14 414.236C481.14 414.236 481.128 414.265 481.237 414.194C481.208 414.226 481.205 414.25 481.205 414.25C481.205 414.25 481.213 414.28 481.283 414.198C481.226 414.28 481.214 414.322 481.214 414.321C481.369 414.304 481.707 413.629 481.108 413.432L481.134 413.469L480.982 413.621H480.984Z" fill="#DE3108" stroke="black" stroke-width="0.105469" stroke-linejoin="round"/>
<path fill-rule="evenodd" clip-rule="evenodd" d="M480.997 413.555C481.035 413.592 481.049 413.606 481.054 413.623C481.018 413.612 480.987 413.616 480.987 413.616C480.987 413.616 480.91 413.518 480.896 413.51C480.886 413.51 480.825 413.459 480.825 413.459C480.796 413.439 480.768 413.302 480.878 413.341C480.92 413.37 480.964 413.396 481.008 413.419L481.144 413.476L481.222 413.592C481.222 413.592 481.083 413.501 481.065 413.499C481.103 413.54 481.125 413.597 481.125 413.597C481.08 413.58 481.042 413.564 480.997 413.555Z" fill="white" stroke="black" stroke-width="0.105469" stroke-linecap="round" stroke-linejoin="round"/>
<path d="M480.455 412.734C480.455 412.734 480.587 412.69 480.604 412.697" stroke="white" stroke-width="0.105469" stroke-linecap="round"/>
<path fill-rule="evenodd" clip-rule="evenodd" d="M475.948 416.39H485.66V417.828H475.948V416.39Z" fill="#DE3908"/>
</g>
</g>
<path d="M466.992 356.823C468.213 356.823 469.384 356.338 470.247 355.474C471.111 354.611 471.596 353.44 471.596 352.219C471.596 350.997 471.111 349.826 470.247 348.963C469.384 348.099 468.213 347.614 466.992 347.614C465.771 347.614 464.6 348.099 463.736 348.963C462.873 349.826 462.388 350.997 462.388 352.219C462.388 353.44 462.873 354.611 463.736 355.474C464.6 356.338 465.771 356.823 466.992 356.823ZM466.992 356.823V370.635" stroke="#F35E19" stroke-width="2.66667"/>
<g clip-path="url(#clip8_2278_3236)">
<mask id="mask3_2278_3236" style="mask-type:luminance" maskUnits="userSpaceOnUse" x="462" y="347" width="10" height="10">
<path d="M462.674 347.902H471.33V356.558H462.674V347.902Z" fill="white"/>
</mask>
<g mask="url(#mask3_2278_3236)">
<path fill-rule="evenodd" clip-rule="evenodd" d="M460.434 347.961H473.595V356.381H460.434V347.961Z" fill="#FFC621"/>
<path fill-rule="evenodd" clip-rule="evenodd" d="M460.408 353.692H473.586V356.558H460.408V353.692Z" fill="#EF2118"/>
<path fill-rule="evenodd" clip-rule="evenodd" d="M460.434 347.902H473.595V350.945H460.434V347.902Z" fill="#298C08"/>
</g>
<path d="M466.986 353.536C467.742 353.536 468.354 352.924 468.354 352.169C468.354 351.414 467.742 350.802 466.986 350.802C466.231 350.802 465.619 351.414 465.619 352.169C465.619 352.924 466.231 353.536 466.986 353.536Z" fill="#006BC6"/>
<path fill-rule="evenodd" clip-rule="evenodd" d="M466.374 351.2L466.291 351.257L466.589 351.675L466.669 351.625L466.372 351.2H466.374ZM466.746 352.189L466.623 352.103L466.674 351.942L466.064 351.951L465.887 351.815L466.72 351.806L466.875 351.338L466.958 351.528L466.746 352.188V352.189ZM467.716 351.292L467.637 351.232L467.328 351.642L467.399 351.702L467.716 351.292ZM466.887 351.945L466.932 351.803H467.1L466.907 351.223L466.984 351.014L467.244 351.805L467.735 351.811L467.581 351.947L466.887 351.944V351.945ZM468.036 352.595L468.07 352.501L467.585 352.332L467.549 352.421L468.036 352.595ZM467.16 352.006L467.308 352.005L467.36 352.165L467.852 351.803L468.075 351.811L467.402 352.302L467.548 352.773L467.37 352.667L467.16 352.006ZM466.909 353.3L467.009 353.302L467.013 352.789L466.919 352.782L466.909 353.301V353.3ZM467.188 352.281L467.236 352.422L467.1 352.524L467.6 352.875L467.663 353.088L466.984 352.606L466.584 352.894L466.629 352.691L467.186 352.281H467.188ZM465.878 352.446L465.907 352.541L466.398 352.387L466.372 352.295L465.878 352.446ZM466.933 352.396L466.814 352.486L466.677 352.388L466.497 352.971L466.314 353.098L466.561 352.303L466.163 352.011L466.37 351.991L466.933 352.396Z" fill="#FFC621"/>
</g>
<path d="M404.835 279.127C406.056 279.127 407.227 278.642 408.09 277.779C408.954 276.915 409.439 275.744 409.439 274.523C409.439 273.302 408.954 272.131 408.09 271.268C407.227 270.404 406.056 269.919 404.835 269.919C403.614 269.919 402.442 270.404 401.579 271.268C400.716 272.131 400.23 273.302 400.23 274.523C400.23 275.744 400.716 276.915 401.579 277.779C402.442 278.642 403.614 279.127 404.835 279.127ZM404.835 279.127V292.94" stroke="#F35E19" stroke-width="2.66667"/>
<g clip-path="url(#clip9_2278_3236)">
<path d="M400.519 275.962H409.151V278.84H400.519V275.962Z" fill="black"/>
<path d="M400.519 273.084H409.151V275.962H400.519V273.084Z" fill="white"/>
<path d="M400.519 270.207H409.151V273.084H400.519V270.207Z" fill="#CE1126"/>
<path d="M404.843 274.558L405.583 275.473L405.53 273.811C405.522 273.559 405.358 273.617 405.238 273.707C405.119 273.811 404.979 273.811 404.835 273.743C404.689 273.811 404.551 273.811 404.431 273.707C404.312 273.617 404.147 273.559 404.14 273.811L404.087 275.473L404.843 274.558Z" fill="white" stroke="#C09300" stroke-width="0.13" stroke-linejoin="round"/>
<path d="M404.225 273.753L404.173 275.369L404.087 275.473L404.14 273.811C404.165 273.785 404.194 273.765 404.225 273.753ZM404.329 273.869L404.285 275.221L404.199 275.339L404.251 273.778C404.268 273.801 404.319 273.857 404.329 273.869ZM404.423 273.972L404.389 275.1L404.319 275.191L404.362 273.904C404.379 273.926 404.414 273.959 404.423 273.972ZM404.525 274.03L404.492 274.991L404.424 275.064L404.457 273.995C404.474 274.005 404.508 274.03 404.525 274.03ZM404.62 274.03L404.595 274.831L404.525 274.922L404.552 274.04C404.568 274.04 404.612 274.04 404.62 274.03Z" fill="#C09300"/>
<path d="M405.445 273.753L405.497 275.369L405.583 275.473L405.53 273.811C405.505 273.785 405.476 273.765 405.445 273.753ZM405.341 273.869L405.384 275.221L405.471 275.339L405.419 273.778C405.402 273.801 405.351 273.857 405.341 273.869ZM405.247 273.972L405.281 275.1L405.351 275.191L405.308 273.904C405.291 273.926 405.256 273.959 405.247 273.972ZM405.145 274.03L405.178 274.991L405.246 275.064L405.213 273.995C405.196 274.005 405.162 274.03 405.145 274.03ZM405.05 274.03L405.075 274.831L405.145 274.922L405.118 274.04C405.102 274.04 405.057 274.04 405.05 274.03Z" fill="#C09300"/>
<path d="M404.869 274.739L404.973 275.369L404.938 275.415L404.902 275.379L404.844 274.818L404.869 275.379L404.834 275.437L404.801 275.379L404.826 274.818L404.766 275.379L404.731 275.415L404.696 275.369L404.8 274.74H404.869V274.739Z" fill="#C09300" stroke="#C09300" stroke-width="0.11"/>
<path d="M404.603 274.463L404.396 275.437L404.68 275.494L404.8 274.762L404.603 274.463Z" fill="white" stroke="#C09300" stroke-width="0.12" stroke-linejoin="round"/>
<path d="M404.534 274.797L404.559 274.876L404.693 274.706" stroke="#C09300" stroke-width="0.13" stroke-linejoin="round"/>
<path d="M404.627 274.595L404.655 274.945L404.74 274.795M404.706 274.853L404.752 275.068M404.771 274.989L404.677 275.179M404.706 275.369L404.676 275.179M404.676 275.179L404.65 274.986L404.586 275.1L404.559 274.969L404.471 275.09L404.515 275.309L404.578 275.173L404.611 275.312L404.676 275.179Z" stroke="#C09300" stroke-width="0.13" stroke-linejoin="round"/>
<path d="M404.457 275.416L404.514 275.307L404.551 275.473L404.603 275.358L404.637 275.496" stroke="#C09300" stroke-width="0.13" stroke-linejoin="round"/>
<path d="M405.066 274.463L405.272 275.437L404.989 275.494L404.869 274.762L405.066 274.463Z" fill="white" stroke="#C09300" stroke-width="0.12" stroke-linejoin="round"/>
<path d="M405.135 274.797L405.11 274.876L404.976 274.706" stroke="#C09300" stroke-width="0.13" stroke-linejoin="round"/>
<path d="M405.042 274.595L405.014 274.945L404.928 274.795M404.963 274.853L404.917 275.068M404.898 274.989L404.992 275.179M404.963 275.369L404.993 275.179M404.993 275.179L405.019 274.986L405.083 275.1L405.11 274.969L405.198 275.09L405.154 275.309L405.091 275.173L405.058 275.312L404.993 275.179Z" stroke="#C09300" stroke-width="0.13" stroke-linejoin="round"/>
<path d="M405.212 275.416L405.155 275.307L405.118 275.473L405.066 275.358L405.032 275.496" stroke="#C09300" stroke-width="0.13" stroke-linejoin="round"/>
<path d="M404.834 275.873C405.05 275.873 405.255 275.85 405.376 275.805C405.427 275.792 405.427 275.758 405.427 275.712C405.479 275.689 405.453 275.608 405.488 275.608C405.452 275.622 405.445 275.529 405.402 275.54C405.402 275.46 405.341 275.45 405.29 275.473C405.187 275.517 405.006 275.529 404.834 275.529C404.662 275.517 404.483 275.517 404.379 275.471C404.328 275.45 404.268 275.46 404.268 275.54C404.225 275.529 404.217 275.621 404.182 275.608C404.217 275.608 404.19 275.69 404.242 275.712C404.242 275.758 404.242 275.792 404.294 275.805C404.413 275.85 404.62 275.873 404.834 275.873Z" fill="white" stroke="#C09300" stroke-width="0.24" stroke-linecap="round" stroke-linejoin="round"/>
<path d="M404.542 275.437C404.611 275.45 404.689 275.46 404.749 275.45C404.784 275.45 404.809 275.529 404.739 275.54C404.68 275.551 404.585 275.54 404.534 275.529C404.468 275.513 404.401 275.494 404.336 275.471C404.275 275.437 404.319 275.371 404.353 275.379C404.415 275.406 404.478 275.425 404.542 275.437ZM405.127 275.437C405.058 275.45 404.98 275.46 404.922 275.45C404.885 275.45 404.86 275.529 404.929 275.54C404.99 275.551 405.084 275.54 405.134 275.529C405.178 275.517 405.273 275.496 405.333 275.471C405.393 275.437 405.35 275.371 405.316 275.379C405.254 275.406 405.191 275.425 405.127 275.437Z" fill="white" stroke="#C09300" stroke-width="0.13" stroke-linecap="round" stroke-linejoin="round"/>
<path d="M404.327 275.392C404.275 275.379 404.252 275.46 404.268 275.506C404.275 275.483 404.311 275.483 404.318 275.46C404.328 275.425 404.311 275.425 404.328 275.392H404.327ZM404.534 275.604C404.534 275.558 404.568 275.563 404.568 275.517C404.568 275.496 404.559 275.46 404.542 275.46C404.533 275.461 404.524 275.466 404.518 275.474C404.512 275.483 404.508 275.494 404.507 275.506C404.5 275.551 404.534 275.558 404.534 275.604ZM404.779 275.473C404.83 275.473 404.825 275.563 404.801 275.61C404.801 275.576 404.758 275.563 404.758 275.54C404.758 275.506 404.796 275.506 404.779 275.473ZM405.34 275.392C405.393 275.379 405.418 275.46 405.401 275.506C405.393 275.483 405.358 275.483 405.35 275.46C405.34 275.425 405.358 275.425 405.34 275.392ZM405.136 275.602C405.136 275.556 405.102 275.562 405.102 275.516C405.102 275.494 405.11 275.458 405.128 275.458C405.137 275.459 405.145 275.464 405.152 275.473C405.158 275.481 405.162 275.492 405.162 275.504C405.17 275.549 405.135 275.556 405.135 275.602H405.136ZM404.888 275.473C404.837 275.473 404.843 275.563 404.867 275.61C404.867 275.576 404.91 275.563 404.91 275.54C404.91 275.506 404.871 275.506 404.888 275.473Z" fill="white" stroke="#C09300" stroke-width="0.13" stroke-linecap="round" stroke-linejoin="round"/>
<path d="M404.346 275.415C404.363 275.415 404.389 275.425 404.396 275.438L404.346 275.415ZM404.431 275.45C404.44 275.45 404.474 275.46 404.49 275.473L404.431 275.45ZM404.74 275.496C404.723 275.496 404.689 275.496 404.68 275.506L404.74 275.494V275.496ZM404.646 275.496C404.636 275.483 404.603 275.483 404.585 275.496H404.646ZM405.323 275.415C405.305 275.416 405.287 275.424 405.273 275.438L405.323 275.415ZM405.239 275.45C405.228 275.45 405.196 275.46 405.179 275.473L405.239 275.45ZM404.929 275.496C404.946 275.496 404.98 275.496 404.99 275.506L404.929 275.494V275.496ZM405.023 275.496C405.033 275.483 405.067 275.483 405.084 275.496H405.023Z" fill="white" stroke="#C09300" stroke-width="0.09" stroke-linecap="round" stroke-linejoin="round"/>
<path d="M404.33 275.597C404.325 275.595 404.322 275.588 404.324 275.582C404.325 275.572 404.33 275.568 404.335 275.571C404.339 275.571 404.344 275.579 404.344 275.582L404.34 275.592L404.338 275.594C404.338 275.597 404.334 275.597 404.33 275.597ZM404.924 275.653C404.922 275.653 404.917 275.646 404.917 275.643C404.917 275.637 404.924 275.628 404.928 275.628L404.937 275.634C404.94 275.638 404.94 275.647 404.936 275.651C404.934 275.654 404.927 275.654 404.924 275.651V275.653ZM404.927 275.689C404.923 275.686 404.922 275.683 404.921 275.677C404.921 275.67 404.921 275.669 404.926 275.664L404.93 275.661L404.935 275.664C404.939 275.667 404.942 275.67 404.942 275.676C404.942 275.68 404.939 275.684 404.935 275.687C404.931 275.69 404.93 275.69 404.927 275.687V275.689Z" fill="#C09300"/>
<path d="M404.379 275.53C404.375 275.53 404.369 275.536 404.366 275.539C404.359 275.54 404.351 275.546 404.344 275.539C404.338 275.538 404.329 275.539 404.328 275.551C404.329 275.561 404.339 275.565 404.345 275.559C404.35 275.552 404.362 275.546 404.364 275.559C404.358 275.571 404.359 275.584 404.355 275.594C404.355 275.601 404.352 275.607 404.35 275.612C404.344 275.612 404.339 275.612 404.335 275.617C404.331 275.617 404.328 275.618 404.325 275.62C404.322 275.622 404.319 275.625 404.317 275.628C404.313 275.637 404.309 275.645 404.308 275.657C404.309 275.666 404.318 275.669 404.325 275.67L404.346 275.679L404.381 275.692C404.398 275.699 404.416 275.702 404.433 275.707L404.438 275.709C404.446 275.712 404.449 275.702 404.449 275.694L404.46 275.643C404.462 275.635 404.465 275.621 404.455 275.624C404.45 275.628 404.445 275.635 404.438 275.635C404.428 275.635 404.434 275.65 404.438 275.654C404.438 275.663 404.436 275.673 404.433 275.68C404.426 275.684 404.42 275.68 404.413 275.677C404.408 275.677 404.395 275.673 404.4 275.663L404.406 275.637C404.409 275.628 404.409 275.618 404.411 275.608C404.407 275.598 404.4 275.612 404.395 275.614C404.391 275.617 404.378 275.618 404.384 275.628C404.391 275.634 404.386 275.644 404.384 275.653C404.384 275.663 404.376 275.667 404.369 275.663C404.363 275.663 404.353 275.656 404.358 275.647L404.364 275.621L404.371 275.592C404.371 275.582 404.375 275.575 404.378 275.566C404.378 275.556 404.383 275.548 404.383 275.538C404.383 275.533 404.381 275.532 404.379 275.532V275.53ZM404.339 275.635C404.339 275.635 404.34 275.635 404.341 275.635C404.341 275.635 404.342 275.635 404.342 275.635C404.344 275.638 404.344 275.641 404.342 275.644L404.339 275.647C404.334 275.647 404.332 275.645 404.332 275.643C404.332 275.641 404.332 275.64 404.336 275.638C404.337 275.637 404.338 275.636 404.34 275.635H404.339ZM404.328 275.707C404.323 275.702 404.324 275.697 404.331 275.689C404.336 275.686 404.337 275.686 404.341 275.69C404.348 275.697 404.348 275.702 404.341 275.709C404.339 275.712 404.338 275.712 404.336 275.712C404.332 275.712 404.331 275.712 404.328 275.709V275.707ZM404.36 275.722C404.358 275.721 404.356 275.719 404.355 275.716C404.354 275.713 404.353 275.709 404.354 275.706C404.356 275.7 404.357 275.699 404.364 275.699C404.371 275.699 404.372 275.7 404.373 275.709C404.373 275.715 404.373 275.716 404.37 275.719C404.369 275.72 404.368 275.721 404.366 275.722C404.365 275.722 404.363 275.722 404.362 275.722H404.36ZM405.323 275.722C405.321 275.72 405.32 275.719 405.32 275.715C405.32 275.709 405.322 275.704 405.328 275.702C405.335 275.697 405.339 275.697 405.341 275.704C405.345 275.713 405.345 275.716 405.34 275.722C405.338 275.726 405.337 275.726 405.332 275.726C405.326 275.726 405.325 275.726 405.323 275.723V275.722ZM404.406 275.739C404.401 275.739 404.399 275.733 404.399 275.728C404.399 275.723 404.399 275.722 404.401 275.719L404.408 275.716L404.414 275.717C404.42 275.723 404.421 275.729 404.418 275.735C404.414 275.74 404.411 275.74 404.405 275.739H404.406ZM404.641 275.753L404.639 275.749C404.639 275.74 404.639 275.733 404.641 275.725C404.642 275.717 404.641 275.71 404.643 275.703L404.648 275.663C404.648 275.656 404.648 275.648 404.65 275.643C404.651 275.631 404.65 275.621 404.652 275.611C404.652 275.607 404.655 275.597 404.658 275.602C404.663 275.611 404.668 275.617 404.673 275.624C404.678 275.628 404.673 275.634 404.67 275.635C404.666 275.637 404.665 275.644 404.665 275.65L404.663 275.667C404.663 275.677 404.663 275.686 404.66 275.696L404.659 275.722L404.657 275.739C404.657 275.745 404.657 275.752 404.653 275.755C404.65 275.758 404.644 275.758 404.642 275.753H404.641ZM404.962 275.612L404.948 275.63C404.941 275.637 404.953 275.64 404.954 275.645C404.956 275.654 404.956 275.663 404.956 275.671C404.958 275.68 404.959 275.687 404.958 275.696C404.958 275.706 404.95 275.703 404.945 275.709C404.94 275.712 404.938 275.719 404.935 275.723C404.932 275.73 404.931 275.738 404.93 275.746C404.93 275.753 404.927 275.761 404.93 275.766L404.931 275.769H404.937L404.953 275.768C404.966 275.765 404.98 275.765 404.993 275.763L405.017 275.761C405.023 275.762 405.026 275.753 405.026 275.746C405.022 275.736 405.025 275.726 405.022 275.717C405.02 275.706 405.021 275.696 405.02 275.686C405.02 275.677 405.012 275.674 405.009 275.68C405.005 275.686 404.998 275.687 404.996 275.693C404.993 275.702 405.003 275.702 405.005 275.707L405.006 275.729C405.007 275.738 405 275.738 404.995 275.739C404.99 275.742 404.982 275.743 404.979 275.735C404.977 275.728 404.977 275.72 404.977 275.713C404.977 275.699 404.973 275.687 404.973 275.674C404.973 275.66 404.97 275.644 404.97 275.628C404.97 275.621 404.969 275.611 404.962 275.612ZM404.955 275.73H404.958V275.742L404.955 275.743C404.954 275.744 404.952 275.744 404.951 275.745C404.95 275.745 404.949 275.745 404.949 275.745C404.946 275.742 404.946 275.738 404.95 275.733L404.955 275.73ZM404.631 275.598C404.628 275.598 404.623 275.608 404.618 275.607C404.609 275.608 404.61 275.621 404.617 275.625V275.637C404.618 275.648 404.613 275.658 404.614 275.67C404.614 275.681 404.611 275.694 404.611 275.707C404.608 275.72 404.608 275.733 404.607 275.746C404.605 275.758 404.599 275.753 404.594 275.751V275.736C404.595 275.723 404.588 275.72 404.581 275.719C404.573 275.719 404.57 275.712 404.572 275.703C404.575 275.697 404.583 275.699 404.588 275.699C404.599 275.702 404.598 275.683 404.592 275.676C404.588 275.667 404.58 275.661 404.577 275.653C404.577 275.641 404.572 275.628 404.564 275.622C404.553 275.621 404.543 275.634 404.54 275.648C404.534 275.648 404.529 275.651 404.525 275.654C404.517 275.657 404.506 275.674 404.517 275.681C404.522 275.683 404.541 275.689 404.532 275.699C404.528 275.71 404.519 275.71 404.512 275.707C404.504 275.707 404.495 275.702 404.495 275.69C404.494 275.679 404.494 275.667 404.491 275.657C404.489 275.645 404.479 275.648 404.478 275.66C404.471 275.667 404.472 275.68 404.477 275.689C404.48 275.699 404.477 275.712 404.474 275.72C404.472 275.735 404.461 275.735 404.453 275.738C404.45 275.74 404.436 275.738 404.441 275.748C404.45 275.753 404.459 275.754 404.467 275.752C404.476 275.752 404.484 275.742 404.489 275.732C404.494 275.725 404.504 275.729 404.513 275.729C404.52 275.729 404.529 275.736 404.537 275.73C404.54 275.723 404.55 275.709 404.554 275.723C404.554 275.736 404.561 275.742 404.57 275.74C404.58 275.74 404.575 275.749 404.575 275.758C404.575 275.771 404.583 275.778 404.591 275.784H404.6C404.608 275.779 404.616 275.775 404.619 275.763C404.623 275.753 404.623 275.742 404.625 275.732C404.627 275.716 404.629 275.699 404.629 275.683C404.632 275.669 404.631 275.653 404.634 275.637L404.637 275.604C404.637 275.597 404.635 275.597 404.631 275.598ZM404.559 275.657C404.56 275.657 404.561 275.66 404.561 275.664C404.561 275.67 404.563 275.674 404.567 275.676V275.68L404.558 275.683C404.553 275.683 404.548 275.68 404.545 275.676L404.543 275.673L404.546 275.67L404.551 275.663C404.555 275.658 404.557 275.657 404.559 275.657ZM405.271 275.543C405.265 275.544 405.259 275.545 405.253 275.548C405.242 275.548 405.237 275.562 405.248 275.571C405.254 275.592 405.264 275.565 405.274 275.568C405.29 275.571 405.291 275.594 405.294 275.611C405.294 275.627 405.298 275.643 405.301 275.658C405.312 275.674 405.294 275.684 405.286 275.673C405.28 275.663 405.265 275.651 405.257 275.664C405.248 275.67 405.246 275.687 405.239 275.693C405.226 275.697 405.225 275.676 405.217 275.667C405.211 275.654 405.199 275.653 405.189 275.65C405.185 275.637 405.187 275.615 405.178 275.607C405.17 275.611 405.155 275.631 405.168 275.641C405.178 275.656 405.162 275.661 405.157 275.67C405.148 275.683 405.146 275.699 405.146 275.713C405.132 275.723 405.13 275.702 405.128 275.689C405.128 275.673 405.117 275.677 405.109 275.683C405.099 275.689 405.094 275.702 405.088 275.712V275.74C405.09 275.753 405.101 275.748 405.107 275.746C405.118 275.74 405.122 275.756 405.114 275.765C405.107 275.774 405.09 275.769 405.092 275.785H405.109C405.12 275.781 405.133 275.769 405.134 275.752C405.136 275.738 405.153 275.739 405.161 275.736C405.172 275.732 405.186 275.73 405.189 275.751C405.197 275.761 405.213 275.772 405.222 275.758C405.226 275.754 405.229 275.749 405.231 275.743C405.233 275.738 405.234 275.731 405.233 275.725C405.232 275.713 405.248 275.713 405.252 275.72C405.257 275.732 405.274 275.729 405.283 275.72C405.292 275.713 405.294 275.697 405.307 275.697L405.365 275.676C405.38 275.671 405.363 275.658 405.359 275.65C405.348 275.643 405.337 275.674 405.324 275.658C405.313 275.648 405.314 275.63 405.311 275.614C405.308 275.594 405.309 275.571 405.298 275.556C405.292 275.546 405.281 275.543 405.271 275.543ZM405.198 275.68C405.199 275.68 405.201 275.68 405.203 275.683C405.208 275.686 405.211 275.692 405.211 275.697C405.211 275.7 405.211 275.7 405.208 275.702L405.202 275.704C405.2 275.704 405.195 275.7 405.195 275.697V275.692C405.192 275.686 405.192 275.686 405.195 275.683L405.198 275.68ZM405.268 275.686C405.272 275.686 405.274 275.686 405.277 275.69C405.278 275.696 405.277 275.699 405.272 275.702L405.267 275.704L405.263 275.7C405.26 275.699 405.259 275.697 405.259 275.694C405.259 275.69 405.264 275.686 405.268 275.684V275.686ZM405.171 275.686C405.173 275.686 405.174 275.686 405.175 275.689C405.177 275.692 405.178 275.693 405.178 275.697V275.706C405.178 275.71 405.178 275.709 405.172 275.709C405.166 275.709 405.164 275.709 405.164 275.7C405.164 275.694 405.164 275.693 405.168 275.69C405.169 275.687 405.171 275.687 405.172 275.687L405.171 275.686ZM405.113 275.707C405.114 275.708 405.115 275.709 405.115 275.71C405.116 275.711 405.117 275.712 405.117 275.713C405.117 275.717 405.117 275.72 405.115 275.722C405.112 275.723 405.106 275.725 405.104 275.722C405.104 275.721 405.104 275.721 405.104 275.72C405.102 275.719 405.102 275.717 405.104 275.716V275.715L405.106 275.71C405.107 275.709 405.108 275.708 405.109 275.707C405.11 275.707 405.111 275.707 405.113 275.707ZM405.212 275.725L405.217 275.726V275.735H405.204L405.203 275.732C405.203 275.729 405.203 275.728 405.205 275.726L405.212 275.725ZM405.027 275.794C405.026 275.794 405.024 275.792 405.026 275.791C405.027 275.787 405.032 275.785 405.035 275.782C405.041 275.779 405.046 275.774 405.05 275.768C405.05 275.762 405.054 275.759 405.054 275.753L405.053 275.733C405.052 275.727 405.049 275.722 405.045 275.719C405.041 275.717 405.037 275.716 405.036 275.71C405.036 275.706 405.039 275.702 405.04 275.697L405.047 275.68C405.05 275.676 405.054 275.68 405.055 275.683L405.061 275.697C405.064 275.702 405.066 275.706 405.067 275.712C405.069 275.717 405.072 275.722 405.072 275.726L405.074 275.745C405.074 275.752 405.074 275.761 405.072 275.768L405.065 275.779C405.062 275.784 405.059 275.788 405.054 275.789C405.051 275.791 405.049 275.795 405.045 275.795H405.028L405.027 275.794ZM404.953 275.799C404.951 275.797 404.95 275.795 404.95 275.791C404.95 275.787 404.95 275.787 404.953 275.782C404.957 275.776 404.959 275.776 404.968 275.782C404.976 275.788 404.979 275.788 404.979 275.784C404.98 275.781 404.984 275.776 404.99 275.776C404.992 275.777 404.994 275.778 404.995 275.779C404.997 275.782 404.998 275.784 404.998 275.789C404.998 275.797 404.998 275.797 404.995 275.801C404.992 275.804 404.992 275.804 404.987 275.804C404.986 275.804 404.984 275.803 404.982 275.801C404.981 275.8 404.979 275.798 404.979 275.795C404.979 275.792 404.979 275.791 404.977 275.794L404.975 275.795C404.972 275.795 404.968 275.799 404.966 275.802L404.96 275.804C404.956 275.804 404.956 275.804 404.953 275.799ZM404.739 275.671C404.732 275.671 404.724 275.68 404.723 275.69C404.725 275.7 404.732 275.712 404.727 275.722C404.731 275.736 404.719 275.742 404.711 275.735C404.707 275.72 404.705 275.706 404.697 275.692C404.689 275.689 404.685 275.707 404.679 275.715C404.682 275.725 404.691 275.735 404.692 275.748C404.694 275.762 404.687 275.776 404.68 275.782C404.672 275.792 404.662 275.789 404.653 275.791C404.642 275.799 404.66 275.802 404.666 275.802C404.677 275.804 404.689 275.802 404.698 275.791C404.706 275.787 404.705 275.766 404.714 275.765L404.766 275.769C404.775 275.772 404.789 275.768 404.795 275.776C404.795 275.791 404.806 275.802 404.816 275.808C404.821 275.811 404.827 275.801 404.832 275.799C404.843 275.795 404.84 275.778 404.846 275.771H404.9C404.902 275.771 404.903 275.763 404.907 275.761L404.904 275.733C404.901 275.722 404.904 275.707 404.899 275.697C404.889 275.694 404.882 275.704 404.873 275.706C404.862 275.712 404.855 275.725 404.854 275.739C404.848 275.752 404.839 275.736 404.843 275.725L404.842 275.71C404.836 275.703 404.827 275.706 404.819 275.704L404.787 275.702C404.776 275.702 404.766 275.703 404.758 275.7C404.747 275.7 404.747 275.686 404.747 275.674C404.745 275.672 404.742 275.671 404.739 275.671ZM404.761 275.725L404.772 275.726H404.786C404.796 275.729 404.807 275.729 404.818 275.729C404.82 275.729 404.822 275.732 404.825 275.735V275.763C404.825 275.768 404.825 275.774 404.822 275.775C404.822 275.776 404.821 275.777 404.82 275.778C404.819 275.777 404.817 275.777 404.816 275.775C404.814 275.774 404.813 275.773 404.813 275.771V275.751C404.81 275.748 404.808 275.747 404.805 275.746L404.777 275.745L404.755 275.743C404.752 275.742 404.748 275.743 404.746 275.738C404.744 275.735 404.747 275.729 404.75 275.728C404.753 275.725 404.757 275.725 404.761 275.725ZM404.883 275.729C404.884 275.729 404.885 275.729 404.885 275.733L404.887 275.74C404.887 275.742 404.887 275.743 404.885 275.743C404.88 275.746 404.874 275.746 404.872 275.743C404.872 275.742 404.872 275.736 404.874 275.735L404.883 275.729Z" fill="#C09300"/>
<path d="M404.835 274.915C405.187 274.555 405.157 274.025 405.157 274.025L405.13 274.028C405.055 274.028 404.879 273.971 404.838 273.9C404.795 273.965 404.614 274.03 404.54 274.03L404.513 274.025C404.513 274.025 404.482 274.553 404.835 274.915Z" fill="white" stroke="#C09300" stroke-width="0.11"/>
<path d="M405.128 274.063H405.119C405.053 274.063 404.897 274.018 404.837 273.949C404.774 274.012 404.615 274.064 404.55 274.064C404.547 274.064 404.544 274.064 404.541 274.063C404.542 274.154 404.551 274.244 404.569 274.332C404.612 274.543 404.705 274.73 404.835 274.866C404.964 274.73 405.057 274.542 405.1 274.33C405.118 274.243 405.127 274.153 405.128 274.063Z" fill="white" stroke="#C09300" stroke-width="0.09"/>
<path d="M404.72 274.02C404.662 274.045 404.602 274.059 404.541 274.063L404.542 274.122C404.546 274.192 404.555 274.262 404.569 274.33C404.598 274.472 404.65 274.603 404.72 274.716V274.02ZM404.942 274.02V274.728C405.016 274.612 405.07 274.477 405.1 274.33C405.114 274.262 405.123 274.192 405.127 274.122L405.128 274.064H405.119C405.078 274.064 405.007 274.047 404.942 274.018V274.02Z" fill="#C09300"/>
<path d="M404.968 273.847C404.975 273.848 404.958 273.797 404.958 273.797C404.977 273.823 405.049 273.83 405.049 273.83C405.005 273.804 404.962 273.612 404.968 273.458C404.972 273.306 404.951 273.246 404.935 273.223C404.914 273.194 404.843 273.168 404.798 273.165C404.771 273.164 404.777 273.191 404.777 273.191C404.728 273.175 404.679 273.168 404.658 273.188C404.638 273.205 404.634 273.296 404.649 273.28C404.685 273.241 404.716 273.277 404.738 273.319C404.757 273.355 404.756 273.458 404.728 273.581C404.703 273.673 404.667 273.759 404.62 273.835C404.663 273.835 404.724 273.785 404.724 273.785L404.71 273.864C404.755 273.835 404.791 273.791 404.791 273.791L404.834 273.851C404.848 273.825 404.877 273.791 404.877 273.791C404.877 273.791 404.913 273.841 404.968 273.848V273.847Z" fill="white" stroke="#C09300" stroke-width="0.12"/>
<path d="M404.793 273.482C404.793 273.482 404.769 273.718 404.724 273.784M404.832 273.474C404.832 273.474 404.821 273.715 404.791 273.791M404.865 273.484C404.865 273.484 404.865 273.747 404.876 273.791M404.908 273.497C404.908 273.497 404.917 273.718 404.958 273.797" stroke="#C09300" stroke-width="0.13"/>
<path d="M404.748 273.366C404.747 273.349 404.744 273.333 404.738 273.319C404.716 273.276 404.685 273.241 404.649 273.28C404.649 273.28 404.661 273.23 404.688 273.228C404.708 273.227 404.754 273.248 404.795 273.34C404.795 273.34 404.765 273.332 404.757 273.34C404.744 273.355 404.749 273.366 404.749 273.366H404.748Z" fill="#C09300" stroke="#C09300" stroke-width="0.03"/>
<path d="M404.645 273.218C404.648 273.204 404.652 273.192 404.659 273.188C404.68 273.168 404.728 273.174 404.776 273.191C404.776 273.191 404.772 273.164 404.798 273.165C404.843 273.168 404.913 273.194 404.934 273.223C404.941 273.233 404.947 273.244 404.95 273.257C404.94 273.237 404.909 273.238 404.902 273.24C404.891 273.241 404.883 273.24 404.868 273.246C404.861 273.249 404.85 273.251 404.843 273.257C404.839 273.263 404.835 273.28 404.828 273.28C404.817 273.28 404.817 273.277 404.814 273.273C404.811 273.266 404.809 273.257 404.805 273.259C404.794 273.26 404.774 273.249 404.75 273.223C404.726 273.197 404.716 273.191 404.686 273.194C404.653 273.197 404.645 273.221 404.645 273.221V273.218Z" fill="#C09300" stroke="#C09300" stroke-width="0.03"/>
<path d="M404.822 273.256C404.829 273.256 404.835 273.248 404.835 273.238C404.835 273.229 404.829 273.221 404.822 273.221C404.814 273.221 404.809 273.229 404.809 273.238C404.809 273.248 404.814 273.256 404.822 273.256Z" fill="white"/>
</g>
<path d="M436.776 620.986C437.997 620.986 439.168 620.501 440.032 619.638C440.895 618.774 441.38 617.603 441.38 616.382C441.38 615.161 440.895 613.99 440.032 613.127C439.168 612.263 437.997 611.778 436.776 611.778C435.555 611.778 434.384 612.263 433.52 613.127C432.657 613.99 432.172 615.161 432.172 616.382C432.172 617.603 432.657 618.774 433.52 619.638C434.384 620.501 435.555 620.986 436.776 620.986ZM436.776 620.986V634.799" stroke="#F35E19" stroke-width="2.66667"/>
<g clip-path="url(#clip10_2278_3236)">
<mask id="mask4_2278_3236" style="mask-type:luminance" maskUnits="userSpaceOnUse" x="432" y="612" width="10" height="9">
<path d="M432.46 612.066H441.093V620.699H432.46V612.066Z" fill="white"/>
</mask>
<g mask="url(#mask4_2278_3236)">
<path fill-rule="evenodd" clip-rule="evenodd" d="M432.46 618.942V613.826L435.317 616.384L432.459 618.942H432.46Z" fill="black"/>
<path fill-rule="evenodd" clip-rule="evenodd" d="M434.409 620.7L437.616 617.824H442.171V620.698H434.409V620.7Z" fill="#0000CC"/>
<path fill-rule="evenodd" clip-rule="evenodd" d="M434.204 612.066H442.171V614.946H437.615C437.615 614.946 434.246 612.037 434.204 612.066Z" fill="#FF0000"/>
<path fill-rule="evenodd" clip-rule="evenodd" d="M432.46 613.145V613.826L435.317 616.382L432.459 618.942V619.621L436.057 616.384L432.459 613.145H432.46Z" fill="#FFCC00"/>
<path fill-rule="evenodd" clip-rule="evenodd" d="M432.46 613.145V612.066H433.661L437.47 615.505H442.172V617.262H437.47L433.66 620.699H432.46V619.621L436.056 616.384L432.461 613.145H432.46Z" fill="#009933"/>
<path fill-rule="evenodd" clip-rule="evenodd" d="M433.66 612.066H434.409L437.616 614.944H442.171V615.505H437.47L433.66 612.068V612.066ZM433.66 620.7H434.409L437.616 617.824H442.171V617.264H437.47L433.66 620.699V620.7Z" fill="white"/>
</g>
</g>
<path d="M319.371 423.295C320.592 423.295 321.763 422.81 322.626 421.947C323.49 421.083 323.975 419.912 323.975 418.691C323.975 417.47 323.49 416.299 322.626 415.436C321.763 414.572 320.592 414.087 319.371 414.087C318.15 414.087 316.979 414.572 316.115 415.436C315.252 416.299 314.767 417.47 314.767 418.691C314.767 419.912 315.252 421.083 316.115 421.947C316.979 422.81 318.15 423.295 319.371 423.295ZM319.371 423.295V437.108" stroke="#F35E19" stroke-width="2.66667"/>
<g clip-path="url(#clip11_2278_3236)">
<path fill-rule="evenodd" clip-rule="evenodd" d="M315.055 414.375H323.687V423.008H315.055V414.375Z" fill="white"/>
<path fill-rule="evenodd" clip-rule="evenodd" d="M320.809 414.375H323.687V423.008H320.809V414.375ZM315.055 414.375H317.932V423.008H315.055V414.375Z" fill="#008753"/>
</g>
<path d="M193.332 398.26C194.553 398.26 195.724 397.775 196.587 396.912C197.451 396.048 197.936 394.877 197.936 393.656C197.936 392.435 197.451 391.264 196.587 390.4C195.724 389.537 194.553 389.052 193.332 389.052C192.111 389.052 190.94 389.537 190.076 390.4C189.213 391.264 188.728 392.435 188.728 393.656C188.728 394.877 189.213 396.048 190.076 396.912C190.94 397.775 192.111 398.26 193.332 398.26ZM193.332 398.26V412.073" stroke="#F35E19" stroke-width="2.66667"/>
<g clip-path="url(#clip12_2278_3236)">
<path fill-rule="evenodd" clip-rule="evenodd" d="M189.016 389.34H191.893V397.972H189.016V389.34Z" fill="#0B7226"/>
<path fill-rule="evenodd" clip-rule="evenodd" d="M191.893 389.34H194.77V397.972H191.893V389.34Z" fill="#FFFF00"/>
<path fill-rule="evenodd" clip-rule="evenodd" d="M194.77 389.34H197.648V397.972H194.77V389.34Z" fill="#BC0000"/>
<path d="M193.628 393.275H194.597L193.834 394.059L194.113 395.305L193.349 394.521L192.586 395.269L192.865 394.059L192.102 393.275H193.043L193.349 391.992L193.628 393.275Z" fill="#0B7226"/>
</g>
<path d="M287.429 395.67C288.65 395.67 289.822 395.185 290.685 394.322C291.548 393.458 292.034 392.287 292.034 391.066C292.034 389.845 291.548 388.674 290.685 387.811C289.822 386.947 288.65 386.462 287.429 386.462C286.208 386.462 285.037 386.947 284.174 387.811C283.31 388.674 282.825 389.845 282.825 391.066C282.825 392.287 283.31 393.458 284.174 394.322C285.037 395.185 286.208 395.67 287.429 395.67ZM287.429 395.67V409.483" stroke="#F35E19" stroke-width="2.66667"/>
<g opacity="0.8">
<g clip-path="url(#clip13_2278_3236)">
<path fill-rule="evenodd" clip-rule="evenodd" d="M291.746 395.375H283.118V386.75H291.746V395.375Z" fill="#DE0000"/>
<path fill-rule="evenodd" clip-rule="evenodd" d="M291.741 395.383H283.113V391.07H291.741V395.383Z" fill="#35A100"/>
<path fill-rule="evenodd" clip-rule="evenodd" d="M286.548 391.717L285.118 390.415H286.885L287.43 388.307L287.975 390.419L289.742 390.417L288.312 391.719L288.859 393.829L287.429 392.523L286 393.825" fill="#FFF300"/>
</g>
</g>
<g clip-path="url(#clip14_2278_3236)">
<path d="M446.273 516.529C447.494 516.529 448.665 516.044 449.529 515.181C450.392 514.317 450.877 513.146 450.877 511.925C450.877 510.704 450.392 509.533 449.529 508.67C448.665 507.806 447.494 507.321 446.273 507.321C445.052 507.321 443.881 507.806 443.017 508.67C442.154 509.533 441.669 510.704 441.669 511.925C441.669 513.146 442.154 514.317 443.017 515.181C443.881 516.044 445.052 516.529 446.273 516.529ZM446.273 516.529V530.342" stroke="#F35E19" stroke-width="2.66667"/>
<g clip-path="url(#clip15_2278_3236)">
<mask id="mask5_2278_3236" style="mask-type:luminance" maskUnits="userSpaceOnUse" x="441" y="507" width="10" height="10">
<path d="M441.957 507.609H450.59V516.242H441.957V507.609Z" fill="white"/>
</mask>
<g mask="url(#mask5_2278_3236)">
<path fill-rule="evenodd" clip-rule="evenodd" d="M440.879 507.609H450.591V516.242H440.879V507.609Z" fill="#198A00"/>
<path fill-rule="evenodd" clip-rule="evenodd" d="M446.85 511.065H447.989V516.596H446.85V511.065Z" fill="#EF7D00"/>
<path fill-rule="evenodd" clip-rule="evenodd" d="M445.711 511.062H446.849V516.592H445.711V511.062Z" fill="black"/>
<path fill-rule="evenodd" clip-rule="evenodd" d="M444.549 511.065H445.711V516.596H444.548L444.549 511.065Z" fill="#DE2010"/>
<path fill-rule="evenodd" clip-rule="evenodd" d="M447.148 508.823C447.148 508.823 447.578 508.579 447.619 508.528C447.638 508.559 447.447 508.866 447.076 508.979C447.413 508.874 447.7 508.54 447.759 508.55C447.776 508.555 447.772 508.876 447 509.154C447.534 508.968 447.844 508.624 447.84 508.662C447.844 508.67 447.787 508.931 447.32 509.135C447.451 509.095 447.805 508.808 447.801 508.864C447.812 508.886 447.459 509.491 446.82 509.294C447.33 509.471 447.66 509.044 447.707 509.053C447.717 509.054 447.614 509.424 446.971 509.447C447.279 509.405 447.19 509.446 447.19 509.446C447.19 509.446 447.009 509.634 446.789 509.506C446.961 509.569 446.98 509.572 446.984 509.591C446.973 509.618 446.832 509.655 446.694 509.557C446.804 509.618 446.903 509.628 446.904 509.65C446.903 509.656 446.833 509.71 446.77 509.671C446.708 509.634 446.134 509.164 446.134 509.164L447.113 508.805L447.148 508.822V508.823ZM445.998 510.098C445.912 510.098 445.909 510.199 445.909 510.199C445.909 510.199 445.903 510.208 445.906 510.257L445.928 510.213C445.938 510.214 445.977 510.23 446.039 510.166C445.982 510.245 446.017 510.273 446.017 510.273C446.017 510.273 446.004 510.336 446.047 510.348C446.034 510.322 446.042 510.3 446.042 510.3C446.042 510.3 446.102 510.292 446.099 510.194C446.1 510.284 446.137 510.305 446.137 510.305C446.137 510.305 446.137 510.354 446.176 510.359C446.156 510.334 446.159 510.295 446.159 510.295C446.159 510.295 446.21 510.245 446.168 510.16C446.194 510.14 446.215 510.085 446.215 510.085C446.215 510.085 446.18 510.064 446.163 510.047C446.156 510.026 446.163 509.904 446.163 509.904L446.14 509.747L446.08 509.992C446.082 509.958 446.084 510.098 445.998 510.098Z" fill="#EF7D00" stroke="black" stroke-width="0.117188" stroke-linejoin="round"/>
<path fill-rule="evenodd" clip-rule="evenodd" d="M446.423 509.746C446.425 509.747 446.487 509.84 446.548 509.835C446.571 509.81 446.501 509.756 446.501 509.742C446.527 509.773 446.629 509.891 446.696 509.848C446.721 509.798 446.648 509.806 446.567 509.67C446.624 509.72 446.766 509.83 446.833 509.788C446.859 509.747 446.685 509.621 446.625 509.523L446.473 509.42L446.269 509.644L446.424 509.746H446.423Z" fill="#EF7D00" stroke="black" stroke-width="0.117188" stroke-linejoin="round"/>
<path fill-rule="evenodd" clip-rule="evenodd" d="M446.191 508.978C446.191 508.978 446.261 508.924 446.54 508.951C446.571 508.956 446.73 508.879 446.782 508.855C446.863 508.835 447.123 508.761 447.192 508.69C447.242 508.682 447.179 508.81 447.116 508.842C447.05 508.881 446.811 508.992 446.725 508.977C446.827 508.978 446.771 509.09 446.601 509.037C446.682 509.098 446.652 509.108 446.652 509.108C446.652 509.108 446.509 509.118 446.471 509.075C446.567 509.123 446.527 509.142 446.527 509.142C446.527 509.142 446.429 509.154 446.384 509.125C446.453 509.154 446.418 509.171 446.418 509.171C446.418 509.171 446.361 509.184 446.314 509.161C446.266 509.139 446.195 508.98 446.191 508.98V508.978Z" fill="#EF7D00" stroke="black" stroke-width="0.117188" stroke-linecap="round" stroke-linejoin="round"/>
<path fill-rule="evenodd" clip-rule="evenodd" d="M446.303 509.798L446.313 510.044L446.303 510.064C446.299 510.071 446.173 510.037 446.189 510.166C446.189 510.22 446.189 510.233 446.217 510.262C446.21 510.228 446.212 510.203 446.212 510.203C446.212 510.203 446.248 510.231 446.283 510.152C446.259 510.23 446.275 510.258 446.281 510.26C446.286 510.273 446.271 510.336 446.319 510.334C446.3 510.311 446.309 510.277 446.309 510.277C446.309 510.277 446.36 510.267 446.342 510.147C446.36 510.123 446.367 510.147 446.367 510.147C446.367 510.147 446.372 510.218 446.417 510.203C446.436 510.218 446.413 510.257 446.413 510.257C446.413 510.257 446.444 510.257 446.455 510.223C446.463 510.186 446.475 510.122 446.423 510.095C446.417 510.069 446.443 510.068 446.443 510.068C446.443 510.068 446.476 510.083 446.486 510.105C446.496 510.127 446.492 510.048 446.451 510.037C446.4 510.037 446.398 510.022 446.398 510.021L446.385 509.79L446.303 509.798Z" fill="#EF7D00" stroke="black" stroke-width="0.117188" stroke-linejoin="round"/>
<path fill-rule="evenodd" clip-rule="evenodd" d="M446.479 510.007C446.479 509.995 446.393 509.84 446.415 509.821C446.437 509.827 446.472 509.897 446.503 509.874C446.494 509.847 446.467 509.862 446.438 509.791C446.408 509.71 446.404 509.59 446.299 509.461C446.367 509.599 446.519 509.68 446.527 509.639C446.534 509.599 446.391 509.447 446.399 509.41C446.427 509.484 446.568 509.653 446.672 509.639C446.68 509.606 446.587 509.542 446.563 509.481C446.496 509.42 446.318 509.216 446.315 509.169C446.284 509.098 446.241 509.037 446.19 508.99C446.186 508.982 446.182 508.972 446.18 508.962C446.14 508.835 446.193 508.793 446.224 508.788C446.25 508.783 446.257 508.788 446.275 508.776L446.21 508.742C446.24 508.771 446.312 508.746 446.296 508.827C446.328 508.81 446.396 508.702 446.219 508.678C446.161 508.591 445.925 508.54 445.865 508.924C445.87 508.93 445.873 508.935 445.888 508.948C445.812 508.901 445.611 508.864 445.539 508.847C445.342 508.773 445.138 508.591 445.119 508.613C445.094 508.629 445.238 508.808 445.23 508.812C445.118 508.726 445.002 508.65 444.883 508.582C444.807 508.545 444.732 508.457 444.725 508.474C444.697 508.55 444.845 508.742 444.873 508.764C444.9 508.786 445.117 508.921 445.113 508.923C444.787 508.726 444.733 508.688 444.716 508.667C444.687 508.658 444.617 508.532 444.598 508.54C444.587 508.554 444.608 508.753 444.764 508.844C444.789 508.867 445.098 509.014 445.095 509.026C445.095 509.029 444.741 508.832 444.728 508.823C444.66 508.79 444.577 508.665 444.561 508.678C444.546 508.692 444.599 508.827 444.668 508.869C444.704 508.889 444.842 508.98 444.966 509.037C444.974 509.043 444.742 508.921 444.631 508.86C444.58 508.823 444.558 508.776 444.55 508.786C444.537 508.796 444.568 508.995 444.926 509.107C444.935 509.113 445.052 509.071 445.046 509.076C444.98 509.098 444.913 509.114 444.846 509.123C444.842 509.137 444.869 509.208 445.053 509.194C445.076 509.193 445.205 509.132 445.194 509.144C445.132 509.175 445.07 509.202 445.007 509.226C444.995 509.226 444.936 509.236 444.933 509.243C444.931 509.257 444.978 509.307 445.076 509.314C445.165 509.321 445.332 509.243 445.329 509.248C445.324 509.253 445.167 509.326 445.163 509.329C445.157 509.334 445.1 509.338 445.098 509.344C445.093 509.359 445.181 509.469 445.44 509.351C445.415 509.398 445.289 509.43 445.289 509.439C445.289 509.445 445.316 509.481 445.361 509.494C445.382 509.501 445.413 509.499 445.44 509.494C445.491 509.481 445.542 509.456 445.609 509.373C445.616 509.398 445.443 509.516 445.45 509.526C445.488 509.574 445.614 509.521 445.621 509.515C445.63 509.51 445.861 509.334 445.861 509.312C445.865 509.339 445.562 509.56 445.566 509.569C445.585 509.609 445.688 509.567 445.692 509.562L445.829 509.464C445.832 509.462 445.679 509.582 445.692 509.602C445.686 509.682 445.932 509.548 445.951 509.531C445.96 509.523 445.832 509.606 445.832 509.644C445.874 509.737 446.006 509.709 446.026 509.688C446.036 509.678 446.013 509.756 446.021 509.749C446.036 509.728 446.049 509.703 446.059 509.676C446.056 509.703 446.041 509.744 446.033 509.791C446.025 509.837 446.022 509.891 446.011 509.946C446.008 509.97 446.092 509.897 446.079 509.724C446.087 509.815 446.054 509.983 446.063 509.993C446.079 510.01 446.128 509.909 446.133 509.84C446.147 509.874 446.178 509.946 446.204 509.963C446.202 509.911 446.204 509.913 446.191 509.862C446.199 509.793 446.2 509.698 446.202 509.59C446.272 509.771 446.302 509.848 446.281 509.987C446.303 509.999 446.336 509.889 446.333 509.835C446.341 509.88 446.359 509.921 446.385 509.952C446.411 509.983 446.444 510.002 446.479 510.007Z" fill="#EF7D00" stroke="black" stroke-width="0.128906" stroke-linecap="round" stroke-linejoin="round"/>
<path fill-rule="evenodd" clip-rule="evenodd" d="M445.3 508.859C445.3 508.859 445.251 508.908 445.191 508.904C445.207 508.985 445.331 508.923 445.331 508.923C445.331 508.923 445.271 509.012 445.228 509.026C445.253 509.054 445.362 509.044 445.38 509.031C445.398 509.015 445.43 508.96 445.43 508.96C445.43 508.96 445.319 509.132 445.304 509.13C445.3 509.15 445.419 509.144 445.443 509.113C445.468 509.083 445.532 509.039 445.532 509.039C445.532 509.039 445.367 509.191 445.361 509.191C445.422 509.211 445.544 509.164 445.623 509.1C445.506 509.203 445.496 509.221 445.437 509.257C445.49 509.272 445.516 509.319 445.693 509.216C445.795 509.152 445.853 509.034 445.853 509.034C445.776 509.155 445.683 509.258 445.58 509.337C445.573 509.354 445.698 509.425 445.857 509.204" fill="#EF7D00"/>
<path d="M445.3 508.859C445.3 508.859 445.251 508.908 445.191 508.904C445.207 508.985 445.331 508.923 445.331 508.923C445.331 508.923 445.271 509.012 445.228 509.026C445.253 509.054 445.362 509.044 445.38 509.031C445.398 509.015 445.43 508.96 445.43 508.96C445.43 508.96 445.319 509.132 445.304 509.13C445.3 509.15 445.419 509.144 445.443 509.113C445.468 509.083 445.532 509.039 445.532 509.039C445.532 509.039 445.367 509.191 445.361 509.191C445.422 509.211 445.544 509.164 445.623 509.1C445.506 509.203 445.496 509.221 445.437 509.257C445.49 509.272 445.516 509.319 445.693 509.216C445.795 509.152 445.853 509.034 445.853 509.034C445.776 509.155 445.683 509.258 445.58 509.337C445.573 509.354 445.698 509.425 445.857 509.204" stroke="black" stroke-width="0.128906" stroke-linecap="round" stroke-linejoin="round"/>
<path fill-rule="evenodd" clip-rule="evenodd" d="M446.16 509.336C446.16 509.336 446.171 509.403 446.214 509.454C446.257 509.504 446.259 509.555 446.259 509.555M446.139 508.897C446.139 508.897 446.153 508.96 446.198 508.999C446.243 509.036 446.311 509.157 446.315 509.179C446.32 509.204 446.347 509.391 446.344 509.412M445.866 508.99C445.869 509.015 445.803 509.13 445.894 509.267C445.811 509.402 445.811 509.418 445.811 509.418C445.811 509.418 445.857 509.452 445.94 509.358C446.076 509.58 446.031 509.681 446.031 509.681" fill="#EF7D00"/>
<path d="M446.16 509.336C446.16 509.336 446.171 509.403 446.214 509.454C446.257 509.504 446.259 509.555 446.259 509.555M446.139 508.897C446.139 508.897 446.153 508.96 446.198 508.999C446.243 509.036 446.311 509.157 446.315 509.179C446.32 509.204 446.347 509.391 446.344 509.412M445.866 508.99C445.869 509.015 445.803 509.13 445.894 509.267C445.811 509.402 445.811 509.418 445.811 509.418C445.811 509.418 445.857 509.452 445.94 509.358C446.076 509.58 446.031 509.681 446.031 509.681" stroke="black" stroke-width="0.128906" stroke-linecap="round"/>
<path fill-rule="evenodd" clip-rule="evenodd" d="M446.019 509.525C446.019 509.525 446.006 509.502 446.029 509.412C446.05 509.446 446.072 509.451 446.081 509.463C446.091 509.478 446.195 509.496 446.201 509.589" fill="#EF7D00"/>
<path d="M446.019 509.525C446.019 509.525 446.006 509.502 446.029 509.412C446.05 509.446 446.072 509.451 446.081 509.463C446.091 509.478 446.195 509.496 446.201 509.589" stroke="black" stroke-width="0.128906" stroke-linecap="round" stroke-linejoin="round"/>
<path fill-rule="evenodd" clip-rule="evenodd" d="M446.14 508.687C446.14 508.68 446.119 508.619 446.042 508.693C446.084 508.697 446.124 508.729 446.14 508.687Z" fill="#EF7D00" stroke="black" stroke-width="0.128906"/>
<path fill-rule="evenodd" clip-rule="evenodd" d="M446.876 508.957C446.88 508.96 447.107 509.024 447.183 508.992C447.086 509.164 446.893 509.048 446.893 509.048C446.988 509.085 446.992 509.081 447.022 509.118C447.032 509.152 446.847 509.135 446.788 509.09C446.956 509.161 446.96 509.157 446.965 509.182C446.973 509.221 446.689 509.172 446.665 509.123C446.741 509.201 446.782 509.216 446.823 509.252C446.773 509.282 446.678 509.312 446.505 509.149C446.732 509.425 446.938 509.408 446.971 509.457C446.892 509.614 446.583 509.365 446.441 509.238C446.3 509.112 446.751 509.543 446.793 509.537C446.773 509.579 446.624 509.542 446.613 509.52" fill="#EF7D00"/>
<path d="M446.876 508.957C446.88 508.96 447.107 509.024 447.183 508.992C447.086 509.164 446.893 509.048 446.893 509.048C446.988 509.085 446.992 509.081 447.022 509.118C447.032 509.152 446.847 509.135 446.788 509.09C446.956 509.161 446.96 509.157 446.965 509.182C446.973 509.221 446.689 509.172 446.665 509.123C446.741 509.201 446.782 509.216 446.823 509.252C446.773 509.282 446.678 509.312 446.505 509.149C446.732 509.425 446.938 509.408 446.971 509.457C446.892 509.614 446.583 509.365 446.441 509.238C446.3 509.112 446.751 509.543 446.793 509.537C446.773 509.579 446.624 509.542 446.613 509.52" stroke="black" stroke-width="0.128906" stroke-linejoin="round"/>
<path fill-rule="evenodd" clip-rule="evenodd" d="M446.934 509.247C446.909 509.252 446.83 509.252 446.818 509.248Z" fill="#EF7D00"/>
<path d="M446.934 509.247C446.909 509.252 446.83 509.252 446.818 509.248" stroke="black" stroke-width="0.128906" stroke-linecap="round"/>
<path fill-rule="evenodd" clip-rule="evenodd" d="M445.233 508.813C445.233 508.813 445.405 508.935 445.479 508.926C445.465 508.942 445.448 508.953 445.431 508.96C445.448 508.97 445.499 509.005 445.575 508.984L445.533 509.034C445.533 509.034 445.599 509.068 445.672 509.017C445.66 509.037 445.648 509.058 445.637 509.08L445.689 509.085" fill="#EF7D00"/>
<path d="M445.233 508.813C445.233 508.813 445.405 508.935 445.479 508.926C445.465 508.942 445.448 508.953 445.431 508.96C445.448 508.97 445.499 509.005 445.575 508.984L445.533 509.034C445.533 509.034 445.599 509.068 445.672 509.017C445.66 509.037 445.648 509.058 445.637 509.08L445.689 509.085" stroke="black" stroke-width="0.128906" stroke-linecap="round" stroke-linejoin="round"/>
</g>
</g>
</g>
<path d="M292.609 406.893C293.83 406.893 295.001 406.408 295.865 405.544C296.728 404.681 297.213 403.51 297.213 402.289C297.213 401.068 296.728 399.897 295.865 399.033C295.001 398.17 293.83 397.685 292.609 397.685C291.388 397.685 290.217 398.17 289.353 399.033C288.49 399.897 288.005 401.068 288.005 402.289C288.005 403.51 288.49 404.681 289.353 405.544C290.217 406.408 291.388 406.893 292.609 406.893ZM292.609 406.893V420.706" stroke="#F35E19" stroke-width="2.66667"/>
<g clip-path="url(#clip16_2278_3236)">
<mask id="mask6_2278_3236" style="mask-type:luminance" maskUnits="userSpaceOnUse" x="288" y="397" width="9" height="10">
<path d="M288.287 397.933H296.92V406.566H288.287V397.933Z" fill="white"/>
</mask>
<g mask="url(#mask6_2278_3236)">
<path fill-rule="evenodd" clip-rule="evenodd" d="M287.411 397.933H291.728V406.565H287.411V397.933Z" fill="#319400"/>
<path fill-rule="evenodd" clip-rule="evenodd" d="M291.728 397.933H300.361V402.249H291.728V397.933Z" fill="#FFD600"/>
<path fill-rule="evenodd" clip-rule="evenodd" d="M291.728 402.249H300.361V406.565H291.728V402.249Z" fill="#DE2110"/>
</g>
</g>
<path d="M503.25 406.03C504.471 406.03 505.642 405.545 506.505 404.681C507.369 403.818 507.854 402.647 507.854 401.425C507.854 400.204 507.369 399.033 506.505 398.17C505.642 397.306 504.471 396.821 503.25 396.821C502.029 396.821 500.857 397.306 499.994 398.17C499.131 399.033 498.646 400.204 498.646 401.425C498.646 402.647 499.131 403.818 499.994 404.681C500.857 405.545 502.029 406.03 503.25 406.03ZM503.25 406.03V419.842" stroke="#F35E19" stroke-width="2.66667"/>
<g clip-path="url(#clip17_2278_3236)">
<path d="M498.934 397.109H507.566V405.742H498.934V397.109Z" fill="white"/>
<path d="M498.934 397.109H507.566V399.699H498.934V397.109Z" fill="black"/>
<path d="M498.934 403.152H507.566V405.742H498.934V403.152Z" fill="#006600"/>
<path d="M502.093 403.988L502.166 404.042L504.055 399.672C504.165 399.64 504.225 399.499 504.286 399.359C504.327 399.262 504.488 398.89 504.557 398.404C504.365 398.631 504.203 398.899 504.076 399.197C504.015 399.337 503.954 399.478 503.983 399.623L502.093 403.988Z" fill="black" stroke="black" stroke-width="0.375" stroke-miterlimit="10"/>
<path d="M502.093 403.988L502.166 404.042L504.055 399.672C504.165 399.64 504.225 399.499 504.286 399.359C504.327 399.262 504.488 398.89 504.557 398.404C504.365 398.631 504.203 398.899 504.076 399.197C504.015 399.337 503.954 399.478 503.983 399.623L502.093 403.988Z" fill="white"/>
<path d="M504.407 403.988L504.334 404.042L502.445 399.672C502.335 399.64 502.275 399.499 502.214 399.359C502.173 399.262 502.012 398.89 501.943 398.404C502.135 398.631 502.297 398.899 502.424 399.197C502.485 399.337 502.546 399.478 502.517 399.623L504.407 403.988Z" fill="black" stroke="black" stroke-width="0.375" stroke-miterlimit="10"/>
<path d="M504.407 403.988L504.334 404.042L502.445 399.672C502.335 399.64 502.275 399.499 502.214 399.359C502.173 399.262 502.012 398.89 501.943 398.404C502.135 398.631 502.297 398.899 502.424 399.197C502.485 399.337 502.546 399.478 502.517 399.623L504.407 403.988Z" fill="white"/>
<path d="M507.573 400.13H504.019C503.897 399.699 503.493 398.836 503.25 398.836C503.007 398.836 502.602 399.699 502.481 400.13H498.931V402.72H502.481C502.602 403.152 503.007 404.015 503.25 404.015C503.493 404.015 503.897 403.152 504.019 402.72H507.573V400.13Z" fill="#BB0000"/>
<path d="M504.019 402.72C504.14 402.289 504.221 401.857 504.221 401.425C504.221 400.994 504.14 400.562 504.019 400.13C503.897 400.562 503.816 400.994 503.816 401.425C503.816 401.857 503.897 402.289 504.019 402.72Z" fill="black"/>
<path d="M502.481 402.72C502.36 402.289 502.279 401.857 502.279 401.425C502.279 400.994 502.36 400.562 502.481 400.13C502.603 400.562 502.684 400.994 502.684 401.425C502.684 401.857 502.603 402.289 502.481 402.72Z" fill="black"/>
<path d="M503.25 401.749C503.339 401.749 503.412 401.604 503.412 401.425C503.412 401.247 503.339 401.102 503.25 401.102C503.16 401.102 503.088 401.247 503.088 401.425C503.088 401.604 503.16 401.749 503.25 401.749Z" fill="white"/>
<path d="M503.291 401.738C503.291 401.738 503.453 402.17 503.453 402.871C503.453 403.573 503.291 404.004 503.291 404.004V401.738Z" fill="white"/>
<path d="M503.21 401.112C503.21 401.112 503.048 400.681 503.048 399.979C503.048 399.278 503.21 398.846 503.21 398.846V401.112Z" fill="white"/>
<path d="M503.21 401.738C503.21 401.738 503.048 402.17 503.048 402.871C503.048 403.573 503.21 404.004 503.21 404.004V401.738Z" fill="white"/>
<path d="M503.291 401.112C503.291 401.112 503.453 400.681 503.453 399.979C503.453 399.278 503.291 398.846 503.291 398.846V401.112Z" fill="white"/>
</g>
<path d="M271.026 431.065C272.247 431.065 273.418 430.58 274.282 429.716C275.145 428.853 275.63 427.682 275.63 426.461C275.63 425.24 275.145 424.068 274.282 423.205C273.418 422.342 272.247 421.856 271.026 421.856C269.805 421.856 268.634 422.342 267.77 423.205C266.907 424.068 266.422 425.24 266.422 426.461C266.422 427.682 266.907 428.853 267.77 429.716C268.634 430.58 269.805 431.065 271.026 431.065ZM271.026 431.065V444.877" stroke="#F35E19" stroke-width="2.66667"/>
<g clip-path="url(#clip18_2278_3236)">
<path d="M266.71 422.144H275.343V430.777H266.71V422.144Z" fill="#006B3F"/>
<path d="M266.71 422.144H275.343V427.899H266.71V422.144Z" fill="#FCD116"/>
<path d="M266.71 422.144H275.343V425.022H266.71V422.144Z" fill="#CE1126"/>
<path d="M271.026 425.022L271.727 427.899L269.892 426.121H272.159L270.325 427.899L271.026 425.022Z" fill="black"/>
</g>
<path d="M294.335 259.272C295.556 259.272 296.727 258.787 297.59 257.923C298.454 257.06 298.939 255.889 298.939 254.668C298.939 253.447 298.454 252.276 297.59 251.412C296.727 250.549 295.556 250.064 294.335 250.064C293.114 250.064 291.942 250.549 291.079 251.412C290.216 252.276 289.73 253.447 289.73 254.668C289.73 255.889 290.216 257.06 291.079 257.923C291.942 258.787 293.114 259.272 294.335 259.272ZM294.335 259.272V273.084" stroke="#F35E19" stroke-width="2.66667"/>
<g clip-path="url(#clip19_2278_3236)">
<mask id="mask7_2278_3236" style="mask-type:luminance" maskUnits="userSpaceOnUse" x="290" y="250" width="9" height="9">
<path d="M290.02 250.351H298.651V258.984H290.02V250.351Z" fill="white"/>
</mask>
<g mask="url(#mask7_2278_3236)">
<path fill-rule="evenodd" clip-rule="evenodd" d="M289.479 250.351H299.191V258.984H289.479V250.351Z" fill="#E70013"/>
<path fill-rule="evenodd" clip-rule="evenodd" d="M295.977 254.664C295.977 255.242 295.805 255.795 295.499 256.203C295.193 256.612 294.777 256.841 294.344 256.841C293.911 256.841 293.496 256.612 293.19 256.203C292.884 255.795 292.712 255.242 292.712 254.664C292.712 254.087 292.884 253.533 293.19 253.125C293.496 252.717 293.911 252.488 294.344 252.488C294.777 252.488 295.193 252.717 295.499 253.125C295.805 253.533 295.977 254.087 295.977 254.664Z" fill="white"/>
<path fill-rule="evenodd" clip-rule="evenodd" d="M294.345 256.108C294.064 256.095 293.798 255.937 293.602 255.668C293.407 255.398 293.298 255.038 293.298 254.664C293.298 254.289 293.407 253.929 293.602 253.659C293.798 253.39 294.064 253.232 294.345 253.219C294.494 253.219 294.665 253.267 294.78 253.38C293.988 253.418 293.787 254.315 293.787 254.676C293.787 255.037 293.915 255.841 294.78 255.961C294.681 256.045 294.494 256.108 294.345 256.108Z" fill="#E70013"/>
<path fill-rule="evenodd" clip-rule="evenodd" d="M295.297 255.271L294.805 255.032L294.48 255.578L294.499 254.882L294.009 254.637L294.512 254.445L294.534 253.749L294.827 254.327L295.33 254.142L295.008 254.69L295.297 255.271Z" fill="#E70013"/>
</g>
</g>
<path d="M436.776 456.1C437.997 456.1 439.168 455.615 440.032 454.751C440.895 453.888 441.38 452.717 441.38 451.496C441.38 450.275 440.895 449.103 440.032 448.24C439.168 447.377 437.997 446.891 436.776 446.891C435.555 446.891 434.384 447.377 433.52 448.24C432.657 449.103 432.172 450.275 432.172 451.496C432.172 452.717 432.657 453.888 433.52 454.751C434.384 455.615 435.555 456.1 436.776 456.1ZM436.776 456.1V469.912" stroke="#F35E19" stroke-width="2.66667"/>
<g clip-path="url(#clip20_2278_3236)">
<mask id="mask8_2278_3236" style="mask-type:luminance" maskUnits="userSpaceOnUse" x="432" y="447" width="10" height="9">
<path d="M432.46 447.179H441.093V455.812H432.46V447.179Z" fill="white"/>
</mask>
<g mask="url(#mask8_2278_3236)">
<path fill-rule="evenodd" clip-rule="evenodd" d="M431.921 447.179H441.633V455.812H431.921V447.179Z" fill="#FFFF00"/>
<path fill-rule="evenodd" clip-rule="evenodd" d="M431.921 447.179V455.812L438.396 447.179H431.921Z" fill="#00CA00"/>
<path fill-rule="evenodd" clip-rule="evenodd" d="M435.158 455.812H441.633V447.179L435.158 455.812Z" fill="#FF0000"/>
</g>
</g>
<defs>
<filter id="filter0_d_2278_3236" x="0.5" y="-1.5" width="670.114" height="673.15" filterUnits="userSpaceOnUse" color-interpolation-filters="sRGB">
<feFlood flood-opacity="0" result="BackgroundImageFix"/>
<feColorMatrix in="SourceAlpha" type="matrix" values="0 0 0 0 0 0 0 0 0 0 0 0 0 0 0 0 0 0 127 0" result="hardAlpha"/>
<feOffset dy="4"/>
<feGaussianBlur stdDeviation="2"/>
<feComposite in2="hardAlpha" operator="out"/>
<feColorMatrix type="matrix" values="0 0 0 0 0 0 0 0 0 0 0 0 0 0 0 0 0 0 0.25 0"/>
<feBlend mode="normal" in2="BackgroundImageFix" result="effect1_dropShadow_2278_3236"/>
<feBlend mode="normal" in="SourceGraphic" in2="effect1_dropShadow_2278_3236" result="shape"/>
</filter>
<clipPath id="clip0_2278_3236">
<rect x="259.805" y="179.562" width="8.63281" height="8.63281" rx="4.3164" fill="white"/>
</clipPath>
<clipPath id="clip1_2278_3236">
<rect x="305.559" y="193.375" width="8.63281" height="8.63281" rx="4.3164" fill="white"/>
</clipPath>
<clipPath id="clip2_2278_3236">
<rect x="287.429" y="168.34" width="8.63281" height="8.63281" rx="4.3164" fill="white"/>
</clipPath>
<clipPath id="clip3_2278_3236">
<rect x="277.934" y="413.511" width="8.63281" height="8.63281" rx="4.3164" fill="white"/>
</clipPath>
<clipPath id="clip4_2278_3236">
<rect x="226.999" y="270.207" width="8.63281" height="8.63281" rx="4.3164" fill="white"/>
</clipPath>
<clipPath id="clip5_2278_3236">
<rect x="494.617" y="444.59" width="8.63281" height="8.63281" rx="4.3164" fill="white"/>
</clipPath>
<clipPath id="clip6_2278_3236">
<rect x="287.429" y="297.832" width="8.63281" height="8.63281" rx="4.3164" fill="white"/>
</clipPath>
<clipPath id="clip7_2278_3236">
<rect x="476.487" y="409.195" width="8.63281" height="8.63281" rx="4.3164" fill="white"/>
</clipPath>
<clipPath id="clip8_2278_3236">
<rect x="462.676" y="347.902" width="8.63281" height="8.63281" rx="4.3164" fill="white"/>
</clipPath>
<clipPath id="clip9_2278_3236">
<rect x="400.519" y="270.207" width="8.63281" height="8.63281" rx="4.3164" fill="white"/>
</clipPath>
<clipPath id="clip10_2278_3236">
<rect x="432.46" y="612.066" width="8.63281" height="8.63281" rx="4.3164" fill="white"/>
</clipPath>
<clipPath id="clip11_2278_3236">
<rect x="315.055" y="414.375" width="8.63281" height="8.63281" rx="4.3164" fill="white"/>
</clipPath>
<clipPath id="clip12_2278_3236">
<rect x="189.016" y="389.34" width="8.63281" height="8.63281" rx="4.3164" fill="white"/>
</clipPath>
<clipPath id="clip13_2278_3236">
<rect x="283.113" y="386.75" width="8.63281" height="8.63281" rx="4.3164" fill="white"/>
</clipPath>
<clipPath id="clip14_2278_3236">
<rect width="27.625" height="27.625" fill="white" transform="translate(432.461 505.019)"/>
</clipPath>
<clipPath id="clip15_2278_3236">
<rect x="441.957" y="507.609" width="8.63281" height="8.63281" rx="4.3164" fill="white"/>
</clipPath>
<clipPath id="clip16_2278_3236">
<rect x="288.293" y="397.972" width="8.63281" height="8.63281" rx="4.3164" fill="white"/>
</clipPath>
<clipPath id="clip17_2278_3236">
<rect x="498.934" y="397.109" width="8.63281" height="8.63281" rx="4.3164" fill="white"/>
</clipPath>
<clipPath id="clip18_2278_3236">
<rect x="266.71" y="422.144" width="8.63281" height="8.63281" rx="4.3164" fill="white"/>
</clipPath>
<clipPath id="clip19_2278_3236">
<rect x="290.019" y="250.351" width="8.63281" height="8.63281" rx="4.3164" fill="white"/>
</clipPath>
<clipPath id="clip20_2278_3236">
<rect x="432.46" y="447.179" width="8.63281" height="8.63281" rx="4.3164" fill="white"/>
</clipPath>
</defs>
</svg>
