<svg width="300" height="300" viewBox="0 0 300 300" fill="none" xmlns="http://www.w3.org/2000/svg">
<g clip-path="url(#clip0_2381_6281)">
<path d="M58.7581 227.196H37.6621V233.91H58.7581V227.196Z" fill="#EBEBEB"/>
<path d="M126.883 63.144H105.787V69.858H126.883V63.144Z" fill="#EBEBEB"/>
<path d="M46.9929 242.4C43.4769 242.46 34.6149 242.61 31.2189 242.646H25.897H25.627V242.4V235.686V235.386H25.927L36.4749 235.428C39.0969 235.428 44.3949 235.506 47.0229 235.542H47.1669V235.686L46.9929 242.4ZM46.9929 242.4L46.8489 235.686L46.9929 235.83C44.3589 235.866 39.0729 235.92 36.4449 235.944L25.897 235.986L26.197 235.686V242.4L25.921 242.124H31.1469C34.4889 242.166 43.5549 242.316 47.0169 242.376L46.9929 242.4Z" fill="#EBEBEB"/>
<path d="M271.266 138.6C267.756 138.66 258.894 138.81 255.492 138.846H250.176H249.9V138.6V131.886V131.586H250.2L260.742 131.628C263.37 131.628 268.668 131.706 271.29 131.742H271.44V131.886L271.266 138.6ZM271.266 138.6L271.128 131.886L271.266 132.03C268.638 132.066 263.352 132.12 260.718 132.144L250.176 132.186L250.476 131.886V138.6L250.206 138.324H255.432C258.774 138.36 267.84 138.51 271.296 138.57L271.266 138.6Z" fill="#EBEBEB"/>
<path d="M259.501 147.036C255.985 147.096 247.123 147.246 243.727 147.282H238.405H238.135V147.006L238.105 140.292V139.992H238.405L248.953 140.034C251.581 140.034 256.873 140.112 259.501 140.148H259.645V140.292L259.501 147.006V147.036ZM259.501 147.036L259.357 140.322L259.501 140.466C256.873 140.502 251.587 140.556 248.953 140.58L238.405 140.622L238.705 140.322V147.036L238.429 146.76L243.655 146.79C247.003 146.826 256.069 146.976 259.525 147.036H259.501Z" fill="#EBEBEB"/>
<path d="M247.783 131.856H226.688V138.57H247.783V131.856Z" fill="#EBEBEB"/>
<path d="M274.106 235.662H253.01V242.376H274.106V235.662Z" fill="#EBEBEB"/>
<path d="M262.338 28.332H241.242V35.046H262.338V28.332Z" fill="#EBEBEB"/>
<path d="M274.105 43.5121C270.589 43.5721 261.727 43.7221 258.331 43.7581H253.009H252.739V43.4881L252.709 36.7741V36.4741H253.009L263.557 36.5161C266.185 36.5161 271.477 36.5941 274.105 36.6301H274.249V36.7741L274.105 43.4881V43.5121ZM274.105 43.5121L273.961 36.7981L274.105 36.9361C271.471 36.9781 266.191 37.0321 263.557 37.0561L253.009 37.0981L253.309 36.7981V43.5121L253.033 43.2361H258.259C261.607 43.2781 270.673 43.4281 274.129 43.4881L274.105 43.5121Z" fill="#EBEBEB"/>
<path d="M58.7586 35.046C55.2426 35.106 46.3806 35.256 42.9846 35.292H37.6626H37.3926V35.016V28.302V28.002H37.6926L48.2406 28.044C50.8686 28.044 56.1606 28.122 58.7886 28.158H58.9326V28.302L58.7886 35.016L58.7586 35.046ZM58.7586 35.046L58.6146 28.332L58.7586 28.47C56.1246 28.512 50.8386 28.566 48.2106 28.59L37.6626 28.632L37.9626 28.332V35.046L37.6626 34.8H42.8886C46.2306 34.842 55.2966 34.992 58.7586 35.052V35.046Z" fill="#EBEBEB"/>
<path d="M180.403 257.82C176.887 257.88 168.025 258.03 164.629 258.066H159.307H159.037V257.79V251.076V250.8H159.337L169.885 250.842C172.513 250.842 177.805 250.92 180.433 250.956H180.577V251.1L180.439 257.814L180.403 257.82ZM180.403 257.82L180.259 251.106L180.403 251.25C177.769 251.286 172.483 251.34 169.855 251.364L159.307 251.406L159.607 251.106V257.82L159.331 257.544H164.557C167.899 257.586 176.965 257.736 180.427 257.796L180.403 257.82Z" fill="#EBEBEB"/>
<path d="M256.044 197.574H200.982V273.774H256.044V197.574Z" fill="#EBEBEB"/>
<path d="M258.714 194.748H198.318V197.574H258.714V194.748Z" fill="#DBDBDB"/>
<path d="M277.711 194.748H258.715V197.574H277.711V194.748Z" fill="#EBEBEB"/>
<path d="M274.699 197.574H256.045V273.774H274.699V197.574Z" fill="#DBDBDB"/>
<path d="M250.122 232.848H206.922V208.416H250.122V232.848ZM207.054 232.698H249.972V208.566H207.054V232.698Z" fill="#C7C7C7"/>
<path d="M230.898 215.556H222.486V220.392H230.898V215.556Z" fill="#C7C7C7"/>
<path d="M233.454 220.104H224.898V215.85H233.454V220.104ZM225.054 219.954H233.31V216H225.048L225.054 219.954Z" fill="#C7C7C7"/>
<path d="M250.122 263.526H206.922V239.094H250.122V263.526ZM207.054 263.4H249.972V239.244H207.054V263.4Z" fill="#C7C7C7"/>
<path d="M230.898 246.234H222.486V251.07H230.898V246.234Z" fill="#C7C7C7"/>
<path d="M233.454 250.8H224.898V246.546H233.454V250.8ZM225.054 250.65H233.31V246.696H225.048L225.054 250.65Z" fill="#C7C7C7"/>
<path d="M39.7619 -0.359985H39.3359V58.29H39.7619V-0.359985Z" fill="#C7C7C7"/>
<path d="M57.2168 75.3181L55.7948 78.4441H23.2988L21.8828 75.3181L35.7188 65.7421H43.3808L57.2168 75.3181Z" fill="#EBEBEB"/>
<path d="M44.3418 56.52L43.3818 65.742H35.7198L34.7598 56.52H44.3418Z" fill="#DBDBDB"/>
<path d="M57.2168 75.3181L55.7948 78.4441H23.2988L21.8828 75.3181H57.2168Z" fill="#DBDBDB"/>
<path d="M77.6955 -0.359985H77.2695V42.216H77.6955V-0.359985Z" fill="#C7C7C7"/>
<path d="M95.1485 59.244L93.7265 62.364H61.2365L59.8145 59.244L73.6505 49.668H81.3185L95.1485 59.244Z" fill="#EBEBEB"/>
<path d="M82.2794 40.4399L81.3194 49.6679H73.6514L72.6914 40.4399H82.2794Z" fill="#DBDBDB"/>
<path d="M95.1485 59.244L93.7265 62.364H61.2305L59.8145 59.244H95.1485Z" fill="#DBDBDB"/>
<path d="M26.6699 279.024L57.5039 278.88L88.3379 278.826L150 278.724L211.662 278.826L242.496 278.88L273.33 279.024L242.496 279.174L211.662 279.222L150 279.324L88.3379 279.222L57.5039 279.168L26.6699 279.024Z" fill="#263238"/>
<path d="M231.713 271.584L231.713 42.774C231.713 38.5026 228.25 35.04 223.979 35.04L76.0129 35.04C71.7415 35.04 68.2789 38.5026 68.2789 42.774L68.2789 271.584C68.2789 275.855 71.7415 279.318 76.0129 279.318H223.979C228.25 279.318 231.713 275.855 231.713 271.584Z" fill="#37474F"/>
<path d="M224.819 52.14H75.3652V262.374H224.819V52.14Z" fill="white"/>
<path d="M167.777 45.486V44.448C167.777 44.0338 167.442 43.698 167.027 43.698H132.959C132.545 43.698 132.209 44.0338 132.209 44.448V45.486C132.209 45.9002 132.545 46.236 132.959 46.236H167.027C167.442 46.236 167.777 45.9002 167.777 45.486Z" fill="#263238"/>
<path d="M154.47 271.759C155.082 269.292 153.58 266.796 151.113 266.183C148.646 265.57 146.15 267.073 145.537 269.54C144.924 272.006 146.427 274.503 148.894 275.116C151.361 275.728 153.857 274.225 154.47 271.759Z" fill="#263238"/>
<path d="M224.819 52.14H75.3652V262.374H224.819V52.14Z" fill="white"/>
<path d="M224.819 52.14H75.3652V57.276H224.819V52.14Z" fill="#455A64"/>
<path d="M79.9608 54.708C79.962 54.9221 79.8995 55.1317 79.7813 55.3103C79.663 55.4888 79.4944 55.6281 79.2968 55.7106C79.0993 55.7931 78.8816 55.815 78.6715 55.7735C78.4615 55.732 78.2685 55.629 78.1171 55.4776C77.9657 55.3262 77.8627 55.1333 77.8212 54.9232C77.7798 54.7131 77.8017 54.4955 77.8841 54.2979C77.9666 54.1003 78.106 53.9317 78.2845 53.8135C78.463 53.6953 78.6727 53.6328 78.8868 53.634C79.1711 53.6356 79.4434 53.7492 79.6445 53.9503C79.8455 54.1514 79.9592 54.4236 79.9608 54.708Z" fill="#C7C7C7"/>
<path d="M84.3592 54.708C84.3604 54.9219 84.2981 55.1313 84.1801 55.3097C84.0622 55.4881 83.8939 55.6274 83.6967 55.7101C83.4994 55.7928 83.2821 55.815 83.0722 55.774C82.8623 55.733 82.6693 55.6306 82.5177 55.4798C82.366 55.329 82.2626 55.1366 82.2204 54.9269C82.1783 54.7173 82.1993 54.4998 82.2808 54.3021C82.3624 54.1044 82.5008 53.9354 82.6786 53.8165C82.8563 53.6975 83.0653 53.634 83.2792 53.634C83.5641 53.6356 83.837 53.7491 84.039 53.95C84.2411 54.1509 84.3561 54.4231 84.3592 54.708Z" fill="white"/>
<path d="M88.7576 54.708C88.7588 54.9219 88.6965 55.1313 88.5785 55.3097C88.4606 55.4881 88.2923 55.6274 88.0951 55.7101C87.8979 55.7928 87.6805 55.815 87.4706 55.774C87.2607 55.733 87.0677 55.6306 86.9161 55.4798C86.7645 55.329 86.661 55.1366 86.6189 54.9269C86.5767 54.7173 86.5977 54.4998 86.6793 54.3021C86.7608 54.1044 86.8993 53.9354 87.077 53.8165C87.2547 53.6975 87.4638 53.634 87.6776 53.634C87.9626 53.6356 88.2355 53.7491 88.4375 53.95C88.6395 54.1509 88.7545 54.4231 88.7576 54.708Z" fill="#FF8C56"/>
<path d="M89.5371 151.218L87.4551 149.268L89.5371 147.324L89.8431 147.654L88.1151 149.268L89.8431 150.888L89.5371 151.218Z" fill="#C7C7C7"/>
<path d="M89.105 152.742C88.4177 152.743 87.7454 152.541 87.1733 152.16C86.6012 151.779 86.155 151.236 85.8912 150.602C85.6273 149.967 85.5577 149.268 85.691 148.594C85.8244 147.92 86.1548 147.3 86.6404 146.814C87.126 146.327 87.745 145.996 88.419 145.861C89.0931 145.727 89.7919 145.795 90.4271 146.058C91.0622 146.321 91.6051 146.766 91.9871 147.337C92.3691 147.909 92.573 148.581 92.573 149.268C92.573 150.188 92.2078 151.071 91.5576 151.722C90.9074 152.374 90.0253 152.74 89.105 152.742ZM89.105 146.4C88.5361 146.399 87.9796 146.567 87.506 146.882C87.0325 147.197 86.6632 147.646 86.4449 148.171C86.2267 148.697 86.1692 149.275 86.2799 149.833C86.3906 150.391 86.6645 150.904 87.0668 151.306C87.4691 151.709 87.9817 151.982 88.5398 152.093C89.0978 152.204 89.6762 152.146 90.2016 151.928C90.727 151.71 91.1758 151.341 91.4911 150.867C91.8065 150.393 91.9742 149.837 91.973 149.268C91.9714 148.508 91.6687 147.779 91.1312 147.242C90.5937 146.704 89.8652 146.402 89.105 146.4Z" fill="#C7C7C7"/>
<path d="M210.462 151.218L210.156 150.888L211.884 149.268L210.156 147.654L210.462 147.324L212.544 149.268L210.462 151.218Z" fill="#C7C7C7"/>
<path d="M210.894 152.742C210.207 152.743 209.534 152.541 208.962 152.16C208.39 151.779 207.944 151.236 207.68 150.602C207.416 149.967 207.347 149.268 207.48 148.594C207.613 147.92 207.944 147.3 208.429 146.814C208.915 146.327 209.534 145.996 210.208 145.861C210.882 145.727 211.581 145.795 212.216 146.058C212.851 146.321 213.394 146.766 213.776 147.337C214.158 147.909 214.362 148.581 214.362 149.268C214.362 150.188 213.997 151.071 213.347 151.722C212.696 152.374 211.814 152.74 210.894 152.742ZM210.894 146.4C210.325 146.399 209.769 146.567 209.295 146.882C208.822 147.197 208.452 147.646 208.234 148.171C208.016 148.697 207.958 149.275 208.069 149.833C208.18 150.391 208.454 150.904 208.856 151.306C209.258 151.709 209.771 151.982 210.329 152.093C210.887 152.204 211.465 152.146 211.991 151.928C212.516 151.71 212.965 151.341 213.28 150.867C213.596 150.393 213.763 149.837 213.762 149.268C213.76 148.508 213.458 147.779 212.92 147.242C212.383 146.704 211.654 146.402 210.894 146.4Z" fill="#C7C7C7"/>
<path d="M189.774 181.692H156.174L157.224 160.458H177.024L189.774 181.692ZM159.084 178.938H184.914L175.476 163.2H159.876L159.084 178.938Z" fill="#FF8C56"/>
<path opacity="0.5" d="M189.774 181.692H156.174L157.224 160.458H177.024L189.774 181.692ZM159.084 178.938H184.914L175.476 163.2H159.876L159.084 178.938Z" fill="black"/>
<path d="M187.944 181.692H154.344L155.4 160.458H175.2L187.944 181.692ZM157.248 178.938H183.084L173.64 163.2H158.04L157.248 178.938Z" fill="#FF8C56"/>
<path opacity="0.3" d="M187.944 181.692H154.344L155.4 160.458H175.2L187.944 181.692ZM157.248 178.938H183.084L173.64 163.2H158.04L157.248 178.938Z" fill="black"/>
<path d="M147.023 191.778H151.619V182.22H147.023V191.778Z" fill="#A6A6A6"/>
<path d="M145.169 214.77H153.479V191.784H145.169V214.77Z" fill="#C7C7C7"/>
<path d="M153.479 203.412H157.133V201.87H153.479V203.412Z" fill="#A6A6A6"/>
<path d="M157.133 204.228H164.561V201.06H157.133V204.228Z" fill="#C7C7C7"/>
<path d="M144.095 224.43H154.805V214.77H144.095V224.43Z" fill="#C7C7C7"/>
<path d="M148.242 232.836H150.474L151.722 218.994H146.988L148.242 232.836Z" fill="#A6A6A6"/>
<path d="M178.637 229.182L180.623 227.658L154.811 217.56V224.43L178.637 229.182Z" fill="#A6A6A6"/>
<path d="M120.275 229.182L118.289 227.658L144.095 217.56V224.43L120.275 229.182Z" fill="#A6A6A6"/>
<path d="M145.169 214.764H153.479V212.232H145.169V214.764Z" fill="#A6A6A6"/>
<path d="M178.721 237.966C181.716 237.966 184.145 235.538 184.145 232.542C184.145 229.547 181.716 227.118 178.721 227.118C175.725 227.118 173.297 229.547 173.297 232.542C173.297 235.538 175.725 237.966 178.721 237.966Z" fill="#263238"/>
<path d="M176.172 232.542C176.171 233.048 176.32 233.543 176.6 233.964C176.881 234.385 177.28 234.714 177.747 234.908C178.214 235.102 178.729 235.153 179.225 235.055C179.721 234.957 180.177 234.713 180.535 234.355C180.893 233.997 181.137 233.541 181.235 233.045C181.333 232.549 181.282 232.034 181.088 231.567C180.894 231.1 180.565 230.701 180.144 230.42C179.723 230.14 179.228 229.991 178.722 229.992C178.046 229.992 177.397 230.261 176.919 230.739C176.441 231.217 176.172 231.866 176.172 232.542Z" fill="white"/>
<path d="M120.16 237.966C123.156 237.966 125.584 235.538 125.584 232.542C125.584 229.547 123.156 227.118 120.16 227.118C117.165 227.118 114.736 229.547 114.736 232.542C114.736 235.538 117.165 237.966 120.16 237.966Z" fill="#263238"/>
<path d="M117.6 232.542C117.598 233.048 117.747 233.542 118.027 233.964C118.308 234.385 118.706 234.713 119.173 234.908C119.64 235.102 120.154 235.153 120.651 235.056C121.147 234.958 121.603 234.715 121.961 234.357C122.319 234 122.563 233.545 122.662 233.049C122.761 232.553 122.711 232.039 122.518 231.571C122.324 231.104 121.997 230.704 121.576 230.423C121.156 230.142 120.661 229.992 120.156 229.992C119.82 229.991 119.488 230.056 119.178 230.184C118.868 230.312 118.586 230.5 118.349 230.737C118.111 230.974 117.923 231.255 117.794 231.565C117.666 231.874 117.6 232.207 117.6 232.542Z" fill="white"/>
<path d="M147.719 240.078H151.121V231.15H147.719V240.078Z" fill="#263238"/>
<path d="M115.199 182.226H190.181V176.526H162.113L152.675 119.442H118.061L115.199 182.226Z" fill="#FF8C56"/>
<path opacity="0.1" d="M162.113 176.526H120.311L122.807 119.442H152.675L162.113 176.526Z" fill="black"/>
<path opacity="0.3" d="M190.182 176.526H146.502V182.226H190.182V176.526Z" fill="white"/>
<path d="M149.645 181.692H116.045L117.095 160.458H136.895L149.645 181.692ZM118.955 178.938H144.785L135.341 163.2H119.741L118.955 178.938Z" fill="#FF8C56"/>
<path opacity="0.5" d="M149.645 181.692H116.045L117.095 160.458H136.895L149.645 181.692ZM118.955 178.938H144.785L135.341 163.2H119.741L118.955 178.938Z" fill="black"/>
<path d="M147.809 181.692H114.209L115.259 160.458H135.059L147.809 181.692ZM117.119 178.938H142.949L133.511 163.2H117.911L117.119 178.938Z" fill="#FF8C56"/>
<path opacity="0.3" d="M147.809 181.692H114.209L115.259 160.458H135.059L147.809 181.692ZM117.119 178.938H142.949L133.511 163.2H117.911L117.119 178.938Z" fill="black"/>
<path d="M158.767 134.123L113.197 142.849L116.219 158.63L161.789 149.904L158.767 134.123Z" fill="#455A64"/>
<path d="M123.048 152.076L122.976 152.046C122.955 152.033 122.937 152.017 122.922 151.998C122.906 151.974 122.886 151.953 122.862 151.938L119.688 147.138C119.65 147.084 119.624 147.024 119.611 146.959C119.598 146.895 119.598 146.829 119.612 146.765C119.625 146.701 119.652 146.64 119.69 146.587C119.727 146.533 119.776 146.488 119.832 146.454C119.886 146.418 119.946 146.393 120.01 146.38C120.073 146.368 120.139 146.368 120.202 146.381C120.266 146.394 120.326 146.419 120.38 146.455C120.434 146.491 120.48 146.538 120.516 146.592L123.042 150.378L123.984 145.926C124.019 145.804 124.099 145.7 124.208 145.635C124.316 145.569 124.446 145.547 124.57 145.573C124.694 145.599 124.804 145.671 124.878 145.774C124.952 145.877 124.984 146.004 124.968 146.13L123.768 151.746C123.772 151.772 123.772 151.798 123.768 151.824C123.768 151.824 123.738 151.866 123.732 151.884C123.726 151.902 123.732 151.884 123.732 151.914C123.719 151.933 123.705 151.951 123.69 151.968C123.69 151.968 123.654 152.016 123.63 152.028L123.564 152.058H123.474C123.444 152.064 123.413 152.064 123.384 152.058H123.27L123.18 152.022L123.048 152.076Z" fill="white"/>
<path d="M129.402 149.43L127.242 149.844L127.026 151.086C127.005 151.185 126.957 151.276 126.885 151.347C126.814 151.419 126.723 151.468 126.624 151.488C126.566 151.497 126.507 151.497 126.45 151.488C126.315 151.463 126.196 151.386 126.119 151.274C126.041 151.161 126.011 151.023 126.036 150.888L126.996 145.272C127.016 145.171 127.066 145.079 127.14 145.007C127.214 144.935 127.308 144.887 127.41 144.87C127.51 144.847 127.615 144.857 127.709 144.896C127.804 144.936 127.884 145.005 127.938 145.092L130.938 149.952C131.007 150.068 131.028 150.206 130.997 150.337C130.965 150.469 130.884 150.582 130.77 150.654C130.719 150.68 130.664 150.698 130.608 150.708C130.509 150.729 130.407 150.719 130.314 150.679C130.222 150.639 130.144 150.572 130.092 150.486L129.402 149.43ZM128.85 148.524L127.764 146.724L127.41 148.776L128.85 148.524Z" fill="white"/>
<path d="M131.01 147.324C130.864 146.465 131.061 145.583 131.558 144.868C132.055 144.152 132.812 143.66 133.668 143.496C134.409 143.348 135.178 143.454 135.852 143.796C135.965 143.864 136.048 143.972 136.085 144.098C136.121 144.225 136.109 144.361 136.05 144.478C135.99 144.596 135.889 144.687 135.765 144.733C135.642 144.779 135.506 144.776 135.384 144.726C134.918 144.476 134.377 144.399 133.86 144.51C133.264 144.627 132.734 144.966 132.378 145.458C132.213 145.7 132.097 145.973 132.038 146.26C131.979 146.547 131.977 146.843 132.033 147.131C132.088 147.419 132.201 147.693 132.363 147.937C132.525 148.181 132.734 148.391 132.978 148.554C133.49 148.881 134.108 149.001 134.706 148.89C135.228 148.798 135.701 148.526 136.044 148.122C136.141 148.029 136.269 147.974 136.403 147.967C136.538 147.96 136.67 148.003 136.776 148.086C136.866 148.182 136.918 148.307 136.923 148.438C136.927 148.57 136.883 148.699 136.8 148.8C136.298 149.369 135.62 149.754 134.874 149.892C134.022 150.054 133.141 149.876 132.418 149.396C131.696 148.916 131.191 148.172 131.01 147.324Z" fill="white"/>
<path d="M141.527 147.108L139.361 147.522L139.145 148.764C139.126 148.864 139.078 148.955 139.006 149.027C138.934 149.099 138.843 149.147 138.743 149.166C138.685 149.175 138.627 149.175 138.569 149.166C138.434 149.141 138.315 149.064 138.238 148.952C138.16 148.839 138.13 148.7 138.155 148.566L139.115 142.95C139.135 142.849 139.186 142.757 139.26 142.685C139.333 142.613 139.427 142.565 139.529 142.548C139.63 142.526 139.735 142.535 139.831 142.575C139.926 142.614 140.007 142.683 140.063 142.77L143.033 147.636C143.1 147.752 143.119 147.889 143.087 148.019C143.054 148.149 142.972 148.261 142.859 148.332C142.808 148.36 142.753 148.38 142.697 148.392C142.604 148.412 142.508 148.405 142.419 148.37C142.331 148.336 142.254 148.277 142.199 148.2L141.527 147.108ZM140.975 146.202L139.883 144.402L139.529 146.454L140.975 146.202Z" fill="white"/>
<path d="M145.265 147.408C145.279 147.473 145.28 147.54 145.268 147.606C145.256 147.671 145.231 147.733 145.195 147.789C145.158 147.845 145.111 147.893 145.056 147.931C145.002 147.968 144.94 147.994 144.875 148.008C144.809 148.024 144.741 148.026 144.675 148.014C144.608 148.002 144.545 147.977 144.489 147.94C144.432 147.903 144.384 147.855 144.348 147.798C144.311 147.742 144.286 147.678 144.275 147.612L143.285 142.44C143.265 142.361 143.265 142.279 143.284 142.2C143.304 142.122 143.344 142.049 143.399 141.99C143.492 141.899 143.617 141.848 143.747 141.848C143.877 141.848 144.002 141.899 144.095 141.99L147.731 145.416L147.029 141.75C147.016 141.686 147.017 141.62 147.03 141.557C147.043 141.493 147.069 141.433 147.105 141.379C147.142 141.325 147.188 141.279 147.243 141.244C147.297 141.208 147.358 141.183 147.422 141.171C147.485 141.159 147.551 141.159 147.615 141.172C147.678 141.185 147.739 141.211 147.793 141.248C147.846 141.284 147.892 141.331 147.928 141.385C147.964 141.439 147.988 141.5 148.001 141.564L148.991 146.736C149.005 146.801 149.007 146.869 148.995 146.935C148.983 147.001 148.958 147.064 148.921 147.12C148.884 147.176 148.836 147.224 148.78 147.261C148.724 147.299 148.661 147.324 148.595 147.336C148.525 147.347 148.453 147.344 148.385 147.325C148.316 147.307 148.253 147.273 148.199 147.228C148.178 147.215 148.16 147.199 148.145 147.18L144.545 143.778L145.265 147.408Z" fill="white"/>
<path d="M153.953 140.82L152.543 141.09L153.449 145.842C153.465 145.908 153.467 145.976 153.456 146.042C153.444 146.108 153.419 146.172 153.382 146.228C153.345 146.284 153.296 146.332 153.24 146.369C153.183 146.406 153.12 146.431 153.053 146.442C152.988 146.457 152.92 146.458 152.854 146.446C152.788 146.434 152.725 146.409 152.669 146.372C152.613 146.335 152.565 146.287 152.528 146.231C152.491 146.175 152.466 146.112 152.453 146.046L151.541 141.294L150.137 141.564C150.008 141.583 149.877 141.552 149.771 141.476C149.664 141.401 149.591 141.287 149.567 141.159C149.543 141.03 149.57 140.898 149.641 140.789C149.713 140.68 149.824 140.603 149.951 140.574L153.749 139.848C153.815 139.833 153.883 139.832 153.949 139.844C154.015 139.856 154.078 139.881 154.134 139.918C154.19 139.955 154.238 140.003 154.275 140.059C154.312 140.115 154.337 140.178 154.349 140.244C154.369 140.372 154.339 140.503 154.266 140.61C154.192 140.718 154.08 140.792 153.953 140.82Z" fill="white"/>
<path d="M158.772 134.124C156.196 133.064 153.65 131.948 151.134 130.776C148.608 129.618 146.106 128.412 143.61 127.176C141.114 125.94 138.636 124.704 136.176 123.414C133.716 122.124 131.268 120.804 128.85 119.424C131.426 120.488 133.972 121.604 136.488 122.772C139.014 123.93 141.516 125.136 144.012 126.372C146.508 127.608 148.986 128.844 151.446 130.134C153.906 131.424 156.354 132.744 158.772 134.124Z" fill="#263238"/>
<path d="M117.413 133.626C116.867 135.246 116.213 136.806 115.505 138.348C114.813 139.886 114.044 141.387 113.201 142.848C113.754 141.245 114.389 139.67 115.103 138.132C115.799 136.596 116.555 135.078 117.413 133.626Z" fill="#263238"/>
<path d="M94.709 237.972C130.109 237.576 169.871 237.576 205.289 237.972C169.889 238.362 130.127 238.362 94.709 237.972Z" fill="#263238"/>
<path d="M120.035 76.2361L114.479 89.4721C114.451 89.5456 114.413 89.6144 114.365 89.6761C114.334 89.7258 114.295 89.7703 114.251 89.8081C114.251 89.8561 114.251 89.8561 114.251 89.8801C114.192 89.9079 114.139 89.9466 114.095 89.9941C114.035 90.0496 113.966 90.0943 113.891 90.1261C113.829 90.1336 113.768 90.1498 113.711 90.1741H113.663C113.589 90.184 113.514 90.184 113.441 90.1741C113.373 90.1832 113.304 90.1832 113.237 90.1741H113.165C113.115 90.1504 113.063 90.1343 113.009 90.1261C113.009 90.1261 113.009 90.1261 112.961 90.1261C112.883 90.0987 112.813 90.0535 112.757 89.9941C112.708 89.9519 112.656 89.9138 112.601 89.8801C112.579 89.8602 112.563 89.8355 112.553 89.8081C112.553 89.7661 112.487 89.7181 112.463 89.6761C112.439 89.6341 112.421 89.6761 112.421 89.6761C112.375 89.616 112.344 89.5461 112.331 89.4721L109.331 82.4341L106.331 89.4721C106.306 89.5425 106.276 89.6108 106.241 89.6761L106.103 89.8081C106.103 89.8561 106.103 89.8561 106.103 89.8801C106.05 89.9087 106.003 89.9474 105.965 89.9941H105.923C105.851 90.0361 105.785 90.1021 105.743 90.1261C105.679 90.1241 105.617 90.1408 105.563 90.1741H105.491C105.423 90.1832 105.354 90.1832 105.287 90.1741C105.211 90.1827 105.134 90.1827 105.059 90.1741H104.993C104.943 90.1504 104.891 90.1343 104.837 90.1261C104.837 90.1261 104.837 90.1261 104.789 90.1261C104.65 90.1187 104.515 90.0753 104.399 90.0001C104.333 89.9521 104.309 89.9041 104.243 89.8861C104.221 89.8662 104.205 89.8415 104.195 89.8141C104.153 89.7721 104.129 89.7241 104.081 89.6821C104.039 89.6341 104.015 89.5441 103.967 89.4781L98.3866 76.2421C98.2813 75.9423 98.2949 75.6136 98.4246 75.3236C98.5542 75.0336 98.7901 74.8043 99.0837 74.6828C99.3773 74.5614 99.7062 74.5571 100.003 74.6708C100.3 74.7845 100.541 75.0075 100.679 75.294L105.101 85.8001L108.029 78.8341C108.125 78.5978 108.292 78.3969 108.507 78.2585C108.722 78.1201 108.973 78.0508 109.229 78.0601C109.482 78.0574 109.731 78.1293 109.945 78.2669C110.158 78.4045 110.326 78.6017 110.429 78.8341L113.321 85.8001L117.743 75.294C117.876 74.9879 118.125 74.7468 118.435 74.6232C118.745 74.4996 119.091 74.5035 119.399 74.634C119.547 74.6954 119.682 74.786 119.795 74.9005C119.908 75.015 119.996 75.151 120.056 75.3004C120.115 75.4498 120.144 75.6096 120.14 75.7704C120.137 75.9311 120.101 76.0895 120.035 76.2361Z" fill="#263238"/>
<path d="M121.602 84.6C121.587 83.1141 122.162 81.6829 123.2 80.6193C124.237 79.5557 125.654 78.9462 127.14 78.924C128.559 78.9139 129.926 79.4594 130.949 80.4438C131.971 81.4281 132.568 82.7734 132.612 84.192V84.306C132.623 84.3735 132.623 84.4425 132.612 84.51C132.565 84.7854 132.414 85.0323 132.191 85.2007C131.968 85.369 131.69 85.446 131.412 85.416H124.2C124.309 85.9798 124.578 86.5004 124.974 86.916C125.559 87.4989 126.329 87.8596 127.152 87.936C127.98 88.0158 128.81 87.815 129.51 87.366C129.737 87.1484 130.035 87.0215 130.349 87.0093C130.663 86.9971 130.971 87.1006 131.214 87.3C131.311 87.3966 131.389 87.5115 131.442 87.6382C131.495 87.7648 131.522 87.9007 131.522 88.038C131.522 88.1753 131.495 88.3112 131.442 88.4379C131.389 88.5646 131.311 88.6795 131.214 88.776C130.107 89.7859 128.649 90.3222 127.152 90.27C125.665 90.2495 124.248 89.6417 123.208 88.5794C122.168 87.5171 121.591 86.0865 121.602 84.6ZM124.074 83.484H130.5C130.239 82.7968 129.781 82.2022 129.183 81.775C128.585 81.3479 127.874 81.1075 127.14 81.084C126.439 81.086 125.759 81.3195 125.204 81.7481C124.65 82.1766 124.252 82.7764 124.074 83.454V83.484Z" fill="#263238"/>
<path d="M152.621 84.6V89.052C152.621 89.3703 152.495 89.6755 152.27 89.9005C152.044 90.1256 151.739 90.252 151.421 90.252C151.141 90.2492 150.869 90.1517 150.652 89.9752C150.434 89.7987 150.282 89.5537 150.221 89.28C149.347 89.9091 148.298 90.249 147.221 90.252C146.499 90.2545 145.784 90.1088 145.12 89.824C144.457 89.5391 143.859 89.1212 143.363 88.596C142.358 87.5098 141.806 86.08 141.821 84.6C141.798 83.1204 142.351 81.6897 143.363 80.61C143.853 80.0738 144.448 79.6454 145.113 79.352C145.777 79.0587 146.495 78.9068 147.221 78.906C148.3 78.9172 149.349 79.2654 150.221 79.902C150.277 79.6239 150.427 79.3734 150.645 79.1922C150.864 79.011 151.137 78.91 151.421 78.906C151.739 78.906 152.044 79.0324 152.27 79.2575C152.495 79.4825 152.621 79.7877 152.621 80.106V84.6ZM150.221 84.6C150.241 83.737 149.925 82.9 149.339 82.266C149.073 81.9702 148.747 81.7344 148.383 81.574C148.019 81.4137 147.625 81.3326 147.227 81.336C146.829 81.3282 146.433 81.4074 146.068 81.568C145.704 81.7286 145.378 81.9668 145.115 82.266C144.539 82.9044 144.231 83.7405 144.257 84.6C144.238 85.4603 144.544 86.296 145.115 86.94C145.387 87.2258 145.715 87.4522 146.078 87.6051C146.442 87.7579 146.833 87.8338 147.227 87.828C147.621 87.8299 148.011 87.7522 148.374 87.5996C148.737 87.447 149.065 87.2227 149.339 86.94C149.917 86.2994 150.23 85.4629 150.215 84.6H150.221Z" fill="#263238"/>
<path d="M164.064 80.094C164.064 80.4122 163.938 80.7175 163.713 80.9425C163.488 81.1675 163.182 81.294 162.864 81.294C162.374 81.2802 161.894 81.4325 161.502 81.726C161.079 82.0071 160.722 82.3778 160.458 82.812C160.052 83.3964 159.738 84.04 159.528 84.72V89.034C159.519 89.3576 159.383 89.6646 159.149 89.889C158.916 90.1134 158.604 90.2372 158.28 90.234C157.962 90.234 157.657 90.1075 157.432 89.8825C157.207 89.6574 157.08 89.3522 157.08 89.034V80.094C157.08 79.7757 157.207 79.4705 157.432 79.2454C157.657 79.0204 157.962 78.894 158.28 78.894C158.442 78.8875 158.603 78.9138 158.754 78.9712C158.905 79.0286 159.043 79.1159 159.16 79.228C159.276 79.3401 159.369 79.4746 159.432 79.6234C159.496 79.7722 159.528 79.9323 159.528 80.094V80.256C159.67 80.0859 159.831 79.9328 160.008 79.8C160.846 79.2187 161.844 78.9106 162.864 78.918C163.178 78.9179 163.48 79.041 163.704 79.2609C163.929 79.4808 164.058 79.7799 164.064 80.094Z" fill="#263238"/>
<path d="M165.108 84.6C165.09 83.1131 165.664 81.6801 166.702 80.6158C167.74 79.5515 169.159 78.943 170.646 78.924C172.067 78.9062 173.438 79.4493 174.461 80.4354C175.484 81.4216 176.077 82.7713 176.112 84.192V84.306C176.123 84.3735 176.123 84.4425 176.112 84.51C176.066 84.786 175.916 85.0339 175.693 85.2024C175.469 85.371 175.19 85.4475 174.912 85.416H167.712C167.819 85.9791 168.086 86.4997 168.48 86.916C169.069 87.4969 169.84 87.8571 170.664 87.936C171.491 88.0148 172.322 87.8142 173.022 87.366C173.249 87.1484 173.547 87.0214 173.861 87.0093C174.175 86.9971 174.483 87.1006 174.726 87.3C174.823 87.3965 174.901 87.5115 174.954 87.6381C175.007 87.7648 175.034 87.9007 175.034 88.038C175.034 88.1753 175.007 88.3112 174.954 88.4379C174.901 88.5645 174.823 88.6795 174.726 88.776C173.618 89.7842 172.161 90.3202 170.664 90.27C169.176 90.2526 167.756 89.646 166.714 88.5832C165.673 87.5203 165.095 86.088 165.108 84.6ZM167.58 83.484H174C173.74 82.7973 173.284 82.2028 172.687 81.7757C172.09 81.3485 171.379 81.1078 170.646 81.084C169.945 81.085 169.264 81.3181 168.709 81.7468C168.155 82.1755 167.757 82.7758 167.58 83.454V83.484Z" fill="#263238"/>
<path d="M120.539 108.066C120.539 108.232 120.505 108.396 120.441 108.548C120.376 108.701 120.282 108.839 120.164 108.955C120.045 109.071 119.905 109.163 119.751 109.224C119.598 109.286 119.433 109.316 119.267 109.314C118.995 109.306 118.732 109.211 118.516 109.044C118.3 108.877 118.143 108.646 118.067 108.384C118.041 108.28 118.027 108.173 118.025 108.066V94.674C118.025 94.3398 118.158 94.0193 118.394 93.783C118.631 93.5467 118.951 93.414 119.285 93.414C119.62 93.414 119.94 93.5467 120.176 93.783C120.413 94.0193 120.545 94.3398 120.545 94.674V98.622C121.28 98.2106 122.104 97.9841 122.945 97.962C124.261 97.9668 125.521 98.4931 126.449 99.4256C127.377 100.358 127.897 101.62 127.895 102.936V108.066C127.895 108.397 127.764 108.714 127.53 108.948C127.296 109.183 126.978 109.314 126.647 109.314C126.316 109.314 125.999 109.183 125.765 108.948C125.531 108.714 125.399 108.397 125.399 108.066V102.936C125.416 102.606 125.365 102.275 125.25 101.965C125.135 101.655 124.958 101.371 124.729 101.132C124.501 100.892 124.227 100.701 123.923 100.571C123.619 100.44 123.291 100.373 122.96 100.373C122.63 100.373 122.302 100.44 121.998 100.571C121.694 100.701 121.419 100.892 121.191 101.132C120.963 101.371 120.786 101.655 120.671 101.965C120.556 102.275 120.505 102.606 120.521 102.936L120.539 108.066Z" fill="#FF8C56"/>
<path d="M134.399 95.124C134.405 95.2856 134.379 95.4468 134.322 95.598C134.264 95.7492 134.177 95.8872 134.065 96.0038C133.953 96.1203 133.818 96.213 133.67 96.2763C133.521 96.3396 133.361 96.3721 133.199 96.372C132.875 96.3626 132.568 96.2266 132.344 95.9932C132.12 95.7599 131.996 95.4477 131.999 95.124V94.65C131.999 94.3318 132.125 94.0265 132.35 93.8015C132.576 93.5764 132.881 93.45 133.199 93.45C133.517 93.45 133.822 93.5764 134.048 93.8015C134.273 94.0265 134.399 94.3318 134.399 94.65V95.124ZM134.399 99.234V108.084C134.403 108.244 134.375 108.403 134.316 108.552C134.258 108.702 134.17 108.837 134.058 108.952C133.946 109.067 133.813 109.158 133.665 109.22C133.518 109.282 133.359 109.314 133.199 109.314C133.039 109.314 132.88 109.282 132.733 109.22C132.585 109.158 132.452 109.067 132.34 108.952C132.228 108.837 132.14 108.702 132.082 108.552C132.023 108.403 131.995 108.244 131.999 108.084V99.234C131.993 99.0724 132.019 98.9112 132.076 98.76C132.134 98.6089 132.221 98.4709 132.333 98.3543C132.445 98.2377 132.58 98.145 132.728 98.0817C132.877 98.0184 133.037 97.9859 133.199 97.986C133.361 97.9859 133.521 98.0184 133.67 98.0817C133.818 98.145 133.953 98.2377 134.065 98.3543C134.177 98.4709 134.264 98.6089 134.322 98.76C134.379 98.9112 134.405 99.0724 134.399 99.234Z" fill="#FF8C56"/>
<path d="M145.295 99.1681C145.295 99.4864 145.168 99.7916 144.943 100.017C144.718 100.242 144.413 100.368 144.095 100.368C143.605 100.354 143.125 100.507 142.733 100.8C142.306 101.08 141.949 101.454 141.689 101.892C141.282 102.475 140.966 103.116 140.753 103.794V108.108C140.743 108.432 140.607 108.739 140.374 108.963C140.141 109.188 139.828 109.311 139.505 109.308C139.186 109.308 138.881 109.182 138.656 108.957C138.431 108.732 138.305 108.426 138.305 108.108V99.1681C138.305 98.8499 138.431 98.5446 138.656 98.3196C138.881 98.0946 139.186 97.9681 139.505 97.9681C139.666 97.9617 139.827 97.9879 139.979 98.0453C140.13 98.1027 140.268 98.1901 140.384 98.3022C140.501 98.4142 140.594 98.5487 140.657 98.6975C140.72 98.8464 140.753 99.0064 140.753 99.1681V99.3241C140.896 99.1574 141.057 99.0065 141.233 98.8741C142.072 98.2885 143.072 97.9781 144.095 97.9861C144.41 97.9861 144.712 98.11 144.937 98.3312C145.161 98.5524 145.29 98.853 145.295 99.1681Z" fill="#FF8C56"/>
<path d="M150.743 95.124C150.75 95.2881 150.723 95.4518 150.664 95.6051C150.604 95.7583 150.514 95.8977 150.399 96.0147C150.284 96.1317 150.146 96.2238 149.993 96.2852C149.841 96.3467 149.678 96.3762 149.513 96.372C149.19 96.3625 148.883 96.2265 148.658 95.9932C148.434 95.7598 148.31 95.4477 148.313 95.124V94.65C148.313 94.3317 148.44 94.0265 148.665 93.8014C148.89 93.5764 149.195 93.45 149.513 93.45C149.674 93.446 149.833 93.474 149.982 93.5325C150.131 93.5911 150.267 93.6788 150.381 93.7906C150.496 93.9025 150.587 94.0361 150.649 94.1837C150.712 94.3313 150.744 94.4898 150.743 94.65V95.124ZM150.743 99.234V108.084C150.748 108.247 150.719 108.408 150.658 108.559C150.598 108.711 150.507 108.848 150.392 108.963C150.277 109.078 150.14 109.168 149.989 109.229C149.838 109.289 149.676 109.318 149.513 109.314C149.353 109.314 149.195 109.282 149.047 109.22C148.9 109.158 148.766 109.067 148.654 108.952C148.542 108.837 148.455 108.701 148.396 108.552C148.338 108.403 148.309 108.244 148.313 108.084V99.234C148.307 99.0724 148.333 98.9112 148.391 98.76C148.448 98.6088 148.535 98.4708 148.647 98.3542C148.76 98.2377 148.894 98.1449 149.043 98.0817C149.192 98.0184 149.352 97.9858 149.513 97.986C149.678 97.9817 149.841 98.0112 149.993 98.0727C150.146 98.1341 150.284 98.2262 150.399 98.3432C150.514 98.4602 150.604 98.5996 150.664 98.7529C150.723 98.9061 150.75 99.0698 150.743 99.234Z" fill="#FF8C56"/>
<path d="M164.111 102.684V108.084C164.111 108.402 163.984 108.708 163.759 108.933C163.534 109.158 163.229 109.284 162.911 109.284C162.592 109.284 162.287 109.158 162.062 108.933C161.837 108.708 161.711 108.402 161.711 108.084V102.684C161.701 102.068 161.448 101.48 161.006 101.051C160.564 100.621 159.969 100.384 159.353 100.392C159.053 100.391 158.755 100.45 158.478 100.565C158.201 100.681 157.95 100.85 157.739 101.063C157.528 101.276 157.361 101.53 157.249 101.808C157.137 102.086 157.081 102.384 157.085 102.684V108.084C157.09 108.163 157.073 108.242 157.037 108.312C156.977 108.587 156.826 108.833 156.608 109.011C156.39 109.189 156.118 109.287 155.837 109.29C155.518 109.29 155.213 109.164 154.988 108.939C154.763 108.714 154.637 108.408 154.637 108.09V99.1501C154.637 98.8318 154.763 98.5266 154.988 98.3015C155.213 98.0765 155.518 97.9501 155.837 97.9501C156.071 97.947 156.3 98.0125 156.497 98.1382C156.695 98.264 156.851 98.4447 156.947 98.658C157.664 98.2005 158.496 97.9551 159.347 97.9501C160.605 97.9484 161.814 98.4457 162.707 99.333C163.599 100.22 164.104 101.425 164.111 102.684Z" fill="#FF8C56"/>
<path d="M178.703 103.704V107.904C178.699 109.347 178.123 110.73 177.102 111.751C176.082 112.772 174.699 113.347 173.255 113.352C172.419 113.347 171.596 113.141 170.855 112.752C170.711 112.682 170.582 112.585 170.475 112.464C170.369 112.344 170.288 112.203 170.238 112.051C170.187 111.899 170.167 111.738 170.179 111.578C170.191 111.418 170.236 111.262 170.309 111.12C170.452 110.829 170.703 110.607 171.008 110.5C171.314 110.393 171.649 110.411 171.941 110.55C172.34 110.762 172.786 110.871 173.237 110.868C173.936 110.867 174.614 110.624 175.155 110.182C175.696 109.739 176.068 109.123 176.207 108.438C175.164 109.152 173.896 109.463 172.64 109.313C171.384 109.163 170.225 108.562 169.379 107.622C168.346 106.552 167.775 105.119 167.789 103.632C167.791 102.132 168.359 100.687 169.379 99.5879C169.876 99.0623 170.474 98.6425 171.137 98.3538C171.8 98.0651 172.514 97.9134 173.237 97.9079C174.326 97.8993 175.39 98.233 176.279 98.8619C176.337 98.5879 176.488 98.3425 176.707 98.1683C176.926 97.9941 177.199 97.902 177.479 97.9079C177.798 97.9079 178.103 98.0344 178.328 98.2594C178.553 98.4844 178.679 98.7897 178.679 99.1079V103.644L178.703 103.704ZM176.303 103.704C176.305 102.853 175.998 102.03 175.439 101.388C175.172 101.079 174.841 100.832 174.469 100.663C174.098 100.494 173.694 100.408 173.285 100.41C172.887 100.41 172.493 100.497 172.132 100.666C171.771 100.835 171.452 101.082 171.197 101.388C170.604 102.012 170.277 102.843 170.285 103.704C170.276 104.134 170.352 104.561 170.509 104.962C170.665 105.362 170.899 105.728 171.197 106.038C171.458 106.334 171.78 106.57 172.14 106.73C172.5 106.891 172.891 106.972 173.285 106.968C173.69 106.974 174.091 106.894 174.462 106.733C174.833 106.573 175.166 106.336 175.439 106.038C176.001 105.385 176.298 104.546 176.273 103.686L176.303 103.704Z" fill="#FF8C56"/>
<path d="M184.998 100.02V82.074C185.003 81.4273 185.261 80.8082 185.718 80.3503C186.175 79.8924 186.793 79.6323 187.44 79.626C187.759 79.626 188.075 79.6896 188.37 79.8132C188.664 79.9368 188.931 80.1179 189.154 80.3459C189.378 80.5738 189.554 80.8441 189.671 81.1408C189.789 81.4376 189.846 81.7548 189.84 82.074V100.02C189.846 100.339 189.789 100.656 189.671 100.953C189.554 101.25 189.378 101.52 189.154 101.748C188.931 101.976 188.664 102.157 188.37 102.281C188.075 102.404 187.759 102.468 187.44 102.468C187.119 102.469 186.8 102.406 186.503 102.283C186.206 102.16 185.936 101.98 185.709 101.752C185.482 101.525 185.303 101.255 185.181 100.957C185.059 100.66 184.996 100.341 184.998 100.02ZM187.44 110.73C187.119 110.731 186.801 110.668 186.505 110.546C186.208 110.423 185.938 110.243 185.712 110.017C185.485 109.79 185.305 109.52 185.182 109.223C185.06 108.927 184.997 108.609 184.998 108.288V107.4C185.003 106.753 185.261 106.134 185.718 105.676C186.175 105.218 186.793 104.958 187.44 104.952C187.759 104.952 188.075 105.016 188.37 105.139C188.664 105.263 188.931 105.444 189.154 105.672C189.378 105.9 189.554 106.17 189.671 106.467C189.789 106.764 189.846 107.081 189.84 107.4V108.288C189.846 108.607 189.788 108.923 189.67 109.219C189.551 109.515 189.376 109.785 189.152 110.012C188.929 110.24 188.662 110.42 188.368 110.543C188.074 110.667 187.759 110.73 187.44 110.73Z" fill="#FF8C56"/>
<path d="M167.58 246.516H132.42V255.624H167.58V246.516Z" fill="#FF8C56"/>
<path d="M152.273 252.54C152.271 252.61 152.243 252.677 152.194 252.727C152.145 252.777 152.079 252.807 152.009 252.81C151.938 252.808 151.871 252.779 151.822 252.729C151.772 252.678 151.745 252.61 151.745 252.54V249.732C151.742 249.689 151.75 249.647 151.768 249.608C151.785 249.569 151.813 249.536 151.847 249.51C151.875 249.489 151.907 249.474 151.941 249.466C151.975 249.458 152.011 249.456 152.045 249.462C152.08 249.467 152.113 249.48 152.143 249.498C152.173 249.517 152.198 249.541 152.219 249.57L153.779 251.73V249.738C153.779 249.668 153.806 249.601 153.856 249.551C153.905 249.502 153.973 249.474 154.043 249.474C154.112 249.475 154.178 249.504 154.228 249.553C154.277 249.602 154.305 249.668 154.307 249.738V252.546C154.31 252.601 154.296 252.656 154.266 252.702C154.236 252.749 154.192 252.785 154.14 252.804C154.088 252.824 154.032 252.826 153.978 252.811C153.925 252.796 153.878 252.764 153.845 252.72L153.815 252.69L152.273 250.542V252.54Z" fill="white"/>
<path d="M157.895 249.84C158.2 250.166 158.373 250.593 158.381 251.04C158.377 251.487 158.203 251.916 157.895 252.24C157.748 252.402 157.57 252.532 157.37 252.622C157.171 252.712 156.955 252.759 156.737 252.762C156.511 252.763 156.288 252.717 156.082 252.627C155.875 252.538 155.689 252.406 155.537 252.24C155.23 251.916 155.058 251.486 155.057 251.04C155.063 250.594 155.234 250.167 155.537 249.84C155.69 249.675 155.875 249.544 156.082 249.455C156.289 249.366 156.512 249.322 156.737 249.324C156.955 249.325 157.17 249.372 157.37 249.46C157.569 249.549 157.748 249.678 157.895 249.84ZM157.829 251.04C157.829 250.728 157.713 250.426 157.505 250.194C157.407 250.088 157.288 250.002 157.156 249.944C157.024 249.885 156.881 249.854 156.737 249.852C156.59 249.851 156.445 249.881 156.31 249.94C156.176 249.999 156.056 250.086 155.957 250.194C155.744 250.424 155.626 250.726 155.627 251.04C155.622 251.354 155.74 251.658 155.957 251.886C156.055 251.995 156.176 252.082 156.31 252.142C156.444 252.202 156.59 252.233 156.737 252.234C156.882 252.231 157.024 252.199 157.156 252.139C157.288 252.079 157.407 251.993 157.505 251.886C157.71 251.661 157.825 251.368 157.829 251.064V251.04Z" fill="white"/>
<path d="M163.626 249.822L162.426 252.642C162.426 252.642 162.426 252.678 162.426 252.684C162.429 252.694 162.429 252.704 162.426 252.714C162.416 252.711 162.406 252.711 162.396 252.714C162.396 252.714 162.396 252.714 162.354 252.714H162.318H162.198H162.168C162.154 252.718 162.139 252.718 162.126 252.714C162.126 252.714 162.126 252.714 162.09 252.714C162.087 252.704 162.087 252.694 162.09 252.684C162.09 252.684 162.09 252.684 162.09 252.642L161.454 251.142L160.824 252.642C160.826 252.656 160.826 252.67 160.824 252.684V252.714C160.824 252.714 160.824 252.714 160.788 252.714H160.752H160.632H160.596C160.596 252.714 160.56 252.714 160.548 252.714C160.548 252.714 160.548 252.714 160.518 252.714V252.684C160.518 252.684 160.518 252.684 160.518 252.642L159.318 249.822C159.292 249.758 159.293 249.686 159.32 249.622C159.346 249.558 159.398 249.507 159.462 249.48C159.493 249.466 159.527 249.459 159.561 249.458C159.596 249.458 159.63 249.464 159.662 249.477C159.694 249.49 159.723 249.509 159.747 249.533C159.771 249.558 159.791 249.586 159.804 249.618L160.752 251.862L161.352 250.374C161.372 250.324 161.407 250.282 161.452 250.253C161.497 250.224 161.55 250.21 161.604 250.212C161.657 250.211 161.709 250.226 161.754 250.255C161.799 250.284 161.834 250.325 161.856 250.374L162.456 251.862L163.398 249.618C163.427 249.553 163.48 249.502 163.546 249.476C163.613 249.45 163.686 249.452 163.752 249.48C163.779 249.542 163.781 249.613 163.757 249.676C163.734 249.74 163.687 249.792 163.626 249.822Z" fill="white"/>
<path d="M138.269 252H137.105L136.871 252.6C136.849 252.649 136.814 252.691 136.769 252.721C136.725 252.75 136.672 252.767 136.619 252.768H136.529C136.462 252.742 136.408 252.692 136.377 252.627C136.347 252.562 136.343 252.488 136.367 252.42L137.429 249.588C137.449 249.536 137.484 249.493 137.531 249.462C137.577 249.432 137.632 249.417 137.687 249.42C137.741 249.418 137.795 249.433 137.84 249.463C137.885 249.493 137.92 249.537 137.939 249.588L139.001 252.42C139.025 252.487 139.022 252.56 138.993 252.625C138.963 252.69 138.911 252.741 138.845 252.768H138.755C138.701 252.769 138.649 252.753 138.605 252.723C138.561 252.693 138.527 252.65 138.509 252.6L138.269 252ZM138.077 251.472L137.687 250.434L137.297 251.472H138.077Z" fill="white"/>
<path d="M140.782 251.508H140.182V252.552C140.173 252.616 140.141 252.674 140.092 252.716C140.043 252.758 139.98 252.782 139.915 252.782C139.851 252.782 139.788 252.758 139.739 252.716C139.69 252.674 139.658 252.616 139.648 252.552V249.714C139.648 249.644 139.676 249.577 139.726 249.527C139.775 249.478 139.842 249.45 139.912 249.45H140.77C140.912 249.439 141.055 249.458 141.189 249.504C141.323 249.551 141.446 249.625 141.55 249.722C141.655 249.818 141.738 249.936 141.795 250.066C141.852 250.196 141.881 250.337 141.881 250.479C141.881 250.621 141.852 250.762 141.795 250.892C141.738 251.022 141.655 251.139 141.55 251.236C141.446 251.332 141.323 251.407 141.189 251.453C141.055 251.5 140.912 251.519 140.77 251.508H140.782ZM140.182 250.974H140.782C140.852 250.982 140.922 250.974 140.989 250.953C141.056 250.932 141.117 250.896 141.169 250.85C141.221 250.803 141.263 250.746 141.292 250.682C141.32 250.618 141.335 250.549 141.335 250.479C141.335 250.409 141.32 250.34 141.292 250.276C141.263 250.212 141.221 250.155 141.169 250.108C141.117 250.061 141.056 250.026 140.989 250.005C140.922 249.983 140.852 249.976 140.782 249.984H140.182V250.974Z" fill="white"/>
<path d="M143.585 251.508H142.985V252.552C142.985 252.622 142.957 252.689 142.908 252.739C142.858 252.788 142.791 252.816 142.721 252.816C142.651 252.816 142.583 252.788 142.532 252.739C142.482 252.69 142.453 252.622 142.451 252.552V249.714C142.453 249.643 142.482 249.576 142.532 249.527C142.583 249.477 142.651 249.45 142.721 249.45H143.579C143.721 249.439 143.863 249.458 143.998 249.504C144.132 249.551 144.255 249.625 144.359 249.722C144.463 249.818 144.547 249.936 144.604 250.066C144.66 250.196 144.69 250.337 144.69 250.479C144.69 250.621 144.66 250.762 144.604 250.892C144.547 251.022 144.463 251.139 144.359 251.236C144.255 251.332 144.132 251.407 143.998 251.453C143.863 251.5 143.721 251.519 143.579 251.508H143.585ZM142.985 250.974H143.585C143.655 250.982 143.725 250.974 143.792 250.953C143.858 250.932 143.92 250.896 143.972 250.85C144.024 250.803 144.066 250.746 144.094 250.682C144.123 250.618 144.138 250.549 144.138 250.479C144.138 250.409 144.123 250.34 144.094 250.276C144.066 250.212 144.024 250.155 143.972 250.108C143.92 250.061 143.858 250.026 143.792 250.005C143.725 249.983 143.655 249.976 143.585 249.984H142.985V250.974Z" fill="white"/>
<path d="M145.26 252.552V249.714C145.26 249.644 145.288 249.577 145.337 249.527C145.387 249.478 145.454 249.45 145.524 249.45C145.594 249.45 145.662 249.477 145.713 249.527C145.763 249.576 145.792 249.643 145.794 249.714V252.282H147.096C147.16 252.292 147.218 252.324 147.26 252.373C147.302 252.422 147.326 252.484 147.326 252.549C147.326 252.614 147.302 252.676 147.26 252.725C147.218 252.774 147.16 252.806 147.096 252.816H145.524C145.454 252.816 145.387 252.788 145.337 252.739C145.288 252.689 145.26 252.622 145.26 252.552Z" fill="white"/>
<path d="M149.682 249.9L148.698 251.256V252.552C148.699 252.587 148.693 252.622 148.68 252.654C148.667 252.687 148.647 252.716 148.623 252.741C148.598 252.765 148.568 252.785 148.536 252.798C148.504 252.811 148.469 252.817 148.434 252.816C148.364 252.816 148.297 252.788 148.247 252.739C148.198 252.689 148.17 252.622 148.17 252.552V251.256L147.192 249.9C147.17 249.874 147.155 249.843 147.145 249.81C147.136 249.777 147.134 249.742 147.139 249.708C147.145 249.674 147.157 249.642 147.175 249.613C147.193 249.584 147.218 249.559 147.246 249.54C147.273 249.518 147.304 249.503 147.338 249.493C147.371 249.484 147.406 249.482 147.441 249.487C147.475 249.492 147.508 249.504 147.538 249.523C147.567 249.541 147.592 249.566 147.612 249.594L148.434 250.722L149.256 249.594C149.276 249.566 149.302 249.543 149.331 249.525C149.361 249.507 149.394 249.495 149.428 249.49C149.462 249.485 149.497 249.487 149.53 249.495C149.563 249.504 149.595 249.519 149.622 249.54C149.65 249.56 149.673 249.585 149.691 249.614C149.709 249.642 149.721 249.674 149.727 249.708C149.732 249.741 149.731 249.775 149.723 249.808C149.716 249.841 149.702 249.873 149.682 249.9Z" fill="white"/>
<path d="M104.124 153.408H26.6699V210.786H104.124V153.408Z" fill="white"/>
<path d="M104.124 210.786L26.5504 210.906C26.4544 210.906 26.5924 153.456 26.5504 153.408V153.258H26.7004C26.7604 153.228 104.19 153.336 104.244 153.312C104.298 153.288 104.1 210.714 104.154 210.786H104.124ZM104.124 210.786C104.124 210.816 103.92 153.012 104.124 153.498L26.6704 153.558L26.8204 153.408C26.8204 153.36 26.9404 211.314 26.6764 210.66L104.124 210.786Z" fill="#263238"/>
<path d="M104.124 153.408H26.6699V158.544H104.124V153.408Z" fill="#455A64"/>
<path d="M31.2655 156C31.2655 156.214 31.2021 156.422 31.0835 156.6C30.9648 156.778 30.7961 156.916 30.5988 156.998C30.4014 157.08 30.1843 157.101 29.9748 157.059C29.7653 157.018 29.5728 156.915 29.4218 156.764C29.2708 156.613 29.1679 156.42 29.1262 156.211C29.0845 156.001 29.1059 155.784 29.1877 155.587C29.2694 155.389 29.4078 155.221 29.5855 155.102C29.7631 154.983 29.9719 154.92 30.1855 154.92C30.3275 154.919 30.4683 154.947 30.5997 155.001C30.7311 155.055 30.8505 155.134 30.9509 155.235C31.0514 155.335 31.1309 155.454 31.1849 155.586C31.2389 155.717 31.2663 155.858 31.2655 156Z" fill="#C7C7C7"/>
<path d="M35.6639 156C35.6639 156.214 35.6006 156.422 35.4819 156.6C35.3632 156.778 35.1945 156.916 34.9972 156.998C34.7999 157.08 34.5827 157.101 34.3732 157.059C34.1637 157.018 33.9713 156.915 33.8202 156.764C33.6692 156.613 33.5663 156.42 33.5247 156.211C33.483 156.001 33.5044 155.784 33.5861 155.587C33.6679 155.389 33.8063 155.221 33.9839 155.102C34.1615 154.983 34.3703 154.92 34.5839 154.92C34.8703 154.92 35.145 155.034 35.3476 155.236C35.5501 155.439 35.6639 155.714 35.6639 156Z" fill="white"/>
<path d="M40.0623 156C40.0623 156.214 39.999 156.422 39.8803 156.6C39.7617 156.778 39.593 156.916 39.3956 156.998C39.1983 157.08 38.9811 157.101 38.7716 157.059C38.5621 157.018 38.3697 156.915 38.2187 156.764C38.0676 156.613 37.9648 156.42 37.9231 156.211C37.8814 156.001 37.9028 155.784 37.9846 155.587C38.0663 155.389 38.2047 155.221 38.3823 155.102C38.5599 154.983 38.7687 154.92 38.9823 154.92C39.2688 154.92 39.5435 155.034 39.746 155.236C39.9486 155.439 40.0623 155.714 40.0623 156Z" fill="#FF8C56"/>
<path d="M40.7586 174.156C40.8806 174.576 41.1517 174.938 41.5211 175.173C41.8905 175.408 42.333 175.5 42.7655 175.433C43.1981 175.365 43.5912 175.142 43.8712 174.805C44.1512 174.469 44.2989 174.042 44.2866 173.604V168.402C44.2866 168.209 44.3631 168.025 44.4992 167.889C44.6354 167.752 44.82 167.676 45.0126 167.676C45.2051 167.676 45.3898 167.752 45.526 167.889C45.6621 168.025 45.7386 168.209 45.7386 168.402V173.604C45.7342 174.377 45.4548 175.124 44.9504 175.71C44.4459 176.297 43.7493 176.684 42.9852 176.804C42.221 176.924 41.4392 176.768 40.7796 176.364C40.1199 175.96 39.6254 175.335 39.3846 174.6C39.3257 174.418 39.3416 174.22 39.4288 174.049C39.516 173.879 39.6674 173.75 39.8496 173.691C40.0318 173.632 40.2299 173.648 40.4004 173.735C40.5709 173.822 40.6997 173.974 40.7586 174.156Z" fill="#263238"/>
<path d="M48.3066 175.896C47.7176 175.275 47.3946 174.448 47.4066 173.592C47.4081 172.742 47.7294 171.924 48.3066 171.3C48.5929 170.987 48.9414 170.736 49.3298 170.565C49.7182 170.393 50.138 170.304 50.5626 170.304C50.9776 170.303 51.388 170.392 51.7658 170.564C52.1436 170.736 52.4801 170.987 52.7526 171.3C53.3452 171.915 53.6727 172.738 53.6646 173.592C53.6752 174.018 53.5999 174.441 53.4432 174.837C53.2865 175.233 53.0516 175.593 52.7526 175.896C52.4801 176.209 52.1436 176.46 51.7658 176.632C51.388 176.804 50.9776 176.892 50.5626 176.892C50.138 176.892 49.7182 176.803 49.3298 176.631C48.9414 176.46 48.5929 176.209 48.3066 175.896ZM48.8346 173.592C48.8205 174.095 48.9864 174.586 49.3026 174.978C49.6436 175.297 50.0954 175.472 50.5626 175.464C51.0108 175.465 51.4417 175.291 51.7626 174.978C52.1012 174.597 52.2834 174.102 52.2726 173.592C52.2815 173.09 52.0992 172.603 51.7626 172.23C51.4351 171.926 51.0093 171.749 50.5626 171.732C50.0959 171.739 49.6478 171.916 49.3026 172.23C48.9886 172.613 48.8225 173.097 48.8346 173.592Z" fill="#263238"/>
<path d="M57.3244 168.666C57.326 168.76 57.3089 168.853 57.274 168.941C57.2392 169.028 57.1873 169.107 57.1214 169.174C57.0555 169.241 56.9769 169.295 56.8902 169.331C56.8035 169.367 56.7104 169.386 56.6164 169.386C56.4276 169.383 56.2475 169.306 56.1151 169.171C55.9826 169.036 55.9084 168.855 55.9084 168.666V168.39C55.9084 168.202 55.983 168.022 56.1158 167.889C56.2486 167.757 56.4287 167.682 56.6164 167.682C56.7099 167.68 56.8027 167.698 56.8893 167.733C56.9759 167.768 57.0546 167.82 57.1207 167.886C57.1868 167.952 57.2388 168.031 57.2739 168.117C57.3089 168.204 57.3261 168.297 57.3244 168.39V168.666ZM57.3244 171.036V176.148C57.3252 176.241 57.3074 176.333 57.2721 176.419C57.2367 176.505 57.1845 176.583 57.1185 176.648C57.0525 176.714 56.9741 176.765 56.8879 176.8C56.8016 176.835 56.7093 176.852 56.6164 176.85C56.5237 176.851 56.4318 176.833 56.3459 176.798C56.2601 176.763 56.182 176.712 56.1162 176.647C56.0503 176.581 55.9981 176.504 55.9624 176.418C55.9268 176.332 55.9084 176.241 55.9084 176.148V171.036C55.906 170.942 55.9226 170.848 55.9572 170.76C55.9917 170.673 56.0436 170.593 56.1097 170.526C56.1757 170.459 56.2546 170.405 56.3417 170.369C56.4288 170.333 56.5222 170.315 56.6164 170.316C56.7111 170.313 56.8053 170.33 56.8932 170.366C56.981 170.401 57.0607 170.454 57.1271 170.522C57.1935 170.59 57.2453 170.67 57.2793 170.758C57.3132 170.847 57.3286 170.941 57.3244 171.036Z" fill="#263238"/>
<path d="M65.0394 173.028V176.16C65.0402 176.25 65.0233 176.339 64.9896 176.422C64.956 176.505 64.9062 176.581 64.8433 176.645C64.7803 176.709 64.7054 176.76 64.6227 176.796C64.54 176.831 64.4512 176.849 64.3614 176.85C64.1788 176.847 64.0044 176.773 63.8747 176.645C63.745 176.516 63.67 176.343 63.6654 176.16V173.028C63.663 172.851 63.6259 172.677 63.5562 172.515C63.4865 172.353 63.3855 172.206 63.259 172.083C63.1326 171.96 62.9831 171.863 62.8191 171.797C62.6551 171.732 62.4799 171.7 62.3034 171.702C62.1303 171.703 61.9591 171.738 61.7996 171.805C61.6401 171.872 61.4954 171.97 61.3739 172.093C61.2523 172.216 61.1563 172.362 61.0914 172.523C61.0264 172.683 60.9938 172.855 60.9954 173.028V176.16C61.0077 176.203 61.0077 176.249 60.9954 176.292C60.9602 176.449 60.8729 176.59 60.7476 176.691C60.6223 176.792 60.4665 176.848 60.3054 176.85C60.2143 176.851 60.1239 176.833 60.0395 176.799C59.9551 176.765 59.8783 176.714 59.8136 176.65C59.7489 176.586 59.6975 176.51 59.6625 176.425C59.6274 176.341 59.6094 176.251 59.6094 176.16V171C59.6094 170.909 59.6274 170.819 59.6625 170.735C59.6975 170.65 59.7489 170.574 59.8136 170.51C59.8783 170.446 59.9551 170.395 60.0395 170.361C60.1239 170.326 60.2143 170.309 60.3054 170.31C60.4392 170.311 60.5701 170.349 60.6835 170.42C60.7969 170.491 60.8883 170.592 60.9474 170.712C61.3627 170.451 61.8429 170.312 62.3334 170.31C63.0502 170.319 63.7349 170.609 64.2406 171.117C64.7464 171.625 65.0332 172.311 65.0394 173.028Z" fill="#263238"/>
<path d="M72.1445 175.896C71.5555 175.275 71.2325 174.448 71.2445 173.592C71.246 172.742 71.5673 171.924 72.1445 171.3C72.4308 170.987 72.7793 170.736 73.1677 170.565C73.5561 170.393 73.9759 170.304 74.4005 170.304C74.8155 170.303 75.2259 170.392 75.6037 170.564C75.9815 170.736 76.318 170.987 76.5905 171.3C77.1848 171.914 77.5144 172.737 77.5085 173.592C77.5179 174.018 77.4415 174.441 77.2838 174.837C77.1261 175.233 76.8903 175.593 76.5905 175.896C76.318 176.209 75.9815 176.46 75.6037 176.632C75.2259 176.804 74.8155 176.892 74.4005 176.892C73.9759 176.892 73.5561 176.803 73.1677 176.631C72.7793 176.46 72.4308 176.209 72.1445 175.896ZM72.6725 173.592C72.6584 174.095 72.8243 174.586 73.1405 174.978C73.4815 175.297 73.9333 175.472 74.4005 175.464C74.8487 175.465 75.2796 175.291 75.6005 174.978C75.9418 174.598 76.1243 174.102 76.1105 173.592C76.1225 173.089 75.9397 172.601 75.6005 172.23C75.273 171.926 74.8472 171.749 74.4005 171.732C73.9338 171.739 73.4857 171.916 73.1405 172.23C72.8265 172.613 72.6604 173.097 72.6725 173.592Z" fill="#263238"/>
<path d="M82.1226 176.85C81.4005 176.847 80.7089 176.559 80.1978 176.049C79.6866 175.539 79.3973 174.848 79.3926 174.126V171C79.3972 170.817 79.4722 170.644 79.6019 170.515C79.7316 170.387 79.906 170.313 80.0886 170.31C80.2721 170.31 80.4483 170.382 80.5786 170.512C80.709 170.641 80.783 170.816 80.7846 171V174.132C80.783 174.308 80.8165 174.483 80.8832 174.646C80.9498 174.809 81.0483 174.957 81.1729 175.082C81.2975 175.206 81.4456 175.305 81.6087 175.371C81.7717 175.438 81.9464 175.472 82.1226 175.47C82.3006 175.472 82.4775 175.44 82.6429 175.374C82.8083 175.308 82.9591 175.21 83.0867 175.086C83.2143 174.961 83.3162 174.813 83.3865 174.65C83.4568 174.486 83.4942 174.31 83.4966 174.132V171C83.4958 170.91 83.5127 170.821 83.5463 170.738C83.58 170.654 83.6297 170.579 83.6927 170.515C83.7556 170.45 83.8306 170.399 83.9133 170.364C83.996 170.329 84.0847 170.311 84.1746 170.31C84.3584 170.313 84.5341 170.386 84.6657 170.514C84.7973 170.643 84.8749 170.816 84.8826 171V174.132C84.8715 174.857 84.5759 175.548 84.0595 176.057C83.5431 176.565 82.8473 176.85 82.1226 176.85Z" fill="#263238"/>
<path d="M91.5966 171C91.595 171.184 91.5212 171.36 91.391 171.49C91.2608 171.621 91.0847 171.694 90.9006 171.696C90.6175 171.687 90.34 171.776 90.1146 171.948C89.8725 172.101 89.6675 172.306 89.5146 172.548C89.278 172.885 89.0958 173.258 88.9746 173.652V176.142C88.9683 176.328 88.8895 176.505 88.755 176.633C88.6205 176.762 88.4409 176.834 88.2546 176.832C88.0715 176.83 87.8963 176.757 87.7663 176.629C87.6362 176.5 87.5617 176.325 87.5586 176.142V171C87.5618 170.818 87.6367 170.645 87.767 170.518C87.8974 170.391 88.0726 170.32 88.2546 170.322C88.4398 170.317 88.6194 170.386 88.7543 170.513C88.8891 170.64 88.9683 170.815 88.9746 171V171.096C89.0559 170.997 89.1485 170.909 89.2506 170.832C89.7355 170.497 90.3114 170.319 90.9006 170.322C90.9909 170.32 91.0807 170.337 91.1647 170.37C91.2486 170.403 91.3252 170.453 91.3899 170.516C91.4546 170.579 91.5062 170.654 91.5417 170.737C91.5772 170.82 91.5958 170.91 91.5966 171Z" fill="#263238"/>
<path d="M52.9268 183.096C52.9223 183.287 52.8443 183.469 52.7091 183.604C52.574 183.739 52.3919 183.817 52.2008 183.822H51.8708V187.476C51.9664 187.476 52.061 187.495 52.1492 187.532C52.2373 187.569 52.3172 187.623 52.3842 187.691C52.4513 187.759 52.504 187.84 52.5395 187.929C52.575 188.018 52.5924 188.112 52.5908 188.208C52.5925 188.303 52.5749 188.397 52.5393 188.485C52.5037 188.574 52.4508 188.654 52.3836 188.721C52.3164 188.788 52.2364 188.841 52.1483 188.876C52.0602 188.912 51.9658 188.93 51.8708 188.928C51.6789 188.93 51.4885 188.893 51.3106 188.821C51.1327 188.749 50.9708 188.642 50.8342 188.507C50.6977 188.372 50.5891 188.212 50.5147 188.035C50.4403 187.858 50.4016 187.668 50.4008 187.476V183.822H50.0228C49.9278 183.822 49.8337 183.803 49.7459 183.767C49.6582 183.73 49.5785 183.676 49.5116 183.609C49.4447 183.542 49.3917 183.461 49.3559 183.373C49.3201 183.285 49.302 183.191 49.3028 183.096C49.3012 183.001 49.3187 182.907 49.3543 182.819C49.3899 182.73 49.4429 182.65 49.5101 182.583C49.5773 182.516 49.6573 182.463 49.7454 182.427C49.8335 182.392 49.9278 182.374 50.0228 182.376H50.4008V180.48C50.4008 180.384 50.4198 180.29 50.4568 180.202C50.4937 180.114 50.5478 180.034 50.6159 179.967C50.6841 179.9 50.7649 179.847 50.8536 179.811C50.9424 179.776 51.0373 179.758 51.1328 179.76C51.2278 179.758 51.3222 179.776 51.4103 179.811C51.4984 179.847 51.5784 179.9 51.6456 179.967C51.7128 180.034 51.7657 180.114 51.8013 180.203C51.8369 180.291 51.8545 180.385 51.8528 180.48V182.4H52.2008C52.3879 182.401 52.5673 182.474 52.7023 182.604C52.8373 182.733 52.9176 182.909 52.9268 183.096Z" fill="#FF8C56"/>
<path d="M54.2403 185.652C54.2371 184.798 54.5713 183.977 55.1702 183.368C55.7691 182.759 56.5842 182.411 57.4383 182.4C58.2514 182.393 59.0354 182.702 59.6252 183.261C60.215 183.821 60.5646 184.588 60.6003 185.4V185.466C60.6062 185.504 60.6062 185.542 60.6003 185.58C60.5738 185.738 60.4886 185.88 60.3618 185.978C60.235 186.076 60.0759 186.122 59.9163 186.108H55.7343C55.797 186.432 55.951 186.732 56.1783 186.972C56.5138 187.315 56.9604 187.528 57.4383 187.572C57.9158 187.619 58.3953 187.505 58.8003 187.248C58.9301 187.123 59.1012 187.049 59.2814 187.042C59.4616 187.034 59.6383 187.092 59.7783 187.206C59.8346 187.262 59.8792 187.328 59.9097 187.401C59.9401 187.474 59.9558 187.553 59.9558 187.632C59.9558 187.711 59.9401 187.79 59.9097 187.863C59.8792 187.936 59.8346 188.002 59.7783 188.058C59.1411 188.641 58.3012 188.951 57.4383 188.922C56.5816 188.909 55.7646 188.559 55.1656 187.946C54.5665 187.333 54.2339 186.509 54.2403 185.652ZM55.6683 185.01H59.4003C59.2531 184.605 58.9871 184.254 58.6371 184.002C58.2871 183.75 57.8693 183.61 57.4383 183.6C57.0265 183.597 56.6262 183.735 56.304 183.992C55.9819 184.249 55.7575 184.608 55.6683 185.01Z" fill="#FF8C56"/>
<path d="M68.2207 185.664V188.232C68.2207 188.417 68.1474 188.594 68.0169 188.724C67.8864 188.855 67.7093 188.928 67.5247 188.928C67.3646 188.924 67.2103 188.867 67.0872 188.764C66.964 188.662 66.8793 188.521 66.8467 188.364C66.3379 188.73 65.7273 188.927 65.1007 188.928C64.6842 188.929 64.2718 188.846 63.8889 188.682C63.5061 188.517 63.1609 188.277 62.8747 187.974C62.2956 187.345 61.978 186.519 61.9867 185.664C61.9734 184.81 62.2917 183.984 62.8747 183.36C63.1597 183.055 63.5045 182.813 63.8875 182.648C64.2706 182.482 64.6836 182.398 65.1007 182.4C65.7313 182.411 66.3423 182.621 66.8467 183C66.873 182.837 66.9549 182.688 67.0785 182.579C67.2021 182.469 67.3598 182.406 67.5247 182.4C67.6169 182.401 67.708 182.42 67.7929 182.456C67.8778 182.492 67.9547 182.544 68.0194 182.61C68.084 182.676 68.135 182.753 68.1696 182.839C68.2041 182.924 68.2215 183.016 68.2207 183.108V185.664ZM66.8347 185.664C66.8455 185.166 66.6602 184.683 66.3187 184.32C66.1679 184.151 65.983 184.015 65.7763 183.922C65.5695 183.829 65.3455 183.781 65.1187 183.78C64.8918 183.779 64.6672 183.827 64.4602 183.92C64.2533 184.013 64.0686 184.149 63.9187 184.32C63.5849 184.687 63.4064 185.168 63.4207 185.664C63.411 186.161 63.5888 186.643 63.9187 187.014C64.0736 187.176 64.2599 187.305 64.4662 187.392C64.6725 187.48 64.8946 187.525 65.1187 187.524C65.3427 187.524 65.5643 187.478 65.7704 187.391C65.9765 187.303 66.163 187.175 66.3187 187.014C66.6562 186.646 66.8408 186.163 66.8347 185.664Z" fill="#FF8C56"/>
<path d="M76.2668 185.088V188.232C76.2668 188.417 76.1935 188.594 76.0629 188.724C75.9324 188.855 75.7554 188.928 75.5708 188.928C75.386 188.925 75.2095 188.851 75.0777 188.721C74.9459 188.592 74.8689 188.417 74.8628 188.232V185.088C74.8354 184.749 74.6801 184.434 74.4285 184.205C74.1769 183.977 73.8479 183.853 73.5081 183.858C73.1684 183.864 72.8434 183.998 72.5991 184.234C72.3548 184.47 72.2096 184.791 72.1928 185.13V188.232C72.1928 188.232 72.1928 188.298 72.1928 188.328V188.364C72.1928 188.394 72.1928 188.418 72.1508 188.442V188.508C72.0906 188.631 71.9978 188.735 71.8825 188.809C71.7672 188.883 71.6338 188.924 71.4968 188.928H71.3648C71.208 188.893 71.0672 188.807 70.965 188.683C70.8628 188.559 70.805 188.405 70.8008 188.244V183.096C70.8 183.004 70.8174 182.912 70.8519 182.827C70.8865 182.741 70.9375 182.664 71.0022 182.598C71.0668 182.532 71.1437 182.48 71.2286 182.444C71.3135 182.408 71.4046 182.389 71.4968 182.388C71.6244 182.389 71.749 182.427 71.8555 182.497C71.9619 182.567 72.0458 182.667 72.0968 182.784C72.6423 182.454 73.2858 182.324 73.9165 182.417C74.5473 182.51 75.1259 182.82 75.5528 183.294C75.8108 183.004 76.1282 182.773 76.4832 182.617C76.8383 182.461 77.2229 182.383 77.6108 182.388C78.337 182.393 79.0316 182.685 79.5423 183.202C80.053 183.718 80.338 184.416 80.3348 185.142V188.244C80.3348 188.427 80.2623 188.604 80.1331 188.734C80.0038 188.864 79.8284 188.938 79.6448 188.94C79.4591 188.94 79.2808 188.867 79.1484 188.737C79.0159 188.607 78.9399 188.43 78.9368 188.244V185.142C78.9384 184.788 78.8 184.447 78.5517 184.194C78.3033 183.941 77.9652 183.797 77.6108 183.792C77.2639 183.796 76.9316 183.933 76.6818 184.173C76.432 184.414 76.2836 184.741 76.2668 185.088Z" fill="#FF8C56"/>
<path d="M79.7754 197.112H51.0234V204.558H79.7754V197.112Z" fill="#FF8C56"/>
<path d="M55.3748 201.444C55.4165 201.565 55.4992 201.667 55.6086 201.733C55.7179 201.8 55.8471 201.825 55.9734 201.806C56.0998 201.787 56.2154 201.724 56.3 201.628C56.3847 201.532 56.4331 201.41 56.4368 201.282V199.71C56.4368 199.681 56.4426 199.653 56.4538 199.626C56.4651 199.599 56.4815 199.575 56.5022 199.555C56.5229 199.535 56.5474 199.519 56.5743 199.509C56.6012 199.498 56.63 199.493 56.6588 199.494C56.6874 199.493 56.7159 199.498 56.7425 199.509C56.7691 199.519 56.7932 199.535 56.8134 199.555C56.8337 199.576 56.8495 199.6 56.8601 199.626C56.8707 199.653 56.8757 199.681 56.8748 199.71V201.282C56.8789 201.518 56.7975 201.748 56.6456 201.928C56.4938 202.109 56.2816 202.229 56.0484 202.265C55.8152 202.302 55.5767 202.253 55.3768 202.127C55.1769 202.002 55.0292 201.808 54.9608 201.582C54.9506 201.555 54.9461 201.526 54.9475 201.497C54.949 201.468 54.9565 201.44 54.9694 201.414C54.9824 201.388 55.0006 201.365 55.0229 201.346C55.0451 201.328 55.071 201.314 55.0988 201.306C55.126 201.297 55.1548 201.293 55.1835 201.295C55.2121 201.297 55.2401 201.304 55.2658 201.317C55.2915 201.33 55.3144 201.348 55.3331 201.37C55.3519 201.391 55.366 201.417 55.3748 201.444Z" fill="white"/>
<path d="M59.6947 199.836C59.9522 200.106 60.0958 200.465 60.0958 200.838C60.0958 201.211 59.9522 201.57 59.6947 201.84C59.5741 201.97 59.4285 202.074 59.2666 202.146C59.1047 202.218 58.9299 202.257 58.7527 202.26C58.5707 202.259 58.3908 202.221 58.2238 202.149C58.0568 202.077 57.906 201.972 57.7807 201.84C57.5298 201.567 57.3906 201.209 57.3906 200.838C57.3906 200.467 57.5298 200.109 57.7807 199.836C57.904 199.701 58.0541 199.593 58.2215 199.52C58.389 199.447 58.5699 199.409 58.7527 199.41C58.9308 199.411 59.1067 199.45 59.2689 199.523C59.4312 199.596 59.5762 199.703 59.6947 199.836ZM59.6467 200.838C59.6467 200.58 59.5504 200.332 59.3767 200.142C59.2958 200.055 59.1979 199.986 59.089 199.938C58.98 199.891 58.8625 199.866 58.7437 199.866C58.6249 199.866 58.5073 199.891 58.3984 199.938C58.2895 199.986 58.1916 200.055 58.1107 200.142C57.9349 200.331 57.8383 200.58 57.8407 200.838C57.837 201.093 57.934 201.338 58.1107 201.522C58.1895 201.612 58.2868 201.685 58.396 201.734C58.5052 201.784 58.6237 201.81 58.7437 201.81C58.8636 201.81 58.9822 201.784 59.0914 201.734C59.2006 201.685 59.2978 201.612 59.3767 201.522C59.5512 201.337 59.6478 201.092 59.6467 200.838Z" fill="white"/>
<path d="M60.7032 199.71C60.7024 199.681 60.7074 199.653 60.718 199.626C60.7285 199.6 60.7444 199.576 60.7646 199.555C60.7849 199.535 60.809 199.519 60.8356 199.509C60.8622 199.498 60.8906 199.493 60.9192 199.494C60.9481 199.493 60.9768 199.498 61.0037 199.509C61.0306 199.519 61.0551 199.535 61.0758 199.555C61.0965 199.575 61.113 199.599 61.1242 199.626C61.1354 199.653 61.1412 199.681 61.1412 199.71V202.044C61.1397 202.102 61.1156 202.157 61.0741 202.197C61.0326 202.237 60.9771 202.26 60.9192 202.26C60.8619 202.26 60.807 202.237 60.7665 202.197C60.726 202.156 60.7032 202.101 60.7032 202.044V199.71Z" fill="white"/>
<path d="M62.3169 202.044C62.3169 202.101 62.2942 202.156 62.2537 202.197C62.2132 202.237 62.1582 202.26 62.1009 202.26C62.0437 202.26 61.9887 202.237 61.9482 202.197C61.9077 202.156 61.8849 202.101 61.8849 202.044V199.746C61.8835 199.711 61.8904 199.677 61.905 199.646C61.9196 199.614 61.9416 199.587 61.9689 199.566C62.0166 199.534 62.0746 199.521 62.1313 199.53C62.1881 199.539 62.2394 199.569 62.2749 199.614L63.5529 201.378V199.752C63.5529 199.696 63.5749 199.642 63.6141 199.601C63.6533 199.561 63.7067 199.537 63.7629 199.536C63.8202 199.536 63.8752 199.559 63.9157 199.599C63.9562 199.64 63.9789 199.695 63.9789 199.752V202.05C63.9789 202.107 63.9562 202.162 63.9157 202.203C63.8752 202.243 63.8202 202.266 63.7629 202.266C63.7329 202.266 63.703 202.261 63.6752 202.25C63.6473 202.238 63.6221 202.221 63.6009 202.2L62.3169 200.4V202.044Z" fill="white"/>
<path d="M66.5457 202.044C66.5457 202.1 66.5238 202.154 66.4845 202.195C66.4453 202.235 66.3919 202.258 66.3357 202.26C66.3071 202.261 66.2786 202.256 66.252 202.245C66.2255 202.235 66.2013 202.219 66.1811 202.199C66.1609 202.178 66.145 202.154 66.1344 202.128C66.1239 202.101 66.1188 202.073 66.1197 202.044V199.746C66.1172 199.711 66.1236 199.677 66.1383 199.645C66.153 199.614 66.1755 199.586 66.2037 199.566C66.2499 199.533 66.3074 199.519 66.3635 199.528C66.4197 199.537 66.4701 199.568 66.5037 199.614L67.7817 201.378V199.752C67.7817 199.695 67.8044 199.64 67.8449 199.599C67.8854 199.559 67.9404 199.536 67.9977 199.536C68.0545 199.538 68.1085 199.561 68.1487 199.601C68.1889 199.641 68.2122 199.695 68.2137 199.752V202.05C68.2137 202.107 68.1909 202.162 68.1504 202.203C68.1099 202.243 68.055 202.266 67.9977 202.266C67.9665 202.266 67.9357 202.259 67.9076 202.246C67.8795 202.232 67.8549 202.213 67.8357 202.188L66.5457 200.4V202.044Z" fill="white"/>
<path d="M71.1478 199.836C71.4026 200.107 71.5444 200.466 71.5444 200.838C71.5444 201.21 71.4026 201.569 71.1478 201.84C71.0266 201.971 70.88 202.075 70.717 202.147C70.554 202.22 70.3781 202.258 70.1998 202.26C70.0188 202.259 69.84 202.221 69.674 202.149C69.508 202.076 69.3583 201.971 69.2338 201.84C68.9829 201.567 68.8438 201.209 68.8438 200.838C68.8438 200.467 68.9829 200.109 69.2338 199.836C69.3564 199.702 69.5056 199.595 69.6719 199.521C69.8383 199.448 70.018 199.41 70.1998 199.41C70.3789 199.411 70.5558 199.449 70.7191 199.522C70.8824 199.596 71.0285 199.703 71.1478 199.836ZM71.0938 200.838C71.0938 200.58 70.9975 200.332 70.8238 200.142C70.7435 200.055 70.646 199.986 70.5376 199.938C70.4292 199.891 70.3122 199.866 70.1938 199.866C70.0755 199.866 69.9584 199.891 69.85 199.938C69.7416 199.986 69.6442 200.055 69.5638 200.142C69.3881 200.331 69.2914 200.58 69.2938 200.838C69.2901 201.093 69.3872 201.338 69.5638 201.522C69.6421 201.612 69.7389 201.685 69.8476 201.734C69.9563 201.784 70.0743 201.809 70.1938 201.809C70.3133 201.809 70.4314 201.784 70.5401 201.734C70.6488 201.685 70.7455 201.612 70.8238 201.522C70.9983 201.337 71.095 201.092 71.0938 200.838Z" fill="white"/>
<path d="M75.8348 199.8L74.8628 202.11V202.146C74.8628 202.146 74.8628 202.146 74.8268 202.146H74.6588C74.6531 202.149 74.647 202.15 74.6408 202.15C74.6345 202.15 74.6284 202.149 74.6228 202.146C74.6202 202.134 74.6202 202.122 74.6228 202.11L74.1008 200.88L73.5848 202.11V202.146C73.5848 202.146 73.5848 202.146 73.5488 202.146H73.3748C73.3748 202.146 73.3748 202.146 73.3388 202.146C73.3388 202.146 73.3388 202.146 73.3388 202.11L72.0548 199.8C72.0333 199.747 72.0339 199.687 72.0564 199.634C72.0789 199.581 72.1215 199.539 72.1748 199.518C72.2281 199.496 72.2877 199.497 72.3406 199.52C72.3935 199.542 72.4353 199.585 72.4568 199.638L73.2308 201.468L73.7408 200.268C73.7579 200.228 73.7864 200.194 73.8226 200.17C73.8589 200.146 73.9013 200.134 73.9448 200.134C73.9882 200.134 74.0307 200.146 74.0669 200.17C74.1032 200.194 74.1316 200.228 74.1488 200.268L74.6648 201.468L75.4328 199.638C75.4439 199.611 75.4602 199.587 75.4808 199.567C75.5014 199.547 75.5258 199.531 75.5527 199.52C75.5795 199.509 75.6082 199.504 75.6371 199.505C75.666 199.506 75.6944 199.512 75.7208 199.524C75.7465 199.534 75.7698 199.55 75.7895 199.57C75.8092 199.589 75.8248 199.613 75.8354 199.638C75.846 199.664 75.8514 199.691 75.8513 199.719C75.8512 199.747 75.8456 199.774 75.8348 199.8Z" fill="white"/>
<path d="M234.037 92.9999L228.085 88.9642L239.762 71.7441L247.289 76.8455L234.037 92.9999Z" fill="#FF8C56"/>
<path d="M247.289 76.8455L242.233 83.0126L234.025 92.9999L228.085 88.9642L239.762 71.7441L247.289 76.8455Z" fill="#FF8C56"/>
<path opacity="0.1" d="M247.289 76.8455L242.233 83.0126L235.306 78.3193L239.762 71.7441L247.289 76.8455Z" fill="black"/>
<path d="M246.274 79.8662L236.91 73.5167L241.733 66.4046L251.097 72.754L246.274 79.8662Z" fill="#FF8C56"/>
<path d="M259.115 74.4081L251.349 70.2023L259.149 58.6958L265.939 64.3527L259.115 74.4081Z" fill="#FF8C56"/>
<path d="M256.961 53.878L245.443 70.86L232.247 64.0467L196.81 55.2497L224.459 14.4725L245.749 44.1399L256.961 53.878Z" fill="#FF8C56"/>
<path d="M196.08 54.9025C192.442 52.4358 195.714 41.2616 203.389 29.9441C211.063 18.6267 220.233 11.4517 223.87 13.9183C227.508 16.385 224.236 27.5592 216.562 38.8767C208.888 50.1941 199.718 57.3691 196.08 54.9025Z" fill="#FF8C56"/>
<path opacity="0.2" d="M215.266 37.4854C208.464 47.5295 200.529 54.0366 197.536 52.0187C194.543 50.0008 197.661 40.2175 204.474 30.1734C211.287 20.1293 219.211 13.6222 222.204 15.6401C225.197 17.658 222.079 27.4413 215.266 37.4854Z" fill="black"/>
<path d="M214.382 36.8958C213.475 38.2335 212.545 39.5032 211.616 40.7049C210.686 40.7932 209.75 40.6151 208.918 40.1915C208.086 39.7678 207.391 39.1161 206.916 38.3124C206.44 37.5087 206.203 36.5863 206.233 35.653C206.262 34.7196 206.556 33.8138 207.081 33.0414L208.385 31.1143C209.116 30.0425 210.241 29.3029 211.515 29.0566C212.789 28.8103 214.108 29.0772 215.186 29.7992C216.103 30.4308 216.784 31.3475 217.125 32.4066C216.343 33.8803 215.402 35.3881 214.382 36.8958Z" fill="#FF8C56"/>
<path d="M251.382 76.2674L236.373 68.1392L251.461 45.8857L264.566 56.8254L251.382 76.2674Z" fill="#FF8C56"/>
<path opacity="0.2" d="M251.382 76.2674L236.373 68.1392L251.461 45.8857L264.566 56.8254L251.382 76.2674Z" fill="black"/>
<path opacity="0.2" d="M224.471 18.5876C224.613 20.4439 224.417 22.3108 223.892 24.0971C223.408 25.8946 222.779 27.65 222.011 29.3459C221.659 30.2074 221.228 31.0237 220.82 31.8626C220.412 32.7015 219.947 33.5063 219.482 34.3112C219.018 35.1161 218.542 35.9097 218.043 36.6919C217.544 37.4741 217.045 38.2563 216.524 39.0272C214.445 42.1083 212.093 44.9957 209.495 47.6542C208.181 48.9694 206.754 50.168 205.233 51.2365C203.728 52.3434 202.004 53.1164 200.177 53.5038C201.96 53.0278 203.627 52.1905 205.074 51.0438C206.554 49.9417 207.934 48.7127 209.2 47.3708C211.738 44.6947 214.041 41.8045 216.082 38.7324C218.199 35.711 220.061 32.5181 221.648 29.1872C222.445 27.5101 223.112 25.7743 223.643 23.9951C224.23 22.2541 224.51 20.4244 224.471 18.5876Z" fill="black"/>
<path d="M210.04 7.46655C210.641 8.60019 211.174 9.73384 211.706 10.9468C212.239 12.1598 212.727 13.2935 213.214 14.4725C213.702 15.6514 214.178 16.8531 214.608 18.0661L215.255 19.8686C215.459 20.4808 215.674 21.0816 215.855 21.7051C215.549 21.1383 215.277 20.5715 214.994 19.982L214.189 18.2248C213.656 17.0912 213.169 15.8782 212.681 14.6992C212.194 13.5202 211.729 12.3185 211.287 11.1169C210.845 9.91522 210.414 8.70222 210.04 7.46655Z" fill="#263238"/>
<path d="M201.23 44.6613C199.802 44.4119 198.385 44.1172 196.979 43.7998C195.574 43.4824 194.157 43.1423 192.762 42.8022C191.368 42.4621 189.962 42.0653 188.579 41.6685L186.493 41.0564C185.813 40.8296 185.11 40.6256 184.43 40.3875C185.144 40.5009 185.858 40.6482 186.561 40.7843L188.681 41.2377C190.098 41.5438 191.504 41.8953 192.898 42.2467C194.293 42.5981 195.698 42.9722 197.081 43.3803C198.464 43.7884 199.836 44.1399 201.23 44.6613Z" fill="#263238"/>
<path d="M178.999 29.1305C181.006 29.8447 182.99 30.6156 184.962 31.3978C186.935 32.18 188.896 32.9962 190.857 33.8124C192.818 34.6287 194.768 35.4789 196.707 36.3518L199.609 37.6668C200.561 38.1203 201.536 38.5624 202.488 39.0385C201.479 38.6871 200.493 38.2903 199.495 37.9049L196.525 36.7712C194.553 36.0004 192.592 35.1841 190.63 34.3566C188.669 33.529 186.719 32.7015 184.792 31.8172C182.865 30.933 180.915 30.0601 178.999 29.1305Z" fill="#263238"/>
<path d="M199.042 3C200.232 4.81383 201.309 6.65033 202.443 8.48683C203.577 10.3233 204.654 12.1938 205.731 14.053C206.808 15.9122 207.873 17.794 208.905 19.7212L210.447 22.5553C210.945 23.5189 211.456 24.4599 211.932 25.4348C211.342 24.5279 210.798 23.6096 210.197 22.7027L208.519 19.948C207.386 18.1001 206.309 16.241 205.232 14.3818C204.155 12.5226 203.089 10.6408 202.058 8.71356C201.026 6.78637 200.017 4.98388 199.042 3Z" fill="#263238"/>
<path d="M206.639 31.9079C204.53 30.5929 202.444 29.2212 200.381 27.8381C198.318 26.4551 196.266 25.038 194.214 23.6436C192.162 22.2492 190.133 20.7868 188.115 19.3358L185.099 17.1478C184.102 16.3996 183.093 15.6628 182.107 14.8806C183.172 15.5381 184.204 16.2183 185.258 16.8871L188.364 18.9503C190.439 20.322 192.479 21.7391 194.543 23.1448C196.606 24.5505 198.612 25.9903 200.63 27.4527C202.648 28.9151 204.643 30.3888 206.639 31.9079Z" fill="#263238"/>
</g>
<defs>
<clipPath id="clip0_2381_6281">
<rect width="300" height="300" fill="white"/>
</clipPath>
</defs>
</svg>
