<svg width="321" height="254" viewBox="0 0 321 254" fill="none" xmlns="http://www.w3.org/2000/svg">
<path d="M160.44 131.083H90.0576L92.2571 86.6031H133.733L160.44 131.083ZM96.1533 125.314H150.26L130.49 92.3469H97.8123L96.1533 125.314Z" fill="#407BFF"/>
<path opacity="0.5" d="M160.44 131.083H90.0576L92.2571 86.6031H133.733L160.44 131.083ZM96.1533 125.314H150.26L130.49 92.3469H97.8123L96.1533 125.314Z" fill="black"/>
<path d="M156.607 131.083H86.2246L88.4367 86.6031H129.912L156.607 131.083ZM92.3077 125.314H146.427L126.644 92.3469H93.9667L92.3077 125.314Z" fill="#407BFF"/>
<path opacity="0.3" d="M156.607 131.083H86.2246L88.4367 86.6031H129.912L156.607 131.083ZM92.3077 125.314H146.427L126.644 92.3469H93.9667L92.3077 125.314Z" fill="black"/>
<path d="M70.8912 152.21H80.5186V132.189H70.8912V152.21Z" fill="#A6A6A6"/>
<path d="M67.0069 200.372H84.4141V152.222H67.0069V200.372Z" fill="#C7C7C7"/>
<path d="M84.4142 176.58H92.0684V173.35H84.4142V176.58Z" fill="#A6A6A6"/>
<path d="M92.0693 178.289H107.629V171.653H92.0693V178.289Z" fill="#C7C7C7"/>
<path d="M64.7579 220.607H87.1924V200.372H64.7579V220.607Z" fill="#C7C7C7"/>
<path d="M73.4422 238.215H78.1176L80.7319 209.22H70.8154L73.4422 238.215Z" fill="#A6A6A6"/>
<path d="M137.114 230.561L141.274 227.369L87.2051 206.216V220.607L137.114 230.561Z" fill="#A6A6A6"/>
<path d="M14.8623 230.561L10.7021 227.369L64.7586 206.216V220.607L14.8623 230.561Z" fill="#A6A6A6"/>
<path d="M67.0069 200.359H84.4141V195.056H67.0069V200.359Z" fill="#A6A6A6"/>
<path d="M137.29 248.961C143.564 248.961 148.651 243.874 148.651 237.599C148.651 231.324 143.564 226.238 137.29 226.238C131.015 226.238 125.928 231.324 125.928 237.599C125.928 243.874 131.015 248.961 137.29 248.961Z" fill="#263238"/>
<path d="M131.947 237.599C131.945 238.659 132.257 239.696 132.844 240.579C133.432 241.461 134.268 242.149 135.247 242.556C136.226 242.963 137.303 243.07 138.343 242.864C139.383 242.658 140.338 242.147 141.087 241.398C141.837 240.648 142.347 239.693 142.553 238.653C142.759 237.614 142.652 236.536 142.246 235.557C141.839 234.578 141.151 233.742 140.268 233.155C139.386 232.568 138.349 232.255 137.289 232.258C135.872 232.258 134.514 232.821 133.512 233.822C132.51 234.824 131.947 236.183 131.947 237.599Z" fill="white"/>
<path d="M14.6235 248.961C20.8985 248.961 25.9853 243.874 25.9853 237.599C25.9853 231.324 20.8985 226.238 14.6235 226.238C8.34857 226.238 3.26172 231.324 3.26172 237.599C3.26172 243.874 8.34857 248.961 14.6235 248.961Z" fill="#263238"/>
<path d="M9.25587 237.599C9.25339 238.659 9.56529 239.695 10.1521 240.577C10.7389 241.46 11.5742 242.148 12.5523 242.555C13.5305 242.962 14.6074 243.07 15.6468 242.865C16.6862 242.66 17.6414 242.151 18.3915 241.402C19.1415 240.654 19.6527 239.7 19.8603 238.661C20.0679 237.622 19.9626 236.545 19.5577 235.566C19.1529 234.587 18.4666 233.75 17.5859 233.161C16.7051 232.572 15.6695 232.258 14.61 232.258C13.9075 232.256 13.2115 232.393 12.562 232.661C11.9125 232.928 11.3222 233.322 10.8248 233.818C10.3275 234.314 9.93289 234.903 9.66367 235.552C9.39445 236.201 9.25587 236.897 9.25587 237.599Z" fill="white"/>
<path d="M72.3503 253.385H79.4766V234.684H72.3503V253.385Z" fill="#263238"/>
<path d="M4.22852 132.201H161.295V120.261H102.5L82.7304 0.686035H10.2236L4.22852 132.201Z" fill="#407BFF"/>
<path opacity="0.1" d="M102.5 120.261H14.9365L20.1649 0.686035H82.7302L102.5 120.261Z" fill="black"/>
<path opacity="0.3" d="M161.294 120.261H69.7969V132.201H161.294V120.261Z" fill="white"/>
<path d="M76.3828 131.083H6L8.19946 86.6031H49.675L76.3828 131.083ZM12.0956 125.314H66.2024L46.4198 92.3469H13.7421L12.0956 125.314Z" fill="#407BFF"/>
<path opacity="0.5" d="M76.3828 131.083H6L8.19946 86.6031H49.675L76.3828 131.083ZM12.0956 125.314H66.2024L46.4198 92.3469H13.7421L12.0956 125.314Z" fill="black"/>
<path d="M72.539 131.083H2.15625L4.35571 86.6031H45.8313L72.539 131.083ZM8.25189 125.314H62.3586L42.5886 92.3469H9.91092L8.25189 125.314Z" fill="#407BFF"/>
<path opacity="0.3" d="M72.539 131.083H2.15625L4.35571 86.6031H45.8313L72.539 131.083ZM8.25189 125.314H62.3586L42.5886 92.3469H9.91092L8.25189 125.314Z" fill="black"/>
<path d="M95.4919 31.4378L0.0351562 49.7162L6.36512 82.7736L101.822 64.4952L95.4919 31.4378Z" fill="#455A64"/>
<path d="M20.6677 69.0453L20.5169 68.9825C20.4738 68.9555 20.4356 68.9215 20.4038 68.8819C20.3718 68.8312 20.3289 68.7882 20.2781 68.7562L13.6294 58.7015C13.5511 58.589 13.4966 58.4616 13.4693 58.3272C13.442 58.1928 13.4425 58.0542 13.4708 57.92C13.499 57.7858 13.5545 57.6588 13.6336 57.5468C13.7128 57.4348 13.814 57.3402 13.9311 57.2688C14.044 57.1933 14.1708 57.1409 14.304 57.1145C14.4373 57.0882 14.5744 57.0885 14.7076 57.1153C14.8408 57.1422 14.9673 57.1951 15.0799 57.2711C15.1926 57.347 15.2891 57.4445 15.3639 57.5578L20.6552 65.4885L22.6284 56.1628C22.7025 55.9076 22.8701 55.6897 23.0977 55.5526C23.3254 55.4156 23.5964 55.3694 23.8566 55.4234C24.1168 55.4773 24.3471 55.6274 24.5015 55.8436C24.6559 56.0599 24.7231 56.3265 24.6896 56.5901L22.1759 68.354C22.1853 68.4081 22.1853 68.4634 22.1759 68.5174C22.1759 68.5174 22.1131 68.6054 22.1005 68.6431C22.088 68.6808 22.1005 68.6431 22.1005 68.706C22.0743 68.746 22.0448 68.7838 22.0125 68.8191C22.0125 68.8191 21.9371 68.9196 21.8869 68.9448L21.7486 69.0076H21.5601C21.4979 69.0205 21.4337 69.0205 21.3716 69.0076H21.1328L20.9442 68.9322L20.6677 69.0453Z" fill="white"/>
<path d="M33.9785 63.5026L29.4539 64.3698L29.0015 66.9714C28.959 67.1788 28.8566 67.3692 28.7069 67.5189C28.5572 67.6686 28.3668 67.771 28.1594 67.8135C28.0385 67.8312 27.9158 67.8312 27.7949 67.8135C27.5134 67.7616 27.264 67.6001 27.1014 67.3645C26.9388 67.1288 26.8763 66.8383 26.9277 66.5567L28.9386 54.7927C28.9812 54.5812 29.0869 54.3875 29.2417 54.2372C29.3965 54.0869 29.5932 53.987 29.8059 53.9506C30.0157 53.903 30.2352 53.9222 30.4335 54.0056C30.6319 54.089 30.7991 54.2324 30.9119 54.4157L37.196 64.596C37.3413 64.8385 37.3858 65.1282 37.32 65.403C37.2542 65.6779 37.0834 65.9161 36.8441 66.0665C36.737 66.1202 36.6227 66.1583 36.5048 66.1796C36.2986 66.2235 36.084 66.2024 35.8904 66.1191C35.6967 66.0358 35.5338 65.8945 35.4239 65.7146L33.9785 63.5026ZM32.8223 61.6047L30.5474 57.8342L29.8059 62.1326L32.8223 61.6047Z" fill="white"/>
<path d="M37.3464 59.0912C37.0411 57.2919 37.453 55.4446 38.4939 53.9456C39.5347 52.4466 41.1216 51.4151 42.9142 51.0726C44.4665 50.7626 46.0779 50.9839 47.4891 51.701C47.7257 51.843 47.8998 52.0692 47.9766 52.3342C48.0534 52.5993 48.0272 52.8836 47.9031 53.13C47.7791 53.3765 47.5664 53.567 47.3078 53.6633C47.0492 53.7595 46.7638 53.7545 46.5087 53.6491C45.5319 53.1245 44.4005 52.9642 43.3164 53.1966C42.0675 53.4418 40.9581 54.1514 40.212 55.1824C39.866 55.6899 39.6239 56.2608 39.4998 56.8624C39.3756 57.4639 39.3719 58.084 39.4887 58.687C39.6056 59.29 39.8407 59.8638 40.1806 60.3754C40.5205 60.887 40.9583 61.3262 41.4688 61.6677C42.5427 62.3523 43.8363 62.6038 45.0885 62.3715C46.1817 62.1782 47.173 61.6092 47.8913 60.7628C48.0947 60.5672 48.362 60.4519 48.6438 60.438C48.9256 60.4242 49.203 60.5127 49.4246 60.6874C49.6137 60.8878 49.7231 61.1503 49.7324 61.4257C49.7417 61.7011 49.6501 61.9703 49.4749 62.183C48.424 63.3755 47.0033 64.181 45.4404 64.4704C43.6559 64.8093 41.8097 64.436 40.2969 63.4306C38.7842 62.4253 37.7251 60.8676 37.3464 59.0912Z" fill="white"/>
<path d="M59.3798 58.6386L54.8426 59.5058L54.3902 62.1075C54.3508 62.3163 54.2494 62.5083 54.0992 62.6586C53.9489 62.8088 53.7569 62.9102 53.5481 62.9495C53.4273 62.9684 53.3043 62.9684 53.1836 62.9495C52.9021 62.8976 52.6526 62.7361 52.4901 62.5005C52.3275 62.2648 52.265 61.9743 52.3164 61.6927L54.3273 49.9287C54.3699 49.7172 54.4756 49.5236 54.6304 49.3733C54.7852 49.2229 54.9818 49.123 55.1945 49.0867C55.4062 49.04 55.627 49.0596 55.8271 49.1428C56.0273 49.226 56.1969 49.3687 56.3131 49.5517L62.5344 59.7446C62.6747 59.9874 62.715 60.2752 62.647 60.5473C62.579 60.8193 62.408 61.0543 62.17 61.2025C62.0635 61.2606 61.9492 61.3029 61.8306 61.3282C61.6365 61.3703 61.4342 61.3546 61.2489 61.2832C61.0635 61.2117 60.9031 61.0876 60.7874 60.926L59.3798 58.6386ZM58.2235 56.7408L55.9361 52.9703L55.1945 57.2686L58.2235 56.7408Z" fill="white"/>
<path d="M67.2085 59.2671C67.2379 59.4033 67.2401 59.544 67.2149 59.681C67.1898 59.8181 67.1377 59.9488 67.0618 60.0657C66.9858 60.1825 66.8875 60.2832 66.7724 60.3618C66.6574 60.4405 66.528 60.4956 66.3915 60.5239C66.2542 60.5569 66.1116 60.5613 65.9725 60.5369C65.8334 60.5125 65.7009 60.4598 65.583 60.382C65.4652 60.3042 65.3646 60.2031 65.2874 60.0848C65.2103 59.9665 65.1583 59.8336 65.1347 59.6944L63.0609 48.8605C63.0189 48.6959 63.0188 48.5235 63.0605 48.3589C63.1022 48.1942 63.1844 48.0426 63.2997 47.9179C63.4946 47.7275 63.7562 47.6209 64.0287 47.6209C64.3011 47.6209 64.5627 47.7275 64.7576 47.9179L72.374 55.0944L70.9035 47.4152C70.878 47.2815 70.879 47.144 70.9065 47.0107C70.934 46.8774 70.9875 46.7509 71.064 46.6382C71.1404 46.5256 71.2383 46.4292 71.352 46.3544C71.4657 46.2796 71.5931 46.2279 71.7268 46.2023C71.8605 46.1767 71.9979 46.1777 72.1312 46.2052C72.2645 46.2328 72.3911 46.2863 72.5037 46.3627C72.6163 46.4392 72.7128 46.5371 72.7876 46.6508C72.8624 46.7645 72.914 46.8918 72.9396 47.0255L75.0134 57.8594C75.0445 57.9966 75.0476 58.1387 75.0223 58.2771C74.9971 58.4155 74.9442 58.5474 74.8667 58.6648C74.7892 58.7822 74.6888 58.8827 74.5714 58.9603C74.4541 59.0379 74.3223 59.091 74.1839 59.1163C74.0375 59.1405 73.8876 59.1329 73.7444 59.0938C73.6012 59.0548 73.4682 58.9853 73.3544 58.8901C73.3113 58.8631 73.2731 58.8291 73.2413 58.7895L65.7003 51.6633L67.2085 59.2671Z" fill="white"/>
<path d="M85.4071 45.4671L82.4536 46.0326L84.3514 55.9868C84.3844 56.1241 84.3888 56.2667 84.3644 56.4058C84.34 56.5448 84.2872 56.6774 84.2094 56.7953C84.1317 56.9131 84.0305 57.0137 83.9122 57.0908C83.7939 57.168 83.6611 57.22 83.5219 57.2436C83.3847 57.2747 83.2426 57.2778 83.1042 57.2525C82.9658 57.2273 82.8339 57.1744 82.7165 57.0969C82.5991 57.0194 82.4986 56.919 82.421 56.8016C82.3434 56.6843 82.2904 56.5525 82.265 56.4141L80.3547 46.46L77.4136 47.0255C77.1434 47.0661 76.8679 47.0003 76.6452 46.842C76.4224 46.6836 76.2698 46.445 76.2193 46.1764C76.1689 45.9078 76.2245 45.6301 76.3746 45.4017C76.5247 45.1733 76.7575 45.012 77.024 44.9517L84.9798 43.431C85.117 43.3999 85.2591 43.3968 85.3975 43.422C85.5358 43.4472 85.6677 43.5002 85.7851 43.5777C85.9026 43.6552 86.003 43.7556 86.0806 43.873C86.1582 43.9903 86.2113 44.1221 86.2366 44.2605C86.278 44.5294 86.2152 44.804 86.0611 45.0282C85.9069 45.2524 85.673 45.4094 85.4071 45.4671Z" fill="white"/>
<path d="M95.4996 31.4407C90.1036 29.2203 84.7705 26.8826 79.5001 24.4276C74.2089 22.0019 68.9679 19.4757 63.7394 16.8866C58.511 14.2975 53.3203 11.7084 48.1673 9.00622C43.0142 6.30402 37.8863 3.53897 32.8213 0.648254C38.2173 2.87704 43.5505 5.21476 48.8208 7.66139C54.1121 10.0871 59.3531 12.6133 64.5815 15.2024C69.8099 17.7915 75.0007 20.3806 80.1537 23.0828C85.3067 25.785 90.4346 28.55 95.4996 31.4407Z" fill="#263238"/>
<path d="M8.86596 30.3976C7.72224 33.791 6.35228 37.0588 4.86921 40.2889C3.41916 43.5097 1.80839 46.6558 0.0429688 49.7151C1.20129 46.3563 2.53109 43.059 4.02713 39.8364C5.48506 36.6189 7.06868 33.4391 8.86596 30.3976Z" fill="#263238"/>
<path d="M174.494 47.567L162.855 75.2928C162.798 75.4468 162.718 75.591 162.616 75.7201C162.552 75.8242 162.471 75.9175 162.378 75.9966C162.378 76.0971 162.378 76.0971 162.378 76.1474C162.255 76.2057 162.144 76.2868 162.051 76.3862C161.926 76.5025 161.781 76.5961 161.624 76.6627C161.494 76.6786 161.367 76.7124 161.247 76.7633H161.146C160.992 76.7841 160.835 76.7841 160.681 76.7633C160.539 76.7824 160.395 76.7824 160.254 76.7633H160.103C159.999 76.7137 159.889 76.6799 159.776 76.6627C159.776 76.6627 159.776 76.6627 159.675 76.6627C159.513 76.6055 159.367 76.5107 159.248 76.3862C159.146 76.298 159.037 76.2181 158.921 76.1474C158.876 76.1057 158.842 76.0541 158.821 75.9966C158.821 75.9086 158.683 75.8081 158.632 75.7201C158.582 75.6321 158.544 75.7201 158.544 75.7201C158.449 75.5942 158.385 75.4479 158.356 75.2928L152.072 60.5501L145.787 75.2928C145.737 75.4404 145.674 75.5833 145.599 75.7201L145.31 75.9966C145.31 76.0971 145.31 76.0971 145.31 76.1474C145.199 76.2074 145.101 76.2885 145.021 76.3862H144.933C144.782 76.4742 144.644 76.6125 144.556 76.6627C144.423 76.6586 144.292 76.6936 144.179 76.7633H144.028C143.886 76.7824 143.742 76.7824 143.601 76.7633C143.442 76.7814 143.282 76.7814 143.123 76.7633H142.985C142.881 76.7137 142.771 76.6799 142.658 76.6627C142.658 76.6627 142.658 76.6627 142.557 76.6627C142.267 76.6474 141.985 76.5564 141.74 76.3988C141.602 76.2982 141.552 76.1977 141.414 76.16C141.369 76.1183 141.334 76.0666 141.313 76.0092C141.225 75.9212 141.175 75.8206 141.074 75.7327C140.986 75.6321 140.936 75.4436 140.836 75.3053L129.147 47.5796C128.926 46.9517 128.955 46.2632 129.227 45.6556C129.498 45.0481 129.992 44.5678 130.607 44.3134C131.222 44.0591 131.911 44.05 132.533 44.2882C133.154 44.5263 133.661 44.9936 133.948 45.5938L143.211 67.6009L149.344 53.0091C149.547 52.5141 149.897 52.0933 150.346 51.8034C150.796 51.5135 151.323 51.3684 151.858 51.3878C152.39 51.3821 152.911 51.5328 153.358 51.821C153.805 52.1092 154.157 52.5224 154.372 53.0091L160.43 67.6009L169.692 45.5938C169.972 44.9525 170.493 44.4474 171.142 44.1884C171.792 43.9295 172.518 43.9377 173.161 44.2112C173.473 44.3398 173.755 44.5296 173.991 44.7694C174.228 45.0092 174.414 45.294 174.538 45.607C174.662 45.92 174.722 46.2548 174.715 46.5915C174.707 46.9282 174.632 47.2599 174.494 47.567Z" fill="#263238"/>
<path d="M177.774 65.0873C177.744 61.9747 178.947 58.9767 181.121 56.7487C183.295 54.5207 186.262 53.244 189.375 53.1976C192.348 53.1765 195.211 54.319 197.353 56.381C199.495 58.443 200.745 61.261 200.837 64.2326V64.4714C200.861 64.6128 200.861 64.7574 200.837 64.8988C200.738 65.4755 200.423 65.9928 199.956 66.3454C199.489 66.698 198.905 66.8594 198.323 66.7966H183.216C183.445 67.9775 184.007 69.0681 184.837 69.9387C186.063 71.1597 187.677 71.9152 189.4 72.0753C191.133 72.2424 192.873 71.8218 194.339 70.8813C194.814 70.4254 195.44 70.1595 196.098 70.134C196.755 70.1086 197.4 70.3252 197.908 70.743C198.113 70.9452 198.275 71.186 198.386 71.4513C198.497 71.7167 198.554 72.0014 198.554 72.2889C198.554 72.5765 198.497 72.8612 198.386 73.1265C198.275 73.3919 198.113 73.6327 197.908 73.8349C195.59 75.9503 192.536 77.0736 189.4 76.9644C186.286 76.9213 183.316 75.6482 181.138 73.4229C178.96 71.1977 177.75 68.201 177.774 65.0873ZM182.952 62.7496H196.413C195.867 61.3101 194.908 60.0644 193.655 59.1697C192.403 58.275 190.913 57.7713 189.375 57.7222C187.907 57.7264 186.481 58.2154 185.32 59.1132C184.158 60.0109 183.326 61.2672 182.952 62.6867V62.7496Z" fill="#263238"/>
<path d="M242.752 65.0873V74.413C242.752 75.0797 242.488 75.719 242.016 76.1904C241.545 76.6618 240.905 76.9267 240.239 76.9267C239.651 76.9208 239.083 76.7165 238.627 76.3468C238.171 75.9771 237.853 75.4639 237.725 74.8906C235.894 76.2084 233.697 76.9204 231.441 76.9267C229.928 76.9318 228.431 76.6267 227.041 76.03C225.651 75.4334 224.398 74.5579 223.359 73.4578C221.253 71.1824 220.098 68.1875 220.129 65.0873C220.082 61.9879 221.24 58.9911 223.359 56.7293C224.385 55.6062 225.633 54.7088 227.025 54.0942C228.416 53.4797 229.92 53.1615 231.441 53.1599C233.702 53.1833 235.899 53.9128 237.725 55.2463C237.843 54.6637 238.156 54.139 238.614 53.7594C239.071 53.3798 239.644 53.1682 240.239 53.1599C240.905 53.1599 241.545 53.4247 242.016 53.8961C242.488 54.3676 242.752 55.0069 242.752 55.6736V65.0873ZM237.725 65.0873C237.767 63.2795 237.105 61.5262 235.877 60.1982C235.32 59.5786 234.638 59.0845 233.875 58.7487C233.112 58.4128 232.287 58.2429 231.453 58.2501C230.619 58.2338 229.791 58.3996 229.027 58.7361C228.262 59.0725 227.581 59.5715 227.029 60.1982C225.823 61.5354 225.179 63.2869 225.232 65.0873C225.192 66.8893 225.834 68.6399 227.029 69.9889C227.598 70.5876 228.285 71.0619 229.047 71.3821C229.808 71.7022 230.628 71.8612 231.453 71.8491C232.278 71.853 233.095 71.6903 233.855 71.3707C234.616 71.051 235.303 70.581 235.877 69.9889C237.089 68.6469 237.745 66.8948 237.712 65.0873H237.725Z" fill="#263238"/>
<path d="M266.72 55.6484C266.72 56.3151 266.456 56.9545 265.984 57.4259C265.513 57.8973 264.873 58.1621 264.207 58.1621C263.181 58.1333 262.175 58.4523 261.354 59.067C260.467 59.6559 259.72 60.4325 259.167 61.3419C258.316 62.5662 257.659 63.9142 257.219 65.3386V74.3753C257.199 75.0531 256.914 75.6962 256.425 76.1663C255.936 76.6363 255.283 76.8958 254.604 76.8889C253.938 76.8889 253.298 76.6241 252.827 76.1527C252.356 75.6813 252.091 75.0419 252.091 74.3753V55.6484C252.091 54.9818 252.356 54.3424 252.827 53.871C253.298 53.3996 253.938 53.1348 254.604 53.1348C254.943 53.1212 255.281 53.1762 255.597 53.2965C255.914 53.4167 256.203 53.5997 256.447 53.8345C256.691 54.0693 256.886 54.351 257.018 54.6627C257.151 54.9744 257.219 55.3097 257.219 55.6484V55.9878C257.516 55.6315 257.853 55.3109 258.224 55.0326C259.98 53.815 262.07 53.1697 264.207 53.185C264.865 53.1849 265.497 53.4428 265.967 53.9034C266.437 54.364 266.707 54.9905 266.72 55.6484Z" fill="#263238"/>
<path d="M268.907 65.0872C268.87 61.9726 270.071 58.9708 272.247 56.7414C274.422 54.512 277.393 53.2373 280.508 53.1975C283.484 53.1603 286.355 54.2979 288.499 56.3636C290.642 58.4293 291.885 61.2567 291.957 64.2326V64.4714C291.982 64.6127 291.982 64.7573 291.957 64.8987C291.861 65.4768 291.547 65.996 291.079 66.3491C290.612 66.7023 290.026 66.8624 289.444 66.7965H274.362C274.587 67.9761 275.145 69.0664 275.97 69.9386C277.205 71.1553 278.82 71.9099 280.545 72.0752C282.279 72.2403 284.018 71.82 285.485 70.8812C285.96 70.4253 286.585 70.1595 287.243 70.134C287.901 70.1085 288.545 70.3252 289.054 70.743C289.259 70.9452 289.421 71.1859 289.532 71.4513C289.642 71.7166 289.699 72.0013 289.699 72.2889C289.699 72.5764 289.642 72.8611 289.532 73.1265C289.421 73.3918 289.259 73.6326 289.054 73.8348C286.734 75.9467 283.681 77.0695 280.545 76.9643C277.429 76.9278 274.453 75.6572 272.272 73.4308C270.09 71.2045 268.88 68.2041 268.907 65.0872ZM274.085 62.7495H287.533C286.99 61.311 286.033 60.0658 284.782 59.171C283.532 58.2762 282.044 57.7721 280.508 57.7222C279.039 57.7242 277.613 58.2124 276.451 59.1105C275.289 60.0086 274.457 61.2661 274.085 62.6866V62.7495Z" fill="#263238"/>
<path d="M175.55 114.242C175.549 114.589 175.478 114.932 175.343 115.252C175.208 115.572 175.011 115.862 174.763 116.105C174.515 116.348 174.222 116.539 173.9 116.668C173.577 116.797 173.233 116.861 172.886 116.856C172.315 116.839 171.764 116.641 171.312 116.291C170.86 115.941 170.531 115.457 170.372 114.908C170.317 114.69 170.287 114.467 170.284 114.242V86.1895C170.284 85.4895 170.562 84.8182 171.057 84.3232C171.552 83.8282 172.224 83.5502 172.924 83.5502C173.624 83.5502 174.295 83.8282 174.79 84.3232C175.285 84.8182 175.563 85.4895 175.563 86.1895V94.4595C177.102 93.5977 178.827 93.1232 180.59 93.077C183.346 93.087 185.985 94.1895 187.929 96.1427C189.873 98.096 190.962 100.74 190.959 103.496V114.242C190.959 114.935 190.684 115.6 190.193 116.091C189.703 116.581 189.038 116.856 188.345 116.856C187.652 116.856 186.987 116.581 186.496 116.091C186.006 115.6 185.731 114.935 185.731 114.242V103.496C185.765 102.804 185.658 102.112 185.417 101.462C185.176 100.812 184.805 100.218 184.327 99.7163C183.849 99.2143 183.275 98.8145 182.638 98.5413C182.001 98.2682 181.315 98.1273 180.622 98.1273C179.929 98.1273 179.243 98.2682 178.606 98.5413C177.969 98.8145 177.394 99.2143 176.916 99.7163C176.438 100.218 176.067 100.812 175.826 101.462C175.585 102.112 175.478 102.804 175.513 103.496L175.55 114.242Z" fill="#F48652"/>
<path d="M204.583 87.132C204.597 87.4705 204.542 87.8082 204.421 88.1249C204.301 88.4416 204.118 88.7307 203.883 88.9749C203.649 89.219 203.367 89.4132 203.055 89.5458C202.743 89.6783 202.408 89.7465 202.069 89.7463C201.392 89.7266 200.748 89.4417 200.278 88.9528C199.808 88.464 199.549 87.8102 199.556 87.132V86.1392C199.556 85.4725 199.821 84.8331 200.292 84.3617C200.763 83.8903 201.403 83.6255 202.069 83.6255C202.736 83.6255 203.375 83.8903 203.847 84.3617C204.318 84.8331 204.583 85.4725 204.583 86.1392V87.132ZM204.583 95.7414V114.28C204.591 114.615 204.533 114.949 204.41 115.261C204.287 115.573 204.104 115.858 203.869 116.098C203.635 116.338 203.355 116.529 203.046 116.659C202.737 116.789 202.405 116.856 202.069 116.856C201.734 116.856 201.402 116.789 201.093 116.659C200.784 116.529 200.504 116.338 200.269 116.098C200.035 115.858 199.851 115.573 199.729 115.261C199.606 114.949 199.547 114.615 199.556 114.28V95.7414C199.542 95.4029 199.597 95.0652 199.717 94.7485C199.838 94.4318 200.021 94.1428 200.255 93.8986C200.49 93.6544 200.772 93.4602 201.084 93.3276C201.395 93.1951 201.731 93.1269 202.069 93.1272C202.408 93.1269 202.743 93.1951 203.055 93.3276C203.367 93.4602 203.649 93.6544 203.883 93.8986C204.118 94.1428 204.301 94.4318 204.421 94.7485C204.542 95.0652 204.597 95.4029 204.583 95.7414Z" fill="#F48652"/>
<path d="M227.407 95.6032C227.407 96.2699 227.142 96.9092 226.671 97.3806C226.199 97.852 225.56 98.1169 224.893 98.1169C223.867 98.0881 222.862 98.407 222.04 99.0218C221.147 99.6087 220.399 100.391 219.853 101.309C219.001 102.53 218.34 103.873 217.893 105.293V114.33C217.873 115.008 217.588 115.651 217.099 116.121C216.61 116.591 215.956 116.851 215.278 116.844C214.612 116.844 213.972 116.579 213.501 116.107C213.029 115.636 212.765 114.997 212.765 114.33V95.6032C212.765 94.9365 213.029 94.2972 213.501 93.8258C213.972 93.3544 214.612 93.0895 215.278 93.0895C215.617 93.076 215.954 93.131 216.271 93.2512C216.588 93.3715 216.877 93.5545 217.121 93.7893C217.365 94.024 217.559 94.3058 217.692 94.6175C217.825 94.9292 217.893 95.2645 217.893 95.6032V95.93C218.193 95.5807 218.53 95.2647 218.898 94.9873C220.655 93.7605 222.75 93.1105 224.893 93.1272C225.553 93.1272 226.187 93.3868 226.657 93.8501C227.128 94.3134 227.397 94.9431 227.407 95.6032Z" fill="#F48652"/>
<path d="M238.818 87.1321C238.832 87.4759 238.775 87.8189 238.651 88.1399C238.527 88.4608 238.338 88.7529 238.096 88.998C237.855 89.243 237.566 89.4359 237.247 89.5647C236.927 89.6934 236.585 89.7552 236.241 89.7463C235.563 89.7266 234.92 89.4417 234.45 88.9529C233.98 88.464 233.721 87.8102 233.728 87.1321V86.1392C233.728 85.4725 233.992 84.8332 234.464 84.3618C234.935 83.8904 235.575 83.6255 236.241 83.6255C236.577 83.6172 236.91 83.676 237.223 83.7985C237.535 83.9211 237.819 84.1049 238.059 84.3392C238.3 84.5734 238.49 84.8534 238.621 85.1625C238.751 85.4717 238.818 85.8038 238.818 86.1392V87.1321ZM238.818 95.7414V114.28C238.826 114.62 238.766 114.959 238.639 115.276C238.513 115.592 238.323 115.88 238.082 116.121C237.841 116.362 237.554 116.551 237.237 116.678C236.921 116.804 236.582 116.865 236.241 116.856C235.906 116.856 235.574 116.789 235.265 116.659C234.955 116.529 234.675 116.338 234.441 116.098C234.207 115.858 234.023 115.573 233.901 115.261C233.778 114.949 233.719 114.615 233.728 114.28V95.7414C233.714 95.403 233.769 95.0652 233.889 94.7486C234.01 94.4319 234.193 94.1428 234.427 93.8986C234.662 93.6545 234.944 93.4603 235.256 93.3277C235.567 93.1951 235.903 93.1269 236.241 93.1272C236.585 93.1183 236.927 93.1802 237.247 93.3089C237.566 93.4376 237.855 93.6305 238.096 93.8756C238.338 94.1206 238.527 94.4127 238.651 94.7337C238.775 95.0546 238.832 95.3976 238.818 95.7414Z" fill="#F48652"/>
<path d="M266.821 102.968V114.28C266.821 114.946 266.556 115.586 266.085 116.057C265.613 116.529 264.974 116.793 264.307 116.793C263.641 116.793 263.001 116.529 262.53 116.057C262.058 115.586 261.794 114.946 261.794 114.28V102.968C261.774 101.677 261.243 100.447 260.317 99.5465C259.391 98.6464 258.146 98.1504 256.854 98.1672C256.226 98.1654 255.603 98.2888 255.023 98.5301C254.442 98.7714 253.915 99.1258 253.473 99.5726C253.031 100.019 252.682 100.55 252.447 101.133C252.212 101.716 252.095 102.34 252.103 102.968V114.28C252.114 114.445 252.08 114.61 252.003 114.757C251.878 115.333 251.561 115.849 251.104 116.221C250.648 116.593 250.078 116.8 249.489 116.806C248.823 116.806 248.183 116.541 247.712 116.07C247.24 115.598 246.976 114.959 246.976 114.292V95.5655C246.976 94.8988 247.24 94.2595 247.712 93.7881C248.183 93.3167 248.823 93.0518 249.489 93.0518C249.979 93.0455 250.46 93.1826 250.873 93.446C251.286 93.7095 251.614 94.088 251.814 94.5349C253.317 93.5765 255.06 93.0623 256.842 93.0518C259.479 93.0485 262.009 94.0902 263.88 95.9488C265.75 97.8074 266.808 100.331 266.821 102.968Z" fill="#F48652"/>
<path d="M297.387 105.105V113.903C297.377 116.926 296.171 119.823 294.033 121.961C291.895 124.099 288.998 125.305 285.975 125.315C284.223 125.304 282.498 124.873 280.947 124.058C280.645 123.912 280.374 123.707 280.152 123.455C279.929 123.203 279.76 122.909 279.653 122.59C279.547 122.272 279.505 121.935 279.531 121.6C279.557 121.264 279.649 120.938 279.804 120.639C280.102 120.031 280.628 119.564 281.268 119.341C281.908 119.117 282.61 119.155 283.222 119.445C284.058 119.889 284.991 120.118 285.937 120.111C287.402 120.109 288.82 119.601 289.954 118.674C291.087 117.747 291.866 116.456 292.158 115.021C289.972 116.518 287.316 117.169 284.686 116.855C282.055 116.54 279.628 115.281 277.856 113.312C275.691 111.071 274.495 108.069 274.525 104.954C274.528 101.812 275.717 98.786 277.856 96.483C278.896 95.3819 280.148 94.5026 281.537 93.8979C282.926 93.2931 284.422 92.9754 285.937 92.9638C288.218 92.9458 290.447 93.6448 292.309 94.9622C292.429 94.3882 292.746 93.8742 293.205 93.5093C293.664 93.1444 294.237 92.9514 294.823 92.9638C295.49 92.9638 296.129 93.2287 296.6 93.7001C297.072 94.1715 297.337 94.8108 297.337 95.4775V104.979L297.387 105.105ZM292.359 105.105C292.363 103.322 291.72 101.598 290.55 100.253C289.99 99.6069 289.297 99.0891 288.518 98.7355C287.739 98.3819 286.893 98.2009 286.038 98.2048C285.203 98.204 284.378 98.3871 283.622 98.7412C282.866 99.0953 282.198 99.6116 281.664 100.253C280.422 101.561 279.737 103.301 279.753 105.105C279.735 106.005 279.894 106.901 280.222 107.74C280.55 108.579 281.04 109.345 281.664 109.994C282.21 110.614 282.884 111.108 283.639 111.444C284.393 111.78 285.211 111.95 286.038 111.942C286.884 111.954 287.724 111.786 288.502 111.45C289.28 111.115 289.977 110.618 290.55 109.994C291.725 108.627 292.348 106.87 292.297 105.067L292.359 105.105Z" fill="#F48652"/>
<path d="M310.572 97.388V59.796C310.582 58.4412 311.124 57.1445 312.081 56.1853C313.038 55.2262 314.333 54.6813 315.688 54.6682C316.356 54.668 317.018 54.8013 317.635 55.0602C318.252 55.3191 318.81 55.6985 319.279 56.176C319.747 56.6535 320.115 57.2197 320.362 57.8412C320.608 58.4628 320.728 59.1274 320.715 59.796V97.388C320.728 98.0566 320.608 98.7211 320.362 99.3427C320.115 99.9643 319.747 100.53 319.279 101.008C318.81 101.486 318.252 101.865 317.635 102.124C317.018 102.383 316.356 102.516 315.688 102.516C315.014 102.518 314.347 102.386 313.725 102.129C313.103 101.871 312.538 101.494 312.062 101.017C311.587 100.54 311.21 99.9742 310.955 99.3513C310.699 98.7285 310.569 98.0612 310.572 97.388ZM315.688 119.822C315.015 119.824 314.35 119.693 313.728 119.436C313.107 119.18 312.542 118.803 312.067 118.328C311.592 117.853 311.215 117.288 310.958 116.667C310.702 116.045 310.571 115.379 310.572 114.707V112.847C310.582 111.492 311.124 110.196 312.081 109.236C313.038 108.277 314.333 107.732 315.688 107.719C316.356 107.719 317.018 107.852 317.635 108.111C318.252 108.37 318.81 108.749 319.279 109.227C319.747 109.705 320.115 110.271 320.362 110.892C320.608 111.514 320.728 112.178 320.715 112.847V114.707C320.727 115.375 320.605 116.038 320.358 116.658C320.11 117.278 319.742 117.843 319.274 118.319C318.806 118.795 318.248 119.173 317.632 119.432C317.016 119.69 316.355 119.823 315.688 119.822Z" fill="#F48652"/>
</svg>
