<svg width="48" height="48" viewBox="0 0 48 48" fill="none" xmlns="http://www.w3.org/2000/svg">
<mask id="mask0_1999_3543" style="mask-type:alpha" maskUnits="userSpaceOnUse" x="0" y="0" width="48" height="48">
<rect width="48" height="48" fill="#D9D9D9"/>
</mask>
<g mask="url(#mask0_1999_3543)">
<path d="M11.0188 34.6047C10.5521 35.0714 10.1688 35.7214 9.86875 36.5547C9.56875 37.3881 9.33542 38.3714 9.16875 39.5047C10.3021 39.3381 11.2854 39.0964 12.1188 38.7797C12.9521 38.4631 13.6021 38.0714 14.0688 37.6047C14.4688 37.2381 14.6688 36.7547 14.6688 36.1547C14.6688 35.5547 14.4521 35.0381 14.0188 34.6047C13.5854 34.1714 13.0688 33.9631 12.4688 33.9797C11.8688 33.9964 11.3854 34.2047 11.0188 34.6047Z" fill="#F48652"/>
<path fill-rule="evenodd" clip-rule="evenodd" d="M14.9688 25.1048L9.51875 22.8548L14.9688 17.4548C15.1354 17.2881 15.3188 17.1714 15.5188 17.1048C15.7188 17.0381 15.9188 17.0381 16.1188 17.1048L19.6688 17.7548C18.7354 18.9214 17.8771 20.1298 17.0938 21.3798C16.3104 22.6298 15.6021 23.8714 14.9688 25.1048ZM22.6188 32.1047L16.8188 26.2048C17.8521 24.2381 18.9104 22.4548 19.9938 20.8548C21.0771 19.2548 22.2354 17.8381 23.4688 16.6048C25.7021 14.3714 27.9521 12.7381 30.2188 11.7048C32.4854 10.6714 35.4688 10.0048 39.1688 9.70475C38.8688 13.3714 38.1854 16.3631 37.1188 18.6798C36.0521 20.9964 34.4188 23.2381 32.2188 25.4048C30.9854 26.6714 29.5688 27.8464 27.9688 28.9297C26.3688 30.0131 24.5854 31.0714 22.6188 32.1047ZM31.4188 33.9048L25.9688 39.3047L23.6688 34.0047C24.9688 33.3047 26.2354 32.5631 27.4688 31.7797C28.7021 30.9964 29.9021 30.1547 31.0688 29.2547L31.7688 32.8047C31.8021 32.9714 31.7938 33.1547 31.7438 33.3547C31.6938 33.5547 31.5854 33.7381 31.4188 33.9048ZM39.8688 17.8548C41.2021 14.5214 41.7688 11.0048 41.5688 7.30476C37.8688 7.10476 34.3438 7.67142 30.9938 9.00475C27.6438 10.3381 24.6854 12.2881 22.1188 14.8548C21.9521 14.9881 21.7854 15.1464 21.6188 15.3298C21.4521 15.5131 21.2854 15.6881 21.1188 15.8548L16.5188 14.9548C15.9188 14.8214 15.3521 14.8548 14.8188 15.0548C14.2854 15.2548 13.8188 15.5381 13.4188 15.9048L5.71875 23.5548L14.9688 27.5547L21.2688 33.8047L25.2188 43.1047L32.9188 35.4047C33.2854 35.0381 33.5604 34.5798 33.7438 34.0298C33.9271 33.4798 33.9688 32.9214 33.8688 32.3547L32.9188 27.7048C33.0854 27.6048 33.2688 27.4548 33.4688 27.2548L34.0188 26.7048C36.5854 24.1381 38.5354 21.1881 39.8688 17.8548ZM12.4938 31.7797C11.3104 31.7631 10.2854 32.1881 9.41875 33.0547C8.65208 33.8214 8.01875 34.9381 7.51875 36.4047C7.01875 37.8714 6.68542 39.7881 6.51875 42.1548C8.85208 41.9881 10.7521 41.6464 12.2188 41.1297C13.6854 40.6131 14.8021 39.9881 15.5688 39.2547C16.4354 38.3547 16.8604 37.3131 16.8438 36.1297C16.8271 34.9464 16.4021 33.9381 15.5688 33.1047C14.7021 32.2381 13.6771 31.7964 12.4938 31.7797ZM9.86875 36.5547C10.1688 35.7214 10.5521 35.0714 11.0188 34.6047C11.3854 34.2047 11.8688 33.9964 12.4688 33.9797C13.0688 33.9631 13.5854 34.1714 14.0188 34.6047C14.4521 35.0381 14.6688 35.5547 14.6688 36.1547C14.6688 36.7547 14.4688 37.2381 14.0688 37.6047C13.6021 38.0714 12.9521 38.4631 12.1188 38.7797C11.2854 39.0964 10.3021 39.3381 9.16875 39.5047C9.33542 38.3714 9.56875 37.3881 9.86875 36.5547Z" fill="#606060"/>
<path d="M28.6688 20.1548C28.1688 19.6548 27.9188 19.0631 27.9188 18.3798C27.9188 17.6964 28.1688 17.1048 28.6688 16.6048C29.2021 16.1048 29.8104 15.8548 30.4938 15.8548C31.1771 15.8548 31.7688 16.1048 32.2688 16.6048C32.7688 17.1048 33.0188 17.6964 33.0188 18.3798C33.0188 19.0631 32.7688 19.6548 32.2688 20.1548C31.7688 20.6548 31.1771 20.9048 30.4938 20.9048C29.8104 20.9048 29.2021 20.6548 28.6688 20.1548Z" fill="#606060"/>
</g>
</svg>
