<svg width="48" height="48" viewBox="0 0 48 48" fill="none" xmlns="http://www.w3.org/2000/svg">
<mask id="mask0_2441_5912" style="mask-type:alpha" maskUnits="userSpaceOnUse" x="0" y="0" width="48" height="48">
<rect width="48" height="48" fill="#D9D9D9"/>
</mask>
<g mask="url(#mask0_2441_5912)">
<path d="M14.35 34.8498C12.5167 34.8498 10.9583 34.1998 9.675 32.8998C8.39167 31.5998 7.75 30.0498 7.75 28.2498C7.75 26.4165 8.39167 24.8581 9.675 23.5748C10.9583 22.2915 12.5167 21.6498 14.35 21.6498C16.1833 21.6498 17.7417 22.2915 19.025 23.5748C19.4382 23.988 19.7848 24.4296 20.065 24.8998C20.655 25.89 20.95 27.0067 20.95 28.2498C20.95 30.0498 20.3083 31.5998 19.025 32.8998C17.7417 34.1998 16.1833 34.8498 14.35 34.8498ZM14.35 33.0498C15.7167 33.0498 16.8583 32.5831 17.775 31.6498C18.6917 30.7165 19.15 29.5665 19.15 28.1998C19.15 26.8665 18.6917 25.7415 17.775 24.8248C16.8583 23.9081 15.7167 23.4498 14.35 23.4498C13.0167 23.4498 11.8833 23.9081 10.95 24.8248C10.0167 25.7415 9.55 26.8831 9.55 28.2498C9.55 29.5831 10.0167 30.7165 10.95 31.6498C11.8833 32.5831 13.0167 33.0498 14.35 33.0498ZM32.45 26.6998C31.9519 26.6998 31.4686 26.6662 31 26.5991C30.482 26.5248 29.982 26.4095 29.5 26.2532C28.1713 25.8223 26.9797 25.0795 25.925 24.0248C25.445 23.5448 25.0296 23.0365 24.6788 22.4998C24.3667 22.0222 24.1058 21.5222 23.8959 20.9998C23.4653 19.9277 23.25 18.761 23.25 17.4998C23.25 14.9331 24.1417 12.7581 25.925 10.9748C27.7083 9.19147 29.8833 8.2998 32.45 8.2998C35.0167 8.2998 37.1917 9.18314 38.975 10.9498C40.7583 12.7165 41.65 14.8998 41.65 17.4998C41.65 20.0665 40.7667 22.2415 39 24.0248C37.2333 25.8081 35.05 26.6998 32.45 26.6998ZM28.75 39.7998C27.4833 39.7998 26.4167 39.3665 25.55 38.4998C24.6833 37.6331 24.25 36.5831 24.25 35.3498C24.25 34.0831 24.6833 33.0165 25.55 32.1498C26.4167 31.2831 27.4833 30.8498 28.75 30.8498C29.2968 30.8498 29.8092 30.935 30.2873 31.1054C30.8874 31.3192 31.4333 31.6674 31.925 32.1498C32.8083 33.0165 33.25 34.0831 33.25 35.3498C33.25 36.5831 32.8083 37.6331 31.925 38.4998C31.0417 39.3665 29.9833 39.7998 28.75 39.7998ZM32.45 24.8998C34.5167 24.8998 36.2667 24.1831 37.7 22.7498C39.1333 21.3165 39.85 19.5665 39.85 17.4998C39.85 15.4331 39.1333 13.6831 37.7 12.2498C36.2667 10.8165 34.5167 10.0998 32.45 10.0998C30.3833 10.0998 28.6333 10.8165 27.2 12.2498C25.7667 13.6831 25.05 15.4331 25.05 17.4998C25.05 19.5665 25.7667 21.3165 27.2 22.7498C28.6333 24.1831 30.3833 24.8998 32.45 24.8998ZM28.7 37.9998C29.4667 37.9998 30.1167 37.7415 30.65 37.2248C31.1833 36.7081 31.45 36.0831 31.45 35.3498C31.45 34.6165 31.1833 33.9831 30.65 33.4498C30.1167 32.9165 29.4833 32.6498 28.75 32.6498C27.9833 32.6498 27.3417 32.9081 26.825 33.4248C26.3083 33.9415 26.05 34.5665 26.05 35.2998C26.05 36.0331 26.3083 36.6665 26.825 37.1998C27.3417 37.7331 27.9667 37.9998 28.7 37.9998Z" fill="#606060"/>
<path d="M23.8959 20.9998L19.025 23.5748C19.4382 23.988 19.7848 24.4296 20.065 24.8998L24.6788 22.4998C24.3667 22.0222 24.1058 21.5222 23.8959 20.9998Z" fill="#606060"/>
<path d="M29.5 26.2532L28.75 30.8498C29.2968 30.8498 29.8092 30.935 30.2873 31.1054L31 26.5991C30.482 26.5248 29.982 26.4095 29.5 26.2532Z" fill="#606060"/>
<path d="M32.45 24.8998C34.5167 24.8998 36.2667 24.1831 37.7 22.7498C39.1333 21.3165 39.85 19.5665 39.85 17.4998C39.85 15.4331 39.1333 13.6831 37.7 12.2498C36.2667 10.8165 34.5167 10.0998 32.45 10.0998C30.3833 10.0998 28.6333 10.8165 27.2 12.2498C25.7667 13.6831 25.05 15.4331 25.05 17.4998C25.05 19.5665 25.7667 21.3165 27.2 22.7498C28.6333 24.1831 30.3833 24.8998 32.45 24.8998Z" fill="#F48652"/>
</g>
</svg>
